<?xml version="1.0"?>
<!DOCTYPE svg PUBLIC "-//W3C//DTD SVG 1.1//EN" "http://www.w3.org/Graphics/SVG/1.1/DTD/svg11.dtd">
<svg width="112.20000000000005mm" height="88.20000000000005mm" viewBox="0 0 112.20000000000005 88.20000000000005" xmlns="http://www.w3.org/2000/svg" version="1.1">
<g id="test002" transform="translate(1.100000,183.100000) scale(1,-1)">
<path id="test002_f0000"  d="M 110.00000000000003 126.10000000000005 L 110.00000000000003 96.00000000000006 L 110.00000000000003 96.00000000000006 L 110.00000000000003 126.10000000000005 L 110.00000000000003 126.10000000000005 Z " stroke="#191919" stroke-width="0.35 px" style="stroke-width:0.35;stroke-miterlimit:4;stroke-dasharray:none;stroke-linecap:square;fill:#cccccc;fill-opacity:1.0;fill-rule: evenodd"/>
<path id="test002_f0001"  d="M 67.90000000000003 96.00000000000006 L 110.00000000000003 96.00000000000006 L 110.00000000000003 126.10000000000005 L 107.24141875280736 126.10000000000005 A 0.213333 0.213333 0 0 0 106.843 126.207A 0.213333 0.213333 0 0 0 106.95 126.391L 106.95000000000003 135.60858124719272 A 0.213333 0.213333 0 0 0 106.843 135.793A 0.213333 0.213333 0 0 0 107.241 135.9L 110.00000000000003 135.90000000000006 L 110.00000000000006 138.20000000000013 A 1.7 1.7 0 1 0 110 139.8L 110.00000000000003 142.10000000000005 L 107.24141875280736 142.10000000000005 A 0.213333 0.213333 0 0 0 106.843 142.207A 0.213333 0.213333 0 0 0 106.95 142.391L 106.95000000000003 151.60858124719272 A 0.213333 0.213333 0 0 0 106.843 151.793A 0.213333 0.213333 0 0 0 107.241 151.9L 110.00000000000003 151.90000000000006 L 110.00000000000003 182.00000000000006 L 67.90000000000003 182.00000000000006 L 67.90000000000003 179.2414187528074 A 0.213333 0.213333 0 0 0 67.7933 178.843A 0.213333 0.213333 0 0 0 67.6086 178.95L 58.39141875280738 178.95000000000005 A 0.213333 0.213333 0 0 0 58.2067 178.843A 0.213333 0.213333 0 0 0 58.1 179.241L 58.10000000000003 182.00000000000006 L 55.79999999999995 182.00000000000009 A 1.7 1.7 0 1 0 54.2 182L 51.90000000000003 182.00000000000006 L 51.900000000000034 179.2414187528074 A 0.213333 0.213333 0 0 0 51.7933 178.843A 0.213333 0.213333 0 0 0 51.6086 178.95L 42.39141875280738 178.95000000000005 A 0.213333 0.213333 0 0 0 42.2067 178.843A 0.213333 0.213333 0 0 0 42.1 179.241L 42.10000000000003 182.00000000000006 L 2.842170943040401e-14 182.00000000000006 L 2.842170943040401e-14 151.90000000000006 L 2.7585812471926783 151.90000000000006 A 0.213333 0.213333 0 1 0 3.05 151.609L 3.050000000000026 142.3914187528074 A 0.213333 0.213333 0 1 0 2.75858 142.1L 2.842170943040401e-14 142.10000000000005 L 0.0 139.79999999999995 A 1.7 1.7 0 0 0 3.2 139A 1.7 1.7 0 0 0 -1.70974e-14 138.2L 2.842170943040401e-14 135.90000000000006 L 2.7585812471926774 135.90000000000006 A 0.213333 0.213333 0 1 0 3.05 135.609L 3.050000000000026 126.39141875280741 A 0.213333 0.213333 0 1 0 2.75858 126.1L 2.842170943040401e-14 126.10000000000005 L 2.842170943040401e-14 96.00000000000006 L 42.10000000000003 96.00000000000006 L 42.10000000000003 98.75858124719271 A 0.213333 0.213333 0 1 0 42.3914 99.05L 51.60858124719268 99.05000000000005 A 0.213333 0.213333 0 1 0 51.9 98.7586L 51.90000000000003 96.00000000000006 L 54.200000000000124 96.00000000000003 A 1.7 1.7 0 0 0 55 99.2A 1.7 1.7 0 0 0 55.8 96L 58.10000000000003 96.00000000000006 L 58.10000000000003 98.75858124719271 A 0.213333 0.213333 0 1 0 58.3914 99.05L 67.60858124719267 99.05000000000005 A 0.213333 0.213333 0 1 0 67.9 98.7586L 67.90000000000003 96.00000000000006 Z " stroke="#191919" stroke-width="0.35 px" style="stroke-width:0.35;stroke-miterlimit:4;stroke-dasharray:none;stroke-linecap:square;fill:#cccccc;fill-opacity:1.0;fill-rule: evenodd"/>
<path id="test002_f0002"  d="M 110.00000000000003 126.10000000000005 L 110.00000000000003 126.10000000000005 L 107.24141875280736 126.10000000000005 L 107.24141875280738 126.10000000000005 L 110.00000000000003 126.10000000000005 Z " stroke="#191919" stroke-width="0.35 px" style="stroke-width:0.35;stroke-miterlimit:4;stroke-dasharray:none;stroke-linecap:square;fill:#cccccc;fill-opacity:1.0;fill-rule: evenodd"/>
<path id="test002_f0003"  d="M 107.24141875280736 126.10000000000005 A 0.213333 0.213333 0 0 0 106.843 126.207A 0.213333 0.213333 0 0 0 106.95 126.391L 106.95000000000003 135.60858124719272 A 0.213333 0.213333 0 0 0 106.843 135.793A 0.213333 0.213333 0 0 0 107.241 135.9L 110.00000000000003 135.90000000000006 L 110.00000000000006 138.20000000000013 A 1.7 1.7 0 1 0 110 139.8L 110.00000000000003 142.10000000000005 L 107.24141875280736 142.10000000000005 A 0.213333 0.213333 0 0 0 106.843 142.207A 0.213333 0.213333 0 0 0 106.95 142.391L 106.95000000000003 151.60858124719272 A 0.213333 0.213333 0 0 0 106.843 151.793A 0.213333 0.213333 0 0 0 107.241 151.9L 110.00000000000003 151.90000000000006 L 110.00000000000003 182.00000000000006 L 67.90000000000003 182.00000000000006 L 67.90000000000003 179.2414187528074 A 0.213333 0.213333 0 0 0 67.7933 178.843A 0.213333 0.213333 0 0 0 67.6086 178.95L 58.39141875280738 178.95000000000005 A 0.213333 0.213333 0 0 0 58.2067 178.843A 0.213333 0.213333 0 0 0 58.1 179.241L 58.10000000000003 182.00000000000006 L 55.79999999999995 182.00000000000009 A 1.7 1.7 0 1 0 54.2 182L 51.90000000000003 182.00000000000006 L 51.900000000000034 179.2414187528074 A 0.213333 0.213333 0 0 0 51.7933 178.843A 0.213333 0.213333 0 0 0 51.6086 178.95L 42.39141875280738 178.95000000000005 A 0.213333 0.213333 0 0 0 42.2067 178.843A 0.213333 0.213333 0 0 0 42.1 179.241L 42.10000000000003 182.00000000000006 L 2.842170943040401e-14 182.00000000000006 L 2.842170943040401e-14 151.90000000000006 L 2.7585812471926774 151.90000000000006 A 0.213333 0.213333 0 1 0 3.05 151.609L 3.0500000000000256 142.3914187528074 A 0.213333 0.213333 0 1 0 2.75858 142.1L 2.842170943040401e-14 142.10000000000005 L 0.0 139.79999999999995 A 1.7 1.7 0 0 0 3.2 139A 1.7 1.7 0 0 0 -1.84297e-14 138.2L 2.842170943040401e-14 135.90000000000006 L 2.7585812471926765 135.90000000000006 A 0.213333 0.213333 0 1 0 3.05 135.609L 3.0500000000000256 126.39141875280741 A 0.213333 0.213333 0 1 0 2.75858 126.1L 2.842170943040401e-14 126.10000000000005 L 2.842170943040401e-14 96.00000000000006 L 42.10000000000003 96.00000000000006 L 42.10000000000003 98.75858124719271 A 0.213333 0.213333 0 1 0 42.3914 99.05L 51.60858124719268 99.05000000000005 A 0.213333 0.213333 0 1 0 51.9 98.7586L 51.90000000000003 96.00000000000006 L 54.200000000000124 96.00000000000003 A 1.7 1.7 0 0 0 55 99.2A 1.7 1.7 0 0 0 55.8 96L 58.10000000000003 96.00000000000006 L 58.10000000000003 98.75858124719271 A 0.213333 0.213333 0 1 0 58.3914 99.05L 67.60858124719267 99.05000000000005 A 0.213333 0.213333 0 1 0 67.9 98.7586L 67.90000000000003 96.00000000000006 L 110.00000000000003 96.00000000000006 L 110.00000000000003 126.10000000000005 L 107.24141875280736 126.10000000000005 Z " stroke="#191919" stroke-width="0.35 px" style="stroke-width:0.35;stroke-miterlimit:4;stroke-dasharray:none;stroke-linecap:square;fill:#cccccc;fill-opacity:1.0;fill-rule: evenodd"/>
<path id="test002_f0004"  d="M 110.00000000000003 96.00000000000006 L 67.90000000000003 96.00000000000006 L 67.90000000000003 96.00000000000006 L 110.00000000000003 96.00000000000006 L 110.00000000000003 96.00000000000006 Z " stroke="#191919" stroke-width="0.35 px" style="stroke-width:0.35;stroke-miterlimit:4;stroke-dasharray:none;stroke-linecap:square;fill:#cccccc;fill-opacity:1.0;fill-rule: evenodd"/>
<path id="test002_f0005"  d="M 67.90000000000003 98.75858124719271 L 67.90000000000003 98.75858124719271 L 67.90000000000003 96.00000000000006 L 67.90000000000003 96.00000000000006 L 67.90000000000003 98.75858124719271 Z " stroke="#191919" stroke-width="0.35 px" style="stroke-width:0.35;stroke-miterlimit:4;stroke-dasharray:none;stroke-linecap:square;fill:#cccccc;fill-opacity:1.0;fill-rule: evenodd"/>
<path id="test002_f0006"  d="M 67.60858124719267 99.05000000000005 L 67.60858124719267 99.05000000000005 A 0.213333 0.213333 0 1 0 67.9 98.7586L 67.90000000000003 98.75858124719271 A 0.213333 0.213333 0 1 1 67.6086 99.05Z " stroke="#191919" stroke-width="0.35 px" style="stroke-width:0.35;stroke-miterlimit:4;stroke-dasharray:none;stroke-linecap:square;fill:#cccccc;fill-opacity:1.0;fill-rule: evenodd"/>
<path id="test002_f0007"  d="M 67.60858124719267 99.05000000000005 L 58.39141875280738 99.05000000000005 L 58.391418752807375 99.05000000000005 L 67.60858124719267 99.05000000000005 L 67.60858124719267 99.05000000000005 Z " stroke="#191919" stroke-width="0.35 px" style="stroke-width:0.35;stroke-miterlimit:4;stroke-dasharray:none;stroke-linecap:square;fill:#cccccc;fill-opacity:1.0;fill-rule: evenodd"/>
<path id="test002_f0008"  d="M 58.10000000000003 98.75858124719271 L 58.10000000000003 98.75858124719271 A 0.213333 0.213333 0 1 0 58.3914 99.05L 58.391418752807375 99.05000000000005 A 0.213333 0.213333 0 1 1 58.1 98.7586Z " stroke="#191919" stroke-width="0.35 px" style="stroke-width:0.35;stroke-miterlimit:4;stroke-dasharray:none;stroke-linecap:square;fill:#cccccc;fill-opacity:1.0;fill-rule: evenodd"/>
<path id="test002_f0009"  d="M 58.10000000000003 96.00000000000006 L 58.10000000000003 98.75858124719271 L 58.10000000000003 98.75858124719271 L 58.10000000000003 96.00000000000006 L 58.10000000000003 96.00000000000006 Z " stroke="#191919" stroke-width="0.35 px" style="stroke-width:0.35;stroke-miterlimit:4;stroke-dasharray:none;stroke-linecap:square;fill:#cccccc;fill-opacity:1.0;fill-rule: evenodd"/>
<path id="test002_f0010"  d="M 58.10000000000003 96.00000000000006 L 55.79999999999993 96.00000000000006 L 55.80000000000003 96.00000000000006 L 58.10000000000003 96.00000000000006 L 58.10000000000003 96.00000000000006 Z " stroke="#191919" stroke-width="0.35 px" style="stroke-width:0.35;stroke-miterlimit:4;stroke-dasharray:none;stroke-linecap:square;fill:#cccccc;fill-opacity:1.0;fill-rule: evenodd"/>
<path id="test002_f0011"  d="M 54.200000000000124 96.00000000000006 L 51.90000000000003 96.00000000000006 L 51.90000000000003 96.00000000000006 L 54.200000000000124 96.00000000000003 L 54.200000000000124 96.00000000000003 Z " stroke="#191919" stroke-width="0.35 px" style="stroke-width:0.35;stroke-miterlimit:4;stroke-dasharray:none;stroke-linecap:square;fill:#cccccc;fill-opacity:1.0;fill-rule: evenodd"/>
<path id="test002_f0012"  d="M 51.90000000000003 98.75858124719271 L 51.90000000000003 98.75858124719271 L 51.90000000000003 96.00000000000006 L 51.90000000000003 96.00000000000006 L 51.90000000000003 98.75858124719271 Z " stroke="#191919" stroke-width="0.35 px" style="stroke-width:0.35;stroke-miterlimit:4;stroke-dasharray:none;stroke-linecap:square;fill:#cccccc;fill-opacity:1.0;fill-rule: evenodd"/>
<path id="test002_f0013"  d="M 51.60858124719268 99.05000000000005 L 51.60858124719268 99.05000000000005 A 0.213333 0.213333 0 1 0 51.9 98.7586L 51.90000000000003 98.75858124719271 A 0.213333 0.213333 0 1 1 51.6086 99.05Z " stroke="#191919" stroke-width="0.35 px" style="stroke-width:0.35;stroke-miterlimit:4;stroke-dasharray:none;stroke-linecap:square;fill:#cccccc;fill-opacity:1.0;fill-rule: evenodd"/>
<path id="test002_f0014"  d="M 51.60858124719268 99.05000000000005 L 42.39141875280738 99.05000000000005 L 42.391418752807375 99.05000000000005 L 51.60858124719268 99.05000000000005 L 51.60858124719268 99.05000000000005 Z " stroke="#191919" stroke-width="0.35 px" style="stroke-width:0.35;stroke-miterlimit:4;stroke-dasharray:none;stroke-linecap:square;fill:#cccccc;fill-opacity:1.0;fill-rule: evenodd"/>
<path id="test002_f0015"  d="M 42.10000000000003 98.75858124719271 L 42.10000000000003 98.75858124719271 A 0.213333 0.213333 0 1 0 42.3914 99.05L 42.391418752807375 99.05000000000005 A 0.213333 0.213333 0 1 1 42.1 98.7586Z " stroke="#191919" stroke-width="0.35 px" style="stroke-width:0.35;stroke-miterlimit:4;stroke-dasharray:none;stroke-linecap:square;fill:#cccccc;fill-opacity:1.0;fill-rule: evenodd"/>
<path id="test002_f0016"  d="M 42.10000000000003 96.00000000000006 L 42.10000000000003 98.75858124719271 L 42.10000000000003 98.75858124719271 L 42.10000000000003 96.00000000000006 L 42.10000000000003 96.00000000000006 Z " stroke="#191919" stroke-width="0.35 px" style="stroke-width:0.35;stroke-miterlimit:4;stroke-dasharray:none;stroke-linecap:square;fill:#cccccc;fill-opacity:1.0;fill-rule: evenodd"/>
<path id="test002_f0017"  d="M 42.10000000000003 96.00000000000006 L 2.842170943040401e-14 96.00000000000006 L 2.842170943040401e-14 96.00000000000006 L 42.10000000000003 96.00000000000006 L 42.10000000000003 96.00000000000006 Z " stroke="#191919" stroke-width="0.35 px" style="stroke-width:0.35;stroke-miterlimit:4;stroke-dasharray:none;stroke-linecap:square;fill:#cccccc;fill-opacity:1.0;fill-rule: evenodd"/>
<path id="test002_f0018"  d="M 2.842170943040401e-14 96.00000000000006 L 2.842170943040401e-14 126.10000000000005 L 2.842170943040401e-14 126.10000000000005 L 2.842170943040401e-14 96.00000000000006 L 2.842170943040401e-14 96.00000000000006 Z " stroke="#191919" stroke-width="0.35 px" style="stroke-width:0.35;stroke-miterlimit:4;stroke-dasharray:none;stroke-linecap:square;fill:#cccccc;fill-opacity:1.0;fill-rule: evenodd"/>
<path id="test002_f0019"  d="M 2.7585812471926783 126.10000000000005 L 2.7585812471926774 126.10000000000005 L 2.842170943040401e-14 126.10000000000005 L 2.842170943040401e-14 126.10000000000005 L 2.7585812471926783 126.10000000000005 Z " stroke="#191919" stroke-width="0.35 px" style="stroke-width:0.35;stroke-miterlimit:4;stroke-dasharray:none;stroke-linecap:square;fill:#cccccc;fill-opacity:1.0;fill-rule: evenodd"/>
<path id="test002_f0020"  d="M 3.050000000000026 126.39141875280741 L 3.0500000000000256 126.39141875280741 A 0.213333 0.213333 0 1 0 2.75858 126.1L 2.758581247192682 126.10000000000005 A 0.213333 0.213333 0 1 1 3.05 126.391Z " stroke="#191919" stroke-width="0.35 px" style="stroke-width:0.35;stroke-miterlimit:4;stroke-dasharray:none;stroke-linecap:square;fill:#cccccc;fill-opacity:1.0;fill-rule: evenodd"/>
<path id="test002_f0021"  d="M 3.0500000000000274 126.39141875280741 L 3.0500000000000274 135.60858124719272 L 3.0500000000000282 135.60858124719272 L 3.050000000000026 126.39141875280741 L 3.0500000000000256 126.39141875280741 Z " stroke="#191919" stroke-width="0.35 px" style="stroke-width:0.35;stroke-miterlimit:4;stroke-dasharray:none;stroke-linecap:square;fill:#cccccc;fill-opacity:1.0;fill-rule: evenodd"/>
<path id="test002_f0022"  d="M 2.7585812471926774 135.90000000000006 L 2.758581247192677 135.90000000000006 A 0.213333 0.213333 0 1 0 3.05 135.609L 3.0500000000000282 135.60858124719272 A 0.213333 0.213333 0 1 1 2.75858 135.9Z " stroke="#191919" stroke-width="0.35 px" style="stroke-width:0.35;stroke-miterlimit:4;stroke-dasharray:none;stroke-linecap:square;fill:#cccccc;fill-opacity:1.0;fill-rule: evenodd"/>
<path id="test002_f0023"  d="M 3.108624468950438e-14 135.90000000000006 L 2.7585812471926774 135.90000000000006 L 2.758581247192677 135.90000000000006 L 2.842170943040401e-14 135.90000000000006 L 2.842170943040401e-14 135.90000000000006 Z " stroke="#191919" stroke-width="0.35 px" style="stroke-width:0.35;stroke-miterlimit:4;stroke-dasharray:none;stroke-linecap:square;fill:#cccccc;fill-opacity:1.0;fill-rule: evenodd"/>
<path id="test002_f0024"  d="M 2.842170943040401e-14 135.90000000000006 L 2.842170943040401e-14 138.20000000000016 L 2.842170943040401e-14 138.20000000000005 L 2.842170943040401e-14 135.90000000000006 L 2.842170943040401e-14 135.90000000000006 Z " stroke="#191919" stroke-width="0.35 px" style="stroke-width:0.35;stroke-miterlimit:4;stroke-dasharray:none;stroke-linecap:square;fill:#cccccc;fill-opacity:1.0;fill-rule: evenodd"/>
<path id="test002_f0025"  d="M 2.842170943040401e-14 139.79999999999995 L 2.842170943040401e-14 142.10000000000005 L 2.842170943040401e-14 142.10000000000005 L 0.0 139.79999999999995 L 0.0 139.79999999999995 Z " stroke="#191919" stroke-width="0.35 px" style="stroke-width:0.35;stroke-miterlimit:4;stroke-dasharray:none;stroke-linecap:square;fill:#cccccc;fill-opacity:1.0;fill-rule: evenodd"/>
<path id="test002_f0026"  d="M 2.7585812471926774 142.10000000000005 L 2.7585812471926765 142.10000000000005 L 2.842170943040401e-14 142.10000000000005 L 2.842170943040401e-14 142.10000000000005 L 2.7585812471926774 142.10000000000005 Z " stroke="#191919" stroke-width="0.35 px" style="stroke-width:0.35;stroke-miterlimit:4;stroke-dasharray:none;stroke-linecap:square;fill:#cccccc;fill-opacity:1.0;fill-rule: evenodd"/>
<path id="test002_f0027"  d="M 3.050000000000026 142.3914187528074 L 3.0500000000000256 142.3914187528074 A 0.213333 0.213333 0 1 0 2.75858 142.1L 2.758581247192681 142.10000000000005 A 0.213333 0.213333 0 1 1 3.05 142.391Z " stroke="#191919" stroke-width="0.35 px" style="stroke-width:0.35;stroke-miterlimit:4;stroke-dasharray:none;stroke-linecap:square;fill:#cccccc;fill-opacity:1.0;fill-rule: evenodd"/>
<path id="test002_f0028"  d="M 3.0500000000000274 142.3914187528074 L 3.0500000000000274 151.60858124719272 L 3.0500000000000282 151.60858124719272 L 3.050000000000026 142.3914187528074 L 3.0500000000000256 142.3914187528074 Z " stroke="#191919" stroke-width="0.35 px" style="stroke-width:0.35;stroke-miterlimit:4;stroke-dasharray:none;stroke-linecap:square;fill:#cccccc;fill-opacity:1.0;fill-rule: evenodd"/>
<path id="test002_f0029"  d="M 2.7585812471926783 151.90000000000006 L 2.7585812471926774 151.90000000000006 A 0.213333 0.213333 0 1 0 3.05 151.609L 3.0500000000000282 151.60858124719272 A 0.213333 0.213333 0 1 1 2.75858 151.9Z " stroke="#191919" stroke-width="0.35 px" style="stroke-width:0.35;stroke-miterlimit:4;stroke-dasharray:none;stroke-linecap:square;fill:#cccccc;fill-opacity:1.0;fill-rule: evenodd"/>
<path id="test002_f0030"  d="M 3.108624468950438e-14 151.90000000000006 L 2.7585812471926783 151.90000000000006 L 2.7585812471926774 151.90000000000006 L 2.842170943040401e-14 151.90000000000006 L 2.842170943040401e-14 151.90000000000006 Z " stroke="#191919" stroke-width="0.35 px" style="stroke-width:0.35;stroke-miterlimit:4;stroke-dasharray:none;stroke-linecap:square;fill:#cccccc;fill-opacity:1.0;fill-rule: evenodd"/>
<path id="test002_f0031"  d="M 2.842170943040401e-14 151.90000000000006 L 2.842170943040401e-14 182.00000000000006 L 2.842170943040401e-14 182.00000000000006 L 2.842170943040401e-14 151.90000000000006 L 2.842170943040401e-14 151.90000000000006 Z " stroke="#191919" stroke-width="0.35 px" style="stroke-width:0.35;stroke-miterlimit:4;stroke-dasharray:none;stroke-linecap:square;fill:#cccccc;fill-opacity:1.0;fill-rule: evenodd"/>
<path id="test002_f0032"  d="M 2.842170943040401e-14 182.00000000000006 L 42.10000000000002 182.00000000000006 L 42.10000000000002 182.00000000000006 L 2.842170943040401e-14 182.00000000000006 L 2.842170943040401e-14 182.00000000000006 Z " stroke="#191919" stroke-width="0.35 px" style="stroke-width:0.35;stroke-miterlimit:4;stroke-dasharray:none;stroke-linecap:square;fill:#cccccc;fill-opacity:1.0;fill-rule: evenodd"/>
<path id="test002_f0033"  d="M 42.10000000000003 179.2414187528074 L 42.10000000000003 182.00000000000006 L 42.10000000000002 182.00000000000006 L 42.10000000000002 179.2414187528074 L 42.10000000000003 179.2414187528074 Z " stroke="#191919" stroke-width="0.35 px" style="stroke-width:0.35;stroke-miterlimit:4;stroke-dasharray:none;stroke-linecap:square;fill:#cccccc;fill-opacity:1.0;fill-rule: evenodd"/>
<path id="test002_f0034"  d="M 51.60858124719268 178.95000000000005 L 51.60858124719268 178.95000000000005 L 42.39141875280738 178.95000000000005 L 42.39141875280738 178.95000000000007 L 51.608581247192674 178.95000000000007 Z " stroke="#191919" stroke-width="0.35 px" style="stroke-width:0.35;stroke-miterlimit:4;stroke-dasharray:none;stroke-linecap:square;fill:#cccccc;fill-opacity:1.0;fill-rule: evenodd"/>
<path id="test002_f0035"  d="M 51.90000000000003 182.00000000000006 L 51.90000000000003 182.00000000000006 L 51.900000000000034 179.2414187528074 L 51.90000000000003 179.2414187528074 L 51.90000000000003 182.00000000000006 Z " stroke="#191919" stroke-width="0.35 px" style="stroke-width:0.35;stroke-miterlimit:4;stroke-dasharray:none;stroke-linecap:square;fill:#cccccc;fill-opacity:1.0;fill-rule: evenodd"/>
<path id="test002_f0036"  d="M 51.90000000000003 182.00000000000006 L 54.20000000000012 182.00000000000006 L 54.20000000000003 182.00000000000006 L 51.90000000000003 182.00000000000006 L 51.90000000000003 182.00000000000006 Z " stroke="#191919" stroke-width="0.35 px" style="stroke-width:0.35;stroke-miterlimit:4;stroke-dasharray:none;stroke-linecap:square;fill:#cccccc;fill-opacity:1.0;fill-rule: evenodd"/>
<path id="test002_f0037"  d="M 55.79999999999995 182.00000000000009 L 55.79999999999995 182.00000000000009 A 1.7 1.7 0 1 0 54.2 182L 54.20000000000003 182.00000000000006 A 1.7 1.7 0 1 1 55.8 182Z " stroke="#191919" stroke-width="0.35 px" style="stroke-width:0.35;stroke-miterlimit:4;stroke-dasharray:none;stroke-linecap:square;fill:#cccccc;fill-opacity:1.0;fill-rule: evenodd"/>
<path id="test002_f0038"  d="M 55.79999999999995 182.00000000000006 L 58.10000000000003 182.00000000000006 L 58.10000000000003 182.00000000000006 L 55.79999999999995 182.00000000000009 L 55.79999999999995 182.00000000000009 Z " stroke="#191919" stroke-width="0.35 px" style="stroke-width:0.35;stroke-miterlimit:4;stroke-dasharray:none;stroke-linecap:square;fill:#cccccc;fill-opacity:1.0;fill-rule: evenodd"/>
<path id="test002_f0039"  d="M 58.10000000000003 179.2414187528074 L 58.10000000000003 182.00000000000006 L 58.10000000000003 182.00000000000006 L 58.10000000000002 179.2414187528074 L 58.10000000000003 179.2414187528074 Z " stroke="#191919" stroke-width="0.35 px" style="stroke-width:0.35;stroke-miterlimit:4;stroke-dasharray:none;stroke-linecap:square;fill:#cccccc;fill-opacity:1.0;fill-rule: evenodd"/>
<path id="test002_f0040"  d="M 67.60858124719269 178.95000000000005 L 67.60858124719269 178.95000000000005 L 58.39141875280738 178.95000000000005 L 58.39141875280738 178.95000000000007 L 67.60858124719267 178.95000000000007 Z " stroke="#191919" stroke-width="0.35 px" style="stroke-width:0.35;stroke-miterlimit:4;stroke-dasharray:none;stroke-linecap:square;fill:#cccccc;fill-opacity:1.0;fill-rule: evenodd"/>
<path id="test002_f0041"  d="M 67.90000000000003 182.00000000000006 L 67.90000000000003 182.00000000000006 L 67.90000000000003 179.2414187528074 L 67.90000000000003 179.2414187528074 L 67.90000000000003 182.00000000000006 Z " stroke="#191919" stroke-width="0.35 px" style="stroke-width:0.35;stroke-miterlimit:4;stroke-dasharray:none;stroke-linecap:square;fill:#cccccc;fill-opacity:1.0;fill-rule: evenodd"/>
<path id="test002_f0042"  d="M 67.90000000000003 182.00000000000006 L 110.00000000000003 182.00000000000006 L 110.00000000000003 182.00000000000006 L 67.90000000000003 182.00000000000006 L 67.90000000000003 182.00000000000006 Z " stroke="#191919" stroke-width="0.35 px" style="stroke-width:0.35;stroke-miterlimit:4;stroke-dasharray:none;stroke-linecap:square;fill:#cccccc;fill-opacity:1.0;fill-rule: evenodd"/>
<path id="test002_f0043"  d="M 110.00000000000003 182.00000000000006 L 110.00000000000003 151.90000000000006 L 110.00000000000003 151.90000000000006 L 110.00000000000003 182.00000000000006 L 110.00000000000003 182.00000000000006 Z " stroke="#191919" stroke-width="0.35 px" style="stroke-width:0.35;stroke-miterlimit:4;stroke-dasharray:none;stroke-linecap:square;fill:#cccccc;fill-opacity:1.0;fill-rule: evenodd"/>
<path id="test002_f0044"  d="M 107.24141875280738 151.90000000000006 L 110.00000000000003 151.90000000000006 L 110.00000000000003 151.90000000000006 L 107.24141875280736 151.90000000000006 L 107.24141875280738 151.90000000000006 Z " stroke="#191919" stroke-width="0.35 px" style="stroke-width:0.35;stroke-miterlimit:4;stroke-dasharray:none;stroke-linecap:square;fill:#cccccc;fill-opacity:1.0;fill-rule: evenodd"/>
<path id="test002_f0045"  d="M 106.95000000000003 142.3914187528074 L 106.95000000000003 142.3914187528074 L 106.95000000000003 151.60858124719272 L 106.95000000000003 151.60858124719272 L 106.95000000000003 142.3914187528074 Z " stroke="#191919" stroke-width="0.35 px" style="stroke-width:0.35;stroke-miterlimit:4;stroke-dasharray:none;stroke-linecap:square;fill:#cccccc;fill-opacity:1.0;fill-rule: evenodd"/>
<path id="test002_f0046"  d="M 110.00000000000003 142.10000000000005 L 110.00000000000003 142.10000000000005 L 107.24141875280736 142.10000000000005 L 107.24141875280738 142.10000000000005 L 110.00000000000003 142.10000000000005 Z " stroke="#191919" stroke-width="0.35 px" style="stroke-width:0.35;stroke-miterlimit:4;stroke-dasharray:none;stroke-linecap:square;fill:#cccccc;fill-opacity:1.0;fill-rule: evenodd"/>
<path id="test002_f0047"  d="M 110.00000000000003 142.10000000000005 L 110.00000000000003 139.79999999999995 L 110.00000000000003 139.80000000000007 L 110.00000000000003 142.10000000000005 L 110.00000000000003 142.10000000000005 Z " stroke="#191919" stroke-width="0.35 px" style="stroke-width:0.35;stroke-miterlimit:4;stroke-dasharray:none;stroke-linecap:square;fill:#cccccc;fill-opacity:1.0;fill-rule: evenodd"/>
<path id="test002_f0048"  d="M 110.00000000000006 138.20000000000013 L 110.00000000000006 138.20000000000013 A 1.7 1.7 0 1 0 110 139.8L 110.00000000000003 139.80000000000007 A 1.7 1.7 0 1 1 110 138.2Z " stroke="#191919" stroke-width="0.35 px" style="stroke-width:0.35;stroke-miterlimit:4;stroke-dasharray:none;stroke-linecap:square;fill:#cccccc;fill-opacity:1.0;fill-rule: evenodd"/>
<path id="test002_f0049"  d="M 110.00000000000003 138.20000000000013 L 110.00000000000003 135.90000000000006 L 110.00000000000003 135.90000000000006 L 110.00000000000006 138.20000000000013 L 110.00000000000006 138.20000000000013 Z " stroke="#191919" stroke-width="0.35 px" style="stroke-width:0.35;stroke-miterlimit:4;stroke-dasharray:none;stroke-linecap:square;fill:#cccccc;fill-opacity:1.0;fill-rule: evenodd"/>
<path id="test002_f0050"  d="M 107.24141875280738 135.90000000000006 L 110.00000000000003 135.90000000000006 L 110.00000000000003 135.90000000000006 L 107.24141875280736 135.90000000000006 L 107.24141875280738 135.90000000000006 Z " stroke="#191919" stroke-width="0.35 px" style="stroke-width:0.35;stroke-miterlimit:4;stroke-dasharray:none;stroke-linecap:square;fill:#cccccc;fill-opacity:1.0;fill-rule: evenodd"/>
<path id="test002_f0051"  d="M 106.95000000000003 126.3914187528074 L 106.95000000000003 126.3914187528074 L 106.95000000000003 135.60858124719272 L 106.95000000000003 135.60858124719272 L 106.95000000000003 126.39141875280741 Z " stroke="#191919" stroke-width="0.35 px" style="stroke-width:0.35;stroke-miterlimit:4;stroke-dasharray:none;stroke-linecap:square;fill:#cccccc;fill-opacity:1.0;fill-rule: evenodd"/>
<path id="test002_f0052"  d="M 54.200000000000124 96.00000000000003 A 1.7 1.7 0 0 0 55 99.2A 1.7 1.7 0 0 0 55.8 96L 55.80000000000003 96.00000000000006 A 1.7 1.7 0 0 1 55 99.2A 1.7 1.7 0 0 1 54.2 96L 54.200000000000124 96.00000000000003 Z " stroke="#191919" stroke-width="0.35 px" style="stroke-width:0.35;stroke-miterlimit:4;stroke-dasharray:none;stroke-linecap:square;fill:#cccccc;fill-opacity:1.0;fill-rule: evenodd"/>
<path id="test002_f0053"  d="M 0.0 139.79999999999995 A 1.7 1.7 0 0 0 3.2 139A 1.7 1.7 0 0 0 -1.84297e-14 138.2L 2.842170943040401e-14 138.20000000000005 A 1.7 1.7 0 0 1 3.2 139A 1.7 1.7 0 0 1 -1.70974e-14 139.8L 0.0 139.79999999999995 Z " stroke="#191919" stroke-width="0.35 px" style="stroke-width:0.35;stroke-miterlimit:4;stroke-dasharray:none;stroke-linecap:square;fill:#cccccc;fill-opacity:1.0;fill-rule: evenodd"/>
<path id="test002_f0054"  d="M 42.39141875280738 178.95000000000007 A 0.213333 0.213333 0 0 0 42.2067 178.843A 0.213333 0.213333 0 0 0 42.1 179.241L 42.10000000000003 179.2414187528074 A 0.213333 0.213333 0 0 1 42.2067 178.843A 0.213333 0.213333 0 0 1 42.3914 178.95L 42.39141875280738 178.95000000000007 Z " stroke="#191919" stroke-width="0.35 px" style="stroke-width:0.35;stroke-miterlimit:4;stroke-dasharray:none;stroke-linecap:square;fill:#cccccc;fill-opacity:1.0;fill-rule: evenodd"/>
<path id="test002_f0055"  d="M 51.900000000000034 179.2414187528074 A 0.213333 0.213333 0 0 0 51.7933 178.843A 0.213333 0.213333 0 0 0 51.6086 178.95L 51.60858124719268 178.95000000000005 A 0.213333 0.213333 0 0 1 51.7933 178.843A 0.213333 0.213333 0 0 1 51.9 179.241L 51.900000000000034 179.2414187528074 Z " stroke="#191919" stroke-width="0.35 px" style="stroke-width:0.35;stroke-miterlimit:4;stroke-dasharray:none;stroke-linecap:square;fill:#cccccc;fill-opacity:1.0;fill-rule: evenodd"/>
<path id="test002_f0056"  d="M 58.39141875280738 178.95000000000007 A 0.213333 0.213333 0 0 0 58.2067 178.843A 0.213333 0.213333 0 0 0 58.1 179.241L 58.10000000000003 179.2414187528074 A 0.213333 0.213333 0 0 1 58.2067 178.843A 0.213333 0.213333 0 0 1 58.3914 178.95L 58.39141875280738 178.95000000000007 Z " stroke="#191919" stroke-width="0.35 px" style="stroke-width:0.35;stroke-miterlimit:4;stroke-dasharray:none;stroke-linecap:square;fill:#cccccc;fill-opacity:1.0;fill-rule: evenodd"/>
<path id="test002_f0057"  d="M 67.90000000000003 179.2414187528074 A 0.213333 0.213333 0 0 0 67.7933 178.843A 0.213333 0.213333 0 0 0 67.6086 178.95L 67.60858124719269 178.95000000000005 A 0.213333 0.213333 0 0 1 67.7933 178.843A 0.213333 0.213333 0 0 1 67.9 179.241L 67.90000000000003 179.2414187528074 Z " stroke="#191919" stroke-width="0.35 px" style="stroke-width:0.35;stroke-miterlimit:4;stroke-dasharray:none;stroke-linecap:square;fill:#cccccc;fill-opacity:1.0;fill-rule: evenodd"/>
<path id="test002_f0058"  d="M 106.95000000000003 151.60858124719272 A 0.213333 0.213333 0 0 0 106.843 151.793A 0.213333 0.213333 0 0 0 107.241 151.9L 107.24141875280738 151.90000000000006 A 0.213333 0.213333 0 0 1 106.843 151.793A 0.213333 0.213333 0 0 1 106.95 151.609L 106.95000000000003 151.60858124719272 Z " stroke="#191919" stroke-width="0.35 px" style="stroke-width:0.35;stroke-miterlimit:4;stroke-dasharray:none;stroke-linecap:square;fill:#cccccc;fill-opacity:1.0;fill-rule: evenodd"/>
<path id="test002_f0059"  d="M 107.24141875280736 142.10000000000005 A 0.213333 0.213333 0 0 0 106.843 142.207A 0.213333 0.213333 0 0 0 106.95 142.391L 106.95000000000003 142.3914187528074 A 0.213333 0.213333 0 0 1 106.843 142.207A 0.213333 0.213333 0 0 1 107.241 142.1L 107.24141875280736 142.10000000000005 Z " stroke="#191919" stroke-width="0.35 px" style="stroke-width:0.35;stroke-miterlimit:4;stroke-dasharray:none;stroke-linecap:square;fill:#cccccc;fill-opacity:1.0;fill-rule: evenodd"/>
<path id="test002_f0060"  d="M 106.95000000000003 135.60858124719272 A 0.213333 0.213333 0 0 0 106.843 135.793A 0.213333 0.213333 0 0 0 107.241 135.9L 107.24141875280738 135.90000000000006 A 0.213333 0.213333 0 0 1 106.843 135.793A 0.213333 0.213333 0 0 1 106.95 135.609L 106.95000000000003 135.60858124719272 Z " stroke="#191919" stroke-width="0.35 px" style="stroke-width:0.35;stroke-miterlimit:4;stroke-dasharray:none;stroke-linecap:square;fill:#cccccc;fill-opacity:1.0;fill-rule: evenodd"/>
<path id="test002_f0061"  d="M 107.24141875280736 126.10000000000005 A 0.213333 0.213333 0 0 0 106.843 126.207A 0.213333 0.213333 0 0 0 106.95 126.391L 106.95000000000003 126.3914187528074 A 0.213333 0.213333 0 0 1 106.843 126.207A 0.213333 0.213333 0 0 1 107.241 126.1L 107.24141875280736 126.10000000000005 Z " stroke="#191919" stroke-width="0.35 px" style="stroke-width:0.35;stroke-miterlimit:4;stroke-dasharray:none;stroke-linecap:square;fill:#cccccc;fill-opacity:1.0;fill-rule: evenodd"/>
<title>b'test002'</title>
</g>
</svg>