%TF.GenerationSoftware,KiCad,Pcbnew,7.0.6*%
%TF.CreationDate,2023-12-11T13:02:44+00:00*%
%TF.ProjectId,BlankingRelay_Base,426c616e-6b69-46e6-9752-656c61795f42,rev?*%
%TF.SameCoordinates,Original*%
%TF.FileFunction,AssemblyDrawing,Top*%
%FSLAX46Y46*%
G04 Gerber Fmt 4.6, Leading zero omitted, Abs format (unit mm)*
G04 Created by KiCad (PCBNEW 7.0.6) date 2023-12-11 13:02:44*
%MOMM*%
%LPD*%
G01*
G04 APERTURE LIST*
%ADD10C,0.150000*%
%ADD11C,0.100000*%
G04 APERTURE END LIST*
D10*
X58453333Y-127734819D02*
X58120000Y-127258628D01*
X57881905Y-127734819D02*
X57881905Y-126734819D01*
X57881905Y-126734819D02*
X58262857Y-126734819D01*
X58262857Y-126734819D02*
X58358095Y-126782438D01*
X58358095Y-126782438D02*
X58405714Y-126830057D01*
X58405714Y-126830057D02*
X58453333Y-126925295D01*
X58453333Y-126925295D02*
X58453333Y-127068152D01*
X58453333Y-127068152D02*
X58405714Y-127163390D01*
X58405714Y-127163390D02*
X58358095Y-127211009D01*
X58358095Y-127211009D02*
X58262857Y-127258628D01*
X58262857Y-127258628D02*
X57881905Y-127258628D01*
X58834286Y-126830057D02*
X58881905Y-126782438D01*
X58881905Y-126782438D02*
X58977143Y-126734819D01*
X58977143Y-126734819D02*
X59215238Y-126734819D01*
X59215238Y-126734819D02*
X59310476Y-126782438D01*
X59310476Y-126782438D02*
X59358095Y-126830057D01*
X59358095Y-126830057D02*
X59405714Y-126925295D01*
X59405714Y-126925295D02*
X59405714Y-127020533D01*
X59405714Y-127020533D02*
X59358095Y-127163390D01*
X59358095Y-127163390D02*
X58786667Y-127734819D01*
X58786667Y-127734819D02*
X59405714Y-127734819D01*
X58453333Y-130454819D02*
X58120000Y-129978628D01*
X57881905Y-130454819D02*
X57881905Y-129454819D01*
X57881905Y-129454819D02*
X58262857Y-129454819D01*
X58262857Y-129454819D02*
X58358095Y-129502438D01*
X58358095Y-129502438D02*
X58405714Y-129550057D01*
X58405714Y-129550057D02*
X58453333Y-129645295D01*
X58453333Y-129645295D02*
X58453333Y-129788152D01*
X58453333Y-129788152D02*
X58405714Y-129883390D01*
X58405714Y-129883390D02*
X58358095Y-129931009D01*
X58358095Y-129931009D02*
X58262857Y-129978628D01*
X58262857Y-129978628D02*
X57881905Y-129978628D01*
X58834286Y-129550057D02*
X58881905Y-129502438D01*
X58881905Y-129502438D02*
X58977143Y-129454819D01*
X58977143Y-129454819D02*
X59215238Y-129454819D01*
X59215238Y-129454819D02*
X59310476Y-129502438D01*
X59310476Y-129502438D02*
X59358095Y-129550057D01*
X59358095Y-129550057D02*
X59405714Y-129645295D01*
X59405714Y-129645295D02*
X59405714Y-129740533D01*
X59405714Y-129740533D02*
X59358095Y-129883390D01*
X59358095Y-129883390D02*
X58786667Y-130454819D01*
X58786667Y-130454819D02*
X59405714Y-130454819D01*
X63087142Y-137494819D02*
X62610952Y-137494819D01*
X62610952Y-137494819D02*
X62610952Y-136494819D01*
X63420476Y-136971009D02*
X63753809Y-136971009D01*
X63896666Y-137494819D02*
X63420476Y-137494819D01*
X63420476Y-137494819D02*
X63420476Y-136494819D01*
X63420476Y-136494819D02*
X63896666Y-136494819D01*
X64325238Y-137494819D02*
X64325238Y-136494819D01*
X64325238Y-136494819D02*
X64563333Y-136494819D01*
X64563333Y-136494819D02*
X64706190Y-136542438D01*
X64706190Y-136542438D02*
X64801428Y-136637676D01*
X64801428Y-136637676D02*
X64849047Y-136732914D01*
X64849047Y-136732914D02*
X64896666Y-136923390D01*
X64896666Y-136923390D02*
X64896666Y-137066247D01*
X64896666Y-137066247D02*
X64849047Y-137256723D01*
X64849047Y-137256723D02*
X64801428Y-137351961D01*
X64801428Y-137351961D02*
X64706190Y-137447200D01*
X64706190Y-137447200D02*
X64563333Y-137494819D01*
X64563333Y-137494819D02*
X64325238Y-137494819D01*
X35880952Y-150654819D02*
X35880952Y-149654819D01*
X35880952Y-149654819D02*
X36214285Y-150369104D01*
X36214285Y-150369104D02*
X36547618Y-149654819D01*
X36547618Y-149654819D02*
X36547618Y-150654819D01*
X37166666Y-150654819D02*
X37071428Y-150607200D01*
X37071428Y-150607200D02*
X37023809Y-150559580D01*
X37023809Y-150559580D02*
X36976190Y-150464342D01*
X36976190Y-150464342D02*
X36976190Y-150178628D01*
X36976190Y-150178628D02*
X37023809Y-150083390D01*
X37023809Y-150083390D02*
X37071428Y-150035771D01*
X37071428Y-150035771D02*
X37166666Y-149988152D01*
X37166666Y-149988152D02*
X37309523Y-149988152D01*
X37309523Y-149988152D02*
X37404761Y-150035771D01*
X37404761Y-150035771D02*
X37452380Y-150083390D01*
X37452380Y-150083390D02*
X37499999Y-150178628D01*
X37499999Y-150178628D02*
X37499999Y-150464342D01*
X37499999Y-150464342D02*
X37452380Y-150559580D01*
X37452380Y-150559580D02*
X37404761Y-150607200D01*
X37404761Y-150607200D02*
X37309523Y-150654819D01*
X37309523Y-150654819D02*
X37166666Y-150654819D01*
X38357142Y-149988152D02*
X38357142Y-150654819D01*
X37928571Y-149988152D02*
X37928571Y-150511961D01*
X37928571Y-150511961D02*
X37976190Y-150607200D01*
X37976190Y-150607200D02*
X38071428Y-150654819D01*
X38071428Y-150654819D02*
X38214285Y-150654819D01*
X38214285Y-150654819D02*
X38309523Y-150607200D01*
X38309523Y-150607200D02*
X38357142Y-150559580D01*
X38833333Y-149988152D02*
X38833333Y-150654819D01*
X38833333Y-150083390D02*
X38880952Y-150035771D01*
X38880952Y-150035771D02*
X38976190Y-149988152D01*
X38976190Y-149988152D02*
X39119047Y-149988152D01*
X39119047Y-149988152D02*
X39214285Y-150035771D01*
X39214285Y-150035771D02*
X39261904Y-150131009D01*
X39261904Y-150131009D02*
X39261904Y-150654819D01*
X39595238Y-149988152D02*
X39976190Y-149988152D01*
X39738095Y-149654819D02*
X39738095Y-150511961D01*
X39738095Y-150511961D02*
X39785714Y-150607200D01*
X39785714Y-150607200D02*
X39880952Y-150654819D01*
X39880952Y-150654819D02*
X39976190Y-150654819D01*
X40309524Y-150654819D02*
X40309524Y-149988152D01*
X40309524Y-149654819D02*
X40261905Y-149702438D01*
X40261905Y-149702438D02*
X40309524Y-149750057D01*
X40309524Y-149750057D02*
X40357143Y-149702438D01*
X40357143Y-149702438D02*
X40309524Y-149654819D01*
X40309524Y-149654819D02*
X40309524Y-149750057D01*
X40785714Y-149988152D02*
X40785714Y-150654819D01*
X40785714Y-150083390D02*
X40833333Y-150035771D01*
X40833333Y-150035771D02*
X40928571Y-149988152D01*
X40928571Y-149988152D02*
X41071428Y-149988152D01*
X41071428Y-149988152D02*
X41166666Y-150035771D01*
X41166666Y-150035771D02*
X41214285Y-150131009D01*
X41214285Y-150131009D02*
X41214285Y-150654819D01*
X42119047Y-149988152D02*
X42119047Y-150797676D01*
X42119047Y-150797676D02*
X42071428Y-150892914D01*
X42071428Y-150892914D02*
X42023809Y-150940533D01*
X42023809Y-150940533D02*
X41928571Y-150988152D01*
X41928571Y-150988152D02*
X41785714Y-150988152D01*
X41785714Y-150988152D02*
X41690476Y-150940533D01*
X42119047Y-150607200D02*
X42023809Y-150654819D01*
X42023809Y-150654819D02*
X41833333Y-150654819D01*
X41833333Y-150654819D02*
X41738095Y-150607200D01*
X41738095Y-150607200D02*
X41690476Y-150559580D01*
X41690476Y-150559580D02*
X41642857Y-150464342D01*
X41642857Y-150464342D02*
X41642857Y-150178628D01*
X41642857Y-150178628D02*
X41690476Y-150083390D01*
X41690476Y-150083390D02*
X41738095Y-150035771D01*
X41738095Y-150035771D02*
X41833333Y-149988152D01*
X41833333Y-149988152D02*
X42023809Y-149988152D01*
X42023809Y-149988152D02*
X42119047Y-150035771D01*
X42595238Y-150654819D02*
X42595238Y-149654819D01*
X42595238Y-150131009D02*
X43166666Y-150131009D01*
X43166666Y-150654819D02*
X43166666Y-149654819D01*
X43785714Y-150654819D02*
X43690476Y-150607200D01*
X43690476Y-150607200D02*
X43642857Y-150559580D01*
X43642857Y-150559580D02*
X43595238Y-150464342D01*
X43595238Y-150464342D02*
X43595238Y-150178628D01*
X43595238Y-150178628D02*
X43642857Y-150083390D01*
X43642857Y-150083390D02*
X43690476Y-150035771D01*
X43690476Y-150035771D02*
X43785714Y-149988152D01*
X43785714Y-149988152D02*
X43928571Y-149988152D01*
X43928571Y-149988152D02*
X44023809Y-150035771D01*
X44023809Y-150035771D02*
X44071428Y-150083390D01*
X44071428Y-150083390D02*
X44119047Y-150178628D01*
X44119047Y-150178628D02*
X44119047Y-150464342D01*
X44119047Y-150464342D02*
X44071428Y-150559580D01*
X44071428Y-150559580D02*
X44023809Y-150607200D01*
X44023809Y-150607200D02*
X43928571Y-150654819D01*
X43928571Y-150654819D02*
X43785714Y-150654819D01*
X44690476Y-150654819D02*
X44595238Y-150607200D01*
X44595238Y-150607200D02*
X44547619Y-150511961D01*
X44547619Y-150511961D02*
X44547619Y-149654819D01*
X45452381Y-150607200D02*
X45357143Y-150654819D01*
X45357143Y-150654819D02*
X45166667Y-150654819D01*
X45166667Y-150654819D02*
X45071429Y-150607200D01*
X45071429Y-150607200D02*
X45023810Y-150511961D01*
X45023810Y-150511961D02*
X45023810Y-150131009D01*
X45023810Y-150131009D02*
X45071429Y-150035771D01*
X45071429Y-150035771D02*
X45166667Y-149988152D01*
X45166667Y-149988152D02*
X45357143Y-149988152D01*
X45357143Y-149988152D02*
X45452381Y-150035771D01*
X45452381Y-150035771D02*
X45500000Y-150131009D01*
X45500000Y-150131009D02*
X45500000Y-150226247D01*
X45500000Y-150226247D02*
X45023810Y-150321485D01*
X45690477Y-150750057D02*
X46452381Y-150750057D01*
X46595239Y-149654819D02*
X47214286Y-149654819D01*
X47214286Y-149654819D02*
X46880953Y-150035771D01*
X46880953Y-150035771D02*
X47023810Y-150035771D01*
X47023810Y-150035771D02*
X47119048Y-150083390D01*
X47119048Y-150083390D02*
X47166667Y-150131009D01*
X47166667Y-150131009D02*
X47214286Y-150226247D01*
X47214286Y-150226247D02*
X47214286Y-150464342D01*
X47214286Y-150464342D02*
X47166667Y-150559580D01*
X47166667Y-150559580D02*
X47119048Y-150607200D01*
X47119048Y-150607200D02*
X47023810Y-150654819D01*
X47023810Y-150654819D02*
X46738096Y-150654819D01*
X46738096Y-150654819D02*
X46642858Y-150607200D01*
X46642858Y-150607200D02*
X46595239Y-150559580D01*
X47642858Y-150559580D02*
X47690477Y-150607200D01*
X47690477Y-150607200D02*
X47642858Y-150654819D01*
X47642858Y-150654819D02*
X47595239Y-150607200D01*
X47595239Y-150607200D02*
X47642858Y-150559580D01*
X47642858Y-150559580D02*
X47642858Y-150654819D01*
X48071429Y-149750057D02*
X48119048Y-149702438D01*
X48119048Y-149702438D02*
X48214286Y-149654819D01*
X48214286Y-149654819D02*
X48452381Y-149654819D01*
X48452381Y-149654819D02*
X48547619Y-149702438D01*
X48547619Y-149702438D02*
X48595238Y-149750057D01*
X48595238Y-149750057D02*
X48642857Y-149845295D01*
X48642857Y-149845295D02*
X48642857Y-149940533D01*
X48642857Y-149940533D02*
X48595238Y-150083390D01*
X48595238Y-150083390D02*
X48023810Y-150654819D01*
X48023810Y-150654819D02*
X48642857Y-150654819D01*
X49071429Y-150654819D02*
X49071429Y-149988152D01*
X49071429Y-150083390D02*
X49119048Y-150035771D01*
X49119048Y-150035771D02*
X49214286Y-149988152D01*
X49214286Y-149988152D02*
X49357143Y-149988152D01*
X49357143Y-149988152D02*
X49452381Y-150035771D01*
X49452381Y-150035771D02*
X49500000Y-150131009D01*
X49500000Y-150131009D02*
X49500000Y-150654819D01*
X49500000Y-150131009D02*
X49547619Y-150035771D01*
X49547619Y-150035771D02*
X49642857Y-149988152D01*
X49642857Y-149988152D02*
X49785714Y-149988152D01*
X49785714Y-149988152D02*
X49880953Y-150035771D01*
X49880953Y-150035771D02*
X49928572Y-150131009D01*
X49928572Y-150131009D02*
X49928572Y-150654819D01*
X50404762Y-150654819D02*
X50404762Y-149988152D01*
X50404762Y-150083390D02*
X50452381Y-150035771D01*
X50452381Y-150035771D02*
X50547619Y-149988152D01*
X50547619Y-149988152D02*
X50690476Y-149988152D01*
X50690476Y-149988152D02*
X50785714Y-150035771D01*
X50785714Y-150035771D02*
X50833333Y-150131009D01*
X50833333Y-150131009D02*
X50833333Y-150654819D01*
X50833333Y-150131009D02*
X50880952Y-150035771D01*
X50880952Y-150035771D02*
X50976190Y-149988152D01*
X50976190Y-149988152D02*
X51119047Y-149988152D01*
X51119047Y-149988152D02*
X51214286Y-150035771D01*
X51214286Y-150035771D02*
X51261905Y-150131009D01*
X51261905Y-150131009D02*
X51261905Y-150654819D01*
X51500000Y-150750057D02*
X52261904Y-150750057D01*
X52500000Y-150654819D02*
X52500000Y-149654819D01*
X52500000Y-149654819D02*
X52833333Y-150369104D01*
X52833333Y-150369104D02*
X53166666Y-149654819D01*
X53166666Y-149654819D02*
X53166666Y-150654819D01*
X53547619Y-149654819D02*
X54166666Y-149654819D01*
X54166666Y-149654819D02*
X53833333Y-150035771D01*
X53833333Y-150035771D02*
X53976190Y-150035771D01*
X53976190Y-150035771D02*
X54071428Y-150083390D01*
X54071428Y-150083390D02*
X54119047Y-150131009D01*
X54119047Y-150131009D02*
X54166666Y-150226247D01*
X54166666Y-150226247D02*
X54166666Y-150464342D01*
X54166666Y-150464342D02*
X54119047Y-150559580D01*
X54119047Y-150559580D02*
X54071428Y-150607200D01*
X54071428Y-150607200D02*
X53976190Y-150654819D01*
X53976190Y-150654819D02*
X53690476Y-150654819D01*
X53690476Y-150654819D02*
X53595238Y-150607200D01*
X53595238Y-150607200D02*
X53547619Y-150559580D01*
X43666666Y-146454819D02*
X43333333Y-145978628D01*
X43095238Y-146454819D02*
X43095238Y-145454819D01*
X43095238Y-145454819D02*
X43476190Y-145454819D01*
X43476190Y-145454819D02*
X43571428Y-145502438D01*
X43571428Y-145502438D02*
X43619047Y-145550057D01*
X43619047Y-145550057D02*
X43666666Y-145645295D01*
X43666666Y-145645295D02*
X43666666Y-145788152D01*
X43666666Y-145788152D02*
X43619047Y-145883390D01*
X43619047Y-145883390D02*
X43571428Y-145931009D01*
X43571428Y-145931009D02*
X43476190Y-145978628D01*
X43476190Y-145978628D02*
X43095238Y-145978628D01*
X44095238Y-145931009D02*
X44428571Y-145931009D01*
X44571428Y-146454819D02*
X44095238Y-146454819D01*
X44095238Y-146454819D02*
X44095238Y-145454819D01*
X44095238Y-145454819D02*
X44571428Y-145454819D01*
X45333333Y-145931009D02*
X45000000Y-145931009D01*
X45000000Y-146454819D02*
X45000000Y-145454819D01*
X45000000Y-145454819D02*
X45476190Y-145454819D01*
X46000000Y-145454819D02*
X46000000Y-145692914D01*
X45761905Y-145597676D02*
X46000000Y-145692914D01*
X46000000Y-145692914D02*
X46238095Y-145597676D01*
X45857143Y-145883390D02*
X46000000Y-145692914D01*
X46000000Y-145692914D02*
X46142857Y-145883390D01*
X46761905Y-145454819D02*
X46761905Y-145692914D01*
X46523810Y-145597676D02*
X46761905Y-145692914D01*
X46761905Y-145692914D02*
X47000000Y-145597676D01*
X46619048Y-145883390D02*
X46761905Y-145692914D01*
X46761905Y-145692914D02*
X46904762Y-145883390D01*
X97048095Y-112074819D02*
X97048095Y-112884342D01*
X97048095Y-112884342D02*
X97095714Y-112979580D01*
X97095714Y-112979580D02*
X97143333Y-113027200D01*
X97143333Y-113027200D02*
X97238571Y-113074819D01*
X97238571Y-113074819D02*
X97429047Y-113074819D01*
X97429047Y-113074819D02*
X97524285Y-113027200D01*
X97524285Y-113027200D02*
X97571904Y-112979580D01*
X97571904Y-112979580D02*
X97619523Y-112884342D01*
X97619523Y-112884342D02*
X97619523Y-112074819D01*
X98524285Y-112408152D02*
X98524285Y-113074819D01*
X98286190Y-112027200D02*
X98048095Y-112741485D01*
X98048095Y-112741485D02*
X98667142Y-112741485D01*
X123087142Y-137494819D02*
X122610952Y-137494819D01*
X122610952Y-137494819D02*
X122610952Y-136494819D01*
X123420476Y-136971009D02*
X123753809Y-136971009D01*
X123896666Y-137494819D02*
X123420476Y-137494819D01*
X123420476Y-137494819D02*
X123420476Y-136494819D01*
X123420476Y-136494819D02*
X123896666Y-136494819D01*
X124325238Y-137494819D02*
X124325238Y-136494819D01*
X124325238Y-136494819D02*
X124563333Y-136494819D01*
X124563333Y-136494819D02*
X124706190Y-136542438D01*
X124706190Y-136542438D02*
X124801428Y-136637676D01*
X124801428Y-136637676D02*
X124849047Y-136732914D01*
X124849047Y-136732914D02*
X124896666Y-136923390D01*
X124896666Y-136923390D02*
X124896666Y-137066247D01*
X124896666Y-137066247D02*
X124849047Y-137256723D01*
X124849047Y-137256723D02*
X124801428Y-137351961D01*
X124801428Y-137351961D02*
X124706190Y-137447200D01*
X124706190Y-137447200D02*
X124563333Y-137494819D01*
X124563333Y-137494819D02*
X124325238Y-137494819D01*
X143087142Y-137494819D02*
X142610952Y-137494819D01*
X142610952Y-137494819D02*
X142610952Y-136494819D01*
X143420476Y-136971009D02*
X143753809Y-136971009D01*
X143896666Y-137494819D02*
X143420476Y-137494819D01*
X143420476Y-137494819D02*
X143420476Y-136494819D01*
X143420476Y-136494819D02*
X143896666Y-136494819D01*
X144325238Y-137494819D02*
X144325238Y-136494819D01*
X144325238Y-136494819D02*
X144563333Y-136494819D01*
X144563333Y-136494819D02*
X144706190Y-136542438D01*
X144706190Y-136542438D02*
X144801428Y-136637676D01*
X144801428Y-136637676D02*
X144849047Y-136732914D01*
X144849047Y-136732914D02*
X144896666Y-136923390D01*
X144896666Y-136923390D02*
X144896666Y-137066247D01*
X144896666Y-137066247D02*
X144849047Y-137256723D01*
X144849047Y-137256723D02*
X144801428Y-137351961D01*
X144801428Y-137351961D02*
X144706190Y-137447200D01*
X144706190Y-137447200D02*
X144563333Y-137494819D01*
X144563333Y-137494819D02*
X144325238Y-137494819D01*
X111063095Y-117329819D02*
X111063095Y-118139342D01*
X111063095Y-118139342D02*
X111110714Y-118234580D01*
X111110714Y-118234580D02*
X111158333Y-118282200D01*
X111158333Y-118282200D02*
X111253571Y-118329819D01*
X111253571Y-118329819D02*
X111444047Y-118329819D01*
X111444047Y-118329819D02*
X111539285Y-118282200D01*
X111539285Y-118282200D02*
X111586904Y-118234580D01*
X111586904Y-118234580D02*
X111634523Y-118139342D01*
X111634523Y-118139342D02*
X111634523Y-117329819D01*
X112586904Y-117329819D02*
X112110714Y-117329819D01*
X112110714Y-117329819D02*
X112063095Y-117806009D01*
X112063095Y-117806009D02*
X112110714Y-117758390D01*
X112110714Y-117758390D02*
X112205952Y-117710771D01*
X112205952Y-117710771D02*
X112444047Y-117710771D01*
X112444047Y-117710771D02*
X112539285Y-117758390D01*
X112539285Y-117758390D02*
X112586904Y-117806009D01*
X112586904Y-117806009D02*
X112634523Y-117901247D01*
X112634523Y-117901247D02*
X112634523Y-118139342D01*
X112634523Y-118139342D02*
X112586904Y-118234580D01*
X112586904Y-118234580D02*
X112539285Y-118282200D01*
X112539285Y-118282200D02*
X112444047Y-118329819D01*
X112444047Y-118329819D02*
X112205952Y-118329819D01*
X112205952Y-118329819D02*
X112110714Y-118282200D01*
X112110714Y-118282200D02*
X112063095Y-118234580D01*
X61048095Y-112074819D02*
X61048095Y-112884342D01*
X61048095Y-112884342D02*
X61095714Y-112979580D01*
X61095714Y-112979580D02*
X61143333Y-113027200D01*
X61143333Y-113027200D02*
X61238571Y-113074819D01*
X61238571Y-113074819D02*
X61429047Y-113074819D01*
X61429047Y-113074819D02*
X61524285Y-113027200D01*
X61524285Y-113027200D02*
X61571904Y-112979580D01*
X61571904Y-112979580D02*
X61619523Y-112884342D01*
X61619523Y-112884342D02*
X61619523Y-112074819D01*
X62048095Y-112170057D02*
X62095714Y-112122438D01*
X62095714Y-112122438D02*
X62190952Y-112074819D01*
X62190952Y-112074819D02*
X62429047Y-112074819D01*
X62429047Y-112074819D02*
X62524285Y-112122438D01*
X62524285Y-112122438D02*
X62571904Y-112170057D01*
X62571904Y-112170057D02*
X62619523Y-112265295D01*
X62619523Y-112265295D02*
X62619523Y-112360533D01*
X62619523Y-112360533D02*
X62571904Y-112503390D01*
X62571904Y-112503390D02*
X62000476Y-113074819D01*
X62000476Y-113074819D02*
X62619523Y-113074819D01*
X110547618Y-99054819D02*
X110547618Y-99769104D01*
X110547618Y-99769104D02*
X110499999Y-99911961D01*
X110499999Y-99911961D02*
X110404761Y-100007200D01*
X110404761Y-100007200D02*
X110261904Y-100054819D01*
X110261904Y-100054819D02*
X110166666Y-100054819D01*
X110976190Y-100007200D02*
X111119047Y-100054819D01*
X111119047Y-100054819D02*
X111357142Y-100054819D01*
X111357142Y-100054819D02*
X111452380Y-100007200D01*
X111452380Y-100007200D02*
X111499999Y-99959580D01*
X111499999Y-99959580D02*
X111547618Y-99864342D01*
X111547618Y-99864342D02*
X111547618Y-99769104D01*
X111547618Y-99769104D02*
X111499999Y-99673866D01*
X111499999Y-99673866D02*
X111452380Y-99626247D01*
X111452380Y-99626247D02*
X111357142Y-99578628D01*
X111357142Y-99578628D02*
X111166666Y-99531009D01*
X111166666Y-99531009D02*
X111071428Y-99483390D01*
X111071428Y-99483390D02*
X111023809Y-99435771D01*
X111023809Y-99435771D02*
X110976190Y-99340533D01*
X110976190Y-99340533D02*
X110976190Y-99245295D01*
X110976190Y-99245295D02*
X111023809Y-99150057D01*
X111023809Y-99150057D02*
X111071428Y-99102438D01*
X111071428Y-99102438D02*
X111166666Y-99054819D01*
X111166666Y-99054819D02*
X111404761Y-99054819D01*
X111404761Y-99054819D02*
X111547618Y-99102438D01*
X111833333Y-99054819D02*
X112404761Y-99054819D01*
X112119047Y-100054819D02*
X112119047Y-99054819D01*
X113404762Y-99054819D02*
X114071428Y-99054819D01*
X114071428Y-99054819D02*
X113642857Y-100054819D01*
X112166666Y-97154819D02*
X112166666Y-97869104D01*
X112166666Y-97869104D02*
X112119047Y-98011961D01*
X112119047Y-98011961D02*
X112023809Y-98107200D01*
X112023809Y-98107200D02*
X111880952Y-98154819D01*
X111880952Y-98154819D02*
X111785714Y-98154819D01*
X113071428Y-97154819D02*
X112880952Y-97154819D01*
X112880952Y-97154819D02*
X112785714Y-97202438D01*
X112785714Y-97202438D02*
X112738095Y-97250057D01*
X112738095Y-97250057D02*
X112642857Y-97392914D01*
X112642857Y-97392914D02*
X112595238Y-97583390D01*
X112595238Y-97583390D02*
X112595238Y-97964342D01*
X112595238Y-97964342D02*
X112642857Y-98059580D01*
X112642857Y-98059580D02*
X112690476Y-98107200D01*
X112690476Y-98107200D02*
X112785714Y-98154819D01*
X112785714Y-98154819D02*
X112976190Y-98154819D01*
X112976190Y-98154819D02*
X113071428Y-98107200D01*
X113071428Y-98107200D02*
X113119047Y-98059580D01*
X113119047Y-98059580D02*
X113166666Y-97964342D01*
X113166666Y-97964342D02*
X113166666Y-97726247D01*
X113166666Y-97726247D02*
X113119047Y-97631009D01*
X113119047Y-97631009D02*
X113071428Y-97583390D01*
X113071428Y-97583390D02*
X112976190Y-97535771D01*
X112976190Y-97535771D02*
X112785714Y-97535771D01*
X112785714Y-97535771D02*
X112690476Y-97583390D01*
X112690476Y-97583390D02*
X112642857Y-97631009D01*
X112642857Y-97631009D02*
X112595238Y-97726247D01*
X98453333Y-127734819D02*
X98120000Y-127258628D01*
X97881905Y-127734819D02*
X97881905Y-126734819D01*
X97881905Y-126734819D02*
X98262857Y-126734819D01*
X98262857Y-126734819D02*
X98358095Y-126782438D01*
X98358095Y-126782438D02*
X98405714Y-126830057D01*
X98405714Y-126830057D02*
X98453333Y-126925295D01*
X98453333Y-126925295D02*
X98453333Y-127068152D01*
X98453333Y-127068152D02*
X98405714Y-127163390D01*
X98405714Y-127163390D02*
X98358095Y-127211009D01*
X98358095Y-127211009D02*
X98262857Y-127258628D01*
X98262857Y-127258628D02*
X97881905Y-127258628D01*
X99310476Y-127068152D02*
X99310476Y-127734819D01*
X99072381Y-126687200D02*
X98834286Y-127401485D01*
X98834286Y-127401485D02*
X99453333Y-127401485D01*
X98453333Y-130454819D02*
X98120000Y-129978628D01*
X97881905Y-130454819D02*
X97881905Y-129454819D01*
X97881905Y-129454819D02*
X98262857Y-129454819D01*
X98262857Y-129454819D02*
X98358095Y-129502438D01*
X98358095Y-129502438D02*
X98405714Y-129550057D01*
X98405714Y-129550057D02*
X98453333Y-129645295D01*
X98453333Y-129645295D02*
X98453333Y-129788152D01*
X98453333Y-129788152D02*
X98405714Y-129883390D01*
X98405714Y-129883390D02*
X98358095Y-129931009D01*
X98358095Y-129931009D02*
X98262857Y-129978628D01*
X98262857Y-129978628D02*
X97881905Y-129978628D01*
X99310476Y-129788152D02*
X99310476Y-130454819D01*
X99072381Y-129407200D02*
X98834286Y-130121485D01*
X98834286Y-130121485D02*
X99453333Y-130121485D01*
X43048095Y-112074819D02*
X43048095Y-112884342D01*
X43048095Y-112884342D02*
X43095714Y-112979580D01*
X43095714Y-112979580D02*
X43143333Y-113027200D01*
X43143333Y-113027200D02*
X43238571Y-113074819D01*
X43238571Y-113074819D02*
X43429047Y-113074819D01*
X43429047Y-113074819D02*
X43524285Y-113027200D01*
X43524285Y-113027200D02*
X43571904Y-112979580D01*
X43571904Y-112979580D02*
X43619523Y-112884342D01*
X43619523Y-112884342D02*
X43619523Y-112074819D01*
X44619523Y-113074819D02*
X44048095Y-113074819D01*
X44333809Y-113074819D02*
X44333809Y-112074819D01*
X44333809Y-112074819D02*
X44238571Y-112217676D01*
X44238571Y-112217676D02*
X44143333Y-112312914D01*
X44143333Y-112312914D02*
X44048095Y-112360533D01*
X78453333Y-127734819D02*
X78120000Y-127258628D01*
X77881905Y-127734819D02*
X77881905Y-126734819D01*
X77881905Y-126734819D02*
X78262857Y-126734819D01*
X78262857Y-126734819D02*
X78358095Y-126782438D01*
X78358095Y-126782438D02*
X78405714Y-126830057D01*
X78405714Y-126830057D02*
X78453333Y-126925295D01*
X78453333Y-126925295D02*
X78453333Y-127068152D01*
X78453333Y-127068152D02*
X78405714Y-127163390D01*
X78405714Y-127163390D02*
X78358095Y-127211009D01*
X78358095Y-127211009D02*
X78262857Y-127258628D01*
X78262857Y-127258628D02*
X77881905Y-127258628D01*
X78786667Y-126734819D02*
X79405714Y-126734819D01*
X79405714Y-126734819D02*
X79072381Y-127115771D01*
X79072381Y-127115771D02*
X79215238Y-127115771D01*
X79215238Y-127115771D02*
X79310476Y-127163390D01*
X79310476Y-127163390D02*
X79358095Y-127211009D01*
X79358095Y-127211009D02*
X79405714Y-127306247D01*
X79405714Y-127306247D02*
X79405714Y-127544342D01*
X79405714Y-127544342D02*
X79358095Y-127639580D01*
X79358095Y-127639580D02*
X79310476Y-127687200D01*
X79310476Y-127687200D02*
X79215238Y-127734819D01*
X79215238Y-127734819D02*
X78929524Y-127734819D01*
X78929524Y-127734819D02*
X78834286Y-127687200D01*
X78834286Y-127687200D02*
X78786667Y-127639580D01*
X78453333Y-130454819D02*
X78120000Y-129978628D01*
X77881905Y-130454819D02*
X77881905Y-129454819D01*
X77881905Y-129454819D02*
X78262857Y-129454819D01*
X78262857Y-129454819D02*
X78358095Y-129502438D01*
X78358095Y-129502438D02*
X78405714Y-129550057D01*
X78405714Y-129550057D02*
X78453333Y-129645295D01*
X78453333Y-129645295D02*
X78453333Y-129788152D01*
X78453333Y-129788152D02*
X78405714Y-129883390D01*
X78405714Y-129883390D02*
X78358095Y-129931009D01*
X78358095Y-129931009D02*
X78262857Y-129978628D01*
X78262857Y-129978628D02*
X77881905Y-129978628D01*
X78786667Y-129454819D02*
X79405714Y-129454819D01*
X79405714Y-129454819D02*
X79072381Y-129835771D01*
X79072381Y-129835771D02*
X79215238Y-129835771D01*
X79215238Y-129835771D02*
X79310476Y-129883390D01*
X79310476Y-129883390D02*
X79358095Y-129931009D01*
X79358095Y-129931009D02*
X79405714Y-130026247D01*
X79405714Y-130026247D02*
X79405714Y-130264342D01*
X79405714Y-130264342D02*
X79358095Y-130359580D01*
X79358095Y-130359580D02*
X79310476Y-130407200D01*
X79310476Y-130407200D02*
X79215238Y-130454819D01*
X79215238Y-130454819D02*
X78929524Y-130454819D01*
X78929524Y-130454819D02*
X78834286Y-130407200D01*
X78834286Y-130407200D02*
X78786667Y-130359580D01*
X135380952Y-150654819D02*
X135380952Y-149654819D01*
X135380952Y-149654819D02*
X135714285Y-150369104D01*
X135714285Y-150369104D02*
X136047618Y-149654819D01*
X136047618Y-149654819D02*
X136047618Y-150654819D01*
X136666666Y-150654819D02*
X136571428Y-150607200D01*
X136571428Y-150607200D02*
X136523809Y-150559580D01*
X136523809Y-150559580D02*
X136476190Y-150464342D01*
X136476190Y-150464342D02*
X136476190Y-150178628D01*
X136476190Y-150178628D02*
X136523809Y-150083390D01*
X136523809Y-150083390D02*
X136571428Y-150035771D01*
X136571428Y-150035771D02*
X136666666Y-149988152D01*
X136666666Y-149988152D02*
X136809523Y-149988152D01*
X136809523Y-149988152D02*
X136904761Y-150035771D01*
X136904761Y-150035771D02*
X136952380Y-150083390D01*
X136952380Y-150083390D02*
X136999999Y-150178628D01*
X136999999Y-150178628D02*
X136999999Y-150464342D01*
X136999999Y-150464342D02*
X136952380Y-150559580D01*
X136952380Y-150559580D02*
X136904761Y-150607200D01*
X136904761Y-150607200D02*
X136809523Y-150654819D01*
X136809523Y-150654819D02*
X136666666Y-150654819D01*
X137857142Y-149988152D02*
X137857142Y-150654819D01*
X137428571Y-149988152D02*
X137428571Y-150511961D01*
X137428571Y-150511961D02*
X137476190Y-150607200D01*
X137476190Y-150607200D02*
X137571428Y-150654819D01*
X137571428Y-150654819D02*
X137714285Y-150654819D01*
X137714285Y-150654819D02*
X137809523Y-150607200D01*
X137809523Y-150607200D02*
X137857142Y-150559580D01*
X138333333Y-149988152D02*
X138333333Y-150654819D01*
X138333333Y-150083390D02*
X138380952Y-150035771D01*
X138380952Y-150035771D02*
X138476190Y-149988152D01*
X138476190Y-149988152D02*
X138619047Y-149988152D01*
X138619047Y-149988152D02*
X138714285Y-150035771D01*
X138714285Y-150035771D02*
X138761904Y-150131009D01*
X138761904Y-150131009D02*
X138761904Y-150654819D01*
X139095238Y-149988152D02*
X139476190Y-149988152D01*
X139238095Y-149654819D02*
X139238095Y-150511961D01*
X139238095Y-150511961D02*
X139285714Y-150607200D01*
X139285714Y-150607200D02*
X139380952Y-150654819D01*
X139380952Y-150654819D02*
X139476190Y-150654819D01*
X139809524Y-150654819D02*
X139809524Y-149988152D01*
X139809524Y-149654819D02*
X139761905Y-149702438D01*
X139761905Y-149702438D02*
X139809524Y-149750057D01*
X139809524Y-149750057D02*
X139857143Y-149702438D01*
X139857143Y-149702438D02*
X139809524Y-149654819D01*
X139809524Y-149654819D02*
X139809524Y-149750057D01*
X140285714Y-149988152D02*
X140285714Y-150654819D01*
X140285714Y-150083390D02*
X140333333Y-150035771D01*
X140333333Y-150035771D02*
X140428571Y-149988152D01*
X140428571Y-149988152D02*
X140571428Y-149988152D01*
X140571428Y-149988152D02*
X140666666Y-150035771D01*
X140666666Y-150035771D02*
X140714285Y-150131009D01*
X140714285Y-150131009D02*
X140714285Y-150654819D01*
X141619047Y-149988152D02*
X141619047Y-150797676D01*
X141619047Y-150797676D02*
X141571428Y-150892914D01*
X141571428Y-150892914D02*
X141523809Y-150940533D01*
X141523809Y-150940533D02*
X141428571Y-150988152D01*
X141428571Y-150988152D02*
X141285714Y-150988152D01*
X141285714Y-150988152D02*
X141190476Y-150940533D01*
X141619047Y-150607200D02*
X141523809Y-150654819D01*
X141523809Y-150654819D02*
X141333333Y-150654819D01*
X141333333Y-150654819D02*
X141238095Y-150607200D01*
X141238095Y-150607200D02*
X141190476Y-150559580D01*
X141190476Y-150559580D02*
X141142857Y-150464342D01*
X141142857Y-150464342D02*
X141142857Y-150178628D01*
X141142857Y-150178628D02*
X141190476Y-150083390D01*
X141190476Y-150083390D02*
X141238095Y-150035771D01*
X141238095Y-150035771D02*
X141333333Y-149988152D01*
X141333333Y-149988152D02*
X141523809Y-149988152D01*
X141523809Y-149988152D02*
X141619047Y-150035771D01*
X142095238Y-150654819D02*
X142095238Y-149654819D01*
X142095238Y-150131009D02*
X142666666Y-150131009D01*
X142666666Y-150654819D02*
X142666666Y-149654819D01*
X143285714Y-150654819D02*
X143190476Y-150607200D01*
X143190476Y-150607200D02*
X143142857Y-150559580D01*
X143142857Y-150559580D02*
X143095238Y-150464342D01*
X143095238Y-150464342D02*
X143095238Y-150178628D01*
X143095238Y-150178628D02*
X143142857Y-150083390D01*
X143142857Y-150083390D02*
X143190476Y-150035771D01*
X143190476Y-150035771D02*
X143285714Y-149988152D01*
X143285714Y-149988152D02*
X143428571Y-149988152D01*
X143428571Y-149988152D02*
X143523809Y-150035771D01*
X143523809Y-150035771D02*
X143571428Y-150083390D01*
X143571428Y-150083390D02*
X143619047Y-150178628D01*
X143619047Y-150178628D02*
X143619047Y-150464342D01*
X143619047Y-150464342D02*
X143571428Y-150559580D01*
X143571428Y-150559580D02*
X143523809Y-150607200D01*
X143523809Y-150607200D02*
X143428571Y-150654819D01*
X143428571Y-150654819D02*
X143285714Y-150654819D01*
X144190476Y-150654819D02*
X144095238Y-150607200D01*
X144095238Y-150607200D02*
X144047619Y-150511961D01*
X144047619Y-150511961D02*
X144047619Y-149654819D01*
X144952381Y-150607200D02*
X144857143Y-150654819D01*
X144857143Y-150654819D02*
X144666667Y-150654819D01*
X144666667Y-150654819D02*
X144571429Y-150607200D01*
X144571429Y-150607200D02*
X144523810Y-150511961D01*
X144523810Y-150511961D02*
X144523810Y-150131009D01*
X144523810Y-150131009D02*
X144571429Y-150035771D01*
X144571429Y-150035771D02*
X144666667Y-149988152D01*
X144666667Y-149988152D02*
X144857143Y-149988152D01*
X144857143Y-149988152D02*
X144952381Y-150035771D01*
X144952381Y-150035771D02*
X145000000Y-150131009D01*
X145000000Y-150131009D02*
X145000000Y-150226247D01*
X145000000Y-150226247D02*
X144523810Y-150321485D01*
X145190477Y-150750057D02*
X145952381Y-150750057D01*
X146095239Y-149654819D02*
X146714286Y-149654819D01*
X146714286Y-149654819D02*
X146380953Y-150035771D01*
X146380953Y-150035771D02*
X146523810Y-150035771D01*
X146523810Y-150035771D02*
X146619048Y-150083390D01*
X146619048Y-150083390D02*
X146666667Y-150131009D01*
X146666667Y-150131009D02*
X146714286Y-150226247D01*
X146714286Y-150226247D02*
X146714286Y-150464342D01*
X146714286Y-150464342D02*
X146666667Y-150559580D01*
X146666667Y-150559580D02*
X146619048Y-150607200D01*
X146619048Y-150607200D02*
X146523810Y-150654819D01*
X146523810Y-150654819D02*
X146238096Y-150654819D01*
X146238096Y-150654819D02*
X146142858Y-150607200D01*
X146142858Y-150607200D02*
X146095239Y-150559580D01*
X147142858Y-150559580D02*
X147190477Y-150607200D01*
X147190477Y-150607200D02*
X147142858Y-150654819D01*
X147142858Y-150654819D02*
X147095239Y-150607200D01*
X147095239Y-150607200D02*
X147142858Y-150559580D01*
X147142858Y-150559580D02*
X147142858Y-150654819D01*
X147571429Y-149750057D02*
X147619048Y-149702438D01*
X147619048Y-149702438D02*
X147714286Y-149654819D01*
X147714286Y-149654819D02*
X147952381Y-149654819D01*
X147952381Y-149654819D02*
X148047619Y-149702438D01*
X148047619Y-149702438D02*
X148095238Y-149750057D01*
X148095238Y-149750057D02*
X148142857Y-149845295D01*
X148142857Y-149845295D02*
X148142857Y-149940533D01*
X148142857Y-149940533D02*
X148095238Y-150083390D01*
X148095238Y-150083390D02*
X147523810Y-150654819D01*
X147523810Y-150654819D02*
X148142857Y-150654819D01*
X148571429Y-150654819D02*
X148571429Y-149988152D01*
X148571429Y-150083390D02*
X148619048Y-150035771D01*
X148619048Y-150035771D02*
X148714286Y-149988152D01*
X148714286Y-149988152D02*
X148857143Y-149988152D01*
X148857143Y-149988152D02*
X148952381Y-150035771D01*
X148952381Y-150035771D02*
X149000000Y-150131009D01*
X149000000Y-150131009D02*
X149000000Y-150654819D01*
X149000000Y-150131009D02*
X149047619Y-150035771D01*
X149047619Y-150035771D02*
X149142857Y-149988152D01*
X149142857Y-149988152D02*
X149285714Y-149988152D01*
X149285714Y-149988152D02*
X149380953Y-150035771D01*
X149380953Y-150035771D02*
X149428572Y-150131009D01*
X149428572Y-150131009D02*
X149428572Y-150654819D01*
X149904762Y-150654819D02*
X149904762Y-149988152D01*
X149904762Y-150083390D02*
X149952381Y-150035771D01*
X149952381Y-150035771D02*
X150047619Y-149988152D01*
X150047619Y-149988152D02*
X150190476Y-149988152D01*
X150190476Y-149988152D02*
X150285714Y-150035771D01*
X150285714Y-150035771D02*
X150333333Y-150131009D01*
X150333333Y-150131009D02*
X150333333Y-150654819D01*
X150333333Y-150131009D02*
X150380952Y-150035771D01*
X150380952Y-150035771D02*
X150476190Y-149988152D01*
X150476190Y-149988152D02*
X150619047Y-149988152D01*
X150619047Y-149988152D02*
X150714286Y-150035771D01*
X150714286Y-150035771D02*
X150761905Y-150131009D01*
X150761905Y-150131009D02*
X150761905Y-150654819D01*
X151000000Y-150750057D02*
X151761904Y-150750057D01*
X152000000Y-150654819D02*
X152000000Y-149654819D01*
X152000000Y-149654819D02*
X152333333Y-150369104D01*
X152333333Y-150369104D02*
X152666666Y-149654819D01*
X152666666Y-149654819D02*
X152666666Y-150654819D01*
X153047619Y-149654819D02*
X153666666Y-149654819D01*
X153666666Y-149654819D02*
X153333333Y-150035771D01*
X153333333Y-150035771D02*
X153476190Y-150035771D01*
X153476190Y-150035771D02*
X153571428Y-150083390D01*
X153571428Y-150083390D02*
X153619047Y-150131009D01*
X153619047Y-150131009D02*
X153666666Y-150226247D01*
X153666666Y-150226247D02*
X153666666Y-150464342D01*
X153666666Y-150464342D02*
X153619047Y-150559580D01*
X153619047Y-150559580D02*
X153571428Y-150607200D01*
X153571428Y-150607200D02*
X153476190Y-150654819D01*
X153476190Y-150654819D02*
X153190476Y-150654819D01*
X153190476Y-150654819D02*
X153095238Y-150607200D01*
X153095238Y-150607200D02*
X153047619Y-150559580D01*
X143166666Y-146454819D02*
X142833333Y-145978628D01*
X142595238Y-146454819D02*
X142595238Y-145454819D01*
X142595238Y-145454819D02*
X142976190Y-145454819D01*
X142976190Y-145454819D02*
X143071428Y-145502438D01*
X143071428Y-145502438D02*
X143119047Y-145550057D01*
X143119047Y-145550057D02*
X143166666Y-145645295D01*
X143166666Y-145645295D02*
X143166666Y-145788152D01*
X143166666Y-145788152D02*
X143119047Y-145883390D01*
X143119047Y-145883390D02*
X143071428Y-145931009D01*
X143071428Y-145931009D02*
X142976190Y-145978628D01*
X142976190Y-145978628D02*
X142595238Y-145978628D01*
X143595238Y-145931009D02*
X143928571Y-145931009D01*
X144071428Y-146454819D02*
X143595238Y-146454819D01*
X143595238Y-146454819D02*
X143595238Y-145454819D01*
X143595238Y-145454819D02*
X144071428Y-145454819D01*
X144833333Y-145931009D02*
X144500000Y-145931009D01*
X144500000Y-146454819D02*
X144500000Y-145454819D01*
X144500000Y-145454819D02*
X144976190Y-145454819D01*
X145500000Y-145454819D02*
X145500000Y-145692914D01*
X145261905Y-145597676D02*
X145500000Y-145692914D01*
X145500000Y-145692914D02*
X145738095Y-145597676D01*
X145357143Y-145883390D02*
X145500000Y-145692914D01*
X145500000Y-145692914D02*
X145642857Y-145883390D01*
X146261905Y-145454819D02*
X146261905Y-145692914D01*
X146023810Y-145597676D02*
X146261905Y-145692914D01*
X146261905Y-145692914D02*
X146500000Y-145597676D01*
X146119048Y-145883390D02*
X146261905Y-145692914D01*
X146261905Y-145692914D02*
X146404762Y-145883390D01*
X43087142Y-137494819D02*
X42610952Y-137494819D01*
X42610952Y-137494819D02*
X42610952Y-136494819D01*
X43420476Y-136971009D02*
X43753809Y-136971009D01*
X43896666Y-137494819D02*
X43420476Y-137494819D01*
X43420476Y-137494819D02*
X43420476Y-136494819D01*
X43420476Y-136494819D02*
X43896666Y-136494819D01*
X44325238Y-137494819D02*
X44325238Y-136494819D01*
X44325238Y-136494819D02*
X44563333Y-136494819D01*
X44563333Y-136494819D02*
X44706190Y-136542438D01*
X44706190Y-136542438D02*
X44801428Y-136637676D01*
X44801428Y-136637676D02*
X44849047Y-136732914D01*
X44849047Y-136732914D02*
X44896666Y-136923390D01*
X44896666Y-136923390D02*
X44896666Y-137066247D01*
X44896666Y-137066247D02*
X44849047Y-137256723D01*
X44849047Y-137256723D02*
X44801428Y-137351961D01*
X44801428Y-137351961D02*
X44706190Y-137447200D01*
X44706190Y-137447200D02*
X44563333Y-137494819D01*
X44563333Y-137494819D02*
X44325238Y-137494819D01*
X43380952Y-129654819D02*
X43380952Y-128654819D01*
X43380952Y-128654819D02*
X43714285Y-129369104D01*
X43714285Y-129369104D02*
X44047618Y-128654819D01*
X44047618Y-128654819D02*
X44047618Y-129654819D01*
X44666666Y-129654819D02*
X44571428Y-129607200D01*
X44571428Y-129607200D02*
X44523809Y-129559580D01*
X44523809Y-129559580D02*
X44476190Y-129464342D01*
X44476190Y-129464342D02*
X44476190Y-129178628D01*
X44476190Y-129178628D02*
X44523809Y-129083390D01*
X44523809Y-129083390D02*
X44571428Y-129035771D01*
X44571428Y-129035771D02*
X44666666Y-128988152D01*
X44666666Y-128988152D02*
X44809523Y-128988152D01*
X44809523Y-128988152D02*
X44904761Y-129035771D01*
X44904761Y-129035771D02*
X44952380Y-129083390D01*
X44952380Y-129083390D02*
X44999999Y-129178628D01*
X44999999Y-129178628D02*
X44999999Y-129464342D01*
X44999999Y-129464342D02*
X44952380Y-129559580D01*
X44952380Y-129559580D02*
X44904761Y-129607200D01*
X44904761Y-129607200D02*
X44809523Y-129654819D01*
X44809523Y-129654819D02*
X44666666Y-129654819D01*
X45857142Y-128988152D02*
X45857142Y-129654819D01*
X45428571Y-128988152D02*
X45428571Y-129511961D01*
X45428571Y-129511961D02*
X45476190Y-129607200D01*
X45476190Y-129607200D02*
X45571428Y-129654819D01*
X45571428Y-129654819D02*
X45714285Y-129654819D01*
X45714285Y-129654819D02*
X45809523Y-129607200D01*
X45809523Y-129607200D02*
X45857142Y-129559580D01*
X46333333Y-128988152D02*
X46333333Y-129654819D01*
X46333333Y-129083390D02*
X46380952Y-129035771D01*
X46380952Y-129035771D02*
X46476190Y-128988152D01*
X46476190Y-128988152D02*
X46619047Y-128988152D01*
X46619047Y-128988152D02*
X46714285Y-129035771D01*
X46714285Y-129035771D02*
X46761904Y-129131009D01*
X46761904Y-129131009D02*
X46761904Y-129654819D01*
X47095238Y-128988152D02*
X47476190Y-128988152D01*
X47238095Y-128654819D02*
X47238095Y-129511961D01*
X47238095Y-129511961D02*
X47285714Y-129607200D01*
X47285714Y-129607200D02*
X47380952Y-129654819D01*
X47380952Y-129654819D02*
X47476190Y-129654819D01*
X47809524Y-129654819D02*
X47809524Y-128988152D01*
X47809524Y-128654819D02*
X47761905Y-128702438D01*
X47761905Y-128702438D02*
X47809524Y-128750057D01*
X47809524Y-128750057D02*
X47857143Y-128702438D01*
X47857143Y-128702438D02*
X47809524Y-128654819D01*
X47809524Y-128654819D02*
X47809524Y-128750057D01*
X48285714Y-128988152D02*
X48285714Y-129654819D01*
X48285714Y-129083390D02*
X48333333Y-129035771D01*
X48333333Y-129035771D02*
X48428571Y-128988152D01*
X48428571Y-128988152D02*
X48571428Y-128988152D01*
X48571428Y-128988152D02*
X48666666Y-129035771D01*
X48666666Y-129035771D02*
X48714285Y-129131009D01*
X48714285Y-129131009D02*
X48714285Y-129654819D01*
X49619047Y-128988152D02*
X49619047Y-129797676D01*
X49619047Y-129797676D02*
X49571428Y-129892914D01*
X49571428Y-129892914D02*
X49523809Y-129940533D01*
X49523809Y-129940533D02*
X49428571Y-129988152D01*
X49428571Y-129988152D02*
X49285714Y-129988152D01*
X49285714Y-129988152D02*
X49190476Y-129940533D01*
X49619047Y-129607200D02*
X49523809Y-129654819D01*
X49523809Y-129654819D02*
X49333333Y-129654819D01*
X49333333Y-129654819D02*
X49238095Y-129607200D01*
X49238095Y-129607200D02*
X49190476Y-129559580D01*
X49190476Y-129559580D02*
X49142857Y-129464342D01*
X49142857Y-129464342D02*
X49142857Y-129178628D01*
X49142857Y-129178628D02*
X49190476Y-129083390D01*
X49190476Y-129083390D02*
X49238095Y-129035771D01*
X49238095Y-129035771D02*
X49333333Y-128988152D01*
X49333333Y-128988152D02*
X49523809Y-128988152D01*
X49523809Y-128988152D02*
X49619047Y-129035771D01*
X50095238Y-129654819D02*
X50095238Y-128654819D01*
X50095238Y-129131009D02*
X50666666Y-129131009D01*
X50666666Y-129654819D02*
X50666666Y-128654819D01*
X51285714Y-129654819D02*
X51190476Y-129607200D01*
X51190476Y-129607200D02*
X51142857Y-129559580D01*
X51142857Y-129559580D02*
X51095238Y-129464342D01*
X51095238Y-129464342D02*
X51095238Y-129178628D01*
X51095238Y-129178628D02*
X51142857Y-129083390D01*
X51142857Y-129083390D02*
X51190476Y-129035771D01*
X51190476Y-129035771D02*
X51285714Y-128988152D01*
X51285714Y-128988152D02*
X51428571Y-128988152D01*
X51428571Y-128988152D02*
X51523809Y-129035771D01*
X51523809Y-129035771D02*
X51571428Y-129083390D01*
X51571428Y-129083390D02*
X51619047Y-129178628D01*
X51619047Y-129178628D02*
X51619047Y-129464342D01*
X51619047Y-129464342D02*
X51571428Y-129559580D01*
X51571428Y-129559580D02*
X51523809Y-129607200D01*
X51523809Y-129607200D02*
X51428571Y-129654819D01*
X51428571Y-129654819D02*
X51285714Y-129654819D01*
X52190476Y-129654819D02*
X52095238Y-129607200D01*
X52095238Y-129607200D02*
X52047619Y-129511961D01*
X52047619Y-129511961D02*
X52047619Y-128654819D01*
X52952381Y-129607200D02*
X52857143Y-129654819D01*
X52857143Y-129654819D02*
X52666667Y-129654819D01*
X52666667Y-129654819D02*
X52571429Y-129607200D01*
X52571429Y-129607200D02*
X52523810Y-129511961D01*
X52523810Y-129511961D02*
X52523810Y-129131009D01*
X52523810Y-129131009D02*
X52571429Y-129035771D01*
X52571429Y-129035771D02*
X52666667Y-128988152D01*
X52666667Y-128988152D02*
X52857143Y-128988152D01*
X52857143Y-128988152D02*
X52952381Y-129035771D01*
X52952381Y-129035771D02*
X53000000Y-129131009D01*
X53000000Y-129131009D02*
X53000000Y-129226247D01*
X53000000Y-129226247D02*
X52523810Y-129321485D01*
X53190477Y-129750057D02*
X53952381Y-129750057D01*
X54095239Y-128654819D02*
X54714286Y-128654819D01*
X54714286Y-128654819D02*
X54380953Y-129035771D01*
X54380953Y-129035771D02*
X54523810Y-129035771D01*
X54523810Y-129035771D02*
X54619048Y-129083390D01*
X54619048Y-129083390D02*
X54666667Y-129131009D01*
X54666667Y-129131009D02*
X54714286Y-129226247D01*
X54714286Y-129226247D02*
X54714286Y-129464342D01*
X54714286Y-129464342D02*
X54666667Y-129559580D01*
X54666667Y-129559580D02*
X54619048Y-129607200D01*
X54619048Y-129607200D02*
X54523810Y-129654819D01*
X54523810Y-129654819D02*
X54238096Y-129654819D01*
X54238096Y-129654819D02*
X54142858Y-129607200D01*
X54142858Y-129607200D02*
X54095239Y-129559580D01*
X55142858Y-129559580D02*
X55190477Y-129607200D01*
X55190477Y-129607200D02*
X55142858Y-129654819D01*
X55142858Y-129654819D02*
X55095239Y-129607200D01*
X55095239Y-129607200D02*
X55142858Y-129559580D01*
X55142858Y-129559580D02*
X55142858Y-129654819D01*
X55571429Y-128750057D02*
X55619048Y-128702438D01*
X55619048Y-128702438D02*
X55714286Y-128654819D01*
X55714286Y-128654819D02*
X55952381Y-128654819D01*
X55952381Y-128654819D02*
X56047619Y-128702438D01*
X56047619Y-128702438D02*
X56095238Y-128750057D01*
X56095238Y-128750057D02*
X56142857Y-128845295D01*
X56142857Y-128845295D02*
X56142857Y-128940533D01*
X56142857Y-128940533D02*
X56095238Y-129083390D01*
X56095238Y-129083390D02*
X55523810Y-129654819D01*
X55523810Y-129654819D02*
X56142857Y-129654819D01*
X56571429Y-129654819D02*
X56571429Y-128988152D01*
X56571429Y-129083390D02*
X56619048Y-129035771D01*
X56619048Y-129035771D02*
X56714286Y-128988152D01*
X56714286Y-128988152D02*
X56857143Y-128988152D01*
X56857143Y-128988152D02*
X56952381Y-129035771D01*
X56952381Y-129035771D02*
X57000000Y-129131009D01*
X57000000Y-129131009D02*
X57000000Y-129654819D01*
X57000000Y-129131009D02*
X57047619Y-129035771D01*
X57047619Y-129035771D02*
X57142857Y-128988152D01*
X57142857Y-128988152D02*
X57285714Y-128988152D01*
X57285714Y-128988152D02*
X57380953Y-129035771D01*
X57380953Y-129035771D02*
X57428572Y-129131009D01*
X57428572Y-129131009D02*
X57428572Y-129654819D01*
X57904762Y-129654819D02*
X57904762Y-128988152D01*
X57904762Y-129083390D02*
X57952381Y-129035771D01*
X57952381Y-129035771D02*
X58047619Y-128988152D01*
X58047619Y-128988152D02*
X58190476Y-128988152D01*
X58190476Y-128988152D02*
X58285714Y-129035771D01*
X58285714Y-129035771D02*
X58333333Y-129131009D01*
X58333333Y-129131009D02*
X58333333Y-129654819D01*
X58333333Y-129131009D02*
X58380952Y-129035771D01*
X58380952Y-129035771D02*
X58476190Y-128988152D01*
X58476190Y-128988152D02*
X58619047Y-128988152D01*
X58619047Y-128988152D02*
X58714286Y-129035771D01*
X58714286Y-129035771D02*
X58761905Y-129131009D01*
X58761905Y-129131009D02*
X58761905Y-129654819D01*
X59000000Y-129750057D02*
X59761904Y-129750057D01*
X60000000Y-129654819D02*
X60000000Y-128654819D01*
X60000000Y-128654819D02*
X60333333Y-129369104D01*
X60333333Y-129369104D02*
X60666666Y-128654819D01*
X60666666Y-128654819D02*
X60666666Y-129654819D01*
X61047619Y-128654819D02*
X61666666Y-128654819D01*
X61666666Y-128654819D02*
X61333333Y-129035771D01*
X61333333Y-129035771D02*
X61476190Y-129035771D01*
X61476190Y-129035771D02*
X61571428Y-129083390D01*
X61571428Y-129083390D02*
X61619047Y-129131009D01*
X61619047Y-129131009D02*
X61666666Y-129226247D01*
X61666666Y-129226247D02*
X61666666Y-129464342D01*
X61666666Y-129464342D02*
X61619047Y-129559580D01*
X61619047Y-129559580D02*
X61571428Y-129607200D01*
X61571428Y-129607200D02*
X61476190Y-129654819D01*
X61476190Y-129654819D02*
X61190476Y-129654819D01*
X61190476Y-129654819D02*
X61095238Y-129607200D01*
X61095238Y-129607200D02*
X61047619Y-129559580D01*
X51166666Y-125454819D02*
X50833333Y-124978628D01*
X50595238Y-125454819D02*
X50595238Y-124454819D01*
X50595238Y-124454819D02*
X50976190Y-124454819D01*
X50976190Y-124454819D02*
X51071428Y-124502438D01*
X51071428Y-124502438D02*
X51119047Y-124550057D01*
X51119047Y-124550057D02*
X51166666Y-124645295D01*
X51166666Y-124645295D02*
X51166666Y-124788152D01*
X51166666Y-124788152D02*
X51119047Y-124883390D01*
X51119047Y-124883390D02*
X51071428Y-124931009D01*
X51071428Y-124931009D02*
X50976190Y-124978628D01*
X50976190Y-124978628D02*
X50595238Y-124978628D01*
X51595238Y-124931009D02*
X51928571Y-124931009D01*
X52071428Y-125454819D02*
X51595238Y-125454819D01*
X51595238Y-125454819D02*
X51595238Y-124454819D01*
X51595238Y-124454819D02*
X52071428Y-124454819D01*
X52833333Y-124931009D02*
X52500000Y-124931009D01*
X52500000Y-125454819D02*
X52500000Y-124454819D01*
X52500000Y-124454819D02*
X52976190Y-124454819D01*
X53500000Y-124454819D02*
X53500000Y-124692914D01*
X53261905Y-124597676D02*
X53500000Y-124692914D01*
X53500000Y-124692914D02*
X53738095Y-124597676D01*
X53357143Y-124883390D02*
X53500000Y-124692914D01*
X53500000Y-124692914D02*
X53642857Y-124883390D01*
X54261905Y-124454819D02*
X54261905Y-124692914D01*
X54023810Y-124597676D02*
X54261905Y-124692914D01*
X54261905Y-124692914D02*
X54500000Y-124597676D01*
X54119048Y-124883390D02*
X54261905Y-124692914D01*
X54261905Y-124692914D02*
X54404762Y-124883390D01*
X118453333Y-127734819D02*
X118120000Y-127258628D01*
X117881905Y-127734819D02*
X117881905Y-126734819D01*
X117881905Y-126734819D02*
X118262857Y-126734819D01*
X118262857Y-126734819D02*
X118358095Y-126782438D01*
X118358095Y-126782438D02*
X118405714Y-126830057D01*
X118405714Y-126830057D02*
X118453333Y-126925295D01*
X118453333Y-126925295D02*
X118453333Y-127068152D01*
X118453333Y-127068152D02*
X118405714Y-127163390D01*
X118405714Y-127163390D02*
X118358095Y-127211009D01*
X118358095Y-127211009D02*
X118262857Y-127258628D01*
X118262857Y-127258628D02*
X117881905Y-127258628D01*
X119358095Y-126734819D02*
X118881905Y-126734819D01*
X118881905Y-126734819D02*
X118834286Y-127211009D01*
X118834286Y-127211009D02*
X118881905Y-127163390D01*
X118881905Y-127163390D02*
X118977143Y-127115771D01*
X118977143Y-127115771D02*
X119215238Y-127115771D01*
X119215238Y-127115771D02*
X119310476Y-127163390D01*
X119310476Y-127163390D02*
X119358095Y-127211009D01*
X119358095Y-127211009D02*
X119405714Y-127306247D01*
X119405714Y-127306247D02*
X119405714Y-127544342D01*
X119405714Y-127544342D02*
X119358095Y-127639580D01*
X119358095Y-127639580D02*
X119310476Y-127687200D01*
X119310476Y-127687200D02*
X119215238Y-127734819D01*
X119215238Y-127734819D02*
X118977143Y-127734819D01*
X118977143Y-127734819D02*
X118881905Y-127687200D01*
X118881905Y-127687200D02*
X118834286Y-127639580D01*
X118453333Y-130454819D02*
X118120000Y-129978628D01*
X117881905Y-130454819D02*
X117881905Y-129454819D01*
X117881905Y-129454819D02*
X118262857Y-129454819D01*
X118262857Y-129454819D02*
X118358095Y-129502438D01*
X118358095Y-129502438D02*
X118405714Y-129550057D01*
X118405714Y-129550057D02*
X118453333Y-129645295D01*
X118453333Y-129645295D02*
X118453333Y-129788152D01*
X118453333Y-129788152D02*
X118405714Y-129883390D01*
X118405714Y-129883390D02*
X118358095Y-129931009D01*
X118358095Y-129931009D02*
X118262857Y-129978628D01*
X118262857Y-129978628D02*
X117881905Y-129978628D01*
X119358095Y-129454819D02*
X118881905Y-129454819D01*
X118881905Y-129454819D02*
X118834286Y-129931009D01*
X118834286Y-129931009D02*
X118881905Y-129883390D01*
X118881905Y-129883390D02*
X118977143Y-129835771D01*
X118977143Y-129835771D02*
X119215238Y-129835771D01*
X119215238Y-129835771D02*
X119310476Y-129883390D01*
X119310476Y-129883390D02*
X119358095Y-129931009D01*
X119358095Y-129931009D02*
X119405714Y-130026247D01*
X119405714Y-130026247D02*
X119405714Y-130264342D01*
X119405714Y-130264342D02*
X119358095Y-130359580D01*
X119358095Y-130359580D02*
X119310476Y-130407200D01*
X119310476Y-130407200D02*
X119215238Y-130454819D01*
X119215238Y-130454819D02*
X118977143Y-130454819D01*
X118977143Y-130454819D02*
X118881905Y-130407200D01*
X118881905Y-130407200D02*
X118834286Y-130359580D01*
X133047618Y-99054819D02*
X133047618Y-99769104D01*
X133047618Y-99769104D02*
X132999999Y-99911961D01*
X132999999Y-99911961D02*
X132904761Y-100007200D01*
X132904761Y-100007200D02*
X132761904Y-100054819D01*
X132761904Y-100054819D02*
X132666666Y-100054819D01*
X133476190Y-100007200D02*
X133619047Y-100054819D01*
X133619047Y-100054819D02*
X133857142Y-100054819D01*
X133857142Y-100054819D02*
X133952380Y-100007200D01*
X133952380Y-100007200D02*
X133999999Y-99959580D01*
X133999999Y-99959580D02*
X134047618Y-99864342D01*
X134047618Y-99864342D02*
X134047618Y-99769104D01*
X134047618Y-99769104D02*
X133999999Y-99673866D01*
X133999999Y-99673866D02*
X133952380Y-99626247D01*
X133952380Y-99626247D02*
X133857142Y-99578628D01*
X133857142Y-99578628D02*
X133666666Y-99531009D01*
X133666666Y-99531009D02*
X133571428Y-99483390D01*
X133571428Y-99483390D02*
X133523809Y-99435771D01*
X133523809Y-99435771D02*
X133476190Y-99340533D01*
X133476190Y-99340533D02*
X133476190Y-99245295D01*
X133476190Y-99245295D02*
X133523809Y-99150057D01*
X133523809Y-99150057D02*
X133571428Y-99102438D01*
X133571428Y-99102438D02*
X133666666Y-99054819D01*
X133666666Y-99054819D02*
X133904761Y-99054819D01*
X133904761Y-99054819D02*
X134047618Y-99102438D01*
X134333333Y-99054819D02*
X134904761Y-99054819D01*
X134619047Y-100054819D02*
X134619047Y-99054819D01*
X135904762Y-99054819D02*
X136571428Y-99054819D01*
X136571428Y-99054819D02*
X136142857Y-100054819D01*
X134666666Y-97154819D02*
X134666666Y-97869104D01*
X134666666Y-97869104D02*
X134619047Y-98011961D01*
X134619047Y-98011961D02*
X134523809Y-98107200D01*
X134523809Y-98107200D02*
X134380952Y-98154819D01*
X134380952Y-98154819D02*
X134285714Y-98154819D01*
X135285714Y-97583390D02*
X135190476Y-97535771D01*
X135190476Y-97535771D02*
X135142857Y-97488152D01*
X135142857Y-97488152D02*
X135095238Y-97392914D01*
X135095238Y-97392914D02*
X135095238Y-97345295D01*
X135095238Y-97345295D02*
X135142857Y-97250057D01*
X135142857Y-97250057D02*
X135190476Y-97202438D01*
X135190476Y-97202438D02*
X135285714Y-97154819D01*
X135285714Y-97154819D02*
X135476190Y-97154819D01*
X135476190Y-97154819D02*
X135571428Y-97202438D01*
X135571428Y-97202438D02*
X135619047Y-97250057D01*
X135619047Y-97250057D02*
X135666666Y-97345295D01*
X135666666Y-97345295D02*
X135666666Y-97392914D01*
X135666666Y-97392914D02*
X135619047Y-97488152D01*
X135619047Y-97488152D02*
X135571428Y-97535771D01*
X135571428Y-97535771D02*
X135476190Y-97583390D01*
X135476190Y-97583390D02*
X135285714Y-97583390D01*
X135285714Y-97583390D02*
X135190476Y-97631009D01*
X135190476Y-97631009D02*
X135142857Y-97678628D01*
X135142857Y-97678628D02*
X135095238Y-97773866D01*
X135095238Y-97773866D02*
X135095238Y-97964342D01*
X135095238Y-97964342D02*
X135142857Y-98059580D01*
X135142857Y-98059580D02*
X135190476Y-98107200D01*
X135190476Y-98107200D02*
X135285714Y-98154819D01*
X135285714Y-98154819D02*
X135476190Y-98154819D01*
X135476190Y-98154819D02*
X135571428Y-98107200D01*
X135571428Y-98107200D02*
X135619047Y-98059580D01*
X135619047Y-98059580D02*
X135666666Y-97964342D01*
X135666666Y-97964342D02*
X135666666Y-97773866D01*
X135666666Y-97773866D02*
X135619047Y-97678628D01*
X135619047Y-97678628D02*
X135571428Y-97631009D01*
X135571428Y-97631009D02*
X135476190Y-97583390D01*
X115380952Y-129654819D02*
X115380952Y-128654819D01*
X115380952Y-128654819D02*
X115714285Y-129369104D01*
X115714285Y-129369104D02*
X116047618Y-128654819D01*
X116047618Y-128654819D02*
X116047618Y-129654819D01*
X116666666Y-129654819D02*
X116571428Y-129607200D01*
X116571428Y-129607200D02*
X116523809Y-129559580D01*
X116523809Y-129559580D02*
X116476190Y-129464342D01*
X116476190Y-129464342D02*
X116476190Y-129178628D01*
X116476190Y-129178628D02*
X116523809Y-129083390D01*
X116523809Y-129083390D02*
X116571428Y-129035771D01*
X116571428Y-129035771D02*
X116666666Y-128988152D01*
X116666666Y-128988152D02*
X116809523Y-128988152D01*
X116809523Y-128988152D02*
X116904761Y-129035771D01*
X116904761Y-129035771D02*
X116952380Y-129083390D01*
X116952380Y-129083390D02*
X116999999Y-129178628D01*
X116999999Y-129178628D02*
X116999999Y-129464342D01*
X116999999Y-129464342D02*
X116952380Y-129559580D01*
X116952380Y-129559580D02*
X116904761Y-129607200D01*
X116904761Y-129607200D02*
X116809523Y-129654819D01*
X116809523Y-129654819D02*
X116666666Y-129654819D01*
X117857142Y-128988152D02*
X117857142Y-129654819D01*
X117428571Y-128988152D02*
X117428571Y-129511961D01*
X117428571Y-129511961D02*
X117476190Y-129607200D01*
X117476190Y-129607200D02*
X117571428Y-129654819D01*
X117571428Y-129654819D02*
X117714285Y-129654819D01*
X117714285Y-129654819D02*
X117809523Y-129607200D01*
X117809523Y-129607200D02*
X117857142Y-129559580D01*
X118333333Y-128988152D02*
X118333333Y-129654819D01*
X118333333Y-129083390D02*
X118380952Y-129035771D01*
X118380952Y-129035771D02*
X118476190Y-128988152D01*
X118476190Y-128988152D02*
X118619047Y-128988152D01*
X118619047Y-128988152D02*
X118714285Y-129035771D01*
X118714285Y-129035771D02*
X118761904Y-129131009D01*
X118761904Y-129131009D02*
X118761904Y-129654819D01*
X119095238Y-128988152D02*
X119476190Y-128988152D01*
X119238095Y-128654819D02*
X119238095Y-129511961D01*
X119238095Y-129511961D02*
X119285714Y-129607200D01*
X119285714Y-129607200D02*
X119380952Y-129654819D01*
X119380952Y-129654819D02*
X119476190Y-129654819D01*
X119809524Y-129654819D02*
X119809524Y-128988152D01*
X119809524Y-128654819D02*
X119761905Y-128702438D01*
X119761905Y-128702438D02*
X119809524Y-128750057D01*
X119809524Y-128750057D02*
X119857143Y-128702438D01*
X119857143Y-128702438D02*
X119809524Y-128654819D01*
X119809524Y-128654819D02*
X119809524Y-128750057D01*
X120285714Y-128988152D02*
X120285714Y-129654819D01*
X120285714Y-129083390D02*
X120333333Y-129035771D01*
X120333333Y-129035771D02*
X120428571Y-128988152D01*
X120428571Y-128988152D02*
X120571428Y-128988152D01*
X120571428Y-128988152D02*
X120666666Y-129035771D01*
X120666666Y-129035771D02*
X120714285Y-129131009D01*
X120714285Y-129131009D02*
X120714285Y-129654819D01*
X121619047Y-128988152D02*
X121619047Y-129797676D01*
X121619047Y-129797676D02*
X121571428Y-129892914D01*
X121571428Y-129892914D02*
X121523809Y-129940533D01*
X121523809Y-129940533D02*
X121428571Y-129988152D01*
X121428571Y-129988152D02*
X121285714Y-129988152D01*
X121285714Y-129988152D02*
X121190476Y-129940533D01*
X121619047Y-129607200D02*
X121523809Y-129654819D01*
X121523809Y-129654819D02*
X121333333Y-129654819D01*
X121333333Y-129654819D02*
X121238095Y-129607200D01*
X121238095Y-129607200D02*
X121190476Y-129559580D01*
X121190476Y-129559580D02*
X121142857Y-129464342D01*
X121142857Y-129464342D02*
X121142857Y-129178628D01*
X121142857Y-129178628D02*
X121190476Y-129083390D01*
X121190476Y-129083390D02*
X121238095Y-129035771D01*
X121238095Y-129035771D02*
X121333333Y-128988152D01*
X121333333Y-128988152D02*
X121523809Y-128988152D01*
X121523809Y-128988152D02*
X121619047Y-129035771D01*
X122095238Y-129654819D02*
X122095238Y-128654819D01*
X122095238Y-129131009D02*
X122666666Y-129131009D01*
X122666666Y-129654819D02*
X122666666Y-128654819D01*
X123285714Y-129654819D02*
X123190476Y-129607200D01*
X123190476Y-129607200D02*
X123142857Y-129559580D01*
X123142857Y-129559580D02*
X123095238Y-129464342D01*
X123095238Y-129464342D02*
X123095238Y-129178628D01*
X123095238Y-129178628D02*
X123142857Y-129083390D01*
X123142857Y-129083390D02*
X123190476Y-129035771D01*
X123190476Y-129035771D02*
X123285714Y-128988152D01*
X123285714Y-128988152D02*
X123428571Y-128988152D01*
X123428571Y-128988152D02*
X123523809Y-129035771D01*
X123523809Y-129035771D02*
X123571428Y-129083390D01*
X123571428Y-129083390D02*
X123619047Y-129178628D01*
X123619047Y-129178628D02*
X123619047Y-129464342D01*
X123619047Y-129464342D02*
X123571428Y-129559580D01*
X123571428Y-129559580D02*
X123523809Y-129607200D01*
X123523809Y-129607200D02*
X123428571Y-129654819D01*
X123428571Y-129654819D02*
X123285714Y-129654819D01*
X124190476Y-129654819D02*
X124095238Y-129607200D01*
X124095238Y-129607200D02*
X124047619Y-129511961D01*
X124047619Y-129511961D02*
X124047619Y-128654819D01*
X124952381Y-129607200D02*
X124857143Y-129654819D01*
X124857143Y-129654819D02*
X124666667Y-129654819D01*
X124666667Y-129654819D02*
X124571429Y-129607200D01*
X124571429Y-129607200D02*
X124523810Y-129511961D01*
X124523810Y-129511961D02*
X124523810Y-129131009D01*
X124523810Y-129131009D02*
X124571429Y-129035771D01*
X124571429Y-129035771D02*
X124666667Y-128988152D01*
X124666667Y-128988152D02*
X124857143Y-128988152D01*
X124857143Y-128988152D02*
X124952381Y-129035771D01*
X124952381Y-129035771D02*
X125000000Y-129131009D01*
X125000000Y-129131009D02*
X125000000Y-129226247D01*
X125000000Y-129226247D02*
X124523810Y-129321485D01*
X125190477Y-129750057D02*
X125952381Y-129750057D01*
X126095239Y-128654819D02*
X126714286Y-128654819D01*
X126714286Y-128654819D02*
X126380953Y-129035771D01*
X126380953Y-129035771D02*
X126523810Y-129035771D01*
X126523810Y-129035771D02*
X126619048Y-129083390D01*
X126619048Y-129083390D02*
X126666667Y-129131009D01*
X126666667Y-129131009D02*
X126714286Y-129226247D01*
X126714286Y-129226247D02*
X126714286Y-129464342D01*
X126714286Y-129464342D02*
X126666667Y-129559580D01*
X126666667Y-129559580D02*
X126619048Y-129607200D01*
X126619048Y-129607200D02*
X126523810Y-129654819D01*
X126523810Y-129654819D02*
X126238096Y-129654819D01*
X126238096Y-129654819D02*
X126142858Y-129607200D01*
X126142858Y-129607200D02*
X126095239Y-129559580D01*
X127142858Y-129559580D02*
X127190477Y-129607200D01*
X127190477Y-129607200D02*
X127142858Y-129654819D01*
X127142858Y-129654819D02*
X127095239Y-129607200D01*
X127095239Y-129607200D02*
X127142858Y-129559580D01*
X127142858Y-129559580D02*
X127142858Y-129654819D01*
X127571429Y-128750057D02*
X127619048Y-128702438D01*
X127619048Y-128702438D02*
X127714286Y-128654819D01*
X127714286Y-128654819D02*
X127952381Y-128654819D01*
X127952381Y-128654819D02*
X128047619Y-128702438D01*
X128047619Y-128702438D02*
X128095238Y-128750057D01*
X128095238Y-128750057D02*
X128142857Y-128845295D01*
X128142857Y-128845295D02*
X128142857Y-128940533D01*
X128142857Y-128940533D02*
X128095238Y-129083390D01*
X128095238Y-129083390D02*
X127523810Y-129654819D01*
X127523810Y-129654819D02*
X128142857Y-129654819D01*
X128571429Y-129654819D02*
X128571429Y-128988152D01*
X128571429Y-129083390D02*
X128619048Y-129035771D01*
X128619048Y-129035771D02*
X128714286Y-128988152D01*
X128714286Y-128988152D02*
X128857143Y-128988152D01*
X128857143Y-128988152D02*
X128952381Y-129035771D01*
X128952381Y-129035771D02*
X129000000Y-129131009D01*
X129000000Y-129131009D02*
X129000000Y-129654819D01*
X129000000Y-129131009D02*
X129047619Y-129035771D01*
X129047619Y-129035771D02*
X129142857Y-128988152D01*
X129142857Y-128988152D02*
X129285714Y-128988152D01*
X129285714Y-128988152D02*
X129380953Y-129035771D01*
X129380953Y-129035771D02*
X129428572Y-129131009D01*
X129428572Y-129131009D02*
X129428572Y-129654819D01*
X129904762Y-129654819D02*
X129904762Y-128988152D01*
X129904762Y-129083390D02*
X129952381Y-129035771D01*
X129952381Y-129035771D02*
X130047619Y-128988152D01*
X130047619Y-128988152D02*
X130190476Y-128988152D01*
X130190476Y-128988152D02*
X130285714Y-129035771D01*
X130285714Y-129035771D02*
X130333333Y-129131009D01*
X130333333Y-129131009D02*
X130333333Y-129654819D01*
X130333333Y-129131009D02*
X130380952Y-129035771D01*
X130380952Y-129035771D02*
X130476190Y-128988152D01*
X130476190Y-128988152D02*
X130619047Y-128988152D01*
X130619047Y-128988152D02*
X130714286Y-129035771D01*
X130714286Y-129035771D02*
X130761905Y-129131009D01*
X130761905Y-129131009D02*
X130761905Y-129654819D01*
X131000000Y-129750057D02*
X131761904Y-129750057D01*
X132000000Y-129654819D02*
X132000000Y-128654819D01*
X132000000Y-128654819D02*
X132333333Y-129369104D01*
X132333333Y-129369104D02*
X132666666Y-128654819D01*
X132666666Y-128654819D02*
X132666666Y-129654819D01*
X133047619Y-128654819D02*
X133666666Y-128654819D01*
X133666666Y-128654819D02*
X133333333Y-129035771D01*
X133333333Y-129035771D02*
X133476190Y-129035771D01*
X133476190Y-129035771D02*
X133571428Y-129083390D01*
X133571428Y-129083390D02*
X133619047Y-129131009D01*
X133619047Y-129131009D02*
X133666666Y-129226247D01*
X133666666Y-129226247D02*
X133666666Y-129464342D01*
X133666666Y-129464342D02*
X133619047Y-129559580D01*
X133619047Y-129559580D02*
X133571428Y-129607200D01*
X133571428Y-129607200D02*
X133476190Y-129654819D01*
X133476190Y-129654819D02*
X133190476Y-129654819D01*
X133190476Y-129654819D02*
X133095238Y-129607200D01*
X133095238Y-129607200D02*
X133047619Y-129559580D01*
X123166666Y-125454819D02*
X122833333Y-124978628D01*
X122595238Y-125454819D02*
X122595238Y-124454819D01*
X122595238Y-124454819D02*
X122976190Y-124454819D01*
X122976190Y-124454819D02*
X123071428Y-124502438D01*
X123071428Y-124502438D02*
X123119047Y-124550057D01*
X123119047Y-124550057D02*
X123166666Y-124645295D01*
X123166666Y-124645295D02*
X123166666Y-124788152D01*
X123166666Y-124788152D02*
X123119047Y-124883390D01*
X123119047Y-124883390D02*
X123071428Y-124931009D01*
X123071428Y-124931009D02*
X122976190Y-124978628D01*
X122976190Y-124978628D02*
X122595238Y-124978628D01*
X123595238Y-124931009D02*
X123928571Y-124931009D01*
X124071428Y-125454819D02*
X123595238Y-125454819D01*
X123595238Y-125454819D02*
X123595238Y-124454819D01*
X123595238Y-124454819D02*
X124071428Y-124454819D01*
X124833333Y-124931009D02*
X124500000Y-124931009D01*
X124500000Y-125454819D02*
X124500000Y-124454819D01*
X124500000Y-124454819D02*
X124976190Y-124454819D01*
X125500000Y-124454819D02*
X125500000Y-124692914D01*
X125261905Y-124597676D02*
X125500000Y-124692914D01*
X125500000Y-124692914D02*
X125738095Y-124597676D01*
X125357143Y-124883390D02*
X125500000Y-124692914D01*
X125500000Y-124692914D02*
X125642857Y-124883390D01*
X126261905Y-124454819D02*
X126261905Y-124692914D01*
X126023810Y-124597676D02*
X126261905Y-124692914D01*
X126261905Y-124692914D02*
X126500000Y-124597676D01*
X126119048Y-124883390D02*
X126261905Y-124692914D01*
X126261905Y-124692914D02*
X126404762Y-124883390D01*
X110547618Y-89054819D02*
X110547618Y-89769104D01*
X110547618Y-89769104D02*
X110499999Y-89911961D01*
X110499999Y-89911961D02*
X110404761Y-90007200D01*
X110404761Y-90007200D02*
X110261904Y-90054819D01*
X110261904Y-90054819D02*
X110166666Y-90054819D01*
X110976190Y-90007200D02*
X111119047Y-90054819D01*
X111119047Y-90054819D02*
X111357142Y-90054819D01*
X111357142Y-90054819D02*
X111452380Y-90007200D01*
X111452380Y-90007200D02*
X111499999Y-89959580D01*
X111499999Y-89959580D02*
X111547618Y-89864342D01*
X111547618Y-89864342D02*
X111547618Y-89769104D01*
X111547618Y-89769104D02*
X111499999Y-89673866D01*
X111499999Y-89673866D02*
X111452380Y-89626247D01*
X111452380Y-89626247D02*
X111357142Y-89578628D01*
X111357142Y-89578628D02*
X111166666Y-89531009D01*
X111166666Y-89531009D02*
X111071428Y-89483390D01*
X111071428Y-89483390D02*
X111023809Y-89435771D01*
X111023809Y-89435771D02*
X110976190Y-89340533D01*
X110976190Y-89340533D02*
X110976190Y-89245295D01*
X110976190Y-89245295D02*
X111023809Y-89150057D01*
X111023809Y-89150057D02*
X111071428Y-89102438D01*
X111071428Y-89102438D02*
X111166666Y-89054819D01*
X111166666Y-89054819D02*
X111404761Y-89054819D01*
X111404761Y-89054819D02*
X111547618Y-89102438D01*
X111833333Y-89054819D02*
X112404761Y-89054819D01*
X112119047Y-90054819D02*
X112119047Y-89054819D01*
X113404762Y-89054819D02*
X114071428Y-89054819D01*
X114071428Y-89054819D02*
X113642857Y-90054819D01*
X112166666Y-87154819D02*
X112166666Y-87869104D01*
X112166666Y-87869104D02*
X112119047Y-88011961D01*
X112119047Y-88011961D02*
X112023809Y-88107200D01*
X112023809Y-88107200D02*
X111880952Y-88154819D01*
X111880952Y-88154819D02*
X111785714Y-88154819D01*
X112547619Y-87154819D02*
X113214285Y-87154819D01*
X113214285Y-87154819D02*
X112785714Y-88154819D01*
X38692319Y-82453333D02*
X39406604Y-82453333D01*
X39406604Y-82453333D02*
X39549461Y-82500952D01*
X39549461Y-82500952D02*
X39644700Y-82596190D01*
X39644700Y-82596190D02*
X39692319Y-82739047D01*
X39692319Y-82739047D02*
X39692319Y-82834285D01*
X39692319Y-81453333D02*
X39692319Y-82024761D01*
X39692319Y-81739047D02*
X38692319Y-81739047D01*
X38692319Y-81739047D02*
X38835176Y-81834285D01*
X38835176Y-81834285D02*
X38930414Y-81929523D01*
X38930414Y-81929523D02*
X38978033Y-82024761D01*
X133047618Y-89054819D02*
X133047618Y-89769104D01*
X133047618Y-89769104D02*
X132999999Y-89911961D01*
X132999999Y-89911961D02*
X132904761Y-90007200D01*
X132904761Y-90007200D02*
X132761904Y-90054819D01*
X132761904Y-90054819D02*
X132666666Y-90054819D01*
X133476190Y-90007200D02*
X133619047Y-90054819D01*
X133619047Y-90054819D02*
X133857142Y-90054819D01*
X133857142Y-90054819D02*
X133952380Y-90007200D01*
X133952380Y-90007200D02*
X133999999Y-89959580D01*
X133999999Y-89959580D02*
X134047618Y-89864342D01*
X134047618Y-89864342D02*
X134047618Y-89769104D01*
X134047618Y-89769104D02*
X133999999Y-89673866D01*
X133999999Y-89673866D02*
X133952380Y-89626247D01*
X133952380Y-89626247D02*
X133857142Y-89578628D01*
X133857142Y-89578628D02*
X133666666Y-89531009D01*
X133666666Y-89531009D02*
X133571428Y-89483390D01*
X133571428Y-89483390D02*
X133523809Y-89435771D01*
X133523809Y-89435771D02*
X133476190Y-89340533D01*
X133476190Y-89340533D02*
X133476190Y-89245295D01*
X133476190Y-89245295D02*
X133523809Y-89150057D01*
X133523809Y-89150057D02*
X133571428Y-89102438D01*
X133571428Y-89102438D02*
X133666666Y-89054819D01*
X133666666Y-89054819D02*
X133904761Y-89054819D01*
X133904761Y-89054819D02*
X134047618Y-89102438D01*
X134333333Y-89054819D02*
X134904761Y-89054819D01*
X134619047Y-90054819D02*
X134619047Y-89054819D01*
X135904762Y-89054819D02*
X136571428Y-89054819D01*
X136571428Y-89054819D02*
X136142857Y-90054819D01*
X134666666Y-87154819D02*
X134666666Y-87869104D01*
X134666666Y-87869104D02*
X134619047Y-88011961D01*
X134619047Y-88011961D02*
X134523809Y-88107200D01*
X134523809Y-88107200D02*
X134380952Y-88154819D01*
X134380952Y-88154819D02*
X134285714Y-88154819D01*
X135190476Y-88154819D02*
X135380952Y-88154819D01*
X135380952Y-88154819D02*
X135476190Y-88107200D01*
X135476190Y-88107200D02*
X135523809Y-88059580D01*
X135523809Y-88059580D02*
X135619047Y-87916723D01*
X135619047Y-87916723D02*
X135666666Y-87726247D01*
X135666666Y-87726247D02*
X135666666Y-87345295D01*
X135666666Y-87345295D02*
X135619047Y-87250057D01*
X135619047Y-87250057D02*
X135571428Y-87202438D01*
X135571428Y-87202438D02*
X135476190Y-87154819D01*
X135476190Y-87154819D02*
X135285714Y-87154819D01*
X135285714Y-87154819D02*
X135190476Y-87202438D01*
X135190476Y-87202438D02*
X135142857Y-87250057D01*
X135142857Y-87250057D02*
X135095238Y-87345295D01*
X135095238Y-87345295D02*
X135095238Y-87583390D01*
X135095238Y-87583390D02*
X135142857Y-87678628D01*
X135142857Y-87678628D02*
X135190476Y-87726247D01*
X135190476Y-87726247D02*
X135285714Y-87773866D01*
X135285714Y-87773866D02*
X135476190Y-87773866D01*
X135476190Y-87773866D02*
X135571428Y-87726247D01*
X135571428Y-87726247D02*
X135619047Y-87678628D01*
X135619047Y-87678628D02*
X135666666Y-87583390D01*
X65547618Y-89054819D02*
X65547618Y-89769104D01*
X65547618Y-89769104D02*
X65499999Y-89911961D01*
X65499999Y-89911961D02*
X65404761Y-90007200D01*
X65404761Y-90007200D02*
X65261904Y-90054819D01*
X65261904Y-90054819D02*
X65166666Y-90054819D01*
X65976190Y-90007200D02*
X66119047Y-90054819D01*
X66119047Y-90054819D02*
X66357142Y-90054819D01*
X66357142Y-90054819D02*
X66452380Y-90007200D01*
X66452380Y-90007200D02*
X66499999Y-89959580D01*
X66499999Y-89959580D02*
X66547618Y-89864342D01*
X66547618Y-89864342D02*
X66547618Y-89769104D01*
X66547618Y-89769104D02*
X66499999Y-89673866D01*
X66499999Y-89673866D02*
X66452380Y-89626247D01*
X66452380Y-89626247D02*
X66357142Y-89578628D01*
X66357142Y-89578628D02*
X66166666Y-89531009D01*
X66166666Y-89531009D02*
X66071428Y-89483390D01*
X66071428Y-89483390D02*
X66023809Y-89435771D01*
X66023809Y-89435771D02*
X65976190Y-89340533D01*
X65976190Y-89340533D02*
X65976190Y-89245295D01*
X65976190Y-89245295D02*
X66023809Y-89150057D01*
X66023809Y-89150057D02*
X66071428Y-89102438D01*
X66071428Y-89102438D02*
X66166666Y-89054819D01*
X66166666Y-89054819D02*
X66404761Y-89054819D01*
X66404761Y-89054819D02*
X66547618Y-89102438D01*
X66833333Y-89054819D02*
X67404761Y-89054819D01*
X67119047Y-90054819D02*
X67119047Y-89054819D01*
X68404762Y-89054819D02*
X69071428Y-89054819D01*
X69071428Y-89054819D02*
X68642857Y-90054819D01*
X67166666Y-87154819D02*
X67166666Y-87869104D01*
X67166666Y-87869104D02*
X67119047Y-88011961D01*
X67119047Y-88011961D02*
X67023809Y-88107200D01*
X67023809Y-88107200D02*
X66880952Y-88154819D01*
X66880952Y-88154819D02*
X66785714Y-88154819D01*
X67547619Y-87154819D02*
X68166666Y-87154819D01*
X68166666Y-87154819D02*
X67833333Y-87535771D01*
X67833333Y-87535771D02*
X67976190Y-87535771D01*
X67976190Y-87535771D02*
X68071428Y-87583390D01*
X68071428Y-87583390D02*
X68119047Y-87631009D01*
X68119047Y-87631009D02*
X68166666Y-87726247D01*
X68166666Y-87726247D02*
X68166666Y-87964342D01*
X68166666Y-87964342D02*
X68119047Y-88059580D01*
X68119047Y-88059580D02*
X68071428Y-88107200D01*
X68071428Y-88107200D02*
X67976190Y-88154819D01*
X67976190Y-88154819D02*
X67690476Y-88154819D01*
X67690476Y-88154819D02*
X67595238Y-88107200D01*
X67595238Y-88107200D02*
X67547619Y-88059580D01*
X103087142Y-137494819D02*
X102610952Y-137494819D01*
X102610952Y-137494819D02*
X102610952Y-136494819D01*
X103420476Y-136971009D02*
X103753809Y-136971009D01*
X103896666Y-137494819D02*
X103420476Y-137494819D01*
X103420476Y-137494819D02*
X103420476Y-136494819D01*
X103420476Y-136494819D02*
X103896666Y-136494819D01*
X104325238Y-137494819D02*
X104325238Y-136494819D01*
X104325238Y-136494819D02*
X104563333Y-136494819D01*
X104563333Y-136494819D02*
X104706190Y-136542438D01*
X104706190Y-136542438D02*
X104801428Y-136637676D01*
X104801428Y-136637676D02*
X104849047Y-136732914D01*
X104849047Y-136732914D02*
X104896666Y-136923390D01*
X104896666Y-136923390D02*
X104896666Y-137066247D01*
X104896666Y-137066247D02*
X104849047Y-137256723D01*
X104849047Y-137256723D02*
X104801428Y-137351961D01*
X104801428Y-137351961D02*
X104706190Y-137447200D01*
X104706190Y-137447200D02*
X104563333Y-137494819D01*
X104563333Y-137494819D02*
X104325238Y-137494819D01*
X138453333Y-127734819D02*
X138120000Y-127258628D01*
X137881905Y-127734819D02*
X137881905Y-126734819D01*
X137881905Y-126734819D02*
X138262857Y-126734819D01*
X138262857Y-126734819D02*
X138358095Y-126782438D01*
X138358095Y-126782438D02*
X138405714Y-126830057D01*
X138405714Y-126830057D02*
X138453333Y-126925295D01*
X138453333Y-126925295D02*
X138453333Y-127068152D01*
X138453333Y-127068152D02*
X138405714Y-127163390D01*
X138405714Y-127163390D02*
X138358095Y-127211009D01*
X138358095Y-127211009D02*
X138262857Y-127258628D01*
X138262857Y-127258628D02*
X137881905Y-127258628D01*
X139310476Y-126734819D02*
X139120000Y-126734819D01*
X139120000Y-126734819D02*
X139024762Y-126782438D01*
X139024762Y-126782438D02*
X138977143Y-126830057D01*
X138977143Y-126830057D02*
X138881905Y-126972914D01*
X138881905Y-126972914D02*
X138834286Y-127163390D01*
X138834286Y-127163390D02*
X138834286Y-127544342D01*
X138834286Y-127544342D02*
X138881905Y-127639580D01*
X138881905Y-127639580D02*
X138929524Y-127687200D01*
X138929524Y-127687200D02*
X139024762Y-127734819D01*
X139024762Y-127734819D02*
X139215238Y-127734819D01*
X139215238Y-127734819D02*
X139310476Y-127687200D01*
X139310476Y-127687200D02*
X139358095Y-127639580D01*
X139358095Y-127639580D02*
X139405714Y-127544342D01*
X139405714Y-127544342D02*
X139405714Y-127306247D01*
X139405714Y-127306247D02*
X139358095Y-127211009D01*
X139358095Y-127211009D02*
X139310476Y-127163390D01*
X139310476Y-127163390D02*
X139215238Y-127115771D01*
X139215238Y-127115771D02*
X139024762Y-127115771D01*
X139024762Y-127115771D02*
X138929524Y-127163390D01*
X138929524Y-127163390D02*
X138881905Y-127211009D01*
X138881905Y-127211009D02*
X138834286Y-127306247D01*
X138453333Y-130454819D02*
X138120000Y-129978628D01*
X137881905Y-130454819D02*
X137881905Y-129454819D01*
X137881905Y-129454819D02*
X138262857Y-129454819D01*
X138262857Y-129454819D02*
X138358095Y-129502438D01*
X138358095Y-129502438D02*
X138405714Y-129550057D01*
X138405714Y-129550057D02*
X138453333Y-129645295D01*
X138453333Y-129645295D02*
X138453333Y-129788152D01*
X138453333Y-129788152D02*
X138405714Y-129883390D01*
X138405714Y-129883390D02*
X138358095Y-129931009D01*
X138358095Y-129931009D02*
X138262857Y-129978628D01*
X138262857Y-129978628D02*
X137881905Y-129978628D01*
X139310476Y-129454819D02*
X139120000Y-129454819D01*
X139120000Y-129454819D02*
X139024762Y-129502438D01*
X139024762Y-129502438D02*
X138977143Y-129550057D01*
X138977143Y-129550057D02*
X138881905Y-129692914D01*
X138881905Y-129692914D02*
X138834286Y-129883390D01*
X138834286Y-129883390D02*
X138834286Y-130264342D01*
X138834286Y-130264342D02*
X138881905Y-130359580D01*
X138881905Y-130359580D02*
X138929524Y-130407200D01*
X138929524Y-130407200D02*
X139024762Y-130454819D01*
X139024762Y-130454819D02*
X139215238Y-130454819D01*
X139215238Y-130454819D02*
X139310476Y-130407200D01*
X139310476Y-130407200D02*
X139358095Y-130359580D01*
X139358095Y-130359580D02*
X139405714Y-130264342D01*
X139405714Y-130264342D02*
X139405714Y-130026247D01*
X139405714Y-130026247D02*
X139358095Y-129931009D01*
X139358095Y-129931009D02*
X139310476Y-129883390D01*
X139310476Y-129883390D02*
X139215238Y-129835771D01*
X139215238Y-129835771D02*
X139024762Y-129835771D01*
X139024762Y-129835771D02*
X138929524Y-129883390D01*
X138929524Y-129883390D02*
X138881905Y-129931009D01*
X138881905Y-129931009D02*
X138834286Y-130026247D01*
X133048095Y-102124819D02*
X133048095Y-102934342D01*
X133048095Y-102934342D02*
X133095714Y-103029580D01*
X133095714Y-103029580D02*
X133143333Y-103077200D01*
X133143333Y-103077200D02*
X133238571Y-103124819D01*
X133238571Y-103124819D02*
X133429047Y-103124819D01*
X133429047Y-103124819D02*
X133524285Y-103077200D01*
X133524285Y-103077200D02*
X133571904Y-103029580D01*
X133571904Y-103029580D02*
X133619523Y-102934342D01*
X133619523Y-102934342D02*
X133619523Y-102124819D01*
X134524285Y-102124819D02*
X134333809Y-102124819D01*
X134333809Y-102124819D02*
X134238571Y-102172438D01*
X134238571Y-102172438D02*
X134190952Y-102220057D01*
X134190952Y-102220057D02*
X134095714Y-102362914D01*
X134095714Y-102362914D02*
X134048095Y-102553390D01*
X134048095Y-102553390D02*
X134048095Y-102934342D01*
X134048095Y-102934342D02*
X134095714Y-103029580D01*
X134095714Y-103029580D02*
X134143333Y-103077200D01*
X134143333Y-103077200D02*
X134238571Y-103124819D01*
X134238571Y-103124819D02*
X134429047Y-103124819D01*
X134429047Y-103124819D02*
X134524285Y-103077200D01*
X134524285Y-103077200D02*
X134571904Y-103029580D01*
X134571904Y-103029580D02*
X134619523Y-102934342D01*
X134619523Y-102934342D02*
X134619523Y-102696247D01*
X134619523Y-102696247D02*
X134571904Y-102601009D01*
X134571904Y-102601009D02*
X134524285Y-102553390D01*
X134524285Y-102553390D02*
X134429047Y-102505771D01*
X134429047Y-102505771D02*
X134238571Y-102505771D01*
X134238571Y-102505771D02*
X134143333Y-102553390D01*
X134143333Y-102553390D02*
X134095714Y-102601009D01*
X134095714Y-102601009D02*
X134048095Y-102696247D01*
X133048095Y-112074819D02*
X133048095Y-112884342D01*
X133048095Y-112884342D02*
X133095714Y-112979580D01*
X133095714Y-112979580D02*
X133143333Y-113027200D01*
X133143333Y-113027200D02*
X133238571Y-113074819D01*
X133238571Y-113074819D02*
X133429047Y-113074819D01*
X133429047Y-113074819D02*
X133524285Y-113027200D01*
X133524285Y-113027200D02*
X133571904Y-112979580D01*
X133571904Y-112979580D02*
X133619523Y-112884342D01*
X133619523Y-112884342D02*
X133619523Y-112074819D01*
X134524285Y-112074819D02*
X134333809Y-112074819D01*
X134333809Y-112074819D02*
X134238571Y-112122438D01*
X134238571Y-112122438D02*
X134190952Y-112170057D01*
X134190952Y-112170057D02*
X134095714Y-112312914D01*
X134095714Y-112312914D02*
X134048095Y-112503390D01*
X134048095Y-112503390D02*
X134048095Y-112884342D01*
X134048095Y-112884342D02*
X134095714Y-112979580D01*
X134095714Y-112979580D02*
X134143333Y-113027200D01*
X134143333Y-113027200D02*
X134238571Y-113074819D01*
X134238571Y-113074819D02*
X134429047Y-113074819D01*
X134429047Y-113074819D02*
X134524285Y-113027200D01*
X134524285Y-113027200D02*
X134571904Y-112979580D01*
X134571904Y-112979580D02*
X134619523Y-112884342D01*
X134619523Y-112884342D02*
X134619523Y-112646247D01*
X134619523Y-112646247D02*
X134571904Y-112551009D01*
X134571904Y-112551009D02*
X134524285Y-112503390D01*
X134524285Y-112503390D02*
X134429047Y-112455771D01*
X134429047Y-112455771D02*
X134238571Y-112455771D01*
X134238571Y-112455771D02*
X134143333Y-112503390D01*
X134143333Y-112503390D02*
X134095714Y-112551009D01*
X134095714Y-112551009D02*
X134048095Y-112646247D01*
X83087142Y-137494819D02*
X82610952Y-137494819D01*
X82610952Y-137494819D02*
X82610952Y-136494819D01*
X83420476Y-136971009D02*
X83753809Y-136971009D01*
X83896666Y-137494819D02*
X83420476Y-137494819D01*
X83420476Y-137494819D02*
X83420476Y-136494819D01*
X83420476Y-136494819D02*
X83896666Y-136494819D01*
X84325238Y-137494819D02*
X84325238Y-136494819D01*
X84325238Y-136494819D02*
X84563333Y-136494819D01*
X84563333Y-136494819D02*
X84706190Y-136542438D01*
X84706190Y-136542438D02*
X84801428Y-136637676D01*
X84801428Y-136637676D02*
X84849047Y-136732914D01*
X84849047Y-136732914D02*
X84896666Y-136923390D01*
X84896666Y-136923390D02*
X84896666Y-137066247D01*
X84896666Y-137066247D02*
X84849047Y-137256723D01*
X84849047Y-137256723D02*
X84801428Y-137351961D01*
X84801428Y-137351961D02*
X84706190Y-137447200D01*
X84706190Y-137447200D02*
X84563333Y-137494819D01*
X84563333Y-137494819D02*
X84325238Y-137494819D01*
X88047618Y-99054819D02*
X88047618Y-99769104D01*
X88047618Y-99769104D02*
X87999999Y-99911961D01*
X87999999Y-99911961D02*
X87904761Y-100007200D01*
X87904761Y-100007200D02*
X87761904Y-100054819D01*
X87761904Y-100054819D02*
X87666666Y-100054819D01*
X88476190Y-100007200D02*
X88619047Y-100054819D01*
X88619047Y-100054819D02*
X88857142Y-100054819D01*
X88857142Y-100054819D02*
X88952380Y-100007200D01*
X88952380Y-100007200D02*
X88999999Y-99959580D01*
X88999999Y-99959580D02*
X89047618Y-99864342D01*
X89047618Y-99864342D02*
X89047618Y-99769104D01*
X89047618Y-99769104D02*
X88999999Y-99673866D01*
X88999999Y-99673866D02*
X88952380Y-99626247D01*
X88952380Y-99626247D02*
X88857142Y-99578628D01*
X88857142Y-99578628D02*
X88666666Y-99531009D01*
X88666666Y-99531009D02*
X88571428Y-99483390D01*
X88571428Y-99483390D02*
X88523809Y-99435771D01*
X88523809Y-99435771D02*
X88476190Y-99340533D01*
X88476190Y-99340533D02*
X88476190Y-99245295D01*
X88476190Y-99245295D02*
X88523809Y-99150057D01*
X88523809Y-99150057D02*
X88571428Y-99102438D01*
X88571428Y-99102438D02*
X88666666Y-99054819D01*
X88666666Y-99054819D02*
X88904761Y-99054819D01*
X88904761Y-99054819D02*
X89047618Y-99102438D01*
X89333333Y-99054819D02*
X89904761Y-99054819D01*
X89619047Y-100054819D02*
X89619047Y-99054819D01*
X90904762Y-99054819D02*
X91571428Y-99054819D01*
X91571428Y-99054819D02*
X91142857Y-100054819D01*
X89666666Y-97154819D02*
X89666666Y-97869104D01*
X89666666Y-97869104D02*
X89619047Y-98011961D01*
X89619047Y-98011961D02*
X89523809Y-98107200D01*
X89523809Y-98107200D02*
X89380952Y-98154819D01*
X89380952Y-98154819D02*
X89285714Y-98154819D01*
X90571428Y-97488152D02*
X90571428Y-98154819D01*
X90333333Y-97107200D02*
X90095238Y-97821485D01*
X90095238Y-97821485D02*
X90714285Y-97821485D01*
X66088095Y-105304819D02*
X66088095Y-106114342D01*
X66088095Y-106114342D02*
X66135714Y-106209580D01*
X66135714Y-106209580D02*
X66183333Y-106257200D01*
X66183333Y-106257200D02*
X66278571Y-106304819D01*
X66278571Y-106304819D02*
X66469047Y-106304819D01*
X66469047Y-106304819D02*
X66564285Y-106257200D01*
X66564285Y-106257200D02*
X66611904Y-106209580D01*
X66611904Y-106209580D02*
X66659523Y-106114342D01*
X66659523Y-106114342D02*
X66659523Y-105304819D01*
X67040476Y-105304819D02*
X67659523Y-105304819D01*
X67659523Y-105304819D02*
X67326190Y-105685771D01*
X67326190Y-105685771D02*
X67469047Y-105685771D01*
X67469047Y-105685771D02*
X67564285Y-105733390D01*
X67564285Y-105733390D02*
X67611904Y-105781009D01*
X67611904Y-105781009D02*
X67659523Y-105876247D01*
X67659523Y-105876247D02*
X67659523Y-106114342D01*
X67659523Y-106114342D02*
X67611904Y-106209580D01*
X67611904Y-106209580D02*
X67564285Y-106257200D01*
X67564285Y-106257200D02*
X67469047Y-106304819D01*
X67469047Y-106304819D02*
X67183333Y-106304819D01*
X67183333Y-106304819D02*
X67088095Y-106257200D01*
X67088095Y-106257200D02*
X67040476Y-106209580D01*
X29859819Y-96811904D02*
X30669342Y-96811904D01*
X30669342Y-96811904D02*
X30764580Y-96764285D01*
X30764580Y-96764285D02*
X30812200Y-96716666D01*
X30812200Y-96716666D02*
X30859819Y-96621428D01*
X30859819Y-96621428D02*
X30859819Y-96430952D01*
X30859819Y-96430952D02*
X30812200Y-96335714D01*
X30812200Y-96335714D02*
X30764580Y-96288095D01*
X30764580Y-96288095D02*
X30669342Y-96240476D01*
X30669342Y-96240476D02*
X29859819Y-96240476D01*
X29859819Y-95573809D02*
X29859819Y-95478571D01*
X29859819Y-95478571D02*
X29907438Y-95383333D01*
X29907438Y-95383333D02*
X29955057Y-95335714D01*
X29955057Y-95335714D02*
X30050295Y-95288095D01*
X30050295Y-95288095D02*
X30240771Y-95240476D01*
X30240771Y-95240476D02*
X30478866Y-95240476D01*
X30478866Y-95240476D02*
X30669342Y-95288095D01*
X30669342Y-95288095D02*
X30764580Y-95335714D01*
X30764580Y-95335714D02*
X30812200Y-95383333D01*
X30812200Y-95383333D02*
X30859819Y-95478571D01*
X30859819Y-95478571D02*
X30859819Y-95573809D01*
X30859819Y-95573809D02*
X30812200Y-95669047D01*
X30812200Y-95669047D02*
X30764580Y-95716666D01*
X30764580Y-95716666D02*
X30669342Y-95764285D01*
X30669342Y-95764285D02*
X30478866Y-95811904D01*
X30478866Y-95811904D02*
X30240771Y-95811904D01*
X30240771Y-95811904D02*
X30050295Y-95764285D01*
X30050295Y-95764285D02*
X29955057Y-95716666D01*
X29955057Y-95716666D02*
X29907438Y-95669047D01*
X29907438Y-95669047D02*
X29859819Y-95573809D01*
X29859819Y-96811904D02*
X30669342Y-96811904D01*
X30669342Y-96811904D02*
X30764580Y-96764285D01*
X30764580Y-96764285D02*
X30812200Y-96716666D01*
X30812200Y-96716666D02*
X30859819Y-96621428D01*
X30859819Y-96621428D02*
X30859819Y-96430952D01*
X30859819Y-96430952D02*
X30812200Y-96335714D01*
X30812200Y-96335714D02*
X30764580Y-96288095D01*
X30764580Y-96288095D02*
X30669342Y-96240476D01*
X30669342Y-96240476D02*
X29859819Y-96240476D01*
X29859819Y-95573809D02*
X29859819Y-95478571D01*
X29859819Y-95478571D02*
X29907438Y-95383333D01*
X29907438Y-95383333D02*
X29955057Y-95335714D01*
X29955057Y-95335714D02*
X30050295Y-95288095D01*
X30050295Y-95288095D02*
X30240771Y-95240476D01*
X30240771Y-95240476D02*
X30478866Y-95240476D01*
X30478866Y-95240476D02*
X30669342Y-95288095D01*
X30669342Y-95288095D02*
X30764580Y-95335714D01*
X30764580Y-95335714D02*
X30812200Y-95383333D01*
X30812200Y-95383333D02*
X30859819Y-95478571D01*
X30859819Y-95478571D02*
X30859819Y-95573809D01*
X30859819Y-95573809D02*
X30812200Y-95669047D01*
X30812200Y-95669047D02*
X30764580Y-95716666D01*
X30764580Y-95716666D02*
X30669342Y-95764285D01*
X30669342Y-95764285D02*
X30478866Y-95811904D01*
X30478866Y-95811904D02*
X30240771Y-95811904D01*
X30240771Y-95811904D02*
X30050295Y-95764285D01*
X30050295Y-95764285D02*
X29955057Y-95716666D01*
X29955057Y-95716666D02*
X29907438Y-95669047D01*
X29907438Y-95669047D02*
X29859819Y-95573809D01*
X88047618Y-89054819D02*
X88047618Y-89769104D01*
X88047618Y-89769104D02*
X87999999Y-89911961D01*
X87999999Y-89911961D02*
X87904761Y-90007200D01*
X87904761Y-90007200D02*
X87761904Y-90054819D01*
X87761904Y-90054819D02*
X87666666Y-90054819D01*
X88476190Y-90007200D02*
X88619047Y-90054819D01*
X88619047Y-90054819D02*
X88857142Y-90054819D01*
X88857142Y-90054819D02*
X88952380Y-90007200D01*
X88952380Y-90007200D02*
X88999999Y-89959580D01*
X88999999Y-89959580D02*
X89047618Y-89864342D01*
X89047618Y-89864342D02*
X89047618Y-89769104D01*
X89047618Y-89769104D02*
X88999999Y-89673866D01*
X88999999Y-89673866D02*
X88952380Y-89626247D01*
X88952380Y-89626247D02*
X88857142Y-89578628D01*
X88857142Y-89578628D02*
X88666666Y-89531009D01*
X88666666Y-89531009D02*
X88571428Y-89483390D01*
X88571428Y-89483390D02*
X88523809Y-89435771D01*
X88523809Y-89435771D02*
X88476190Y-89340533D01*
X88476190Y-89340533D02*
X88476190Y-89245295D01*
X88476190Y-89245295D02*
X88523809Y-89150057D01*
X88523809Y-89150057D02*
X88571428Y-89102438D01*
X88571428Y-89102438D02*
X88666666Y-89054819D01*
X88666666Y-89054819D02*
X88904761Y-89054819D01*
X88904761Y-89054819D02*
X89047618Y-89102438D01*
X89333333Y-89054819D02*
X89904761Y-89054819D01*
X89619047Y-90054819D02*
X89619047Y-89054819D01*
X90904762Y-89054819D02*
X91571428Y-89054819D01*
X91571428Y-89054819D02*
X91142857Y-90054819D01*
X89666666Y-87154819D02*
X89666666Y-87869104D01*
X89666666Y-87869104D02*
X89619047Y-88011961D01*
X89619047Y-88011961D02*
X89523809Y-88107200D01*
X89523809Y-88107200D02*
X89380952Y-88154819D01*
X89380952Y-88154819D02*
X89285714Y-88154819D01*
X90619047Y-87154819D02*
X90142857Y-87154819D01*
X90142857Y-87154819D02*
X90095238Y-87631009D01*
X90095238Y-87631009D02*
X90142857Y-87583390D01*
X90142857Y-87583390D02*
X90238095Y-87535771D01*
X90238095Y-87535771D02*
X90476190Y-87535771D01*
X90476190Y-87535771D02*
X90571428Y-87583390D01*
X90571428Y-87583390D02*
X90619047Y-87631009D01*
X90619047Y-87631009D02*
X90666666Y-87726247D01*
X90666666Y-87726247D02*
X90666666Y-87964342D01*
X90666666Y-87964342D02*
X90619047Y-88059580D01*
X90619047Y-88059580D02*
X90571428Y-88107200D01*
X90571428Y-88107200D02*
X90476190Y-88154819D01*
X90476190Y-88154819D02*
X90238095Y-88154819D01*
X90238095Y-88154819D02*
X90142857Y-88107200D01*
X90142857Y-88107200D02*
X90095238Y-88059580D01*
X38453333Y-127734819D02*
X38120000Y-127258628D01*
X37881905Y-127734819D02*
X37881905Y-126734819D01*
X37881905Y-126734819D02*
X38262857Y-126734819D01*
X38262857Y-126734819D02*
X38358095Y-126782438D01*
X38358095Y-126782438D02*
X38405714Y-126830057D01*
X38405714Y-126830057D02*
X38453333Y-126925295D01*
X38453333Y-126925295D02*
X38453333Y-127068152D01*
X38453333Y-127068152D02*
X38405714Y-127163390D01*
X38405714Y-127163390D02*
X38358095Y-127211009D01*
X38358095Y-127211009D02*
X38262857Y-127258628D01*
X38262857Y-127258628D02*
X37881905Y-127258628D01*
X39405714Y-127734819D02*
X38834286Y-127734819D01*
X39120000Y-127734819D02*
X39120000Y-126734819D01*
X39120000Y-126734819D02*
X39024762Y-126877676D01*
X39024762Y-126877676D02*
X38929524Y-126972914D01*
X38929524Y-126972914D02*
X38834286Y-127020533D01*
X38453333Y-130454819D02*
X38120000Y-129978628D01*
X37881905Y-130454819D02*
X37881905Y-129454819D01*
X37881905Y-129454819D02*
X38262857Y-129454819D01*
X38262857Y-129454819D02*
X38358095Y-129502438D01*
X38358095Y-129502438D02*
X38405714Y-129550057D01*
X38405714Y-129550057D02*
X38453333Y-129645295D01*
X38453333Y-129645295D02*
X38453333Y-129788152D01*
X38453333Y-129788152D02*
X38405714Y-129883390D01*
X38405714Y-129883390D02*
X38358095Y-129931009D01*
X38358095Y-129931009D02*
X38262857Y-129978628D01*
X38262857Y-129978628D02*
X37881905Y-129978628D01*
X39405714Y-130454819D02*
X38834286Y-130454819D01*
X39120000Y-130454819D02*
X39120000Y-129454819D01*
X39120000Y-129454819D02*
X39024762Y-129597676D01*
X39024762Y-129597676D02*
X38929524Y-129692914D01*
X38929524Y-129692914D02*
X38834286Y-129740533D01*
D11*
%TO.C,R2*%
X51000000Y-130000000D02*
X54120000Y-130000000D01*
X63120000Y-128400000D02*
X54120000Y-128400000D01*
X66240000Y-130000000D02*
X63120000Y-130000000D01*
X54120000Y-128400000D02*
X54120000Y-131600000D01*
X63120000Y-131600000D02*
X63120000Y-128400000D01*
X54120000Y-131600000D02*
X63120000Y-131600000D01*
%TO.C,D2*%
X65230000Y-141166190D02*
X65230000Y-138833810D01*
X65230554Y-138834525D02*
G75*
G03*
X65229999Y-141166190I-1500554J-1165475D01*
G01*
X65230000Y-140000000D02*
G75*
G03*
X65230000Y-140000000I-1500000J0D01*
G01*
%TO.C,U4*%
X95635000Y-103730000D02*
X100985000Y-103730000D01*
X100985000Y-103730000D02*
X100985000Y-121510000D01*
X94635000Y-104730000D02*
X95635000Y-103730000D01*
X100985000Y-121510000D02*
X94635000Y-121510000D01*
X94635000Y-121510000D02*
X94635000Y-104730000D01*
%TO.C,R99*%
X43506000Y-95580000D02*
X52506000Y-95580000D01*
X40386000Y-93980000D02*
X43506000Y-93980000D01*
X52506000Y-95580000D02*
X52506000Y-92380000D01*
X43506000Y-92380000D02*
X43506000Y-95580000D01*
X55626000Y-93980000D02*
X52506000Y-93980000D01*
X52506000Y-92380000D02*
X43506000Y-92380000D01*
%TO.C,D5*%
X125230000Y-141166190D02*
X125230000Y-138833810D01*
X125230554Y-138834525D02*
G75*
G03*
X125229999Y-141166190I-1500554J-1165475D01*
G01*
X125230000Y-140000000D02*
G75*
G03*
X125230000Y-140000000I-1500000J0D01*
G01*
%TO.C,D6*%
X145230000Y-141166190D02*
X145230000Y-138833810D01*
X145230554Y-138834525D02*
G75*
G03*
X145229999Y-141166190I-1500554J-1165475D01*
G01*
X145230000Y-140000000D02*
G75*
G03*
X145230000Y-140000000I-1500000J0D01*
G01*
%TO.C,U5*%
X112635000Y-104730000D02*
X113635000Y-103730000D01*
X112635000Y-121510000D02*
X112635000Y-104730000D01*
X113635000Y-103730000D02*
X118985000Y-103730000D01*
X118985000Y-121510000D02*
X112635000Y-121510000D01*
X118985000Y-103730000D02*
X118985000Y-121510000D01*
%TO.C,U2*%
X64985000Y-121510000D02*
X58635000Y-121510000D01*
X64985000Y-103730000D02*
X64985000Y-121510000D01*
X58635000Y-121510000D02*
X58635000Y-104730000D01*
X59635000Y-103730000D02*
X64985000Y-103730000D01*
X58635000Y-104730000D02*
X59635000Y-103730000D01*
%TO.C,R98*%
X40360000Y-98620000D02*
X43480000Y-98620000D01*
X55600000Y-98620000D02*
X52480000Y-98620000D01*
X43480000Y-97020000D02*
X43480000Y-100220000D01*
X52480000Y-97020000D02*
X43480000Y-97020000D01*
X52480000Y-100220000D02*
X52480000Y-97020000D01*
X43480000Y-100220000D02*
X52480000Y-100220000D01*
%TO.C,J6*%
X104375000Y-92650000D02*
X105000000Y-93650000D01*
X102550000Y-92650000D02*
X102550000Y-98400000D01*
X102550000Y-98400000D02*
X122450000Y-98400000D01*
X122450000Y-92650000D02*
X102550000Y-92650000D01*
X105000000Y-93650000D02*
X105625000Y-92650000D01*
X122450000Y-98400000D02*
X122450000Y-92650000D01*
%TO.C,R4*%
X103120000Y-128400000D02*
X94120000Y-128400000D01*
X94120000Y-131600000D02*
X103120000Y-131600000D01*
X91000000Y-130000000D02*
X94120000Y-130000000D01*
X103120000Y-131600000D02*
X103120000Y-128400000D01*
X106240000Y-130000000D02*
X103120000Y-130000000D01*
X94120000Y-128400000D02*
X94120000Y-131600000D01*
%TO.C,U1*%
X40635000Y-121510000D02*
X40635000Y-104730000D01*
X46985000Y-103730000D02*
X46985000Y-121510000D01*
X46985000Y-121510000D02*
X40635000Y-121510000D01*
X41635000Y-103730000D02*
X46985000Y-103730000D01*
X40635000Y-104730000D02*
X41635000Y-103730000D01*
%TO.C,R3*%
X74120000Y-131600000D02*
X83120000Y-131600000D01*
X74120000Y-128400000D02*
X74120000Y-131600000D01*
X83120000Y-128400000D02*
X74120000Y-128400000D01*
X71000000Y-130000000D02*
X74120000Y-130000000D01*
X83120000Y-131600000D02*
X83120000Y-128400000D01*
X86240000Y-130000000D02*
X83120000Y-130000000D01*
%TO.C,D1*%
X45230000Y-141166190D02*
X45230000Y-138833810D01*
X45230554Y-138834525D02*
G75*
G03*
X45229999Y-141166190I-1500554J-1165475D01*
G01*
X45230000Y-140000000D02*
G75*
G03*
X45230000Y-140000000I-1500000J0D01*
G01*
%TO.C,R5*%
X123120000Y-131600000D02*
X123120000Y-128400000D01*
X114120000Y-131600000D02*
X123120000Y-131600000D01*
X114120000Y-128400000D02*
X114120000Y-131600000D01*
X126240000Y-130000000D02*
X123120000Y-130000000D01*
X111000000Y-130000000D02*
X114120000Y-130000000D01*
X123120000Y-128400000D02*
X114120000Y-128400000D01*
%TO.C,J8*%
X125050000Y-92650000D02*
X125050000Y-98400000D01*
X127500000Y-93650000D02*
X128125000Y-92650000D01*
X125050000Y-98400000D02*
X144950000Y-98400000D01*
X144950000Y-98400000D02*
X144950000Y-92650000D01*
X126875000Y-92650000D02*
X127500000Y-93650000D01*
X144950000Y-92650000D02*
X125050000Y-92650000D01*
%TO.C,J7*%
X104375000Y-82650000D02*
X105000000Y-83650000D01*
X122450000Y-82650000D02*
X102550000Y-82650000D01*
X105000000Y-83650000D02*
X105625000Y-82650000D01*
X122450000Y-88400000D02*
X122450000Y-82650000D01*
X102550000Y-88400000D02*
X122450000Y-88400000D01*
X102550000Y-82650000D02*
X102550000Y-88400000D01*
%TO.C,J1*%
X40792925Y-85116787D02*
X40037500Y-85920000D01*
X40787500Y-74920000D02*
X31787500Y-74920000D01*
X40787500Y-71420000D02*
X31787500Y-71420000D01*
X31787500Y-85920000D02*
X40037500Y-85920000D01*
X40787500Y-85120000D02*
X40787500Y-71420000D01*
X31787500Y-71420000D02*
X31787500Y-85920000D01*
%TO.C,J9*%
X144950000Y-82650000D02*
X125050000Y-82650000D01*
X126875000Y-82650000D02*
X127500000Y-83650000D01*
X144950000Y-88400000D02*
X144950000Y-82650000D01*
X125050000Y-82650000D02*
X125050000Y-88400000D01*
X125050000Y-88400000D02*
X144950000Y-88400000D01*
X127500000Y-83650000D02*
X128125000Y-82650000D01*
%TO.C,J3*%
X57550000Y-88400000D02*
X77450000Y-88400000D01*
X57550000Y-82650000D02*
X57550000Y-88400000D01*
X77450000Y-82650000D02*
X57550000Y-82650000D01*
X59375000Y-82650000D02*
X60000000Y-83650000D01*
X77450000Y-88400000D02*
X77450000Y-82650000D01*
X60000000Y-83650000D02*
X60625000Y-82650000D01*
%TO.C,D4*%
X105230000Y-141166190D02*
X105230000Y-138833810D01*
X105230554Y-138834525D02*
G75*
G03*
X105229999Y-141166190I-1500554J-1165475D01*
G01*
X105230000Y-140000000D02*
G75*
G03*
X105230000Y-140000000I-1500000J0D01*
G01*
%TO.C,R6*%
X143120000Y-128400000D02*
X134120000Y-128400000D01*
X134120000Y-131600000D02*
X143120000Y-131600000D01*
X131000000Y-130000000D02*
X134120000Y-130000000D01*
X134120000Y-128400000D02*
X134120000Y-131600000D01*
X146240000Y-130000000D02*
X143120000Y-130000000D01*
X143120000Y-131600000D02*
X143120000Y-128400000D01*
%TO.C,U6*%
X131635000Y-103730000D02*
X136985000Y-103730000D01*
X136985000Y-103730000D02*
X136985000Y-121510000D01*
X136985000Y-121510000D02*
X130635000Y-121510000D01*
X130635000Y-104730000D02*
X131635000Y-103730000D01*
X130635000Y-121510000D02*
X130635000Y-104730000D01*
%TO.C,D3*%
X85230000Y-141166190D02*
X85230000Y-138833810D01*
X85230554Y-138834525D02*
G75*
G03*
X85229999Y-141166190I-1500554J-1165475D01*
G01*
X85230000Y-140000000D02*
G75*
G03*
X85230000Y-140000000I-1500000J0D01*
G01*
%TO.C,J4*%
X80050000Y-92650000D02*
X80050000Y-98400000D01*
X99950000Y-98400000D02*
X99950000Y-92650000D01*
X82500000Y-93650000D02*
X83125000Y-92650000D01*
X99950000Y-92650000D02*
X80050000Y-92650000D01*
X81875000Y-92650000D02*
X82500000Y-93650000D01*
X80050000Y-98400000D02*
X99950000Y-98400000D01*
%TO.C,U3*%
X82985000Y-103730000D02*
X82985000Y-121510000D01*
X76635000Y-104730000D02*
X77635000Y-103730000D01*
X76635000Y-121510000D02*
X76635000Y-104730000D01*
X82985000Y-121510000D02*
X76635000Y-121510000D01*
X77635000Y-103730000D02*
X82985000Y-103730000D01*
%TO.C,U0*%
X32795000Y-101050000D02*
X32795000Y-91050000D01*
X31525000Y-91050000D02*
X31525000Y-101050000D01*
X31525000Y-94200000D02*
X32795000Y-94200000D01*
X35925000Y-91050000D02*
X31525000Y-91050000D01*
X31525000Y-97900000D02*
X32795000Y-97900000D01*
X35925000Y-101050000D02*
X35925000Y-91050000D01*
X31525000Y-101050000D02*
X35925000Y-101050000D01*
%TO.C,J5*%
X81875000Y-82650000D02*
X82500000Y-83650000D01*
X99950000Y-88400000D02*
X99950000Y-82650000D01*
X80050000Y-88400000D02*
X99950000Y-88400000D01*
X82500000Y-83650000D02*
X83125000Y-82650000D01*
X80050000Y-82650000D02*
X80050000Y-88400000D01*
X99950000Y-82650000D02*
X80050000Y-82650000D01*
%TO.C,R1*%
X34120000Y-128400000D02*
X34120000Y-131600000D01*
X31000000Y-130000000D02*
X34120000Y-130000000D01*
X34120000Y-131600000D02*
X43120000Y-131600000D01*
X43120000Y-128400000D02*
X34120000Y-128400000D01*
X43120000Y-131600000D02*
X43120000Y-128400000D01*
X46240000Y-130000000D02*
X43120000Y-130000000D01*
%TD*%
M02*
