%TF.GenerationSoftware,KiCad,Pcbnew,7.0.6*%
%TF.CreationDate,2023-12-11T13:02:44+00:00*%
%TF.ProjectId,BlankingRelay_Base,426c616e-6b69-46e6-9752-656c61795f42,rev?*%
%TF.SameCoordinates,Original*%
%TF.FileFunction,Other,User*%
%FSLAX46Y46*%
G04 Gerber Fmt 4.6, Leading zero omitted, Abs format (unit mm)*
G04 Created by KiCad (PCBNEW 7.0.6) date 2023-12-11 13:02:44*
%MOMM*%
%LPD*%
G01*
G04 APERTURE LIST*
%ADD10C,0.050000*%
%ADD11C,0.150000*%
G04 APERTURE END LIST*
D10*
%TO.C,R2*%
X49950000Y-128150000D02*
X49950000Y-131850000D01*
X49950000Y-131850000D02*
X67290000Y-131850000D01*
X67290000Y-128150000D02*
X49950000Y-128150000D01*
X67290000Y-131850000D02*
X67290000Y-128150000D01*
%TO.C,D2*%
X66150000Y-137750000D02*
X61300000Y-137750000D01*
X61300000Y-142250000D02*
X66150000Y-142250000D01*
X66150000Y-142250000D02*
X66150000Y-137750000D01*
X61300000Y-137750000D02*
X61300000Y-142250000D01*
%TO.C,REF\u002A\u002A*%
X48450000Y-146000000D02*
G75*
G03*
X48450000Y-146000000I-3450000J0D01*
G01*
%TO.C,U4*%
X92550000Y-121800000D02*
X103100000Y-121800000D01*
X92550000Y-103450000D02*
X92550000Y-121800000D01*
X103100000Y-121800000D02*
X103100000Y-103450000D01*
X103100000Y-103450000D02*
X92550000Y-103450000D01*
D11*
%TO.C,SW5*%
X110720000Y-137000000D02*
X110720000Y-150150000D01*
X110720000Y-137000000D02*
X119280000Y-137000000D01*
X110720000Y-150150000D02*
X119280000Y-150150000D01*
X112850000Y-156500000D02*
X117150000Y-156500000D01*
X119280000Y-137000000D02*
X119280000Y-150150000D01*
X117150000Y-150150000D02*
X117150000Y-156500000D01*
X110720000Y-141850000D02*
X119280000Y-141850000D01*
X112850000Y-150150000D02*
X112850000Y-156500000D01*
D10*
%TO.C,R99*%
X39336000Y-95830000D02*
X56676000Y-95830000D01*
X39336000Y-92130000D02*
X39336000Y-95830000D01*
X56676000Y-92130000D02*
X39336000Y-92130000D01*
X56676000Y-95830000D02*
X56676000Y-92130000D01*
%TO.C,D5*%
X121300000Y-137750000D02*
X121300000Y-142250000D01*
X126150000Y-137750000D02*
X121300000Y-137750000D01*
X121300000Y-142250000D02*
X126150000Y-142250000D01*
X126150000Y-142250000D02*
X126150000Y-137750000D01*
%TO.C,D6*%
X146150000Y-137750000D02*
X141300000Y-137750000D01*
X141300000Y-137750000D02*
X141300000Y-142250000D01*
X146150000Y-142250000D02*
X146150000Y-137750000D01*
X141300000Y-142250000D02*
X146150000Y-142250000D01*
%TO.C,U5*%
X121100000Y-103450000D02*
X110550000Y-103450000D01*
X110550000Y-103450000D02*
X110550000Y-121800000D01*
X121100000Y-121800000D02*
X121100000Y-103450000D01*
X110550000Y-121800000D02*
X121100000Y-121800000D01*
%TO.C,U2*%
X56550000Y-103450000D02*
X56550000Y-121800000D01*
X67100000Y-103450000D02*
X56550000Y-103450000D01*
X67100000Y-121800000D02*
X67100000Y-103450000D01*
X56550000Y-121800000D02*
X67100000Y-121800000D01*
D11*
%TO.C,SW2*%
X52850000Y-150150000D02*
X52850000Y-156500000D01*
X57150000Y-150150000D02*
X57150000Y-156500000D01*
X50720000Y-150150000D02*
X59280000Y-150150000D01*
X59280000Y-137000000D02*
X59280000Y-150150000D01*
X50720000Y-141850000D02*
X59280000Y-141850000D01*
X50720000Y-137000000D02*
X59280000Y-137000000D01*
X52850000Y-156500000D02*
X57150000Y-156500000D01*
X50720000Y-137000000D02*
X50720000Y-150150000D01*
%TO.C,SW4*%
X92850000Y-156500000D02*
X97150000Y-156500000D01*
X97150000Y-150150000D02*
X97150000Y-156500000D01*
X92850000Y-150150000D02*
X92850000Y-156500000D01*
X99280000Y-137000000D02*
X99280000Y-150150000D01*
X90720000Y-150150000D02*
X99280000Y-150150000D01*
X90720000Y-137000000D02*
X99280000Y-137000000D01*
X90720000Y-141850000D02*
X99280000Y-141850000D01*
X90720000Y-137000000D02*
X90720000Y-150150000D01*
D10*
%TO.C,R98*%
X39310000Y-96770000D02*
X39310000Y-100470000D01*
X56650000Y-96770000D02*
X39310000Y-96770000D01*
X56650000Y-100470000D02*
X56650000Y-96770000D01*
X39310000Y-100470000D02*
X56650000Y-100470000D01*
D11*
%TO.C,SW3*%
X70720000Y-141850000D02*
X79280000Y-141850000D01*
X72850000Y-156500000D02*
X77150000Y-156500000D01*
X77150000Y-150150000D02*
X77150000Y-156500000D01*
X72850000Y-150150000D02*
X72850000Y-156500000D01*
X70720000Y-150150000D02*
X79280000Y-150150000D01*
X70720000Y-137000000D02*
X79280000Y-137000000D01*
X79280000Y-137000000D02*
X79280000Y-150150000D01*
X70720000Y-137000000D02*
X70720000Y-150150000D01*
D10*
%TO.C,J6*%
X102050000Y-92150000D02*
X102050000Y-98900000D01*
X102050000Y-98900000D02*
X122950000Y-98900000D01*
X122950000Y-98900000D02*
X122950000Y-92150000D01*
X122950000Y-92150000D02*
X102050000Y-92150000D01*
%TO.C,R4*%
X89950000Y-131850000D02*
X107290000Y-131850000D01*
X89950000Y-128150000D02*
X89950000Y-131850000D01*
X107290000Y-131850000D02*
X107290000Y-128150000D01*
X107290000Y-128150000D02*
X89950000Y-128150000D01*
%TO.C,U1*%
X38550000Y-121800000D02*
X49100000Y-121800000D01*
X49100000Y-121800000D02*
X49100000Y-103450000D01*
X49100000Y-103450000D02*
X38550000Y-103450000D01*
X38550000Y-103450000D02*
X38550000Y-121800000D01*
%TO.C,R3*%
X69950000Y-128150000D02*
X69950000Y-131850000D01*
X87290000Y-131850000D02*
X87290000Y-128150000D01*
X69950000Y-131850000D02*
X87290000Y-131850000D01*
X87290000Y-128150000D02*
X69950000Y-128150000D01*
%TO.C,REF\u002A\u002A*%
X147950000Y-146000000D02*
G75*
G03*
X147950000Y-146000000I-3450000J0D01*
G01*
%TO.C,D1*%
X41300000Y-142250000D02*
X46150000Y-142250000D01*
X46150000Y-142250000D02*
X46150000Y-137750000D01*
X46150000Y-137750000D02*
X41300000Y-137750000D01*
X41300000Y-137750000D02*
X41300000Y-142250000D01*
%TO.C,REF\u002A\u002A*%
X55950000Y-125000000D02*
G75*
G03*
X55950000Y-125000000I-3450000J0D01*
G01*
%TO.C,R5*%
X109950000Y-128150000D02*
X109950000Y-131850000D01*
X127290000Y-128150000D02*
X109950000Y-128150000D01*
X127290000Y-131850000D02*
X127290000Y-128150000D01*
X109950000Y-131850000D02*
X127290000Y-131850000D01*
D11*
%TO.C,SW1*%
X30720000Y-150150000D02*
X39280000Y-150150000D01*
X39280000Y-137000000D02*
X39280000Y-150150000D01*
X37150000Y-150150000D02*
X37150000Y-156500000D01*
X32850000Y-156500000D02*
X37150000Y-156500000D01*
X30720000Y-141850000D02*
X39280000Y-141850000D01*
X30720000Y-137000000D02*
X30720000Y-150150000D01*
X30720000Y-137000000D02*
X39280000Y-137000000D01*
X32850000Y-150150000D02*
X32850000Y-156500000D01*
D10*
%TO.C,J8*%
X145450000Y-92150000D02*
X124550000Y-92150000D01*
X124550000Y-98900000D02*
X145450000Y-98900000D01*
X124550000Y-92150000D02*
X124550000Y-98900000D01*
X145450000Y-98900000D02*
X145450000Y-92150000D01*
%TO.C,REF\u002A\u002A*%
X127950000Y-125000000D02*
G75*
G03*
X127950000Y-125000000I-3450000J0D01*
G01*
%TO.C,J7*%
X122950000Y-82150000D02*
X102050000Y-82150000D01*
X102050000Y-88900000D02*
X122950000Y-88900000D01*
X102050000Y-82150000D02*
X102050000Y-88900000D01*
X122950000Y-88900000D02*
X122950000Y-82150000D01*
%TO.C,J1*%
X38287500Y-86120000D02*
X38287500Y-87120000D01*
X41037500Y-86120000D02*
X41037500Y-71120000D01*
X31537500Y-84120000D02*
X29537500Y-84120000D01*
X34287500Y-87120000D02*
X34287500Y-86120000D01*
X31537500Y-71120000D02*
X41037500Y-71120000D01*
X38287500Y-87120000D02*
X34287500Y-87120000D01*
X29537500Y-80120000D02*
X31537500Y-80120000D01*
X31537500Y-80120000D02*
X31537500Y-71120000D01*
X34287500Y-86120000D02*
X31537500Y-86120000D01*
X40787500Y-86120000D02*
X38287500Y-86120000D01*
X29537500Y-84120000D02*
X29537500Y-80120000D01*
X31537500Y-86120000D02*
X31537500Y-84120000D01*
X40787500Y-86120000D02*
X41037500Y-86120000D01*
%TO.C,J9*%
X145450000Y-82150000D02*
X124550000Y-82150000D01*
X145450000Y-88900000D02*
X145450000Y-82150000D01*
X124550000Y-88900000D02*
X145450000Y-88900000D01*
X124550000Y-82150000D02*
X124550000Y-88900000D01*
%TO.C,J3*%
X77950000Y-82150000D02*
X57050000Y-82150000D01*
X57050000Y-82150000D02*
X57050000Y-88900000D01*
X77950000Y-88900000D02*
X77950000Y-82150000D01*
X57050000Y-88900000D02*
X77950000Y-88900000D01*
%TO.C,D4*%
X106150000Y-137750000D02*
X101300000Y-137750000D01*
X106150000Y-142250000D02*
X106150000Y-137750000D01*
X101300000Y-137750000D02*
X101300000Y-142250000D01*
X101300000Y-142250000D02*
X106150000Y-142250000D01*
%TO.C,R6*%
X147290000Y-131850000D02*
X147290000Y-128150000D01*
X129950000Y-131850000D02*
X147290000Y-131850000D01*
X129950000Y-128150000D02*
X129950000Y-131850000D01*
X147290000Y-128150000D02*
X129950000Y-128150000D01*
%TO.C,U6*%
X139100000Y-103450000D02*
X128550000Y-103450000D01*
X128550000Y-121800000D02*
X139100000Y-121800000D01*
X139100000Y-121800000D02*
X139100000Y-103450000D01*
X128550000Y-103450000D02*
X128550000Y-121800000D01*
D11*
%TO.C,SW6*%
X139280000Y-137000000D02*
X139280000Y-150150000D01*
X130720000Y-141850000D02*
X139280000Y-141850000D01*
X130720000Y-137000000D02*
X139280000Y-137000000D01*
X130720000Y-137000000D02*
X130720000Y-150150000D01*
X137150000Y-150150000D02*
X137150000Y-156500000D01*
X132850000Y-156500000D02*
X137150000Y-156500000D01*
X130720000Y-150150000D02*
X139280000Y-150150000D01*
X132850000Y-150150000D02*
X132850000Y-156500000D01*
D10*
%TO.C,D3*%
X86150000Y-137750000D02*
X81300000Y-137750000D01*
X81300000Y-137750000D02*
X81300000Y-142250000D01*
X86150000Y-142250000D02*
X86150000Y-137750000D01*
X81300000Y-142250000D02*
X86150000Y-142250000D01*
%TO.C,J4*%
X79550000Y-92150000D02*
X79550000Y-98900000D01*
X100450000Y-98900000D02*
X100450000Y-92150000D01*
X79550000Y-98900000D02*
X100450000Y-98900000D01*
X100450000Y-92150000D02*
X79550000Y-92150000D01*
%TO.C,U3*%
X85100000Y-103450000D02*
X74550000Y-103450000D01*
X74550000Y-121800000D02*
X85100000Y-121800000D01*
X85100000Y-121800000D02*
X85100000Y-103450000D01*
X74550000Y-103450000D02*
X74550000Y-121800000D01*
%TO.C,U0*%
X31275000Y-101300000D02*
X36185000Y-101300000D01*
X36185000Y-101300000D02*
X36185000Y-90800000D01*
X36185000Y-90800000D02*
X31275000Y-90800000D01*
X31275000Y-90800000D02*
X31275000Y-101300000D01*
%TO.C,J5*%
X100450000Y-88900000D02*
X100450000Y-82150000D01*
X79550000Y-82150000D02*
X79550000Y-88900000D01*
X100450000Y-82150000D02*
X79550000Y-82150000D01*
X79550000Y-88900000D02*
X100450000Y-88900000D01*
%TO.C,R1*%
X47290000Y-131850000D02*
X47290000Y-128150000D01*
X29950000Y-131850000D02*
X47290000Y-131850000D01*
X29950000Y-128150000D02*
X29950000Y-131850000D01*
X47290000Y-128150000D02*
X29950000Y-128150000D01*
%TD*%
M02*
