%TF.GenerationSoftware,KiCad,Pcbnew,7.0.6*%
%TF.CreationDate,2023-12-11T13:02:44+00:00*%
%TF.ProjectId,BlankingRelay_Base,426c616e-6b69-46e6-9752-656c61795f42,rev?*%
%TF.SameCoordinates,Original*%
%TF.FileFunction,Other,User*%
%FSLAX46Y46*%
G04 Gerber Fmt 4.6, Leading zero omitted, Abs format (unit mm)*
G04 Created by KiCad (PCBNEW 7.0.6) date 2023-12-11 13:02:44*
%MOMM*%
%LPD*%
G01*
G04 APERTURE LIST*
%ADD10C,0.150000*%
G04 APERTURE END LIST*
D10*
X172314786Y-107883629D02*
X172315726Y-108550295D01*
X172315726Y-108550295D02*
X171315123Y-108123135D01*
X172316935Y-109407438D02*
X172316263Y-108931248D01*
X172316263Y-108931248D02*
X171840006Y-108884300D01*
X171840006Y-108884300D02*
X171887692Y-108931852D01*
X171887692Y-108931852D02*
X171935446Y-109027023D01*
X171935446Y-109027023D02*
X171935781Y-109265118D01*
X171935781Y-109265118D02*
X171888297Y-109360423D01*
X171888297Y-109360423D02*
X171840745Y-109408109D01*
X171840745Y-109408109D02*
X171745574Y-109455862D01*
X171745574Y-109455862D02*
X171507479Y-109456198D01*
X171507479Y-109456198D02*
X171412174Y-109408713D01*
X171412174Y-109408713D02*
X171364488Y-109361162D01*
X171364488Y-109361162D02*
X171316734Y-109265991D01*
X171316734Y-109265991D02*
X171316399Y-109027896D01*
X171316399Y-109027896D02*
X171363883Y-108932591D01*
X171363883Y-108932591D02*
X171411435Y-108884904D01*
X171412845Y-109884903D02*
X171365293Y-109932590D01*
X171365293Y-109932590D02*
X171317607Y-109885038D01*
X171317607Y-109885038D02*
X171365159Y-109837352D01*
X171365159Y-109837352D02*
X171412845Y-109884903D01*
X171412845Y-109884903D02*
X171317607Y-109885038D01*
X171319018Y-110885036D02*
X171318212Y-110313608D01*
X171318615Y-110599322D02*
X172318614Y-110597912D01*
X172318614Y-110597912D02*
X172175622Y-110502876D01*
X172175622Y-110502876D02*
X172080250Y-110407772D01*
X172080250Y-110407772D02*
X172032497Y-110312601D01*
X172320225Y-111740768D02*
X172319957Y-111550292D01*
X172319957Y-111550292D02*
X172272203Y-111455121D01*
X172272203Y-111455121D02*
X172224517Y-111407569D01*
X172224517Y-111407569D02*
X172081526Y-111312533D01*
X172081526Y-111312533D02*
X171890983Y-111265183D01*
X171890983Y-111265183D02*
X171510031Y-111265720D01*
X171510031Y-111265720D02*
X171414860Y-111313473D01*
X171414860Y-111313473D02*
X171367308Y-111361159D01*
X171367308Y-111361159D02*
X171319823Y-111456464D01*
X171319823Y-111456464D02*
X171320092Y-111646940D01*
X171320092Y-111646940D02*
X171367845Y-111742111D01*
X171367845Y-111742111D02*
X171415531Y-111789663D01*
X171415531Y-111789663D02*
X171510837Y-111837148D01*
X171510837Y-111837148D02*
X171748932Y-111836812D01*
X171748932Y-111836812D02*
X171844102Y-111789059D01*
X171844102Y-111789059D02*
X171891654Y-111741373D01*
X171891654Y-111741373D02*
X171939139Y-111646067D01*
X171939139Y-111646067D02*
X171938870Y-111455591D01*
X171938870Y-111455591D02*
X171891117Y-111360421D01*
X171891117Y-111360421D02*
X171843431Y-111312869D01*
X171843431Y-111312869D02*
X171748126Y-111265384D01*
X171988235Y-112693618D02*
X171321569Y-112694558D01*
X172368852Y-112454986D02*
X171654231Y-112217898D01*
X171654231Y-112217898D02*
X171655104Y-112836945D01*
X171322375Y-113265986D02*
X171322644Y-113456462D01*
X171322644Y-113456462D02*
X171370397Y-113551633D01*
X171370397Y-113551633D02*
X171418083Y-113599185D01*
X171418083Y-113599185D02*
X171561075Y-113694222D01*
X171561075Y-113694222D02*
X171751618Y-113741572D01*
X171751618Y-113741572D02*
X172132570Y-113741035D01*
X172132570Y-113741035D02*
X172227741Y-113693282D01*
X172227741Y-113693282D02*
X172275292Y-113645595D01*
X172275292Y-113645595D02*
X172322777Y-113550290D01*
X172322777Y-113550290D02*
X172322509Y-113359814D01*
X172322509Y-113359814D02*
X172274755Y-113264643D01*
X172274755Y-113264643D02*
X172227069Y-113217092D01*
X172227069Y-113217092D02*
X172131764Y-113169607D01*
X172131764Y-113169607D02*
X171893669Y-113169943D01*
X171893669Y-113169943D02*
X171798498Y-113217696D01*
X171798498Y-113217696D02*
X171750946Y-113265382D01*
X171750946Y-113265382D02*
X171703462Y-113360687D01*
X171703462Y-113360687D02*
X171703730Y-113551163D01*
X171703730Y-113551163D02*
X171751483Y-113646334D01*
X171751483Y-113646334D02*
X171799170Y-113693886D01*
X171799170Y-113693886D02*
X171894475Y-113741371D01*
X171324726Y-114932652D02*
X171991392Y-114931712D01*
X171896154Y-114931846D02*
X171943840Y-114979398D01*
X171943840Y-114979398D02*
X171991593Y-115074569D01*
X171991593Y-115074569D02*
X171991795Y-115217426D01*
X171991795Y-115217426D02*
X171944310Y-115312731D01*
X171944310Y-115312731D02*
X171849139Y-115360484D01*
X171849139Y-115360484D02*
X171325330Y-115361223D01*
X171849139Y-115360484D02*
X171944444Y-115407969D01*
X171944444Y-115407969D02*
X171992197Y-115503140D01*
X171992197Y-115503140D02*
X171992399Y-115645997D01*
X171992399Y-115645997D02*
X171944914Y-115741302D01*
X171944914Y-115741302D02*
X171849743Y-115789055D01*
X171849743Y-115789055D02*
X171325934Y-115789794D01*
X171326606Y-116265983D02*
X171993272Y-116265043D01*
X171898034Y-116265178D02*
X171945720Y-116312729D01*
X171945720Y-116312729D02*
X171993473Y-116407900D01*
X171993473Y-116407900D02*
X171993675Y-116550757D01*
X171993675Y-116550757D02*
X171946190Y-116646062D01*
X171946190Y-116646062D02*
X171851019Y-116693816D01*
X171851019Y-116693816D02*
X171327210Y-116694554D01*
X171851019Y-116693816D02*
X171946324Y-116741300D01*
X171946324Y-116741300D02*
X171994078Y-116836471D01*
X171994078Y-116836471D02*
X171994279Y-116979328D01*
X171994279Y-116979328D02*
X171946795Y-117074633D01*
X171946795Y-117074633D02*
X171851624Y-117122387D01*
X171851624Y-117122387D02*
X171327815Y-117123125D01*
X150000000Y-74999295D02*
X171159608Y-74969455D01*
X150106000Y-150164095D02*
X171265608Y-150134255D01*
X170573188Y-74970282D02*
X170679188Y-150135082D01*
X170573188Y-74970282D02*
X170679188Y-150135082D01*
X170573188Y-74970282D02*
X171161197Y-76095958D01*
X170573188Y-74970282D02*
X169988356Y-76097612D01*
X170679188Y-150135082D02*
X170091179Y-149009406D01*
X170679188Y-150135082D02*
X171264020Y-149007752D01*
X84976190Y-50304819D02*
X84404762Y-50304819D01*
X84690476Y-50304819D02*
X84690476Y-49304819D01*
X84690476Y-49304819D02*
X84595238Y-49447676D01*
X84595238Y-49447676D02*
X84500000Y-49542914D01*
X84500000Y-49542914D02*
X84404762Y-49590533D01*
X85357143Y-49400057D02*
X85404762Y-49352438D01*
X85404762Y-49352438D02*
X85500000Y-49304819D01*
X85500000Y-49304819D02*
X85738095Y-49304819D01*
X85738095Y-49304819D02*
X85833333Y-49352438D01*
X85833333Y-49352438D02*
X85880952Y-49400057D01*
X85880952Y-49400057D02*
X85928571Y-49495295D01*
X85928571Y-49495295D02*
X85928571Y-49590533D01*
X85928571Y-49590533D02*
X85880952Y-49733390D01*
X85880952Y-49733390D02*
X85309524Y-50304819D01*
X85309524Y-50304819D02*
X85928571Y-50304819D01*
X86547619Y-49304819D02*
X86642857Y-49304819D01*
X86642857Y-49304819D02*
X86738095Y-49352438D01*
X86738095Y-49352438D02*
X86785714Y-49400057D01*
X86785714Y-49400057D02*
X86833333Y-49495295D01*
X86833333Y-49495295D02*
X86880952Y-49685771D01*
X86880952Y-49685771D02*
X86880952Y-49923866D01*
X86880952Y-49923866D02*
X86833333Y-50114342D01*
X86833333Y-50114342D02*
X86785714Y-50209580D01*
X86785714Y-50209580D02*
X86738095Y-50257200D01*
X86738095Y-50257200D02*
X86642857Y-50304819D01*
X86642857Y-50304819D02*
X86547619Y-50304819D01*
X86547619Y-50304819D02*
X86452381Y-50257200D01*
X86452381Y-50257200D02*
X86404762Y-50209580D01*
X86404762Y-50209580D02*
X86357143Y-50114342D01*
X86357143Y-50114342D02*
X86309524Y-49923866D01*
X86309524Y-49923866D02*
X86309524Y-49685771D01*
X86309524Y-49685771D02*
X86357143Y-49495295D01*
X86357143Y-49495295D02*
X86404762Y-49400057D01*
X86404762Y-49400057D02*
X86452381Y-49352438D01*
X86452381Y-49352438D02*
X86547619Y-49304819D01*
X87309524Y-50209580D02*
X87357143Y-50257200D01*
X87357143Y-50257200D02*
X87309524Y-50304819D01*
X87309524Y-50304819D02*
X87261905Y-50257200D01*
X87261905Y-50257200D02*
X87309524Y-50209580D01*
X87309524Y-50209580D02*
X87309524Y-50304819D01*
X87976190Y-49304819D02*
X88071428Y-49304819D01*
X88071428Y-49304819D02*
X88166666Y-49352438D01*
X88166666Y-49352438D02*
X88214285Y-49400057D01*
X88214285Y-49400057D02*
X88261904Y-49495295D01*
X88261904Y-49495295D02*
X88309523Y-49685771D01*
X88309523Y-49685771D02*
X88309523Y-49923866D01*
X88309523Y-49923866D02*
X88261904Y-50114342D01*
X88261904Y-50114342D02*
X88214285Y-50209580D01*
X88214285Y-50209580D02*
X88166666Y-50257200D01*
X88166666Y-50257200D02*
X88071428Y-50304819D01*
X88071428Y-50304819D02*
X87976190Y-50304819D01*
X87976190Y-50304819D02*
X87880952Y-50257200D01*
X87880952Y-50257200D02*
X87833333Y-50209580D01*
X87833333Y-50209580D02*
X87785714Y-50114342D01*
X87785714Y-50114342D02*
X87738095Y-49923866D01*
X87738095Y-49923866D02*
X87738095Y-49685771D01*
X87738095Y-49685771D02*
X87785714Y-49495295D01*
X87785714Y-49495295D02*
X87833333Y-49400057D01*
X87833333Y-49400057D02*
X87880952Y-49352438D01*
X87880952Y-49352438D02*
X87976190Y-49304819D01*
X88928571Y-49304819D02*
X89023809Y-49304819D01*
X89023809Y-49304819D02*
X89119047Y-49352438D01*
X89119047Y-49352438D02*
X89166666Y-49400057D01*
X89166666Y-49400057D02*
X89214285Y-49495295D01*
X89214285Y-49495295D02*
X89261904Y-49685771D01*
X89261904Y-49685771D02*
X89261904Y-49923866D01*
X89261904Y-49923866D02*
X89214285Y-50114342D01*
X89214285Y-50114342D02*
X89166666Y-50209580D01*
X89166666Y-50209580D02*
X89119047Y-50257200D01*
X89119047Y-50257200D02*
X89023809Y-50304819D01*
X89023809Y-50304819D02*
X88928571Y-50304819D01*
X88928571Y-50304819D02*
X88833333Y-50257200D01*
X88833333Y-50257200D02*
X88785714Y-50209580D01*
X88785714Y-50209580D02*
X88738095Y-50114342D01*
X88738095Y-50114342D02*
X88690476Y-49923866D01*
X88690476Y-49923866D02*
X88690476Y-49685771D01*
X88690476Y-49685771D02*
X88738095Y-49495295D01*
X88738095Y-49495295D02*
X88785714Y-49400057D01*
X88785714Y-49400057D02*
X88833333Y-49352438D01*
X88833333Y-49352438D02*
X88928571Y-49304819D01*
X89880952Y-49304819D02*
X89976190Y-49304819D01*
X89976190Y-49304819D02*
X90071428Y-49352438D01*
X90071428Y-49352438D02*
X90119047Y-49400057D01*
X90119047Y-49400057D02*
X90166666Y-49495295D01*
X90166666Y-49495295D02*
X90214285Y-49685771D01*
X90214285Y-49685771D02*
X90214285Y-49923866D01*
X90214285Y-49923866D02*
X90166666Y-50114342D01*
X90166666Y-50114342D02*
X90119047Y-50209580D01*
X90119047Y-50209580D02*
X90071428Y-50257200D01*
X90071428Y-50257200D02*
X89976190Y-50304819D01*
X89976190Y-50304819D02*
X89880952Y-50304819D01*
X89880952Y-50304819D02*
X89785714Y-50257200D01*
X89785714Y-50257200D02*
X89738095Y-50209580D01*
X89738095Y-50209580D02*
X89690476Y-50114342D01*
X89690476Y-50114342D02*
X89642857Y-49923866D01*
X89642857Y-49923866D02*
X89642857Y-49685771D01*
X89642857Y-49685771D02*
X89690476Y-49495295D01*
X89690476Y-49495295D02*
X89738095Y-49400057D01*
X89738095Y-49400057D02*
X89785714Y-49352438D01*
X89785714Y-49352438D02*
X89880952Y-49304819D01*
X90833333Y-49304819D02*
X90928571Y-49304819D01*
X90928571Y-49304819D02*
X91023809Y-49352438D01*
X91023809Y-49352438D02*
X91071428Y-49400057D01*
X91071428Y-49400057D02*
X91119047Y-49495295D01*
X91119047Y-49495295D02*
X91166666Y-49685771D01*
X91166666Y-49685771D02*
X91166666Y-49923866D01*
X91166666Y-49923866D02*
X91119047Y-50114342D01*
X91119047Y-50114342D02*
X91071428Y-50209580D01*
X91071428Y-50209580D02*
X91023809Y-50257200D01*
X91023809Y-50257200D02*
X90928571Y-50304819D01*
X90928571Y-50304819D02*
X90833333Y-50304819D01*
X90833333Y-50304819D02*
X90738095Y-50257200D01*
X90738095Y-50257200D02*
X90690476Y-50209580D01*
X90690476Y-50209580D02*
X90642857Y-50114342D01*
X90642857Y-50114342D02*
X90595238Y-49923866D01*
X90595238Y-49923866D02*
X90595238Y-49685771D01*
X90595238Y-49685771D02*
X90642857Y-49495295D01*
X90642857Y-49495295D02*
X90690476Y-49400057D01*
X90690476Y-49400057D02*
X90738095Y-49352438D01*
X90738095Y-49352438D02*
X90833333Y-49304819D01*
X92357143Y-50304819D02*
X92357143Y-49638152D01*
X92357143Y-49733390D02*
X92404762Y-49685771D01*
X92404762Y-49685771D02*
X92500000Y-49638152D01*
X92500000Y-49638152D02*
X92642857Y-49638152D01*
X92642857Y-49638152D02*
X92738095Y-49685771D01*
X92738095Y-49685771D02*
X92785714Y-49781009D01*
X92785714Y-49781009D02*
X92785714Y-50304819D01*
X92785714Y-49781009D02*
X92833333Y-49685771D01*
X92833333Y-49685771D02*
X92928571Y-49638152D01*
X92928571Y-49638152D02*
X93071428Y-49638152D01*
X93071428Y-49638152D02*
X93166667Y-49685771D01*
X93166667Y-49685771D02*
X93214286Y-49781009D01*
X93214286Y-49781009D02*
X93214286Y-50304819D01*
X93690476Y-50304819D02*
X93690476Y-49638152D01*
X93690476Y-49733390D02*
X93738095Y-49685771D01*
X93738095Y-49685771D02*
X93833333Y-49638152D01*
X93833333Y-49638152D02*
X93976190Y-49638152D01*
X93976190Y-49638152D02*
X94071428Y-49685771D01*
X94071428Y-49685771D02*
X94119047Y-49781009D01*
X94119047Y-49781009D02*
X94119047Y-50304819D01*
X94119047Y-49781009D02*
X94166666Y-49685771D01*
X94166666Y-49685771D02*
X94261904Y-49638152D01*
X94261904Y-49638152D02*
X94404761Y-49638152D01*
X94404761Y-49638152D02*
X94500000Y-49685771D01*
X94500000Y-49685771D02*
X94547619Y-49781009D01*
X94547619Y-49781009D02*
X94547619Y-50304819D01*
X29500000Y-74500000D02*
X29500000Y-50413580D01*
X149500000Y-74500000D02*
X149500000Y-50413580D01*
X29500000Y-51000000D02*
X149500000Y-51000000D01*
X29500000Y-51000000D02*
X149500000Y-51000000D01*
X29500000Y-51000000D02*
X30626504Y-50413579D01*
X29500000Y-51000000D02*
X30626504Y-51586421D01*
X149500000Y-51000000D02*
X148373496Y-51586421D01*
X149500000Y-51000000D02*
X148373496Y-50413579D01*
M02*
