M48
; DRILL file {KiCad 7.0.6} date Mon Dec 11 13:02:47 2023
; FORMAT={-:-/ absolute / metric / decimal}
; #@! TF.CreationDate,2023-12-11T13:02:47+00:00
; #@! TF.GenerationSoftware,Kicad,Pcbnew,7.0.6
; #@! TF.FileFunction,Plated,1,2,PTH
FMAT,2
METRIC
; #@! TA.AperFunction,Plated,PTH,ComponentDrill
T1C0.550
; #@! TA.AperFunction,Plated,PTH,ComponentDrill
T2C0.800
; #@! TA.AperFunction,Plated,PTH,ComponentDrill
T3C0.900
; #@! TA.AperFunction,Plated,PTH,ComponentDrill
T4C0.950
; #@! TA.AperFunction,Plated,PTH,ComponentDrill
T5C1.000
; #@! TA.AperFunction,Plated,PTH,ComponentDrill
T6C1.001
; #@! TA.AperFunction,Plated,PTH,ComponentDrill
T7C1.100
; #@! TA.AperFunction,Plated,PTH,ComponentDrill
T8C1.850
; #@! TA.AperFunction,Plated,PTH,ComponentDrill
T9C2.200
%
G90
G05
T2
X31.0Y-130.0
X40.0Y-105.0
X40.0Y-107.54
X40.0Y-110.08
X40.0Y-112.62
X40.0Y-115.16
X40.0Y-117.7
X40.0Y-120.24
X40.36Y-98.62
X40.386Y-93.98
X46.24Y-130.0
X47.62Y-105.0
X47.62Y-107.54
X47.62Y-110.08
X47.62Y-112.62
X47.62Y-115.16
X47.62Y-117.7
X47.62Y-120.24
X51.0Y-130.0
X55.6Y-98.62
X55.626Y-93.98
X58.0Y-105.0
X58.0Y-107.54
X58.0Y-110.08
X58.0Y-112.62
X58.0Y-115.16
X58.0Y-117.7
X58.0Y-120.24
X65.62Y-105.0
X65.62Y-107.54
X65.62Y-110.08
X65.62Y-112.62
X65.62Y-115.16
X65.62Y-117.7
X65.62Y-120.24
X66.24Y-130.0
X71.0Y-130.0
X76.0Y-105.0
X76.0Y-107.54
X76.0Y-110.08
X76.0Y-112.62
X76.0Y-115.16
X76.0Y-117.7
X76.0Y-120.24
X83.62Y-105.0
X83.62Y-107.54
X83.62Y-110.08
X83.62Y-112.62
X83.62Y-115.16
X83.62Y-117.7
X83.62Y-120.24
X86.24Y-130.0
X91.0Y-130.0
X94.0Y-105.0
X94.0Y-107.54
X94.0Y-110.08
X94.0Y-112.62
X94.0Y-115.16
X94.0Y-117.7
X94.0Y-120.24
X101.62Y-105.0
X101.62Y-107.54
X101.62Y-110.08
X101.62Y-112.62
X101.62Y-115.16
X101.62Y-117.7
X101.62Y-120.24
X106.24Y-130.0
X111.0Y-130.0
X112.0Y-105.0
X112.0Y-107.54
X112.0Y-110.08
X112.0Y-112.62
X112.0Y-115.16
X112.0Y-117.7
X112.0Y-120.24
X119.62Y-105.0
X119.62Y-107.54
X119.62Y-110.08
X119.62Y-112.62
X119.62Y-115.16
X119.62Y-117.7
X119.62Y-120.24
X126.24Y-130.0
X130.0Y-105.0
X130.0Y-107.54
X130.0Y-110.08
X130.0Y-112.62
X130.0Y-115.16
X130.0Y-117.7
X130.0Y-120.24
X131.0Y-130.0
X137.62Y-105.0
X137.62Y-107.54
X137.62Y-110.08
X137.62Y-112.62
X137.62Y-115.16
X137.62Y-117.7
X137.62Y-120.24
X146.24Y-130.0
T3
X42.46Y-140.0
X45.0Y-140.0
X62.46Y-140.0
X65.0Y-140.0
X82.46Y-140.0
X85.0Y-140.0
X102.46Y-140.0
X105.0Y-140.0
X122.46Y-140.0
X125.0Y-140.0
X142.46Y-140.0
X145.0Y-140.0
T4
X60.0Y-85.0
X62.5Y-85.0
X65.0Y-85.0
X67.5Y-85.0
X70.0Y-85.0
X72.5Y-85.0
X75.0Y-85.0
X82.5Y-85.0
X82.5Y-95.0
X85.0Y-85.0
X85.0Y-95.0
X87.5Y-85.0
X87.5Y-95.0
X90.0Y-85.0
X90.0Y-95.0
X92.5Y-85.0
X92.5Y-95.0
X95.0Y-85.0
X95.0Y-95.0
X97.5Y-85.0
X97.5Y-95.0
X105.0Y-85.0
X105.0Y-95.0
X107.5Y-85.0
X107.5Y-95.0
X110.0Y-85.0
X110.0Y-95.0
X112.5Y-85.0
X112.5Y-95.0
X115.0Y-85.0
X115.0Y-95.0
X117.5Y-85.0
X117.5Y-95.0
X120.0Y-85.0
X120.0Y-95.0
X127.5Y-85.0
X127.5Y-95.0
X130.0Y-85.0
X130.0Y-95.0
X132.5Y-85.0
X132.5Y-95.0
X135.0Y-85.0
X135.0Y-95.0
X137.5Y-85.0
X137.5Y-95.0
X140.0Y-85.0
X140.0Y-95.0
X142.5Y-85.0
X142.5Y-95.0
T6
X46.561Y-87.281
X49.06Y-87.281
T7
X34.675Y-93.51
X34.675Y-96.05
X34.675Y-98.59
T8
X32.3Y-145.9
X37.7Y-145.9
X52.3Y-145.9
X57.7Y-145.9
X72.3Y-145.9
X77.7Y-145.9
X92.3Y-145.9
X97.7Y-145.9
X112.3Y-145.9
X117.7Y-145.9
X132.3Y-145.9
X137.7Y-145.9
T9
X43.962Y-83.016
X54.16Y-83.016
T1
G00X32.46Y-137.78
M15
G01X32.46Y-138.78
M16
G05
G00X32.46Y-140.32
M15
G01X32.46Y-141.32
M16
G05
G00X35.0Y-137.78
M15
G01X35.0Y-138.78
M16
G05
G00X35.0Y-140.32
M15
G01X35.0Y-141.32
M16
G05
G00X37.54Y-137.78
M15
G01X37.54Y-138.78
M16
G05
G00X37.54Y-140.32
M15
G01X37.54Y-141.32
M16
G05
G00X52.46Y-137.78
M15
G01X52.46Y-138.78
M16
G05
G00X52.46Y-140.32
M15
G01X52.46Y-141.32
M16
G05
G00X55.0Y-137.78
M15
G01X55.0Y-138.78
M16
G05
G00X55.0Y-140.32
M15
G01X55.0Y-141.32
M16
G05
G00X57.54Y-137.78
M15
G01X57.54Y-138.78
M16
G05
G00X57.54Y-140.32
M15
G01X57.54Y-141.32
M16
G05
G00X72.46Y-137.78
M15
G01X72.46Y-138.78
M16
G05
G00X72.46Y-140.32
M15
G01X72.46Y-141.32
M16
G05
G00X75.0Y-137.78
M15
G01X75.0Y-138.78
M16
G05
G00X75.0Y-140.32
M15
G01X75.0Y-141.32
M16
G05
G00X77.54Y-137.78
M15
G01X77.54Y-138.78
M16
G05
G00X77.54Y-140.32
M15
G01X77.54Y-141.32
M16
G05
G00X92.46Y-137.78
M15
G01X92.46Y-138.78
M16
G05
G00X92.46Y-140.32
M15
G01X92.46Y-141.32
M16
G05
G00X95.0Y-137.78
M15
G01X95.0Y-138.78
M16
G05
G00X95.0Y-140.32
M15
G01X95.0Y-141.32
M16
G05
G00X97.54Y-137.78
M15
G01X97.54Y-138.78
M16
G05
G00X97.54Y-140.32
M15
G01X97.54Y-141.32
M16
G05
G00X112.46Y-137.78
M15
G01X112.46Y-138.78
M16
G05
G00X112.46Y-140.32
M15
G01X112.46Y-141.32
M16
G05
G00X115.0Y-137.78
M15
G01X115.0Y-138.78
M16
G05
G00X115.0Y-140.32
M15
G01X115.0Y-141.32
M16
G05
G00X117.54Y-137.78
M15
G01X117.54Y-138.78
M16
G05
G00X117.54Y-140.32
M15
G01X117.54Y-141.32
M16
G05
G00X132.46Y-137.78
M15
G01X132.46Y-138.78
M16
G05
G00X132.46Y-140.32
M15
G01X132.46Y-141.32
M16
G05
G00X135.0Y-137.78
M15
G01X135.0Y-138.78
M16
G05
G00X135.0Y-140.32
M15
G01X135.0Y-141.32
M16
G05
G00X137.54Y-137.78
M15
G01X137.54Y-138.78
M16
G05
G00X137.54Y-140.32
M15
G01X137.54Y-141.32
M16
G05
T5
G00X31.587Y-81.12
M15
G01X31.587Y-83.12
M16
G05
G00X37.288Y-79.12
M15
G01X35.288Y-79.12
M16
G05
G00X37.288Y-85.12
M15
G01X35.288Y-85.12
M16
G05
T0
M30
