%TF.GenerationSoftware,KiCad,Pcbnew,7.0.6*%
%TF.CreationDate,2023-12-11T13:02:44+00:00*%
%TF.ProjectId,BlankingRelay_Base,426c616e-6b69-46e6-9752-656c61795f42,rev?*%
%TF.SameCoordinates,Original*%
%TF.FileFunction,Copper,L1,Top*%
%TF.FilePolarity,Positive*%
%FSLAX46Y46*%
G04 Gerber Fmt 4.6, Leading zero omitted, Abs format (unit mm)*
G04 Created by KiCad (PCBNEW 7.0.6) date 2023-12-11 13:02:44*
%MOMM*%
%LPD*%
G01*
G04 APERTURE LIST*
G04 Aperture macros list*
%AMRoundRect*
0 Rectangle with rounded corners*
0 $1 Rounding radius*
0 $2 $3 $4 $5 $6 $7 $8 $9 X,Y pos of 4 corners*
0 Add a 4 corners polygon primitive as box body*
4,1,4,$2,$3,$4,$5,$6,$7,$8,$9,$2,$3,0*
0 Add four circle primitives for the rounded corners*
1,1,$1+$1,$2,$3*
1,1,$1+$1,$4,$5*
1,1,$1+$1,$6,$7*
1,1,$1+$1,$8,$9*
0 Add four rect primitives between the rounded corners*
20,1,$1+$1,$2,$3,$4,$5,0*
20,1,$1+$1,$4,$5,$6,$7,0*
20,1,$1+$1,$6,$7,$8,$9,0*
20,1,$1+$1,$8,$9,$2,$3,0*%
G04 Aperture macros list end*
%TA.AperFunction,ComponentPad*%
%ADD10C,1.600000*%
%TD*%
%TA.AperFunction,ComponentPad*%
%ADD11O,1.600000X1.600000*%
%TD*%
%TA.AperFunction,ComponentPad*%
%ADD12R,1.800000X1.800000*%
%TD*%
%TA.AperFunction,ComponentPad*%
%ADD13C,1.800000*%
%TD*%
%TA.AperFunction,ComponentPad*%
%ADD14R,2.400000X1.600000*%
%TD*%
%TA.AperFunction,ComponentPad*%
%ADD15O,2.400000X1.600000*%
%TD*%
%TA.AperFunction,ComponentPad*%
%ADD16R,0.750000X1.750000*%
%TD*%
%TA.AperFunction,ComponentPad*%
%ADD17C,1.850000*%
%TD*%
%TA.AperFunction,ComponentPad*%
%ADD18O,1.600200X2.499360*%
%TD*%
%TA.AperFunction,ComponentPad*%
%ADD19O,3.500120X7.000240*%
%TD*%
%TA.AperFunction,ComponentPad*%
%ADD20RoundRect,0.250000X-0.600000X-0.725000X0.600000X-0.725000X0.600000X0.725000X-0.600000X0.725000X0*%
%TD*%
%TA.AperFunction,ComponentPad*%
%ADD21O,1.700000X1.950000*%
%TD*%
%TA.AperFunction,ComponentPad*%
%ADD22R,3.500000X3.500000*%
%TD*%
%TA.AperFunction,ComponentPad*%
%ADD23RoundRect,0.750000X-1.000000X0.750000X-1.000000X-0.750000X1.000000X-0.750000X1.000000X0.750000X0*%
%TD*%
%TA.AperFunction,ComponentPad*%
%ADD24RoundRect,0.875000X-0.875000X0.875000X-0.875000X-0.875000X0.875000X-0.875000X0.875000X0.875000X0*%
%TD*%
%TA.AperFunction,ComponentPad*%
%ADD25R,2.000000X1.905000*%
%TD*%
%TA.AperFunction,ComponentPad*%
%ADD26O,2.000000X1.905000*%
%TD*%
%TA.AperFunction,Conductor*%
%ADD27C,0.500000*%
%TD*%
%TA.AperFunction,Conductor*%
%ADD28C,1.000000*%
%TD*%
%TA.AperFunction,Conductor*%
%ADD29C,0.250000*%
%TD*%
G04 APERTURE END LIST*
D10*
%TO.P,R2,1*%
%TO.N,Net-(SW2-Pad4)*%
X51000000Y-130000000D03*
D11*
%TO.P,R2,2*%
%TO.N,Net-(D2-Pad2)*%
X66240000Y-130000000D03*
%TD*%
D12*
%TO.P,D2,1,K*%
%TO.N,GNDREF*%
X65000000Y-140000000D03*
D13*
%TO.P,D2,2,A*%
%TO.N,Net-(D2-Pad2)*%
X62460000Y-140000000D03*
%TD*%
D14*
%TO.P,U4,1*%
%TO.N,On_13*%
X94000000Y-105000000D03*
D15*
%TO.P,U4,2*%
%TO.N,Blanking_In*%
X94000000Y-107540000D03*
%TO.P,U4,3*%
%TO.N,Blanking_Out13*%
X94000000Y-110080000D03*
%TO.P,U4,4*%
%TO.N,On_14*%
X94000000Y-112620000D03*
%TO.P,U4,5*%
%TO.N,Blanking_In*%
X94000000Y-115160000D03*
%TO.P,U4,6*%
%TO.N,Blanking_Out14*%
X94000000Y-117700000D03*
%TO.P,U4,7,GND*%
%TO.N,GNDREF*%
X94000000Y-120240000D03*
%TO.P,U4,8*%
%TO.N,Blanking_Out16*%
X101620000Y-120240000D03*
%TO.P,U4,9*%
%TO.N,On_16*%
X101620000Y-117700000D03*
%TO.P,U4,10*%
%TO.N,Blanking_In*%
X101620000Y-115160000D03*
%TO.P,U4,11*%
%TO.N,Blanking_Out15*%
X101620000Y-112620000D03*
%TO.P,U4,12*%
%TO.N,On_15*%
X101620000Y-110080000D03*
%TO.P,U4,13*%
%TO.N,Blanking_In*%
X101620000Y-107540000D03*
%TO.P,U4,14,VCC*%
%TO.N,5V*%
X101620000Y-105000000D03*
%TD*%
D16*
%TO.P,SW5,1,A*%
%TO.N,On_5*%
X112460000Y-138280000D03*
%TO.P,SW5,2,B*%
%TO.N,5V*%
X115000000Y-138280000D03*
%TO.P,SW5,3,C*%
%TO.N,unconnected-(SW5-Pad3)*%
X117540000Y-138280000D03*
%TO.P,SW5,4,A*%
%TO.N,Net-(SW5-Pad4)*%
X112460000Y-140820000D03*
%TO.P,SW5,5,B*%
%TO.N,5V*%
X115000000Y-140820000D03*
%TO.P,SW5,6,C*%
%TO.N,unconnected-(SW5-Pad6)*%
X117540000Y-140820000D03*
D17*
%TO.P,SW5,7*%
%TO.N,N/C*%
X112300000Y-145900000D03*
%TO.P,SW5,8*%
X117700000Y-145900000D03*
%TD*%
D10*
%TO.P,R99,1*%
%TO.N,Net-(R98-Pad1)*%
X40386000Y-93980000D03*
D11*
%TO.P,R99,2*%
%TO.N,GNDREF*%
X55626000Y-93980000D03*
%TD*%
D12*
%TO.P,D5,1,K*%
%TO.N,GNDREF*%
X125000000Y-140000000D03*
D13*
%TO.P,D5,2,A*%
%TO.N,Net-(D5-Pad2)*%
X122460000Y-140000000D03*
%TD*%
D12*
%TO.P,D6,1,K*%
%TO.N,GNDREF*%
X145000000Y-140000000D03*
D13*
%TO.P,D6,2,A*%
%TO.N,Net-(D6-Pad2)*%
X142460000Y-140000000D03*
%TD*%
D14*
%TO.P,U5,1*%
%TO.N,On_17*%
X112000000Y-105000000D03*
D15*
%TO.P,U5,2*%
%TO.N,Blanking_In*%
X112000000Y-107540000D03*
%TO.P,U5,3*%
%TO.N,Blanking_Out17*%
X112000000Y-110080000D03*
%TO.P,U5,4*%
%TO.N,On_18*%
X112000000Y-112620000D03*
%TO.P,U5,5*%
%TO.N,Blanking_In*%
X112000000Y-115160000D03*
%TO.P,U5,6*%
%TO.N,Blanking_Out18*%
X112000000Y-117700000D03*
%TO.P,U5,7,GND*%
%TO.N,GNDREF*%
X112000000Y-120240000D03*
%TO.P,U5,8*%
%TO.N,Blanking_Out20*%
X119620000Y-120240000D03*
%TO.P,U5,9*%
%TO.N,On_20*%
X119620000Y-117700000D03*
%TO.P,U5,10*%
%TO.N,Blanking_In*%
X119620000Y-115160000D03*
%TO.P,U5,11*%
%TO.N,Blanking_Out19*%
X119620000Y-112620000D03*
%TO.P,U5,12*%
%TO.N,On_19*%
X119620000Y-110080000D03*
%TO.P,U5,13*%
%TO.N,Blanking_In*%
X119620000Y-107540000D03*
%TO.P,U5,14,VCC*%
%TO.N,5V*%
X119620000Y-105000000D03*
%TD*%
D14*
%TO.P,U2,1*%
%TO.N,On_5*%
X58000000Y-105000000D03*
D15*
%TO.P,U2,2*%
%TO.N,Blanking_In*%
X58000000Y-107540000D03*
%TO.P,U2,3*%
%TO.N,Blanking_Out5*%
X58000000Y-110080000D03*
%TO.P,U2,4*%
%TO.N,On_6*%
X58000000Y-112620000D03*
%TO.P,U2,5*%
%TO.N,Blanking_In*%
X58000000Y-115160000D03*
%TO.P,U2,6*%
%TO.N,Blanking_Out6*%
X58000000Y-117700000D03*
%TO.P,U2,7,GND*%
%TO.N,GNDREF*%
X58000000Y-120240000D03*
%TO.P,U2,8*%
%TO.N,Blanking_Out8*%
X65620000Y-120240000D03*
%TO.P,U2,9*%
%TO.N,On_8*%
X65620000Y-117700000D03*
%TO.P,U2,10*%
%TO.N,Blanking_In*%
X65620000Y-115160000D03*
%TO.P,U2,11*%
%TO.N,Blanking_Out7*%
X65620000Y-112620000D03*
%TO.P,U2,12*%
%TO.N,On_7*%
X65620000Y-110080000D03*
%TO.P,U2,13*%
%TO.N,Blanking_In*%
X65620000Y-107540000D03*
%TO.P,U2,14,VCC*%
%TO.N,5V*%
X65620000Y-105000000D03*
%TD*%
D18*
%TO.P,J2,1,In*%
%TO.N,Blanking_In*%
X49060000Y-87281050D03*
%TO.P,J2,2,Ext*%
%TO.N,GNDREF*%
X46560640Y-87281050D03*
D19*
X54160320Y-83016390D03*
X43962220Y-83016390D03*
%TD*%
D16*
%TO.P,SW2,1,A*%
%TO.N,On_2*%
X52460000Y-138280000D03*
%TO.P,SW2,2,B*%
%TO.N,5V*%
X55000000Y-138280000D03*
%TO.P,SW2,3,C*%
%TO.N,unconnected-(SW2-Pad3)*%
X57540000Y-138280000D03*
%TO.P,SW2,4,A*%
%TO.N,Net-(SW2-Pad4)*%
X52460000Y-140820000D03*
%TO.P,SW2,5,B*%
%TO.N,5V*%
X55000000Y-140820000D03*
%TO.P,SW2,6,C*%
%TO.N,unconnected-(SW2-Pad6)*%
X57540000Y-140820000D03*
D17*
%TO.P,SW2,7*%
%TO.N,N/C*%
X52300000Y-145900000D03*
%TO.P,SW2,8*%
X57700000Y-145900000D03*
%TD*%
D16*
%TO.P,SW4,1,A*%
%TO.N,On_4*%
X92460000Y-138280000D03*
%TO.P,SW4,2,B*%
%TO.N,5V*%
X95000000Y-138280000D03*
%TO.P,SW4,3,C*%
%TO.N,unconnected-(SW4-Pad3)*%
X97540000Y-138280000D03*
%TO.P,SW4,4,A*%
%TO.N,Net-(SW4-Pad4)*%
X92460000Y-140820000D03*
%TO.P,SW4,5,B*%
%TO.N,5V*%
X95000000Y-140820000D03*
%TO.P,SW4,6,C*%
%TO.N,unconnected-(SW4-Pad6)*%
X97540000Y-140820000D03*
D17*
%TO.P,SW4,7*%
%TO.N,N/C*%
X92300000Y-145900000D03*
%TO.P,SW4,8*%
X97700000Y-145900000D03*
%TD*%
D10*
%TO.P,R98,1*%
%TO.N,Net-(R98-Pad1)*%
X40360000Y-98620000D03*
D11*
%TO.P,R98,2*%
%TO.N,5V*%
X55600000Y-98620000D03*
%TD*%
D16*
%TO.P,SW3,1,A*%
%TO.N,On_3*%
X72460000Y-138280000D03*
%TO.P,SW3,2,B*%
%TO.N,5V*%
X75000000Y-138280000D03*
%TO.P,SW3,3,C*%
%TO.N,unconnected-(SW3-Pad3)*%
X77540000Y-138280000D03*
%TO.P,SW3,4,A*%
%TO.N,Net-(SW3-Pad4)*%
X72460000Y-140820000D03*
%TO.P,SW3,5,B*%
%TO.N,5V*%
X75000000Y-140820000D03*
%TO.P,SW3,6,C*%
%TO.N,unconnected-(SW3-Pad6)*%
X77540000Y-140820000D03*
D17*
%TO.P,SW3,7*%
%TO.N,N/C*%
X72300000Y-145900000D03*
%TO.P,SW3,8*%
X77700000Y-145900000D03*
%TD*%
D20*
%TO.P,J6,1,Pin_1*%
%TO.N,Blanking_Out13*%
X105000000Y-95000000D03*
D21*
%TO.P,J6,2,Pin_2*%
%TO.N,Blanking_Out14*%
X107500000Y-95000000D03*
%TO.P,J6,3,Pin_3*%
%TO.N,Blanking_Out15*%
X110000000Y-95000000D03*
%TO.P,J6,4,Pin_4*%
%TO.N,Blanking_Out16*%
X112500000Y-95000000D03*
%TO.P,J6,5,Pin_5*%
%TO.N,Blanking_Out18*%
X115000000Y-95000000D03*
%TO.P,J6,6,Pin_6*%
%TO.N,Blanking_Out17*%
X117500000Y-95000000D03*
%TO.P,J6,7,Pin_7*%
%TO.N,GNDREF*%
X120000000Y-95000000D03*
%TD*%
D10*
%TO.P,R4,1*%
%TO.N,Net-(SW4-Pad4)*%
X91000000Y-130000000D03*
D11*
%TO.P,R4,2*%
%TO.N,Net-(D4-Pad2)*%
X106240000Y-130000000D03*
%TD*%
D14*
%TO.P,U1,1*%
%TO.N,On_1*%
X40000000Y-105000000D03*
D15*
%TO.P,U1,2*%
%TO.N,Blanking_In*%
X40000000Y-107540000D03*
%TO.P,U1,3*%
%TO.N,Blanking_Out1*%
X40000000Y-110080000D03*
%TO.P,U1,4*%
%TO.N,On_2*%
X40000000Y-112620000D03*
%TO.P,U1,5*%
%TO.N,Blanking_In*%
X40000000Y-115160000D03*
%TO.P,U1,6*%
%TO.N,Blanking_Out2*%
X40000000Y-117700000D03*
%TO.P,U1,7,GND*%
%TO.N,GNDREF*%
X40000000Y-120240000D03*
%TO.P,U1,8*%
%TO.N,Blanking_Out4*%
X47620000Y-120240000D03*
%TO.P,U1,9*%
%TO.N,On_4*%
X47620000Y-117700000D03*
%TO.P,U1,10*%
%TO.N,Blanking_In*%
X47620000Y-115160000D03*
%TO.P,U1,11*%
%TO.N,Blanking_Out3*%
X47620000Y-112620000D03*
%TO.P,U1,12*%
%TO.N,On_3*%
X47620000Y-110080000D03*
%TO.P,U1,13*%
%TO.N,Blanking_In*%
X47620000Y-107540000D03*
%TO.P,U1,14,VCC*%
%TO.N,5V*%
X47620000Y-105000000D03*
%TD*%
D10*
%TO.P,R3,1*%
%TO.N,Net-(SW3-Pad4)*%
X71000000Y-130000000D03*
D11*
%TO.P,R3,2*%
%TO.N,Net-(D3-Pad2)*%
X86240000Y-130000000D03*
%TD*%
D12*
%TO.P,D1,1,K*%
%TO.N,GNDREF*%
X45000000Y-140000000D03*
D13*
%TO.P,D1,2,A*%
%TO.N,Net-(D1-Pad2)*%
X42460000Y-140000000D03*
%TD*%
D10*
%TO.P,R5,1*%
%TO.N,Net-(SW5-Pad4)*%
X111000000Y-130000000D03*
D11*
%TO.P,R5,2*%
%TO.N,Net-(D5-Pad2)*%
X126240000Y-130000000D03*
%TD*%
D16*
%TO.P,SW1,1,A*%
%TO.N,On_1*%
X32460000Y-138280000D03*
%TO.P,SW1,2,B*%
%TO.N,5V*%
X35000000Y-138280000D03*
%TO.P,SW1,3,C*%
%TO.N,unconnected-(SW1-Pad3)*%
X37540000Y-138280000D03*
%TO.P,SW1,4,A*%
%TO.N,Net-(SW1-Pad4)*%
X32460000Y-140820000D03*
%TO.P,SW1,5,B*%
%TO.N,5V*%
X35000000Y-140820000D03*
%TO.P,SW1,6,C*%
%TO.N,unconnected-(SW1-Pad6)*%
X37540000Y-140820000D03*
D17*
%TO.P,SW1,7*%
%TO.N,N/C*%
X32300000Y-145900000D03*
%TO.P,SW1,8*%
X37700000Y-145900000D03*
%TD*%
D20*
%TO.P,J8,1,Pin_1*%
%TO.N,Blanking_Out19*%
X127500000Y-95000000D03*
D21*
%TO.P,J8,2,Pin_2*%
%TO.N,Blanking_Out20*%
X130000000Y-95000000D03*
%TO.P,J8,3,Pin_3*%
%TO.N,Blanking_Out21*%
X132500000Y-95000000D03*
%TO.P,J8,4,Pin_4*%
%TO.N,Blanking_Out22*%
X135000000Y-95000000D03*
%TO.P,J8,5,Pin_5*%
%TO.N,Blanking_Out23*%
X137500000Y-95000000D03*
%TO.P,J8,6,Pin_6*%
%TO.N,Blanking_Out24*%
X140000000Y-95000000D03*
%TO.P,J8,7,Pin_7*%
%TO.N,GNDREF*%
X142500000Y-95000000D03*
%TD*%
D20*
%TO.P,J7,1,Pin_1*%
%TO.N,On_13*%
X105000000Y-85000000D03*
D21*
%TO.P,J7,2,Pin_2*%
%TO.N,On_14*%
X107500000Y-85000000D03*
%TO.P,J7,3,Pin_3*%
%TO.N,On_15*%
X110000000Y-85000000D03*
%TO.P,J7,4,Pin_4*%
%TO.N,On_16*%
X112500000Y-85000000D03*
%TO.P,J7,5,Pin_5*%
%TO.N,On_17*%
X115000000Y-85000000D03*
%TO.P,J7,6,Pin_6*%
%TO.N,On_18*%
X117500000Y-85000000D03*
%TO.P,J7,7,Pin_7*%
%TO.N,5V*%
X120000000Y-85000000D03*
%TD*%
D22*
%TO.P,J1,1*%
%TO.N,+9V*%
X36287500Y-85120000D03*
D23*
%TO.P,J1,2*%
%TO.N,GNDREF*%
X36287500Y-79120000D03*
D24*
%TO.P,J1,3*%
X31587500Y-82120000D03*
%TD*%
D20*
%TO.P,J9,1,Pin_1*%
%TO.N,On_19*%
X127500000Y-85000000D03*
D21*
%TO.P,J9,2,Pin_2*%
%TO.N,On_20*%
X130000000Y-85000000D03*
%TO.P,J9,3,Pin_3*%
%TO.N,On_21*%
X132500000Y-85000000D03*
%TO.P,J9,4,Pin_4*%
%TO.N,On_22*%
X135000000Y-85000000D03*
%TO.P,J9,5,Pin_5*%
%TO.N,On_23*%
X137500000Y-85000000D03*
%TO.P,J9,6,Pin_6*%
%TO.N,On_24*%
X140000000Y-85000000D03*
%TO.P,J9,7,Pin_7*%
%TO.N,5V*%
X142500000Y-85000000D03*
%TD*%
D20*
%TO.P,J3,1,Pin_1*%
%TO.N,Blanking_Out1*%
X60000000Y-85000000D03*
D21*
%TO.P,J3,2,Pin_2*%
%TO.N,Blanking_Out2*%
X62500000Y-85000000D03*
%TO.P,J3,3,Pin_3*%
%TO.N,Blanking_Out3*%
X65000000Y-85000000D03*
%TO.P,J3,4,Pin_4*%
%TO.N,Blanking_Out4*%
X67500000Y-85000000D03*
%TO.P,J3,5,Pin_5*%
%TO.N,Blanking_Out5*%
X70000000Y-85000000D03*
%TO.P,J3,6,Pin_6*%
%TO.N,Blanking_Out6*%
X72500000Y-85000000D03*
%TO.P,J3,7,Pin_7*%
%TO.N,GNDREF*%
X75000000Y-85000000D03*
%TD*%
D12*
%TO.P,D4,1,K*%
%TO.N,GNDREF*%
X105000000Y-140000000D03*
D13*
%TO.P,D4,2,A*%
%TO.N,Net-(D4-Pad2)*%
X102460000Y-140000000D03*
%TD*%
D10*
%TO.P,R6,1*%
%TO.N,Net-(SW6-Pad4)*%
X131000000Y-130000000D03*
D11*
%TO.P,R6,2*%
%TO.N,Net-(D6-Pad2)*%
X146240000Y-130000000D03*
%TD*%
D14*
%TO.P,U6,1*%
%TO.N,On_21*%
X130000000Y-105000000D03*
D15*
%TO.P,U6,2*%
%TO.N,Blanking_In*%
X130000000Y-107540000D03*
%TO.P,U6,3*%
%TO.N,Blanking_Out21*%
X130000000Y-110080000D03*
%TO.P,U6,4*%
%TO.N,On_22*%
X130000000Y-112620000D03*
%TO.P,U6,5*%
%TO.N,Blanking_In*%
X130000000Y-115160000D03*
%TO.P,U6,6*%
%TO.N,Blanking_Out22*%
X130000000Y-117700000D03*
%TO.P,U6,7,GND*%
%TO.N,GNDREF*%
X130000000Y-120240000D03*
%TO.P,U6,8*%
%TO.N,Blanking_Out24*%
X137620000Y-120240000D03*
%TO.P,U6,9*%
%TO.N,On_24*%
X137620000Y-117700000D03*
%TO.P,U6,10*%
%TO.N,Blanking_In*%
X137620000Y-115160000D03*
%TO.P,U6,11*%
%TO.N,Blanking_Out23*%
X137620000Y-112620000D03*
%TO.P,U6,12*%
%TO.N,On_23*%
X137620000Y-110080000D03*
%TO.P,U6,13*%
%TO.N,Blanking_In*%
X137620000Y-107540000D03*
%TO.P,U6,14,VCC*%
%TO.N,5V*%
X137620000Y-105000000D03*
%TD*%
D16*
%TO.P,SW6,1,A*%
%TO.N,On_6*%
X132460000Y-138280000D03*
%TO.P,SW6,2,B*%
%TO.N,5V*%
X135000000Y-138280000D03*
%TO.P,SW6,3,C*%
%TO.N,unconnected-(SW6-Pad3)*%
X137540000Y-138280000D03*
%TO.P,SW6,4,A*%
%TO.N,Net-(SW6-Pad4)*%
X132460000Y-140820000D03*
%TO.P,SW6,5,B*%
%TO.N,5V*%
X135000000Y-140820000D03*
%TO.P,SW6,6,C*%
%TO.N,unconnected-(SW6-Pad6)*%
X137540000Y-140820000D03*
D17*
%TO.P,SW6,7*%
%TO.N,N/C*%
X132300000Y-145900000D03*
%TO.P,SW6,8*%
X137700000Y-145900000D03*
%TD*%
D12*
%TO.P,D3,1,K*%
%TO.N,GNDREF*%
X85000000Y-140000000D03*
D13*
%TO.P,D3,2,A*%
%TO.N,Net-(D3-Pad2)*%
X82460000Y-140000000D03*
%TD*%
D20*
%TO.P,J4,1,Pin_1*%
%TO.N,Blanking_Out7*%
X82500000Y-95000000D03*
D21*
%TO.P,J4,2,Pin_2*%
%TO.N,Blanking_Out8*%
X85000000Y-95000000D03*
%TO.P,J4,3,Pin_3*%
%TO.N,Blanking_Out9*%
X87500000Y-95000000D03*
%TO.P,J4,4,Pin_4*%
%TO.N,Blanking_Out10*%
X90000000Y-95000000D03*
%TO.P,J4,5,Pin_5*%
%TO.N,Blanking_Out11*%
X92500000Y-95000000D03*
%TO.P,J4,6,Pin_6*%
%TO.N,Blanking_Out12*%
X95000000Y-95000000D03*
%TO.P,J4,7,Pin_7*%
%TO.N,GNDREF*%
X97500000Y-95000000D03*
%TD*%
D14*
%TO.P,U3,1*%
%TO.N,On_10*%
X76000000Y-105000000D03*
D15*
%TO.P,U3,2*%
%TO.N,Blanking_In*%
X76000000Y-107540000D03*
%TO.P,U3,3*%
%TO.N,Blanking_Out10*%
X76000000Y-110080000D03*
%TO.P,U3,4*%
%TO.N,On_9*%
X76000000Y-112620000D03*
%TO.P,U3,5*%
%TO.N,Blanking_In*%
X76000000Y-115160000D03*
%TO.P,U3,6*%
%TO.N,Blanking_Out9*%
X76000000Y-117700000D03*
%TO.P,U3,7,GND*%
%TO.N,GNDREF*%
X76000000Y-120240000D03*
%TO.P,U3,8*%
%TO.N,Blanking_Out12*%
X83620000Y-120240000D03*
%TO.P,U3,9*%
%TO.N,On_12*%
X83620000Y-117700000D03*
%TO.P,U3,10*%
%TO.N,Blanking_In*%
X83620000Y-115160000D03*
%TO.P,U3,11*%
%TO.N,Blanking_Out11*%
X83620000Y-112620000D03*
%TO.P,U3,12*%
%TO.N,On_11*%
X83620000Y-110080000D03*
%TO.P,U3,13*%
%TO.N,Blanking_In*%
X83620000Y-107540000D03*
%TO.P,U3,14,VCC*%
%TO.N,5V*%
X83620000Y-105000000D03*
%TD*%
D25*
%TO.P,U0,1,ADJ*%
%TO.N,Net-(R98-Pad1)*%
X34675000Y-98590000D03*
D26*
%TO.P,U0,2,VO*%
%TO.N,5V*%
X34675000Y-96050000D03*
%TO.P,U0,3,VI*%
%TO.N,+9V*%
X34675000Y-93510000D03*
%TD*%
D20*
%TO.P,J5,1,Pin_1*%
%TO.N,On_7*%
X82500000Y-85000000D03*
D21*
%TO.P,J5,2,Pin_2*%
%TO.N,On_8*%
X85000000Y-85000000D03*
%TO.P,J5,3,Pin_3*%
%TO.N,On_9*%
X87500000Y-85000000D03*
%TO.P,J5,4,Pin_4*%
%TO.N,On_10*%
X90000000Y-85000000D03*
%TO.P,J5,5,Pin_5*%
%TO.N,On_11*%
X92500000Y-85000000D03*
%TO.P,J5,6,Pin_6*%
%TO.N,On_12*%
X95000000Y-85000000D03*
%TO.P,J5,7,Pin_7*%
%TO.N,5V*%
X97500000Y-85000000D03*
%TD*%
D10*
%TO.P,R1,1*%
%TO.N,Net-(SW1-Pad4)*%
X31000000Y-130000000D03*
D11*
%TO.P,R1,2*%
%TO.N,Net-(D1-Pad2)*%
X46240000Y-130000000D03*
%TD*%
D27*
%TO.N,On_3*%
X71300480Y-128000480D02*
X47228480Y-128000480D01*
%TO.N,On_4*%
X45876000Y-117700000D02*
X47620000Y-117700000D01*
X44704000Y-118872000D02*
X45876000Y-117700000D01*
X44704000Y-120804000D02*
X44704000Y-118872000D01*
X45616800Y-121716800D02*
X44704000Y-120804000D01*
X50546000Y-121716800D02*
X45616800Y-121716800D01*
X54152800Y-121158000D02*
X51104800Y-121158000D01*
X54710730Y-121689270D02*
X54684070Y-121689270D01*
X54684070Y-121689270D02*
X54152800Y-121158000D01*
X91186000Y-126746000D02*
X59767460Y-126746000D01*
X92460000Y-128020000D02*
X91186000Y-126746000D01*
X92460000Y-138280000D02*
X92460000Y-128020000D01*
X59767460Y-126746000D02*
X54710730Y-121689270D01*
X51104800Y-121158000D02*
X50546000Y-121716800D01*
%TO.N,5V*%
X35000000Y-141934000D02*
X35000000Y-140820000D01*
X39744000Y-143256000D02*
X36322000Y-143256000D01*
X50000000Y-142000000D02*
X41000000Y-142000000D01*
X36322000Y-143256000D02*
X35000000Y-141934000D01*
X52564000Y-143256000D02*
X51256000Y-143256000D01*
X51256000Y-143256000D02*
X50000000Y-142000000D01*
X41000000Y-142000000D02*
X39744000Y-143256000D01*
%TO.N,Net-(D1-Pad2)*%
X42460000Y-133780000D02*
X46240000Y-130000000D01*
X42460000Y-140000000D02*
X42460000Y-133780000D01*
%TO.N,Net-(D2-Pad2)*%
X62460000Y-140000000D02*
X62460000Y-133780000D01*
X62460000Y-133780000D02*
X66240000Y-130000000D01*
%TO.N,Net-(D3-Pad2)*%
X82460000Y-140000000D02*
X82460000Y-133780000D01*
X82460000Y-133780000D02*
X86240000Y-130000000D01*
%TO.N,Net-(D4-Pad2)*%
X102460000Y-140000000D02*
X102460000Y-133780000D01*
X102460000Y-133780000D02*
X106240000Y-130000000D01*
%TO.N,Net-(D6-Pad2)*%
X142460000Y-140000000D02*
X142460000Y-133780000D01*
X142460000Y-133780000D02*
X146240000Y-130000000D01*
D28*
%TO.N,+9V*%
X34675000Y-86732500D02*
X36287500Y-85120000D01*
X34675000Y-93510000D02*
X34675000Y-86732500D01*
D27*
%TO.N,Blanking_Out1*%
X51054000Y-78994000D02*
X52070000Y-77978000D01*
X52070000Y-77978000D02*
X58928000Y-77978000D01*
X40858480Y-110080000D02*
X40000000Y-110080000D01*
X58928000Y-77978000D02*
X60000000Y-79050000D01*
X51054000Y-90678000D02*
X51054000Y-78994000D01*
X41812000Y-110080000D02*
X40000000Y-110080000D01*
X42164000Y-99568000D02*
X42164000Y-109728000D01*
X42291000Y-99441000D02*
X42164000Y-99568000D01*
X42291000Y-99441000D02*
X51054000Y-90678000D01*
X42164000Y-109728000D02*
X41812000Y-110080000D01*
X60000000Y-79050000D02*
X60000000Y-85000000D01*
%TO.N,Blanking_Out2*%
X61214000Y-87884000D02*
X62500000Y-86598000D01*
X42066000Y-117700000D02*
X42926000Y-116840000D01*
X42926000Y-116840000D02*
X42926000Y-99822000D01*
X62500000Y-86598000D02*
X62500000Y-85000000D01*
X54837270Y-87884000D02*
X61214000Y-87884000D01*
X42912635Y-99808635D02*
X54837270Y-87884000D01*
X40000000Y-117700000D02*
X42066000Y-117700000D01*
X42926000Y-99822000D02*
X42912635Y-99808635D01*
%TO.N,Blanking_Out3*%
X49432000Y-112620000D02*
X50038000Y-112014000D01*
X65000000Y-87400000D02*
X65000000Y-85000000D01*
X50038000Y-97800924D02*
X55636924Y-92202000D01*
X60198000Y-92202000D02*
X65000000Y-87400000D01*
X55636924Y-92202000D02*
X60198000Y-92202000D01*
X47620000Y-112620000D02*
X49432000Y-112620000D01*
X50038000Y-112014000D02*
X50038000Y-97800924D01*
%TO.N,Blanking_Out4*%
X67500000Y-87820000D02*
X67500000Y-85000000D01*
X50448000Y-120240000D02*
X51562000Y-119126000D01*
X59054000Y-96266000D02*
X67500000Y-87820000D01*
X47620000Y-120240000D02*
X50448000Y-120240000D01*
X51562000Y-99060000D02*
X54356000Y-96266000D01*
X51562000Y-119126000D02*
X51562000Y-99060000D01*
X54356000Y-96266000D02*
X59054000Y-96266000D01*
%TO.N,Blanking_Out5*%
X70000000Y-91343460D02*
X70000000Y-85000000D01*
X60256401Y-109669599D02*
X60256401Y-101087059D01*
X59846000Y-110080000D02*
X60256401Y-109669599D01*
X60256401Y-101087059D02*
X70000000Y-91343460D01*
X58000000Y-110080000D02*
X59846000Y-110080000D01*
%TO.N,Blanking_Out6*%
X59338000Y-117700000D02*
X60955921Y-116082079D01*
X58000000Y-117700000D02*
X59338000Y-117700000D01*
X60955920Y-101376810D02*
X60955921Y-116082079D01*
X72500000Y-85000000D02*
X72500000Y-89832730D01*
X72500000Y-89832730D02*
X60955920Y-101376810D01*
%TO.N,Blanking_Out7*%
X68995520Y-111344480D02*
X67720000Y-112620000D01*
X68995520Y-102462480D02*
X68995520Y-111344480D01*
X82500000Y-95000000D02*
X76458000Y-95000000D01*
X76458000Y-95000000D02*
X68995520Y-102462480D01*
X67720000Y-112620000D02*
X65620000Y-112620000D01*
%TO.N,Blanking_Out8*%
X65620000Y-120240000D02*
X68228000Y-120240000D01*
X69695040Y-102752230D02*
X73895270Y-98552000D01*
X68228000Y-120240000D02*
X69695040Y-118772960D01*
X85000000Y-96864000D02*
X85000000Y-95000000D01*
X73895270Y-98552000D02*
X83312000Y-98552000D01*
X83312000Y-98552000D02*
X85000000Y-96864000D01*
X69695040Y-118772960D02*
X69695040Y-102752230D01*
%TO.N,Blanking_Out9*%
X70394560Y-116295440D02*
X70394560Y-103041980D01*
X85592000Y-99314000D02*
X87500000Y-97406000D01*
X70394560Y-103041980D02*
X74122540Y-99314000D01*
X87500000Y-97406000D02*
X87500000Y-95000000D01*
X71799120Y-117700000D02*
X70394560Y-116295440D01*
X76000000Y-117700000D02*
X71799120Y-117700000D01*
X74122540Y-99314000D02*
X85592000Y-99314000D01*
%TO.N,Blanking_Out10*%
X90000000Y-95000000D02*
X90000000Y-97112000D01*
X87098481Y-100013519D02*
X74412291Y-100013519D01*
X71094080Y-103331730D02*
X71094080Y-107924080D01*
X73250000Y-110080000D02*
X76000000Y-110080000D01*
X74412291Y-100013519D02*
X71094080Y-103331730D01*
X71094080Y-107924080D02*
X73250000Y-110080000D01*
X90000000Y-97112000D02*
X87098481Y-100013519D01*
%TO.N,Blanking_Out11*%
X86106000Y-105918000D02*
X86106000Y-111252000D01*
X84738000Y-112620000D02*
X83620000Y-112620000D01*
X92500000Y-99524000D02*
X86106000Y-105918000D01*
X86106000Y-111252000D02*
X84738000Y-112620000D01*
X92500000Y-95000000D02*
X92500000Y-99524000D01*
%TO.N,Blanking_Out12*%
X86262000Y-120240000D02*
X83620000Y-120240000D01*
X87122000Y-106680000D02*
X87122000Y-119380000D01*
X95000000Y-98802000D02*
X87122000Y-106680000D01*
X87122000Y-119380000D02*
X86262000Y-120240000D01*
X95000000Y-95000000D02*
X95000000Y-98802000D01*
%TO.N,On_7*%
X67818000Y-99682000D02*
X67818000Y-108966000D01*
X82500000Y-85000000D02*
X67818000Y-99682000D01*
X66704000Y-110080000D02*
X65620000Y-110080000D01*
X67818000Y-108966000D02*
X66704000Y-110080000D01*
%TO.N,On_8*%
X85000000Y-85000000D02*
X85000000Y-83656000D01*
X81534000Y-82804000D02*
X80772000Y-83566000D01*
X80772000Y-83566000D02*
X80772000Y-85517810D01*
X78572905Y-87716905D02*
X63754000Y-102535810D01*
X63754000Y-117348000D02*
X64106000Y-117700000D01*
X78572905Y-87716905D02*
X78806560Y-87483250D01*
X84148000Y-82804000D02*
X81534000Y-82804000D01*
X63754000Y-102535810D02*
X63754000Y-117348000D01*
X80772000Y-85517810D02*
X78572905Y-87716905D01*
X64106000Y-117700000D02*
X65620000Y-117700000D01*
X85000000Y-83656000D02*
X84148000Y-82804000D01*
%TO.N,On_9*%
X63054480Y-120966480D02*
X64770000Y-122682000D01*
X81244249Y-82104481D02*
X79983270Y-83365460D01*
X79983270Y-85317270D02*
X63054480Y-102246060D01*
X64770000Y-122682000D02*
X76708000Y-122682000D01*
X79983270Y-83365460D02*
X79983270Y-85317270D01*
X78232000Y-121158000D02*
X78232000Y-113792000D01*
X63054480Y-102246060D02*
X63054480Y-120966480D01*
X87500000Y-83182000D02*
X86422481Y-82104481D01*
X86422481Y-82104481D02*
X81244249Y-82104481D01*
X78232000Y-113792000D02*
X77060000Y-112620000D01*
X87500000Y-85000000D02*
X87500000Y-83182000D01*
X77060000Y-112620000D02*
X76000000Y-112620000D01*
X76708000Y-122682000D02*
X78232000Y-121158000D01*
X76806000Y-112620000D02*
X75000000Y-112620000D01*
%TO.N,On_10*%
X75000000Y-105000000D02*
X76806000Y-105000000D01*
X79248000Y-121131270D02*
X79248000Y-107188000D01*
X76997751Y-123381519D02*
X79248000Y-121131270D01*
X77075635Y-87235635D02*
X77407520Y-86903750D01*
X90000000Y-85000000D02*
X90000000Y-82380000D01*
X65594481Y-123381519D02*
X76997751Y-123381519D01*
X90000000Y-82380000D02*
X89024961Y-81404961D01*
X64480250Y-123381520D02*
X65594481Y-123381519D01*
X77060000Y-105000000D02*
X76000000Y-105000000D01*
X62354960Y-101956310D02*
X62354960Y-121256230D01*
X89024961Y-81404961D02*
X80954499Y-81404961D01*
X79248000Y-107188000D02*
X77060000Y-105000000D01*
X79234635Y-83124825D02*
X79234635Y-85076635D01*
X62354960Y-121256230D02*
X64480250Y-123381520D01*
X79234635Y-85076635D02*
X77075635Y-87235635D01*
X77075635Y-87235635D02*
X62354960Y-101956310D01*
X80954499Y-81404961D02*
X79234635Y-83124825D01*
%TO.N,On_11*%
X80664749Y-80705441D02*
X78535116Y-82835074D01*
X79947520Y-111252000D02*
X81119520Y-110080000D01*
X92500000Y-85000000D02*
X92500000Y-82252000D01*
X78535115Y-84786885D02*
X61655440Y-101666560D01*
X78535116Y-82835074D02*
X78535115Y-84786885D01*
X81119520Y-110080000D02*
X83620000Y-110080000D01*
X79947520Y-121421020D02*
X79947520Y-111252000D01*
X64190500Y-124081040D02*
X77287501Y-124081039D01*
X90953441Y-80705441D02*
X80664749Y-80705441D01*
X77287501Y-124081039D02*
X79947520Y-121421020D01*
X61655440Y-101666560D02*
X61655440Y-121545980D01*
X61655440Y-121545980D02*
X64190500Y-124081040D01*
X92500000Y-82252000D02*
X90953441Y-80705441D01*
%TO.N,On_12*%
X80772000Y-121158000D02*
X80772000Y-118364000D01*
X96520000Y-82296000D02*
X95000000Y-83816000D01*
X100076000Y-94742000D02*
X87821520Y-106996480D01*
X85090000Y-122682000D02*
X82296000Y-122682000D01*
X81436000Y-117700000D02*
X83620000Y-117700000D01*
X101978960Y-83944960D02*
X100330000Y-82296000D01*
X87821520Y-119950480D02*
X85090000Y-122682000D01*
X100076000Y-94742000D02*
X100897458Y-93920542D01*
X101978960Y-92839040D02*
X101978960Y-83944960D01*
X100330000Y-82296000D02*
X96520000Y-82296000D01*
X100076000Y-94742000D02*
X101978960Y-92839040D01*
X82296000Y-122682000D02*
X80772000Y-121158000D01*
X87821520Y-106996480D02*
X87821520Y-119950480D01*
X80772000Y-118364000D02*
X81436000Y-117700000D01*
X95000000Y-83816000D02*
X95000000Y-85000000D01*
%TO.N,5V*%
X72564000Y-143256000D02*
X77436000Y-143256000D01*
X135000000Y-138280000D02*
X135000000Y-140820000D01*
X92637000Y-143183000D02*
X95000000Y-140820000D01*
X52564000Y-143256000D02*
X55000000Y-140820000D01*
X72564000Y-143256000D02*
X75000000Y-140820000D01*
X77436000Y-143256000D02*
X92564000Y-143256000D01*
X95000000Y-138280000D02*
X95000000Y-140820000D01*
X117363000Y-143183000D02*
X118291000Y-143183000D01*
X118291000Y-143183000D02*
X132637000Y-143183000D01*
X95000000Y-140820000D02*
X97363000Y-143183000D01*
X92564000Y-143256000D02*
X92637000Y-143183000D01*
X57436000Y-143256000D02*
X72564000Y-143256000D01*
X115000000Y-140820000D02*
X117363000Y-143183000D01*
X115000000Y-138280000D02*
X115000000Y-140820000D01*
X115000000Y-140820000D02*
X112637000Y-143183000D01*
X92637000Y-143183000D02*
X99241000Y-143183000D01*
X97363000Y-143183000D02*
X99241000Y-143183000D01*
X99241000Y-143183000D02*
X111833000Y-143183000D01*
X35000000Y-138280000D02*
X35000000Y-140820000D01*
X55000000Y-140820000D02*
X57436000Y-143256000D01*
X75000000Y-138280000D02*
X75000000Y-140820000D01*
X112637000Y-143183000D02*
X111833000Y-143183000D01*
X52564000Y-143256000D02*
X57436000Y-143256000D01*
X55000000Y-138280000D02*
X55000000Y-140820000D01*
X75000000Y-140820000D02*
X77436000Y-143256000D01*
X132637000Y-143183000D02*
X135000000Y-140820000D01*
X111833000Y-143183000D02*
X118291000Y-143183000D01*
%TO.N,Blanking_Out13*%
X96952000Y-109144000D02*
X96016000Y-110080000D01*
X96952000Y-104470000D02*
X105000000Y-96422000D01*
X96016000Y-110080000D02*
X94000000Y-110080000D01*
X96952000Y-104470000D02*
X96952000Y-109144000D01*
X105000000Y-96422000D02*
X105000000Y-95000000D01*
%TO.N,Blanking_Out14*%
X98102000Y-116020000D02*
X98102000Y-108008000D01*
X98102000Y-108008000D02*
X98102000Y-105976000D01*
X98102000Y-105976000D02*
X107500000Y-96578000D01*
X107500000Y-96578000D02*
X107500000Y-95000000D01*
X94000000Y-117700000D02*
X96422000Y-117700000D01*
X96422000Y-117700000D02*
X98102000Y-116020000D01*
%TO.N,Blanking_Out15*%
X110000000Y-98280000D02*
X110000000Y-95000000D01*
X104140000Y-104140000D02*
X110000000Y-98280000D01*
X101620000Y-112620000D02*
X103534000Y-112620000D01*
X103534000Y-112620000D02*
X104140000Y-112014000D01*
X104140000Y-112014000D02*
X104140000Y-104140000D01*
%TO.N,Blanking_Out16*%
X105156000Y-119380000D02*
X104296000Y-120240000D01*
X105156000Y-105410000D02*
X105156000Y-119380000D01*
X112500000Y-95000000D02*
X112500000Y-98066000D01*
X104296000Y-120240000D02*
X101620000Y-120240000D01*
X112500000Y-98066000D02*
X105156000Y-105410000D01*
%TO.N,Blanking_Out17*%
X108810000Y-110080000D02*
X107950000Y-109220000D01*
X107950000Y-106150978D02*
X117500000Y-96600978D01*
X112000000Y-110080000D02*
X108810000Y-110080000D01*
X117500000Y-96600978D02*
X117500000Y-95000000D01*
X107950000Y-109220000D02*
X107950000Y-106150978D01*
%TO.N,Blanking_Out18*%
X115000000Y-97598000D02*
X106680000Y-105918000D01*
X106680000Y-115824000D02*
X108556000Y-117700000D01*
X115000000Y-95000000D02*
X115000000Y-97598000D01*
X106680000Y-105918000D02*
X106680000Y-115824000D01*
X108556000Y-117700000D02*
X112000000Y-117700000D01*
%TO.N,On_13*%
X103378000Y-95622000D02*
X94000000Y-105000000D01*
X103378000Y-94996000D02*
X103378000Y-94488000D01*
X104992000Y-85000000D02*
X105000000Y-85000000D01*
X103378000Y-94488000D02*
X103378000Y-90424000D01*
X103378000Y-90424000D02*
X103378000Y-86614000D01*
X103378000Y-90424000D02*
X103378000Y-95622000D01*
X103378000Y-86614000D02*
X104992000Y-85000000D01*
%TO.N,On_14*%
X91030000Y-112620000D02*
X94000000Y-112620000D01*
X107500000Y-83370000D02*
X106426000Y-82296000D01*
X106426000Y-82296000D02*
X104140000Y-82296000D01*
X89408000Y-110998000D02*
X91030000Y-112620000D01*
X102678480Y-93128790D02*
X89408000Y-106399270D01*
X104140000Y-82296000D02*
X102678480Y-83757520D01*
X107500000Y-85000000D02*
X107500000Y-83370000D01*
X102678480Y-83757520D02*
X102678480Y-93128790D01*
X89408000Y-106399270D02*
X89408000Y-110998000D01*
%TO.N,On_15*%
X112095921Y-127005381D02*
X112095921Y-127004079D01*
X142564638Y-77653362D02*
X144040984Y-77653364D01*
X102112079Y-127004079D02*
X98801519Y-123693519D01*
X144238445Y-126338445D02*
X133876890Y-136700000D01*
X101620000Y-110080000D02*
X99470000Y-110080000D01*
X133876890Y-136700000D02*
X121790540Y-136700000D01*
X98801519Y-123693519D02*
X99630480Y-124522480D01*
X102620000Y-110080000D02*
X100994000Y-110080000D01*
X148797599Y-82409979D02*
X148797599Y-121779291D01*
X144238445Y-126338445D02*
X143572810Y-127004080D01*
X110000000Y-85000000D02*
X110000000Y-79484000D01*
X110000000Y-79484000D02*
X111830638Y-77653362D01*
X148797599Y-121779291D02*
X144238445Y-126338445D01*
X98801519Y-110748481D02*
X98801519Y-123693519D01*
X99470000Y-110080000D02*
X98801519Y-110748481D01*
X112095921Y-127004079D02*
X102112079Y-127004079D01*
X111830638Y-77653362D02*
X142564638Y-77653362D01*
X144040984Y-77653364D02*
X148797599Y-82409979D01*
X121790540Y-136700000D02*
X112095921Y-127005381D01*
%TO.N,On_16*%
X112500000Y-85000000D02*
X112500000Y-79734000D01*
X100606078Y-117700000D02*
X101620000Y-117700000D01*
X148098079Y-82699729D02*
X148098079Y-121489541D01*
X112385672Y-126304560D02*
X102936560Y-126304560D01*
X148098079Y-121489541D02*
X133587140Y-136000480D01*
X143751233Y-78352883D02*
X148098079Y-82699729D01*
X122080290Y-136000480D02*
X122080290Y-135999178D01*
X112500000Y-79734000D02*
X113881118Y-78352882D01*
X122080290Y-135999178D02*
X112385672Y-126304560D01*
X102620000Y-117700000D02*
X100994000Y-117700000D01*
X99501039Y-118805039D02*
X100606078Y-117700000D01*
X99501039Y-122869039D02*
X99501039Y-118805039D01*
X133587140Y-136000480D02*
X122080290Y-136000480D01*
X113881118Y-78352882D02*
X143751233Y-78352883D01*
X102936560Y-126304560D02*
X99501039Y-122869039D01*
%TO.N,On_17*%
X115000000Y-87314000D02*
X117602000Y-89916000D01*
X114202000Y-105000000D02*
X112000000Y-105000000D01*
X121539000Y-90805000D02*
X120650000Y-89916000D01*
X115000000Y-85000000D02*
X115000000Y-87314000D01*
X122936000Y-96266000D02*
X114202000Y-105000000D01*
X121539000Y-90805000D02*
X122936000Y-92202000D01*
X117602000Y-89916000D02*
X120650000Y-89916000D01*
X122936000Y-92202000D02*
X122936000Y-96266000D01*
%TO.N,On_18*%
X124968000Y-82550000D02*
X123952000Y-81534000D01*
X115316000Y-111252000D02*
X115316000Y-106172000D01*
X118364000Y-81534000D02*
X117500000Y-82398000D01*
X123952000Y-81534000D02*
X118364000Y-81534000D01*
X124968000Y-96520000D02*
X124968000Y-91186000D01*
X117500000Y-82398000D02*
X117500000Y-85000000D01*
X115316000Y-106172000D02*
X124968000Y-96520000D01*
X124968000Y-91186000D02*
X124968000Y-82550000D01*
X113948000Y-112620000D02*
X115316000Y-111252000D01*
X112000000Y-112620000D02*
X113948000Y-112620000D01*
%TO.N,Blanking_Out19*%
X127500000Y-95000000D02*
X127500000Y-96500000D01*
X121380000Y-112620000D02*
X119620000Y-112620000D01*
X121700000Y-112300000D02*
X121380000Y-112620000D01*
X121700000Y-102300000D02*
X121700000Y-112300000D01*
X127500000Y-96500000D02*
X121700000Y-102300000D01*
%TO.N,Blanking_Out20*%
X121314000Y-120240000D02*
X122399520Y-119154480D01*
X130000000Y-96399520D02*
X130000000Y-95000000D01*
X122399520Y-119154480D02*
X122399520Y-104000000D01*
X122399520Y-104000000D02*
X130000000Y-96399520D01*
X119620000Y-120240000D02*
X121314000Y-120240000D01*
%TO.N,Blanking_Out21*%
X131298000Y-110080000D02*
X130000000Y-110080000D01*
X132500000Y-95000000D02*
X132500000Y-96432000D01*
X132500000Y-95000000D02*
X132500000Y-108878000D01*
X132500000Y-108878000D02*
X131298000Y-110080000D01*
%TO.N,Blanking_Out22*%
X133604000Y-102870000D02*
X135000000Y-101474000D01*
X132744000Y-117700000D02*
X133604000Y-116840000D01*
X130000000Y-117700000D02*
X132744000Y-117700000D01*
X135000000Y-101474000D02*
X135000000Y-95000000D01*
X133604000Y-116840000D02*
X133604000Y-102870000D01*
%TO.N,Blanking_Out23*%
X140280000Y-112620000D02*
X142500960Y-110399040D01*
X142500960Y-110399040D02*
X142500960Y-100000000D01*
X137500960Y-95000000D02*
X137500000Y-95000000D01*
X142500960Y-100000000D02*
X137500960Y-95000000D01*
X137620000Y-112620000D02*
X140280000Y-112620000D01*
%TO.N,Blanking_Out24*%
X142422730Y-120240000D02*
X143200480Y-119462250D01*
X143200480Y-119462250D02*
X143200480Y-98200480D01*
X137620000Y-120240000D02*
X142422730Y-120240000D01*
X143200480Y-98200480D02*
X140000000Y-95000000D01*
%TO.N,On_19*%
X127500000Y-85000000D02*
X127500000Y-82304000D01*
X130751598Y-79052402D02*
X143461482Y-79052402D01*
X127500000Y-82304000D02*
X130751598Y-79052402D01*
X133297390Y-135300960D02*
X122371342Y-135300960D01*
X122371342Y-135300960D02*
X116015520Y-128945138D01*
X117504000Y-110080000D02*
X119620000Y-110080000D01*
X116015520Y-128945138D02*
X116015520Y-111568480D01*
X116015520Y-111568480D02*
X117504000Y-110080000D01*
X143461482Y-79052402D02*
X147398559Y-82989479D01*
X147398559Y-82989479D02*
X147398559Y-121199791D01*
X147398559Y-121199791D02*
X133297390Y-135300960D01*
%TO.N,On_20*%
X122661092Y-134601440D02*
X116715040Y-128655388D01*
X132338079Y-79751921D02*
X143171731Y-79751921D01*
X146699039Y-83279229D02*
X146699039Y-120910041D01*
X116715040Y-118742960D02*
X117758000Y-117700000D01*
X130000000Y-82090000D02*
X132338079Y-79751921D01*
X143171731Y-79751921D02*
X146699039Y-83279229D01*
X116715040Y-128655388D02*
X116715040Y-118742960D01*
X130000000Y-85000000D02*
X130000000Y-82090000D01*
X133007640Y-134601440D02*
X122661092Y-134601440D01*
X117758000Y-117700000D02*
X119620000Y-117700000D01*
X146699039Y-120910041D02*
X133007640Y-134601440D01*
%TO.N,On_21*%
X145999519Y-120620291D02*
X142538770Y-124081040D01*
X142538770Y-124081040D02*
X128728730Y-124081038D01*
X132500000Y-85000000D02*
X132500000Y-82130000D01*
X128300000Y-105000000D02*
X130000000Y-105000000D01*
X145999519Y-83568979D02*
X145999519Y-120620291D01*
X134178559Y-80451441D02*
X141411441Y-80451441D01*
X128728730Y-124081038D02*
X127510480Y-122862788D01*
X127510480Y-105789520D02*
X128300000Y-105000000D01*
X132500000Y-82130000D02*
X134178559Y-80451441D01*
X142881983Y-80451443D02*
X145999519Y-83568979D01*
X141411441Y-80451441D02*
X142881983Y-80451443D01*
X127510480Y-122862788D02*
X127510480Y-105789520D01*
%TO.N,On_22*%
X128210000Y-114410000D02*
X128210000Y-122573038D01*
X145300000Y-120330540D02*
X145300000Y-83858730D01*
X145300000Y-83858730D02*
X142592232Y-81150962D01*
X142592232Y-81150962D02*
X136273039Y-81150961D01*
X135000000Y-82424000D02*
X135000000Y-85000000D01*
X136273039Y-81150961D02*
X135000000Y-82424000D01*
X142249020Y-123381520D02*
X145300000Y-120330540D01*
X129018481Y-123381519D02*
X142249020Y-123381520D01*
X128210000Y-122573038D02*
X129018481Y-123381519D01*
X130000000Y-112620000D02*
X128210000Y-114410000D01*
%TO.N,On_23*%
X136424730Y-122682000D02*
X134366000Y-120623270D01*
X138367519Y-81850481D02*
X142302481Y-81850481D01*
X137500000Y-82718000D02*
X138367519Y-81850481D01*
X134366000Y-111252000D02*
X135538000Y-110080000D01*
X144599519Y-120041751D02*
X141959270Y-122682000D01*
X142302481Y-81850481D02*
X144599519Y-84147519D01*
X135538000Y-110080000D02*
X137620000Y-110080000D01*
X144599519Y-84147519D02*
X144599519Y-120041751D01*
X141959270Y-122682000D02*
X136424730Y-122682000D01*
X137500000Y-85000000D02*
X137500000Y-82718000D01*
X134366000Y-120623270D02*
X134366000Y-111252000D01*
%TO.N,On_24*%
X140000000Y-88300000D02*
X140000000Y-85000000D01*
X143900000Y-92200000D02*
X140000000Y-88300000D01*
X135128000Y-120396000D02*
X136652000Y-121920000D01*
X135988000Y-117700000D02*
X135128000Y-118560000D01*
X137620000Y-117700000D02*
X135988000Y-117700000D01*
X135128000Y-118560000D02*
X135128000Y-120396000D01*
X143900000Y-119752000D02*
X143900000Y-92200000D01*
X136652000Y-121920000D02*
X141732000Y-121920000D01*
X141732000Y-121920000D02*
X143900000Y-119752000D01*
%TO.N,Net-(SW1-Pad4)*%
X31000000Y-130000000D02*
X31000000Y-138719022D01*
X30988000Y-139348000D02*
X32460000Y-140820000D01*
D29*
X31000000Y-138719022D02*
X30988000Y-138731022D01*
D27*
X30988000Y-138731022D02*
X30988000Y-139348000D01*
%TO.N,Net-(SW2-Pad4)*%
X51000000Y-139360000D02*
X52460000Y-140820000D01*
X51000000Y-130000000D02*
X51000000Y-139360000D01*
%TO.N,Net-(SW3-Pad4)*%
X71000000Y-139360000D02*
X72460000Y-140820000D01*
X71000000Y-130000000D02*
X71000000Y-139360000D01*
%TO.N,Net-(SW4-Pad4)*%
X91000000Y-139360000D02*
X92460000Y-140820000D01*
X91000000Y-130000000D02*
X91000000Y-139360000D01*
%TO.N,Net-(SW5-Pad4)*%
X111000000Y-130000000D02*
X111000000Y-139360000D01*
X111000000Y-139360000D02*
X112460000Y-140820000D01*
D29*
%TO.N,Net-(R98-Pad1)*%
X40330000Y-98590000D02*
X40360000Y-98620000D01*
D27*
X34675000Y-98590000D02*
X35776000Y-98590000D01*
X35776000Y-98590000D02*
X40386000Y-93980000D01*
X34675000Y-98590000D02*
X40330000Y-98590000D01*
%TO.N,On_1*%
X38002000Y-105000000D02*
X32460000Y-110542000D01*
X32460000Y-110542000D02*
X32460000Y-138280000D01*
X40000000Y-105000000D02*
X38002000Y-105000000D01*
%TO.N,On_2*%
X35052000Y-115062000D02*
X37494000Y-112620000D01*
X52427076Y-129660000D02*
X51467076Y-128700000D01*
X52460000Y-138280000D02*
X52460000Y-129660000D01*
X37768000Y-128700000D02*
X35052000Y-125984000D01*
X37494000Y-112620000D02*
X40000000Y-112620000D01*
X35052000Y-125984000D02*
X35052000Y-115062000D01*
X52460000Y-129660000D02*
X52427076Y-129660000D01*
X51467076Y-128700000D02*
X37768000Y-128700000D01*
%TO.N,On_3*%
X43688000Y-124460000D02*
X43688000Y-112014000D01*
X47228480Y-128000480D02*
X43688000Y-124460000D01*
X43688000Y-112014000D02*
X45622000Y-110080000D01*
X72460000Y-129160000D02*
X71300480Y-128000480D01*
X72460000Y-138280000D02*
X72460000Y-129160000D01*
X45622000Y-110080000D02*
X47620000Y-110080000D01*
%TO.N,On_5*%
X111636000Y-128524000D02*
X93953270Y-128524000D01*
X56036000Y-105000000D02*
X58000000Y-105000000D01*
X112460000Y-138280000D02*
X112460000Y-129348000D01*
X54102000Y-106934000D02*
X56036000Y-105000000D01*
X112460000Y-129348000D02*
X111636000Y-128524000D01*
X59994730Y-125984000D02*
X54102000Y-120091270D01*
X91413270Y-125984000D02*
X59994730Y-125984000D01*
X93953270Y-128524000D02*
X91413270Y-125984000D01*
X54102000Y-120091270D02*
X54102000Y-106934000D01*
%TO.N,On_6*%
X122381270Y-138280000D02*
X111925750Y-127824480D01*
X132460000Y-138280000D02*
X122381270Y-138280000D01*
X91703020Y-125284480D02*
X60284481Y-125284481D01*
X111925750Y-127824480D02*
X94243020Y-127824480D01*
X94243020Y-127824480D02*
X91703020Y-125284480D01*
X55372000Y-120372000D02*
X55372000Y-113538000D01*
X56290000Y-112620000D02*
X58000000Y-112620000D01*
X55372000Y-113538000D02*
X56290000Y-112620000D01*
X60284481Y-125284481D02*
X55372000Y-120372000D01*
%TD*%
M02*
