%TF.GenerationSoftware,KiCad,Pcbnew,(6.0.4)*%
%TF.CreationDate,2023-12-08T17:35:57+01:00*%
%TF.ProjectId,BlankingRelay_Top1,426c616e-6b69-46e6-9752-656c61795f54,rev?*%
%TF.SameCoordinates,Original*%
%TF.FileFunction,Copper,L1,Top*%
%TF.FilePolarity,Positive*%
%FSLAX46Y46*%
G04 Gerber Fmt 4.6, Leading zero omitted, Abs format (unit mm)*
G04 Created by KiCad (PCBNEW (6.0.4)) date 2023-12-08 17:35:57*
%MOMM*%
%LPD*%
G01*
G04 APERTURE LIST*
G04 Aperture macros list*
%AMRoundRect*
0 Rectangle with rounded corners*
0 $1 Rounding radius*
0 $2 $3 $4 $5 $6 $7 $8 $9 X,Y pos of 4 corners*
0 Add a 4 corners polygon primitive as box body*
4,1,4,$2,$3,$4,$5,$6,$7,$8,$9,$2,$3,0*
0 Add four circle primitives for the rounded corners*
1,1,$1+$1,$2,$3*
1,1,$1+$1,$4,$5*
1,1,$1+$1,$6,$7*
1,1,$1+$1,$8,$9*
0 Add four rect primitives between the rounded corners*
20,1,$1+$1,$2,$3,$4,$5,0*
20,1,$1+$1,$4,$5,$6,$7,0*
20,1,$1+$1,$6,$7,$8,$9,0*
20,1,$1+$1,$8,$9,$2,$3,0*%
G04 Aperture macros list end*
%TA.AperFunction,ComponentPad*%
%ADD10O,1.600200X2.499360*%
%TD*%
%TA.AperFunction,ComponentPad*%
%ADD11O,3.500120X7.000240*%
%TD*%
%TA.AperFunction,ComponentPad*%
%ADD12RoundRect,0.250000X-0.600000X-0.725000X0.600000X-0.725000X0.600000X0.725000X-0.600000X0.725000X0*%
%TD*%
%TA.AperFunction,ComponentPad*%
%ADD13O,1.700000X1.950000*%
%TD*%
%TA.AperFunction,Conductor*%
%ADD14C,0.500000*%
%TD*%
%TA.AperFunction,Conductor*%
%ADD15C,0.250000*%
%TD*%
G04 APERTURE END LIST*
D10*
%TO.P,J7,2,Ext*%
%TO.N,GNDREF*%
X177499360Y-129998740D03*
%TO.P,J7,1,In*%
%TO.N,Blanking_Out6*%
X175000000Y-129998740D03*
D11*
%TO.P,J7,2,Ext*%
%TO.N,GNDREF*%
X169899680Y-134263400D03*
X180097780Y-134263400D03*
%TD*%
D10*
%TO.P,J6,2,Ext*%
%TO.N,GNDREF*%
X157499360Y-129998740D03*
%TO.P,J6,1,In*%
%TO.N,Blanking_Out5*%
X155000000Y-129998740D03*
D11*
%TO.P,J6,2,Ext*%
%TO.N,GNDREF*%
X149899680Y-134263400D03*
X160097780Y-134263400D03*
%TD*%
D10*
%TO.P,J5,2,Ext*%
%TO.N,GNDREF*%
X137499360Y-129998740D03*
%TO.P,J5,1,In*%
%TO.N,Blanking_Out4*%
X135000000Y-129998740D03*
D11*
%TO.P,J5,2,Ext*%
%TO.N,GNDREF*%
X129899680Y-134263400D03*
X140097780Y-134263400D03*
%TD*%
D10*
%TO.P,J4,2,Ext*%
%TO.N,GNDREF*%
X117499360Y-129998740D03*
%TO.P,J4,1,In*%
%TO.N,Blanking_Out3*%
X115000000Y-129998740D03*
D11*
%TO.P,J4,2,Ext*%
%TO.N,GNDREF*%
X109899680Y-134263400D03*
X120097780Y-134263400D03*
%TD*%
D10*
%TO.P,J3,2,Ext*%
%TO.N,GNDREF*%
X97499360Y-129998740D03*
%TO.P,J3,1,In*%
%TO.N,Blanking_Out2*%
X95000000Y-129998740D03*
D11*
%TO.P,J3,2,Ext*%
%TO.N,GNDREF*%
X89899680Y-134263400D03*
X100097780Y-134263400D03*
%TD*%
D10*
%TO.P,J2,2,Ext*%
%TO.N,GNDREF*%
X77499360Y-129998740D03*
%TO.P,J2,1,In*%
%TO.N,Blanking_Out1*%
X75000000Y-129998740D03*
D11*
%TO.P,J2,2,Ext*%
%TO.N,GNDREF*%
X69899680Y-134263400D03*
X80097780Y-134263400D03*
%TD*%
D12*
%TO.P,J1,1,Pin_1*%
%TO.N,Blanking_Out1*%
X96000000Y-115000000D03*
D13*
%TO.P,J1,2,Pin_2*%
%TO.N,Blanking_Out2*%
X98500000Y-115000000D03*
%TO.P,J1,3,Pin_3*%
%TO.N,Blanking_Out3*%
X101000000Y-115000000D03*
%TO.P,J1,4,Pin_4*%
%TO.N,Blanking_Out4*%
X103500000Y-115000000D03*
%TO.P,J1,5,Pin_5*%
%TO.N,Blanking_Out5*%
X106000000Y-115000000D03*
%TO.P,J1,6,Pin_6*%
%TO.N,Blanking_Out6*%
X108500000Y-115000000D03*
%TO.P,J1,7,Pin_7*%
%TO.N,GNDREF*%
X111000000Y-115000000D03*
%TD*%
D14*
%TO.N,Blanking_Out1*%
X89550630Y-126249370D02*
X78749370Y-126249370D01*
X96000000Y-119800000D02*
X89550630Y-126249370D01*
X75000000Y-129998740D02*
X78749370Y-126249370D01*
X96000000Y-115000000D02*
X96000000Y-119800000D01*
%TO.N,Blanking_Out6*%
X175000000Y-125200000D02*
X175000000Y-129998740D01*
X171400000Y-121600000D02*
X175000000Y-125200000D01*
X108500000Y-121000000D02*
X109100000Y-121600000D01*
X108500000Y-115000000D02*
X108500000Y-121000000D01*
X109100000Y-121600000D02*
X171400000Y-121600000D01*
%TO.N,Blanking_Out5*%
X152700000Y-123100000D02*
X155000000Y-125400000D01*
X107400000Y-123100000D02*
X152700000Y-123100000D01*
X106000000Y-121700000D02*
X107400000Y-123100000D01*
X106000000Y-115000000D02*
X106000000Y-121700000D01*
X155000000Y-125400000D02*
X155000000Y-129998740D01*
%TO.N,Blanking_Out4*%
X133200000Y-124700000D02*
X135000000Y-126500000D01*
X103500000Y-121500000D02*
X106700000Y-124700000D01*
X106700000Y-124700000D02*
X133200000Y-124700000D01*
X103500000Y-115000000D02*
X103500000Y-121500000D01*
X135000000Y-126500000D02*
X135000000Y-129998740D01*
%TO.N,Blanking_Out3*%
X112500000Y-126100000D02*
X115000000Y-128600000D01*
X104400000Y-126100000D02*
X112500000Y-126100000D01*
X115000000Y-128600000D02*
X115000000Y-129998740D01*
X101000000Y-122700000D02*
X104400000Y-126100000D01*
X101000000Y-115000000D02*
X101000000Y-122700000D01*
%TO.N,Blanking_Out2*%
X95000000Y-124800000D02*
X95000000Y-129998740D01*
X98500000Y-115000000D02*
X98500000Y-121300000D01*
X98500000Y-121300000D02*
X95000000Y-124800000D01*
D15*
%TO.N,Blanking_Out3*%
X115000000Y-129000000D02*
X115000000Y-129998740D01*
%TD*%
M02*
