%TF.GenerationSoftware,KiCad,Pcbnew,(6.0.4)*%
%TF.CreationDate,2023-12-08T17:35:57+01:00*%
%TF.ProjectId,BlankingRelay_Top1,426c616e-6b69-46e6-9752-656c61795f54,rev?*%
%TF.SameCoordinates,Original*%
%TF.FileFunction,Legend,Top*%
%TF.FilePolarity,Positive*%
%FSLAX46Y46*%
G04 Gerber Fmt 4.6, Leading zero omitted, Abs format (unit mm)*
G04 Created by KiCad (PCBNEW (6.0.4)) date 2023-12-08 17:35:57*
%MOMM*%
%LPD*%
G01*
G04 APERTURE LIST*
%ADD10C,0.150000*%
%ADD11C,0.120000*%
G04 APERTURE END LIST*
D10*
%TO.C,REF\u002A\u002A*%
X159166666Y-113452380D02*
X158833333Y-112976190D01*
X158595238Y-113452380D02*
X158595238Y-112452380D01*
X158976190Y-112452380D01*
X159071428Y-112500000D01*
X159119047Y-112547619D01*
X159166666Y-112642857D01*
X159166666Y-112785714D01*
X159119047Y-112880952D01*
X159071428Y-112928571D01*
X158976190Y-112976190D01*
X158595238Y-112976190D01*
X159595238Y-112928571D02*
X159928571Y-112928571D01*
X160071428Y-113452380D02*
X159595238Y-113452380D01*
X159595238Y-112452380D01*
X160071428Y-112452380D01*
X160833333Y-112928571D02*
X160500000Y-112928571D01*
X160500000Y-113452380D02*
X160500000Y-112452380D01*
X160976190Y-112452380D01*
X161500000Y-112452380D02*
X161500000Y-112690476D01*
X161261904Y-112595238D02*
X161500000Y-112690476D01*
X161738095Y-112595238D01*
X161357142Y-112880952D02*
X161500000Y-112690476D01*
X161642857Y-112880952D01*
X162261904Y-112452380D02*
X162261904Y-112690476D01*
X162023809Y-112595238D02*
X162261904Y-112690476D01*
X162500000Y-112595238D01*
X162119047Y-112880952D02*
X162261904Y-112690476D01*
X162404761Y-112880952D01*
X87166666Y-113552380D02*
X86833333Y-113076190D01*
X86595238Y-113552380D02*
X86595238Y-112552380D01*
X86976190Y-112552380D01*
X87071428Y-112600000D01*
X87119047Y-112647619D01*
X87166666Y-112742857D01*
X87166666Y-112885714D01*
X87119047Y-112980952D01*
X87071428Y-113028571D01*
X86976190Y-113076190D01*
X86595238Y-113076190D01*
X87595238Y-113028571D02*
X87928571Y-113028571D01*
X88071428Y-113552380D02*
X87595238Y-113552380D01*
X87595238Y-112552380D01*
X88071428Y-112552380D01*
X88833333Y-113028571D02*
X88500000Y-113028571D01*
X88500000Y-113552380D02*
X88500000Y-112552380D01*
X88976190Y-112552380D01*
X89500000Y-112552380D02*
X89500000Y-112790476D01*
X89261904Y-112695238D02*
X89500000Y-112790476D01*
X89738095Y-112695238D01*
X89357142Y-112980952D02*
X89500000Y-112790476D01*
X89642857Y-112980952D01*
X90261904Y-112552380D02*
X90261904Y-112790476D01*
X90023809Y-112695238D02*
X90261904Y-112790476D01*
X90500000Y-112695238D01*
X90119047Y-112980952D02*
X90261904Y-112790476D01*
X90404761Y-112980952D01*
%TO.C,J7*%
X169757142Y-126728571D02*
X169900000Y-126776190D01*
X169947619Y-126823809D01*
X169995238Y-126919047D01*
X169995238Y-127061904D01*
X169947619Y-127157142D01*
X169900000Y-127204761D01*
X169804761Y-127252380D01*
X169423809Y-127252380D01*
X169423809Y-126252380D01*
X169757142Y-126252380D01*
X169852380Y-126300000D01*
X169900000Y-126347619D01*
X169947619Y-126442857D01*
X169947619Y-126538095D01*
X169900000Y-126633333D01*
X169852380Y-126680952D01*
X169757142Y-126728571D01*
X169423809Y-126728571D01*
X170566666Y-127252380D02*
X170471428Y-127204761D01*
X170423809Y-127109523D01*
X170423809Y-126252380D01*
X171376190Y-127252380D02*
X171376190Y-126728571D01*
X171328571Y-126633333D01*
X171233333Y-126585714D01*
X171042857Y-126585714D01*
X170947619Y-126633333D01*
X171376190Y-127204761D02*
X171280952Y-127252380D01*
X171042857Y-127252380D01*
X170947619Y-127204761D01*
X170900000Y-127109523D01*
X170900000Y-127014285D01*
X170947619Y-126919047D01*
X171042857Y-126871428D01*
X171280952Y-126871428D01*
X171376190Y-126823809D01*
X171852380Y-126585714D02*
X171852380Y-127252380D01*
X171852380Y-126680952D02*
X171900000Y-126633333D01*
X171995238Y-126585714D01*
X172138095Y-126585714D01*
X172233333Y-126633333D01*
X172280952Y-126728571D01*
X172280952Y-127252380D01*
X172757142Y-127252380D02*
X172757142Y-126252380D01*
X172852380Y-126871428D02*
X173138095Y-127252380D01*
X173138095Y-126585714D02*
X172757142Y-126966666D01*
X173566666Y-127252380D02*
X173566666Y-126585714D01*
X173566666Y-126252380D02*
X173519047Y-126300000D01*
X173566666Y-126347619D01*
X173614285Y-126300000D01*
X173566666Y-126252380D01*
X173566666Y-126347619D01*
X174042857Y-126585714D02*
X174042857Y-127252380D01*
X174042857Y-126680952D02*
X174090476Y-126633333D01*
X174185714Y-126585714D01*
X174328571Y-126585714D01*
X174423809Y-126633333D01*
X174471428Y-126728571D01*
X174471428Y-127252380D01*
X175376190Y-126585714D02*
X175376190Y-127395238D01*
X175328571Y-127490476D01*
X175280952Y-127538095D01*
X175185714Y-127585714D01*
X175042857Y-127585714D01*
X174947619Y-127538095D01*
X175376190Y-127204761D02*
X175280952Y-127252380D01*
X175090476Y-127252380D01*
X174995238Y-127204761D01*
X174947619Y-127157142D01*
X174900000Y-127061904D01*
X174900000Y-126776190D01*
X174947619Y-126680952D01*
X174995238Y-126633333D01*
X175090476Y-126585714D01*
X175280952Y-126585714D01*
X175376190Y-126633333D01*
X176804761Y-126252380D02*
X176995238Y-126252380D01*
X177090476Y-126300000D01*
X177185714Y-126395238D01*
X177233333Y-126585714D01*
X177233333Y-126919047D01*
X177185714Y-127109523D01*
X177090476Y-127204761D01*
X176995238Y-127252380D01*
X176804761Y-127252380D01*
X176709523Y-127204761D01*
X176614285Y-127109523D01*
X176566666Y-126919047D01*
X176566666Y-126585714D01*
X176614285Y-126395238D01*
X176709523Y-126300000D01*
X176804761Y-126252380D01*
X178090476Y-126585714D02*
X178090476Y-127252380D01*
X177661904Y-126585714D02*
X177661904Y-127109523D01*
X177709523Y-127204761D01*
X177804761Y-127252380D01*
X177947619Y-127252380D01*
X178042857Y-127204761D01*
X178090476Y-127157142D01*
X178423809Y-126585714D02*
X178804761Y-126585714D01*
X178566666Y-126252380D02*
X178566666Y-127109523D01*
X178614285Y-127204761D01*
X178709523Y-127252380D01*
X178804761Y-127252380D01*
X180328571Y-126252380D02*
X180138095Y-126252380D01*
X180042857Y-126300000D01*
X179995238Y-126347619D01*
X179900000Y-126490476D01*
X179852380Y-126680952D01*
X179852380Y-127061904D01*
X179900000Y-127157142D01*
X179947619Y-127204761D01*
X180042857Y-127252380D01*
X180233333Y-127252380D01*
X180328571Y-127204761D01*
X180376190Y-127157142D01*
X180423809Y-127061904D01*
X180423809Y-126823809D01*
X180376190Y-126728571D01*
X180328571Y-126680952D01*
X180233333Y-126633333D01*
X180042857Y-126633333D01*
X179947619Y-126680952D01*
X179900000Y-126728571D01*
X179852380Y-126823809D01*
%TO.C,J6*%
X149857142Y-126728571D02*
X150000000Y-126776190D01*
X150047619Y-126823809D01*
X150095238Y-126919047D01*
X150095238Y-127061904D01*
X150047619Y-127157142D01*
X150000000Y-127204761D01*
X149904761Y-127252380D01*
X149523809Y-127252380D01*
X149523809Y-126252380D01*
X149857142Y-126252380D01*
X149952380Y-126300000D01*
X150000000Y-126347619D01*
X150047619Y-126442857D01*
X150047619Y-126538095D01*
X150000000Y-126633333D01*
X149952380Y-126680952D01*
X149857142Y-126728571D01*
X149523809Y-126728571D01*
X150666666Y-127252380D02*
X150571428Y-127204761D01*
X150523809Y-127109523D01*
X150523809Y-126252380D01*
X151476190Y-127252380D02*
X151476190Y-126728571D01*
X151428571Y-126633333D01*
X151333333Y-126585714D01*
X151142857Y-126585714D01*
X151047619Y-126633333D01*
X151476190Y-127204761D02*
X151380952Y-127252380D01*
X151142857Y-127252380D01*
X151047619Y-127204761D01*
X151000000Y-127109523D01*
X151000000Y-127014285D01*
X151047619Y-126919047D01*
X151142857Y-126871428D01*
X151380952Y-126871428D01*
X151476190Y-126823809D01*
X151952380Y-126585714D02*
X151952380Y-127252380D01*
X151952380Y-126680952D02*
X152000000Y-126633333D01*
X152095238Y-126585714D01*
X152238095Y-126585714D01*
X152333333Y-126633333D01*
X152380952Y-126728571D01*
X152380952Y-127252380D01*
X152857142Y-127252380D02*
X152857142Y-126252380D01*
X152952380Y-126871428D02*
X153238095Y-127252380D01*
X153238095Y-126585714D02*
X152857142Y-126966666D01*
X153666666Y-127252380D02*
X153666666Y-126585714D01*
X153666666Y-126252380D02*
X153619047Y-126300000D01*
X153666666Y-126347619D01*
X153714285Y-126300000D01*
X153666666Y-126252380D01*
X153666666Y-126347619D01*
X154142857Y-126585714D02*
X154142857Y-127252380D01*
X154142857Y-126680952D02*
X154190476Y-126633333D01*
X154285714Y-126585714D01*
X154428571Y-126585714D01*
X154523809Y-126633333D01*
X154571428Y-126728571D01*
X154571428Y-127252380D01*
X155476190Y-126585714D02*
X155476190Y-127395238D01*
X155428571Y-127490476D01*
X155380952Y-127538095D01*
X155285714Y-127585714D01*
X155142857Y-127585714D01*
X155047619Y-127538095D01*
X155476190Y-127204761D02*
X155380952Y-127252380D01*
X155190476Y-127252380D01*
X155095238Y-127204761D01*
X155047619Y-127157142D01*
X155000000Y-127061904D01*
X155000000Y-126776190D01*
X155047619Y-126680952D01*
X155095238Y-126633333D01*
X155190476Y-126585714D01*
X155380952Y-126585714D01*
X155476190Y-126633333D01*
X156904761Y-126252380D02*
X157095238Y-126252380D01*
X157190476Y-126300000D01*
X157285714Y-126395238D01*
X157333333Y-126585714D01*
X157333333Y-126919047D01*
X157285714Y-127109523D01*
X157190476Y-127204761D01*
X157095238Y-127252380D01*
X156904761Y-127252380D01*
X156809523Y-127204761D01*
X156714285Y-127109523D01*
X156666666Y-126919047D01*
X156666666Y-126585714D01*
X156714285Y-126395238D01*
X156809523Y-126300000D01*
X156904761Y-126252380D01*
X158190476Y-126585714D02*
X158190476Y-127252380D01*
X157761904Y-126585714D02*
X157761904Y-127109523D01*
X157809523Y-127204761D01*
X157904761Y-127252380D01*
X158047619Y-127252380D01*
X158142857Y-127204761D01*
X158190476Y-127157142D01*
X158523809Y-126585714D02*
X158904761Y-126585714D01*
X158666666Y-126252380D02*
X158666666Y-127109523D01*
X158714285Y-127204761D01*
X158809523Y-127252380D01*
X158904761Y-127252380D01*
X160476190Y-126252380D02*
X160000000Y-126252380D01*
X159952380Y-126728571D01*
X160000000Y-126680952D01*
X160095238Y-126633333D01*
X160333333Y-126633333D01*
X160428571Y-126680952D01*
X160476190Y-126728571D01*
X160523809Y-126823809D01*
X160523809Y-127061904D01*
X160476190Y-127157142D01*
X160428571Y-127204761D01*
X160333333Y-127252380D01*
X160095238Y-127252380D01*
X160000000Y-127204761D01*
X159952380Y-127157142D01*
%TO.C,J5*%
X129757142Y-126628571D02*
X129900000Y-126676190D01*
X129947619Y-126723809D01*
X129995238Y-126819047D01*
X129995238Y-126961904D01*
X129947619Y-127057142D01*
X129900000Y-127104761D01*
X129804761Y-127152380D01*
X129423809Y-127152380D01*
X129423809Y-126152380D01*
X129757142Y-126152380D01*
X129852380Y-126200000D01*
X129900000Y-126247619D01*
X129947619Y-126342857D01*
X129947619Y-126438095D01*
X129900000Y-126533333D01*
X129852380Y-126580952D01*
X129757142Y-126628571D01*
X129423809Y-126628571D01*
X130566666Y-127152380D02*
X130471428Y-127104761D01*
X130423809Y-127009523D01*
X130423809Y-126152380D01*
X131376190Y-127152380D02*
X131376190Y-126628571D01*
X131328571Y-126533333D01*
X131233333Y-126485714D01*
X131042857Y-126485714D01*
X130947619Y-126533333D01*
X131376190Y-127104761D02*
X131280952Y-127152380D01*
X131042857Y-127152380D01*
X130947619Y-127104761D01*
X130900000Y-127009523D01*
X130900000Y-126914285D01*
X130947619Y-126819047D01*
X131042857Y-126771428D01*
X131280952Y-126771428D01*
X131376190Y-126723809D01*
X131852380Y-126485714D02*
X131852380Y-127152380D01*
X131852380Y-126580952D02*
X131900000Y-126533333D01*
X131995238Y-126485714D01*
X132138095Y-126485714D01*
X132233333Y-126533333D01*
X132280952Y-126628571D01*
X132280952Y-127152380D01*
X132757142Y-127152380D02*
X132757142Y-126152380D01*
X132852380Y-126771428D02*
X133138095Y-127152380D01*
X133138095Y-126485714D02*
X132757142Y-126866666D01*
X133566666Y-127152380D02*
X133566666Y-126485714D01*
X133566666Y-126152380D02*
X133519047Y-126200000D01*
X133566666Y-126247619D01*
X133614285Y-126200000D01*
X133566666Y-126152380D01*
X133566666Y-126247619D01*
X134042857Y-126485714D02*
X134042857Y-127152380D01*
X134042857Y-126580952D02*
X134090476Y-126533333D01*
X134185714Y-126485714D01*
X134328571Y-126485714D01*
X134423809Y-126533333D01*
X134471428Y-126628571D01*
X134471428Y-127152380D01*
X135376190Y-126485714D02*
X135376190Y-127295238D01*
X135328571Y-127390476D01*
X135280952Y-127438095D01*
X135185714Y-127485714D01*
X135042857Y-127485714D01*
X134947619Y-127438095D01*
X135376190Y-127104761D02*
X135280952Y-127152380D01*
X135090476Y-127152380D01*
X134995238Y-127104761D01*
X134947619Y-127057142D01*
X134900000Y-126961904D01*
X134900000Y-126676190D01*
X134947619Y-126580952D01*
X134995238Y-126533333D01*
X135090476Y-126485714D01*
X135280952Y-126485714D01*
X135376190Y-126533333D01*
X136804761Y-126152380D02*
X136995238Y-126152380D01*
X137090476Y-126200000D01*
X137185714Y-126295238D01*
X137233333Y-126485714D01*
X137233333Y-126819047D01*
X137185714Y-127009523D01*
X137090476Y-127104761D01*
X136995238Y-127152380D01*
X136804761Y-127152380D01*
X136709523Y-127104761D01*
X136614285Y-127009523D01*
X136566666Y-126819047D01*
X136566666Y-126485714D01*
X136614285Y-126295238D01*
X136709523Y-126200000D01*
X136804761Y-126152380D01*
X138090476Y-126485714D02*
X138090476Y-127152380D01*
X137661904Y-126485714D02*
X137661904Y-127009523D01*
X137709523Y-127104761D01*
X137804761Y-127152380D01*
X137947619Y-127152380D01*
X138042857Y-127104761D01*
X138090476Y-127057142D01*
X138423809Y-126485714D02*
X138804761Y-126485714D01*
X138566666Y-126152380D02*
X138566666Y-127009523D01*
X138614285Y-127104761D01*
X138709523Y-127152380D01*
X138804761Y-127152380D01*
X140328571Y-126485714D02*
X140328571Y-127152380D01*
X140090476Y-126104761D02*
X139852380Y-126819047D01*
X140471428Y-126819047D01*
%TO.C,J4*%
X109757142Y-126728571D02*
X109900000Y-126776190D01*
X109947619Y-126823809D01*
X109995238Y-126919047D01*
X109995238Y-127061904D01*
X109947619Y-127157142D01*
X109900000Y-127204761D01*
X109804761Y-127252380D01*
X109423809Y-127252380D01*
X109423809Y-126252380D01*
X109757142Y-126252380D01*
X109852380Y-126300000D01*
X109900000Y-126347619D01*
X109947619Y-126442857D01*
X109947619Y-126538095D01*
X109900000Y-126633333D01*
X109852380Y-126680952D01*
X109757142Y-126728571D01*
X109423809Y-126728571D01*
X110566666Y-127252380D02*
X110471428Y-127204761D01*
X110423809Y-127109523D01*
X110423809Y-126252380D01*
X111376190Y-127252380D02*
X111376190Y-126728571D01*
X111328571Y-126633333D01*
X111233333Y-126585714D01*
X111042857Y-126585714D01*
X110947619Y-126633333D01*
X111376190Y-127204761D02*
X111280952Y-127252380D01*
X111042857Y-127252380D01*
X110947619Y-127204761D01*
X110900000Y-127109523D01*
X110900000Y-127014285D01*
X110947619Y-126919047D01*
X111042857Y-126871428D01*
X111280952Y-126871428D01*
X111376190Y-126823809D01*
X111852380Y-126585714D02*
X111852380Y-127252380D01*
X111852380Y-126680952D02*
X111900000Y-126633333D01*
X111995238Y-126585714D01*
X112138095Y-126585714D01*
X112233333Y-126633333D01*
X112280952Y-126728571D01*
X112280952Y-127252380D01*
X112757142Y-127252380D02*
X112757142Y-126252380D01*
X112852380Y-126871428D02*
X113138095Y-127252380D01*
X113138095Y-126585714D02*
X112757142Y-126966666D01*
X113566666Y-127252380D02*
X113566666Y-126585714D01*
X113566666Y-126252380D02*
X113519047Y-126300000D01*
X113566666Y-126347619D01*
X113614285Y-126300000D01*
X113566666Y-126252380D01*
X113566666Y-126347619D01*
X114042857Y-126585714D02*
X114042857Y-127252380D01*
X114042857Y-126680952D02*
X114090476Y-126633333D01*
X114185714Y-126585714D01*
X114328571Y-126585714D01*
X114423809Y-126633333D01*
X114471428Y-126728571D01*
X114471428Y-127252380D01*
X115376190Y-126585714D02*
X115376190Y-127395238D01*
X115328571Y-127490476D01*
X115280952Y-127538095D01*
X115185714Y-127585714D01*
X115042857Y-127585714D01*
X114947619Y-127538095D01*
X115376190Y-127204761D02*
X115280952Y-127252380D01*
X115090476Y-127252380D01*
X114995238Y-127204761D01*
X114947619Y-127157142D01*
X114900000Y-127061904D01*
X114900000Y-126776190D01*
X114947619Y-126680952D01*
X114995238Y-126633333D01*
X115090476Y-126585714D01*
X115280952Y-126585714D01*
X115376190Y-126633333D01*
X116804761Y-126252380D02*
X116995238Y-126252380D01*
X117090476Y-126300000D01*
X117185714Y-126395238D01*
X117233333Y-126585714D01*
X117233333Y-126919047D01*
X117185714Y-127109523D01*
X117090476Y-127204761D01*
X116995238Y-127252380D01*
X116804761Y-127252380D01*
X116709523Y-127204761D01*
X116614285Y-127109523D01*
X116566666Y-126919047D01*
X116566666Y-126585714D01*
X116614285Y-126395238D01*
X116709523Y-126300000D01*
X116804761Y-126252380D01*
X118090476Y-126585714D02*
X118090476Y-127252380D01*
X117661904Y-126585714D02*
X117661904Y-127109523D01*
X117709523Y-127204761D01*
X117804761Y-127252380D01*
X117947619Y-127252380D01*
X118042857Y-127204761D01*
X118090476Y-127157142D01*
X118423809Y-126585714D02*
X118804761Y-126585714D01*
X118566666Y-126252380D02*
X118566666Y-127109523D01*
X118614285Y-127204761D01*
X118709523Y-127252380D01*
X118804761Y-127252380D01*
X119804761Y-126252380D02*
X120423809Y-126252380D01*
X120090476Y-126633333D01*
X120233333Y-126633333D01*
X120328571Y-126680952D01*
X120376190Y-126728571D01*
X120423809Y-126823809D01*
X120423809Y-127061904D01*
X120376190Y-127157142D01*
X120328571Y-127204761D01*
X120233333Y-127252380D01*
X119947619Y-127252380D01*
X119852380Y-127204761D01*
X119804761Y-127157142D01*
%TO.C,J3*%
X89857142Y-126728571D02*
X90000000Y-126776190D01*
X90047619Y-126823809D01*
X90095238Y-126919047D01*
X90095238Y-127061904D01*
X90047619Y-127157142D01*
X90000000Y-127204761D01*
X89904761Y-127252380D01*
X89523809Y-127252380D01*
X89523809Y-126252380D01*
X89857142Y-126252380D01*
X89952380Y-126300000D01*
X90000000Y-126347619D01*
X90047619Y-126442857D01*
X90047619Y-126538095D01*
X90000000Y-126633333D01*
X89952380Y-126680952D01*
X89857142Y-126728571D01*
X89523809Y-126728571D01*
X90666666Y-127252380D02*
X90571428Y-127204761D01*
X90523809Y-127109523D01*
X90523809Y-126252380D01*
X91476190Y-127252380D02*
X91476190Y-126728571D01*
X91428571Y-126633333D01*
X91333333Y-126585714D01*
X91142857Y-126585714D01*
X91047619Y-126633333D01*
X91476190Y-127204761D02*
X91380952Y-127252380D01*
X91142857Y-127252380D01*
X91047619Y-127204761D01*
X91000000Y-127109523D01*
X91000000Y-127014285D01*
X91047619Y-126919047D01*
X91142857Y-126871428D01*
X91380952Y-126871428D01*
X91476190Y-126823809D01*
X91952380Y-126585714D02*
X91952380Y-127252380D01*
X91952380Y-126680952D02*
X92000000Y-126633333D01*
X92095238Y-126585714D01*
X92238095Y-126585714D01*
X92333333Y-126633333D01*
X92380952Y-126728571D01*
X92380952Y-127252380D01*
X92857142Y-127252380D02*
X92857142Y-126252380D01*
X92952380Y-126871428D02*
X93238095Y-127252380D01*
X93238095Y-126585714D02*
X92857142Y-126966666D01*
X93666666Y-127252380D02*
X93666666Y-126585714D01*
X93666666Y-126252380D02*
X93619047Y-126300000D01*
X93666666Y-126347619D01*
X93714285Y-126300000D01*
X93666666Y-126252380D01*
X93666666Y-126347619D01*
X94142857Y-126585714D02*
X94142857Y-127252380D01*
X94142857Y-126680952D02*
X94190476Y-126633333D01*
X94285714Y-126585714D01*
X94428571Y-126585714D01*
X94523809Y-126633333D01*
X94571428Y-126728571D01*
X94571428Y-127252380D01*
X95476190Y-126585714D02*
X95476190Y-127395238D01*
X95428571Y-127490476D01*
X95380952Y-127538095D01*
X95285714Y-127585714D01*
X95142857Y-127585714D01*
X95047619Y-127538095D01*
X95476190Y-127204761D02*
X95380952Y-127252380D01*
X95190476Y-127252380D01*
X95095238Y-127204761D01*
X95047619Y-127157142D01*
X95000000Y-127061904D01*
X95000000Y-126776190D01*
X95047619Y-126680952D01*
X95095238Y-126633333D01*
X95190476Y-126585714D01*
X95380952Y-126585714D01*
X95476190Y-126633333D01*
X96904761Y-126252380D02*
X97095238Y-126252380D01*
X97190476Y-126300000D01*
X97285714Y-126395238D01*
X97333333Y-126585714D01*
X97333333Y-126919047D01*
X97285714Y-127109523D01*
X97190476Y-127204761D01*
X97095238Y-127252380D01*
X96904761Y-127252380D01*
X96809523Y-127204761D01*
X96714285Y-127109523D01*
X96666666Y-126919047D01*
X96666666Y-126585714D01*
X96714285Y-126395238D01*
X96809523Y-126300000D01*
X96904761Y-126252380D01*
X98190476Y-126585714D02*
X98190476Y-127252380D01*
X97761904Y-126585714D02*
X97761904Y-127109523D01*
X97809523Y-127204761D01*
X97904761Y-127252380D01*
X98047619Y-127252380D01*
X98142857Y-127204761D01*
X98190476Y-127157142D01*
X98523809Y-126585714D02*
X98904761Y-126585714D01*
X98666666Y-126252380D02*
X98666666Y-127109523D01*
X98714285Y-127204761D01*
X98809523Y-127252380D01*
X98904761Y-127252380D01*
X99952380Y-126347619D02*
X100000000Y-126300000D01*
X100095238Y-126252380D01*
X100333333Y-126252380D01*
X100428571Y-126300000D01*
X100476190Y-126347619D01*
X100523809Y-126442857D01*
X100523809Y-126538095D01*
X100476190Y-126680952D01*
X99904761Y-127252380D01*
X100523809Y-127252380D01*
%TO.C,J2*%
X69757142Y-126728571D02*
X69900000Y-126776190D01*
X69947619Y-126823809D01*
X69995238Y-126919047D01*
X69995238Y-127061904D01*
X69947619Y-127157142D01*
X69900000Y-127204761D01*
X69804761Y-127252380D01*
X69423809Y-127252380D01*
X69423809Y-126252380D01*
X69757142Y-126252380D01*
X69852380Y-126300000D01*
X69900000Y-126347619D01*
X69947619Y-126442857D01*
X69947619Y-126538095D01*
X69900000Y-126633333D01*
X69852380Y-126680952D01*
X69757142Y-126728571D01*
X69423809Y-126728571D01*
X70566666Y-127252380D02*
X70471428Y-127204761D01*
X70423809Y-127109523D01*
X70423809Y-126252380D01*
X71376190Y-127252380D02*
X71376190Y-126728571D01*
X71328571Y-126633333D01*
X71233333Y-126585714D01*
X71042857Y-126585714D01*
X70947619Y-126633333D01*
X71376190Y-127204761D02*
X71280952Y-127252380D01*
X71042857Y-127252380D01*
X70947619Y-127204761D01*
X70900000Y-127109523D01*
X70900000Y-127014285D01*
X70947619Y-126919047D01*
X71042857Y-126871428D01*
X71280952Y-126871428D01*
X71376190Y-126823809D01*
X71852380Y-126585714D02*
X71852380Y-127252380D01*
X71852380Y-126680952D02*
X71900000Y-126633333D01*
X71995238Y-126585714D01*
X72138095Y-126585714D01*
X72233333Y-126633333D01*
X72280952Y-126728571D01*
X72280952Y-127252380D01*
X72757142Y-127252380D02*
X72757142Y-126252380D01*
X72852380Y-126871428D02*
X73138095Y-127252380D01*
X73138095Y-126585714D02*
X72757142Y-126966666D01*
X73566666Y-127252380D02*
X73566666Y-126585714D01*
X73566666Y-126252380D02*
X73519047Y-126300000D01*
X73566666Y-126347619D01*
X73614285Y-126300000D01*
X73566666Y-126252380D01*
X73566666Y-126347619D01*
X74042857Y-126585714D02*
X74042857Y-127252380D01*
X74042857Y-126680952D02*
X74090476Y-126633333D01*
X74185714Y-126585714D01*
X74328571Y-126585714D01*
X74423809Y-126633333D01*
X74471428Y-126728571D01*
X74471428Y-127252380D01*
X75376190Y-126585714D02*
X75376190Y-127395238D01*
X75328571Y-127490476D01*
X75280952Y-127538095D01*
X75185714Y-127585714D01*
X75042857Y-127585714D01*
X74947619Y-127538095D01*
X75376190Y-127204761D02*
X75280952Y-127252380D01*
X75090476Y-127252380D01*
X74995238Y-127204761D01*
X74947619Y-127157142D01*
X74900000Y-127061904D01*
X74900000Y-126776190D01*
X74947619Y-126680952D01*
X74995238Y-126633333D01*
X75090476Y-126585714D01*
X75280952Y-126585714D01*
X75376190Y-126633333D01*
X76804761Y-126252380D02*
X76995238Y-126252380D01*
X77090476Y-126300000D01*
X77185714Y-126395238D01*
X77233333Y-126585714D01*
X77233333Y-126919047D01*
X77185714Y-127109523D01*
X77090476Y-127204761D01*
X76995238Y-127252380D01*
X76804761Y-127252380D01*
X76709523Y-127204761D01*
X76614285Y-127109523D01*
X76566666Y-126919047D01*
X76566666Y-126585714D01*
X76614285Y-126395238D01*
X76709523Y-126300000D01*
X76804761Y-126252380D01*
X78090476Y-126585714D02*
X78090476Y-127252380D01*
X77661904Y-126585714D02*
X77661904Y-127109523D01*
X77709523Y-127204761D01*
X77804761Y-127252380D01*
X77947619Y-127252380D01*
X78042857Y-127204761D01*
X78090476Y-127157142D01*
X78423809Y-126585714D02*
X78804761Y-126585714D01*
X78566666Y-126252380D02*
X78566666Y-127109523D01*
X78614285Y-127204761D01*
X78709523Y-127252380D01*
X78804761Y-127252380D01*
X80423809Y-127252380D02*
X79852380Y-127252380D01*
X80138095Y-127252380D02*
X80138095Y-126252380D01*
X80042857Y-126395238D01*
X79947619Y-126490476D01*
X79852380Y-126538095D01*
%TO.C,J1*%
X103166666Y-110902380D02*
X103166666Y-111616666D01*
X103119047Y-111759523D01*
X103023809Y-111854761D01*
X102880952Y-111902380D01*
X102785714Y-111902380D01*
X104166666Y-111902380D02*
X103595238Y-111902380D01*
X103880952Y-111902380D02*
X103880952Y-110902380D01*
X103785714Y-111045238D01*
X103690476Y-111140476D01*
X103595238Y-111188095D01*
%TO.C,J7*%
X182800340Y-142200900D02*
X182800340Y-127799100D01*
X167199660Y-142200900D02*
X182800340Y-142200900D01*
X167199660Y-127799100D02*
X167199660Y-142200900D01*
X182800340Y-127799100D02*
X167199660Y-127799100D01*
X180499100Y-149698980D02*
X180499100Y-142200900D01*
X169500900Y-149698980D02*
X180499100Y-149698980D01*
X169500900Y-142200900D02*
X169500900Y-149698980D01*
X179800600Y-161700480D02*
X179800600Y-149698980D01*
X170199400Y-161700480D02*
X179800600Y-161700480D01*
X170199400Y-149698980D02*
X170199400Y-161700480D01*
X176000760Y-157699980D02*
G75*
G03*
X176000760Y-157699980I-1000760J0D01*
G01*
X180499100Y-142800340D02*
X169500900Y-143600440D01*
X180499100Y-143600440D02*
X169500900Y-144400540D01*
X180499100Y-144400540D02*
X169500900Y-145200640D01*
X180499100Y-145200640D02*
X169500900Y-146000740D01*
X180499100Y-146000740D02*
X169500900Y-146800840D01*
X180499100Y-146800840D02*
X169500900Y-147600940D01*
%TO.C,J6*%
X162800340Y-142200900D02*
X162800340Y-127799100D01*
X147199660Y-142200900D02*
X162800340Y-142200900D01*
X147199660Y-127799100D02*
X147199660Y-142200900D01*
X162800340Y-127799100D02*
X147199660Y-127799100D01*
X160499100Y-149698980D02*
X160499100Y-142200900D01*
X149500900Y-149698980D02*
X160499100Y-149698980D01*
X149500900Y-142200900D02*
X149500900Y-149698980D01*
X159800600Y-161700480D02*
X159800600Y-149698980D01*
X150199400Y-161700480D02*
X159800600Y-161700480D01*
X150199400Y-149698980D02*
X150199400Y-161700480D01*
X156000760Y-157699980D02*
G75*
G03*
X156000760Y-157699980I-1000760J0D01*
G01*
X160499100Y-142800340D02*
X149500900Y-143600440D01*
X160499100Y-143600440D02*
X149500900Y-144400540D01*
X160499100Y-144400540D02*
X149500900Y-145200640D01*
X160499100Y-145200640D02*
X149500900Y-146000740D01*
X160499100Y-146000740D02*
X149500900Y-146800840D01*
X160499100Y-146800840D02*
X149500900Y-147600940D01*
%TO.C,J5*%
X142800340Y-142200900D02*
X142800340Y-127799100D01*
X127199660Y-142200900D02*
X142800340Y-142200900D01*
X127199660Y-127799100D02*
X127199660Y-142200900D01*
X142800340Y-127799100D02*
X127199660Y-127799100D01*
X140499100Y-149698980D02*
X140499100Y-142200900D01*
X129500900Y-149698980D02*
X140499100Y-149698980D01*
X129500900Y-142200900D02*
X129500900Y-149698980D01*
X139800600Y-161700480D02*
X139800600Y-149698980D01*
X130199400Y-161700480D02*
X139800600Y-161700480D01*
X130199400Y-149698980D02*
X130199400Y-161700480D01*
X136000760Y-157699980D02*
G75*
G03*
X136000760Y-157699980I-1000760J0D01*
G01*
X140499100Y-142800340D02*
X129500900Y-143600440D01*
X140499100Y-143600440D02*
X129500900Y-144400540D01*
X140499100Y-144400540D02*
X129500900Y-145200640D01*
X140499100Y-145200640D02*
X129500900Y-146000740D01*
X140499100Y-146000740D02*
X129500900Y-146800840D01*
X140499100Y-146800840D02*
X129500900Y-147600940D01*
%TO.C,J4*%
X122800340Y-142200900D02*
X122800340Y-127799100D01*
X107199660Y-142200900D02*
X122800340Y-142200900D01*
X107199660Y-127799100D02*
X107199660Y-142200900D01*
X122800340Y-127799100D02*
X107199660Y-127799100D01*
X120499100Y-149698980D02*
X120499100Y-142200900D01*
X109500900Y-149698980D02*
X120499100Y-149698980D01*
X109500900Y-142200900D02*
X109500900Y-149698980D01*
X119800600Y-161700480D02*
X119800600Y-149698980D01*
X110199400Y-161700480D02*
X119800600Y-161700480D01*
X110199400Y-149698980D02*
X110199400Y-161700480D01*
X116000760Y-157699980D02*
G75*
G03*
X116000760Y-157699980I-1000760J0D01*
G01*
X120499100Y-142800340D02*
X109500900Y-143600440D01*
X120499100Y-143600440D02*
X109500900Y-144400540D01*
X120499100Y-144400540D02*
X109500900Y-145200640D01*
X120499100Y-145200640D02*
X109500900Y-146000740D01*
X120499100Y-146000740D02*
X109500900Y-146800840D01*
X120499100Y-146800840D02*
X109500900Y-147600940D01*
%TO.C,J3*%
X102800340Y-142200900D02*
X102800340Y-127799100D01*
X87199660Y-142200900D02*
X102800340Y-142200900D01*
X87199660Y-127799100D02*
X87199660Y-142200900D01*
X102800340Y-127799100D02*
X87199660Y-127799100D01*
X100499100Y-149698980D02*
X100499100Y-142200900D01*
X89500900Y-149698980D02*
X100499100Y-149698980D01*
X89500900Y-142200900D02*
X89500900Y-149698980D01*
X99800600Y-161700480D02*
X99800600Y-149698980D01*
X90199400Y-161700480D02*
X99800600Y-161700480D01*
X90199400Y-149698980D02*
X90199400Y-161700480D01*
X96000760Y-157699980D02*
G75*
G03*
X96000760Y-157699980I-1000760J0D01*
G01*
X100499100Y-142800340D02*
X89500900Y-143600440D01*
X100499100Y-143600440D02*
X89500900Y-144400540D01*
X100499100Y-144400540D02*
X89500900Y-145200640D01*
X100499100Y-145200640D02*
X89500900Y-146000740D01*
X100499100Y-146000740D02*
X89500900Y-146800840D01*
X100499100Y-146800840D02*
X89500900Y-147600940D01*
%TO.C,J2*%
X82800340Y-142200900D02*
X82800340Y-127799100D01*
X67199660Y-142200900D02*
X82800340Y-142200900D01*
X67199660Y-127799100D02*
X67199660Y-142200900D01*
X82800340Y-127799100D02*
X67199660Y-127799100D01*
X80499100Y-149698980D02*
X80499100Y-142200900D01*
X69500900Y-149698980D02*
X80499100Y-149698980D01*
X69500900Y-142200900D02*
X69500900Y-149698980D01*
X79800600Y-161700480D02*
X79800600Y-149698980D01*
X70199400Y-161700480D02*
X79800600Y-161700480D01*
X70199400Y-149698980D02*
X70199400Y-161700480D01*
X76000760Y-157699980D02*
G75*
G03*
X76000760Y-157699980I-1000760J0D01*
G01*
X80499100Y-142800340D02*
X69500900Y-143600440D01*
X80499100Y-143600440D02*
X69500900Y-144400540D01*
X80499100Y-144400540D02*
X69500900Y-145200640D01*
X80499100Y-145200640D02*
X69500900Y-146000740D01*
X80499100Y-146000740D02*
X69500900Y-146800840D01*
X80499100Y-146800840D02*
X69500900Y-147600940D01*
D11*
%TO.C,J1*%
X94200000Y-114800000D02*
X94200000Y-117750000D01*
X93150000Y-112250000D02*
X93150000Y-113500000D01*
X113550000Y-113300000D02*
X113550000Y-112550000D01*
X113550000Y-114800000D02*
X112800000Y-114800000D01*
X94400000Y-112250000D02*
X93150000Y-112250000D01*
X93450000Y-112550000D02*
X93450000Y-113300000D01*
X113550000Y-112550000D02*
X111750000Y-112550000D01*
X95250000Y-113300000D02*
X95250000Y-112550000D01*
X111750000Y-112550000D02*
X111750000Y-113300000D01*
X95250000Y-112550000D02*
X93450000Y-112550000D01*
X93440000Y-112540000D02*
X93440000Y-118510000D01*
X112800000Y-114800000D02*
X112800000Y-117750000D01*
X113560000Y-112540000D02*
X93440000Y-112540000D01*
X96750000Y-113300000D02*
X110250000Y-113300000D01*
X112800000Y-117750000D02*
X103500000Y-117750000D01*
X111750000Y-113300000D02*
X113550000Y-113300000D01*
X93440000Y-118510000D02*
X113560000Y-118510000D01*
X113560000Y-118510000D02*
X113560000Y-112540000D01*
X96750000Y-112550000D02*
X96750000Y-113300000D01*
X110250000Y-112550000D02*
X96750000Y-112550000D01*
X93450000Y-113300000D02*
X95250000Y-113300000D01*
X94200000Y-117750000D02*
X103500000Y-117750000D01*
X110250000Y-113300000D02*
X110250000Y-112550000D01*
X93450000Y-114800000D02*
X94200000Y-114800000D01*
%TD*%
M02*
