M48
; DRILL file {KiCad (6.0.4)} date Fri Dec  8 17:35:55 2023
; FORMAT={-:-/ absolute / inch / decimal}
; #@! TF.CreationDate,2023-12-08T17:35:55+01:00
; #@! TF.GenerationSoftware,Kicad,Pcbnew,(6.0.4)
; #@! TF.FileFunction,Plated,1,2,PTH
FMAT,2
INCH
; #@! TA.AperFunction,Plated,PTH,ComponentDrill
T1C0.0374
; #@! TA.AperFunction,Plated,PTH,ComponentDrill
T2C0.0394
; #@! TA.AperFunction,Plated,PTH,ComponentDrill
T3C0.0866
%
G90
G05
T1
X3.7795Y-4.5276
X3.878Y-4.5276
X3.9764Y-4.5276
X4.0748Y-4.5276
X4.1732Y-4.5276
X4.2717Y-4.5276
X4.3701Y-4.5276
T2
X2.9528Y-5.1181
X3.0512Y-5.1181
X3.7402Y-5.1181
X3.8386Y-5.1181
X4.5276Y-5.1181
X4.626Y-5.1181
X5.315Y-5.1181
X5.4134Y-5.1181
X6.1024Y-5.1181
X6.2008Y-5.1181
X6.8898Y-5.1181
X6.9882Y-5.1181
T3
X2.752Y-5.286
X3.1535Y-5.286
X3.5394Y-5.286
X3.9409Y-5.286
X4.3268Y-5.286
X4.7283Y-5.286
X5.1142Y-5.286
X5.5157Y-5.286
X5.9016Y-5.286
X6.3031Y-5.286
X6.689Y-5.286
X7.0905Y-5.286
T0
M30
