%TF.GenerationSoftware,KiCad,Pcbnew,7.0.6*%
%TF.CreationDate,2023-12-12T17:12:19+00:00*%
%TF.ProjectId,BlankingRelay_Base,426c616e-6b69-46e6-9752-656c61795f42,rev?*%
%TF.SameCoordinates,Original*%
%TF.FileFunction,AssemblyDrawing,Top*%
%FSLAX46Y46*%
G04 Gerber Fmt 4.6, Leading zero omitted, Abs format (unit mm)*
G04 Created by KiCad (PCBNEW 7.0.6) date 2023-12-12 17:12:19*
%MOMM*%
%LPD*%
G01*
G04 APERTURE LIST*
%ADD10C,0.150000*%
%ADD11C,0.100000*%
G04 APERTURE END LIST*
D10*
X68853333Y-126934819D02*
X68520000Y-126458628D01*
X68281905Y-126934819D02*
X68281905Y-125934819D01*
X68281905Y-125934819D02*
X68662857Y-125934819D01*
X68662857Y-125934819D02*
X68758095Y-125982438D01*
X68758095Y-125982438D02*
X68805714Y-126030057D01*
X68805714Y-126030057D02*
X68853333Y-126125295D01*
X68853333Y-126125295D02*
X68853333Y-126268152D01*
X68853333Y-126268152D02*
X68805714Y-126363390D01*
X68805714Y-126363390D02*
X68758095Y-126411009D01*
X68758095Y-126411009D02*
X68662857Y-126458628D01*
X68662857Y-126458628D02*
X68281905Y-126458628D01*
X69234286Y-126030057D02*
X69281905Y-125982438D01*
X69281905Y-125982438D02*
X69377143Y-125934819D01*
X69377143Y-125934819D02*
X69615238Y-125934819D01*
X69615238Y-125934819D02*
X69710476Y-125982438D01*
X69710476Y-125982438D02*
X69758095Y-126030057D01*
X69758095Y-126030057D02*
X69805714Y-126125295D01*
X69805714Y-126125295D02*
X69805714Y-126220533D01*
X69805714Y-126220533D02*
X69758095Y-126363390D01*
X69758095Y-126363390D02*
X69186667Y-126934819D01*
X69186667Y-126934819D02*
X69805714Y-126934819D01*
X68853333Y-129654819D02*
X68520000Y-129178628D01*
X68281905Y-129654819D02*
X68281905Y-128654819D01*
X68281905Y-128654819D02*
X68662857Y-128654819D01*
X68662857Y-128654819D02*
X68758095Y-128702438D01*
X68758095Y-128702438D02*
X68805714Y-128750057D01*
X68805714Y-128750057D02*
X68853333Y-128845295D01*
X68853333Y-128845295D02*
X68853333Y-128988152D01*
X68853333Y-128988152D02*
X68805714Y-129083390D01*
X68805714Y-129083390D02*
X68758095Y-129131009D01*
X68758095Y-129131009D02*
X68662857Y-129178628D01*
X68662857Y-129178628D02*
X68281905Y-129178628D01*
X69234286Y-128750057D02*
X69281905Y-128702438D01*
X69281905Y-128702438D02*
X69377143Y-128654819D01*
X69377143Y-128654819D02*
X69615238Y-128654819D01*
X69615238Y-128654819D02*
X69710476Y-128702438D01*
X69710476Y-128702438D02*
X69758095Y-128750057D01*
X69758095Y-128750057D02*
X69805714Y-128845295D01*
X69805714Y-128845295D02*
X69805714Y-128940533D01*
X69805714Y-128940533D02*
X69758095Y-129083390D01*
X69758095Y-129083390D02*
X69186667Y-129654819D01*
X69186667Y-129654819D02*
X69805714Y-129654819D01*
X72127142Y-149014819D02*
X71650952Y-149014819D01*
X71650952Y-149014819D02*
X71650952Y-148014819D01*
X72460476Y-148491009D02*
X72793809Y-148491009D01*
X72936666Y-149014819D02*
X72460476Y-149014819D01*
X72460476Y-149014819D02*
X72460476Y-148014819D01*
X72460476Y-148014819D02*
X72936666Y-148014819D01*
X73365238Y-149014819D02*
X73365238Y-148014819D01*
X73365238Y-148014819D02*
X73603333Y-148014819D01*
X73603333Y-148014819D02*
X73746190Y-148062438D01*
X73746190Y-148062438D02*
X73841428Y-148157676D01*
X73841428Y-148157676D02*
X73889047Y-148252914D01*
X73889047Y-148252914D02*
X73936666Y-148443390D01*
X73936666Y-148443390D02*
X73936666Y-148586247D01*
X73936666Y-148586247D02*
X73889047Y-148776723D01*
X73889047Y-148776723D02*
X73841428Y-148871961D01*
X73841428Y-148871961D02*
X73746190Y-148967200D01*
X73746190Y-148967200D02*
X73603333Y-149014819D01*
X73603333Y-149014819D02*
X73365238Y-149014819D01*
X116214285Y-149654819D02*
X116214285Y-148654819D01*
X116214285Y-148654819D02*
X116547618Y-149369104D01*
X116547618Y-149369104D02*
X116880951Y-148654819D01*
X116880951Y-148654819D02*
X116880951Y-149654819D01*
X117499999Y-149654819D02*
X117404761Y-149607200D01*
X117404761Y-149607200D02*
X117357142Y-149559580D01*
X117357142Y-149559580D02*
X117309523Y-149464342D01*
X117309523Y-149464342D02*
X117309523Y-149178628D01*
X117309523Y-149178628D02*
X117357142Y-149083390D01*
X117357142Y-149083390D02*
X117404761Y-149035771D01*
X117404761Y-149035771D02*
X117499999Y-148988152D01*
X117499999Y-148988152D02*
X117642856Y-148988152D01*
X117642856Y-148988152D02*
X117738094Y-149035771D01*
X117738094Y-149035771D02*
X117785713Y-149083390D01*
X117785713Y-149083390D02*
X117833332Y-149178628D01*
X117833332Y-149178628D02*
X117833332Y-149464342D01*
X117833332Y-149464342D02*
X117785713Y-149559580D01*
X117785713Y-149559580D02*
X117738094Y-149607200D01*
X117738094Y-149607200D02*
X117642856Y-149654819D01*
X117642856Y-149654819D02*
X117499999Y-149654819D01*
X118690475Y-148988152D02*
X118690475Y-149654819D01*
X118261904Y-148988152D02*
X118261904Y-149511961D01*
X118261904Y-149511961D02*
X118309523Y-149607200D01*
X118309523Y-149607200D02*
X118404761Y-149654819D01*
X118404761Y-149654819D02*
X118547618Y-149654819D01*
X118547618Y-149654819D02*
X118642856Y-149607200D01*
X118642856Y-149607200D02*
X118690475Y-149559580D01*
X119166666Y-148988152D02*
X119166666Y-149654819D01*
X119166666Y-149083390D02*
X119214285Y-149035771D01*
X119214285Y-149035771D02*
X119309523Y-148988152D01*
X119309523Y-148988152D02*
X119452380Y-148988152D01*
X119452380Y-148988152D02*
X119547618Y-149035771D01*
X119547618Y-149035771D02*
X119595237Y-149131009D01*
X119595237Y-149131009D02*
X119595237Y-149654819D01*
X119928571Y-148988152D02*
X120309523Y-148988152D01*
X120071428Y-148654819D02*
X120071428Y-149511961D01*
X120071428Y-149511961D02*
X120119047Y-149607200D01*
X120119047Y-149607200D02*
X120214285Y-149654819D01*
X120214285Y-149654819D02*
X120309523Y-149654819D01*
X120642857Y-149654819D02*
X120642857Y-148988152D01*
X120642857Y-148654819D02*
X120595238Y-148702438D01*
X120595238Y-148702438D02*
X120642857Y-148750057D01*
X120642857Y-148750057D02*
X120690476Y-148702438D01*
X120690476Y-148702438D02*
X120642857Y-148654819D01*
X120642857Y-148654819D02*
X120642857Y-148750057D01*
X121119047Y-148988152D02*
X121119047Y-149654819D01*
X121119047Y-149083390D02*
X121166666Y-149035771D01*
X121166666Y-149035771D02*
X121261904Y-148988152D01*
X121261904Y-148988152D02*
X121404761Y-148988152D01*
X121404761Y-148988152D02*
X121499999Y-149035771D01*
X121499999Y-149035771D02*
X121547618Y-149131009D01*
X121547618Y-149131009D02*
X121547618Y-149654819D01*
X122452380Y-148988152D02*
X122452380Y-149797676D01*
X122452380Y-149797676D02*
X122404761Y-149892914D01*
X122404761Y-149892914D02*
X122357142Y-149940533D01*
X122357142Y-149940533D02*
X122261904Y-149988152D01*
X122261904Y-149988152D02*
X122119047Y-149988152D01*
X122119047Y-149988152D02*
X122023809Y-149940533D01*
X122452380Y-149607200D02*
X122357142Y-149654819D01*
X122357142Y-149654819D02*
X122166666Y-149654819D01*
X122166666Y-149654819D02*
X122071428Y-149607200D01*
X122071428Y-149607200D02*
X122023809Y-149559580D01*
X122023809Y-149559580D02*
X121976190Y-149464342D01*
X121976190Y-149464342D02*
X121976190Y-149178628D01*
X121976190Y-149178628D02*
X122023809Y-149083390D01*
X122023809Y-149083390D02*
X122071428Y-149035771D01*
X122071428Y-149035771D02*
X122166666Y-148988152D01*
X122166666Y-148988152D02*
X122357142Y-148988152D01*
X122357142Y-148988152D02*
X122452380Y-149035771D01*
X122928571Y-149654819D02*
X122928571Y-148654819D01*
X122928571Y-149131009D02*
X123499999Y-149131009D01*
X123499999Y-149654819D02*
X123499999Y-148654819D01*
X124119047Y-149654819D02*
X124023809Y-149607200D01*
X124023809Y-149607200D02*
X123976190Y-149559580D01*
X123976190Y-149559580D02*
X123928571Y-149464342D01*
X123928571Y-149464342D02*
X123928571Y-149178628D01*
X123928571Y-149178628D02*
X123976190Y-149083390D01*
X123976190Y-149083390D02*
X124023809Y-149035771D01*
X124023809Y-149035771D02*
X124119047Y-148988152D01*
X124119047Y-148988152D02*
X124261904Y-148988152D01*
X124261904Y-148988152D02*
X124357142Y-149035771D01*
X124357142Y-149035771D02*
X124404761Y-149083390D01*
X124404761Y-149083390D02*
X124452380Y-149178628D01*
X124452380Y-149178628D02*
X124452380Y-149464342D01*
X124452380Y-149464342D02*
X124404761Y-149559580D01*
X124404761Y-149559580D02*
X124357142Y-149607200D01*
X124357142Y-149607200D02*
X124261904Y-149654819D01*
X124261904Y-149654819D02*
X124119047Y-149654819D01*
X125023809Y-149654819D02*
X124928571Y-149607200D01*
X124928571Y-149607200D02*
X124880952Y-149511961D01*
X124880952Y-149511961D02*
X124880952Y-148654819D01*
X125785714Y-149607200D02*
X125690476Y-149654819D01*
X125690476Y-149654819D02*
X125500000Y-149654819D01*
X125500000Y-149654819D02*
X125404762Y-149607200D01*
X125404762Y-149607200D02*
X125357143Y-149511961D01*
X125357143Y-149511961D02*
X125357143Y-149131009D01*
X125357143Y-149131009D02*
X125404762Y-149035771D01*
X125404762Y-149035771D02*
X125500000Y-148988152D01*
X125500000Y-148988152D02*
X125690476Y-148988152D01*
X125690476Y-148988152D02*
X125785714Y-149035771D01*
X125785714Y-149035771D02*
X125833333Y-149131009D01*
X125833333Y-149131009D02*
X125833333Y-149226247D01*
X125833333Y-149226247D02*
X125357143Y-149321485D01*
X120238095Y-145454819D02*
X120238095Y-144454819D01*
X120238095Y-144931009D02*
X120809523Y-144931009D01*
X120809523Y-145454819D02*
X120809523Y-144454819D01*
X121714285Y-144788152D02*
X121714285Y-145454819D01*
X121476190Y-144407200D02*
X121238095Y-145121485D01*
X121238095Y-145121485D02*
X121857142Y-145121485D01*
X116214285Y-85654819D02*
X116214285Y-84654819D01*
X116214285Y-84654819D02*
X116547618Y-85369104D01*
X116547618Y-85369104D02*
X116880951Y-84654819D01*
X116880951Y-84654819D02*
X116880951Y-85654819D01*
X117499999Y-85654819D02*
X117404761Y-85607200D01*
X117404761Y-85607200D02*
X117357142Y-85559580D01*
X117357142Y-85559580D02*
X117309523Y-85464342D01*
X117309523Y-85464342D02*
X117309523Y-85178628D01*
X117309523Y-85178628D02*
X117357142Y-85083390D01*
X117357142Y-85083390D02*
X117404761Y-85035771D01*
X117404761Y-85035771D02*
X117499999Y-84988152D01*
X117499999Y-84988152D02*
X117642856Y-84988152D01*
X117642856Y-84988152D02*
X117738094Y-85035771D01*
X117738094Y-85035771D02*
X117785713Y-85083390D01*
X117785713Y-85083390D02*
X117833332Y-85178628D01*
X117833332Y-85178628D02*
X117833332Y-85464342D01*
X117833332Y-85464342D02*
X117785713Y-85559580D01*
X117785713Y-85559580D02*
X117738094Y-85607200D01*
X117738094Y-85607200D02*
X117642856Y-85654819D01*
X117642856Y-85654819D02*
X117499999Y-85654819D01*
X118690475Y-84988152D02*
X118690475Y-85654819D01*
X118261904Y-84988152D02*
X118261904Y-85511961D01*
X118261904Y-85511961D02*
X118309523Y-85607200D01*
X118309523Y-85607200D02*
X118404761Y-85654819D01*
X118404761Y-85654819D02*
X118547618Y-85654819D01*
X118547618Y-85654819D02*
X118642856Y-85607200D01*
X118642856Y-85607200D02*
X118690475Y-85559580D01*
X119166666Y-84988152D02*
X119166666Y-85654819D01*
X119166666Y-85083390D02*
X119214285Y-85035771D01*
X119214285Y-85035771D02*
X119309523Y-84988152D01*
X119309523Y-84988152D02*
X119452380Y-84988152D01*
X119452380Y-84988152D02*
X119547618Y-85035771D01*
X119547618Y-85035771D02*
X119595237Y-85131009D01*
X119595237Y-85131009D02*
X119595237Y-85654819D01*
X119928571Y-84988152D02*
X120309523Y-84988152D01*
X120071428Y-84654819D02*
X120071428Y-85511961D01*
X120071428Y-85511961D02*
X120119047Y-85607200D01*
X120119047Y-85607200D02*
X120214285Y-85654819D01*
X120214285Y-85654819D02*
X120309523Y-85654819D01*
X120642857Y-85654819D02*
X120642857Y-84988152D01*
X120642857Y-84654819D02*
X120595238Y-84702438D01*
X120595238Y-84702438D02*
X120642857Y-84750057D01*
X120642857Y-84750057D02*
X120690476Y-84702438D01*
X120690476Y-84702438D02*
X120642857Y-84654819D01*
X120642857Y-84654819D02*
X120642857Y-84750057D01*
X121119047Y-84988152D02*
X121119047Y-85654819D01*
X121119047Y-85083390D02*
X121166666Y-85035771D01*
X121166666Y-85035771D02*
X121261904Y-84988152D01*
X121261904Y-84988152D02*
X121404761Y-84988152D01*
X121404761Y-84988152D02*
X121499999Y-85035771D01*
X121499999Y-85035771D02*
X121547618Y-85131009D01*
X121547618Y-85131009D02*
X121547618Y-85654819D01*
X122452380Y-84988152D02*
X122452380Y-85797676D01*
X122452380Y-85797676D02*
X122404761Y-85892914D01*
X122404761Y-85892914D02*
X122357142Y-85940533D01*
X122357142Y-85940533D02*
X122261904Y-85988152D01*
X122261904Y-85988152D02*
X122119047Y-85988152D01*
X122119047Y-85988152D02*
X122023809Y-85940533D01*
X122452380Y-85607200D02*
X122357142Y-85654819D01*
X122357142Y-85654819D02*
X122166666Y-85654819D01*
X122166666Y-85654819D02*
X122071428Y-85607200D01*
X122071428Y-85607200D02*
X122023809Y-85559580D01*
X122023809Y-85559580D02*
X121976190Y-85464342D01*
X121976190Y-85464342D02*
X121976190Y-85178628D01*
X121976190Y-85178628D02*
X122023809Y-85083390D01*
X122023809Y-85083390D02*
X122071428Y-85035771D01*
X122071428Y-85035771D02*
X122166666Y-84988152D01*
X122166666Y-84988152D02*
X122357142Y-84988152D01*
X122357142Y-84988152D02*
X122452380Y-85035771D01*
X122928571Y-85654819D02*
X122928571Y-84654819D01*
X122928571Y-85131009D02*
X123499999Y-85131009D01*
X123499999Y-85654819D02*
X123499999Y-84654819D01*
X124119047Y-85654819D02*
X124023809Y-85607200D01*
X124023809Y-85607200D02*
X123976190Y-85559580D01*
X123976190Y-85559580D02*
X123928571Y-85464342D01*
X123928571Y-85464342D02*
X123928571Y-85178628D01*
X123928571Y-85178628D02*
X123976190Y-85083390D01*
X123976190Y-85083390D02*
X124023809Y-85035771D01*
X124023809Y-85035771D02*
X124119047Y-84988152D01*
X124119047Y-84988152D02*
X124261904Y-84988152D01*
X124261904Y-84988152D02*
X124357142Y-85035771D01*
X124357142Y-85035771D02*
X124404761Y-85083390D01*
X124404761Y-85083390D02*
X124452380Y-85178628D01*
X124452380Y-85178628D02*
X124452380Y-85464342D01*
X124452380Y-85464342D02*
X124404761Y-85559580D01*
X124404761Y-85559580D02*
X124357142Y-85607200D01*
X124357142Y-85607200D02*
X124261904Y-85654819D01*
X124261904Y-85654819D02*
X124119047Y-85654819D01*
X125023809Y-85654819D02*
X124928571Y-85607200D01*
X124928571Y-85607200D02*
X124880952Y-85511961D01*
X124880952Y-85511961D02*
X124880952Y-84654819D01*
X125785714Y-85607200D02*
X125690476Y-85654819D01*
X125690476Y-85654819D02*
X125500000Y-85654819D01*
X125500000Y-85654819D02*
X125404762Y-85607200D01*
X125404762Y-85607200D02*
X125357143Y-85511961D01*
X125357143Y-85511961D02*
X125357143Y-85131009D01*
X125357143Y-85131009D02*
X125404762Y-85035771D01*
X125404762Y-85035771D02*
X125500000Y-84988152D01*
X125500000Y-84988152D02*
X125690476Y-84988152D01*
X125690476Y-84988152D02*
X125785714Y-85035771D01*
X125785714Y-85035771D02*
X125833333Y-85131009D01*
X125833333Y-85131009D02*
X125833333Y-85226247D01*
X125833333Y-85226247D02*
X125357143Y-85321485D01*
X120238095Y-81454819D02*
X120238095Y-80454819D01*
X120238095Y-80931009D02*
X120809523Y-80931009D01*
X120809523Y-81454819D02*
X120809523Y-80454819D01*
X121190476Y-80454819D02*
X121809523Y-80454819D01*
X121809523Y-80454819D02*
X121476190Y-80835771D01*
X121476190Y-80835771D02*
X121619047Y-80835771D01*
X121619047Y-80835771D02*
X121714285Y-80883390D01*
X121714285Y-80883390D02*
X121761904Y-80931009D01*
X121761904Y-80931009D02*
X121809523Y-81026247D01*
X121809523Y-81026247D02*
X121809523Y-81264342D01*
X121809523Y-81264342D02*
X121761904Y-81359580D01*
X121761904Y-81359580D02*
X121714285Y-81407200D01*
X121714285Y-81407200D02*
X121619047Y-81454819D01*
X121619047Y-81454819D02*
X121333333Y-81454819D01*
X121333333Y-81454819D02*
X121238095Y-81407200D01*
X121238095Y-81407200D02*
X121190476Y-81359580D01*
X30214285Y-149654819D02*
X30214285Y-148654819D01*
X30214285Y-148654819D02*
X30547618Y-149369104D01*
X30547618Y-149369104D02*
X30880951Y-148654819D01*
X30880951Y-148654819D02*
X30880951Y-149654819D01*
X31499999Y-149654819D02*
X31404761Y-149607200D01*
X31404761Y-149607200D02*
X31357142Y-149559580D01*
X31357142Y-149559580D02*
X31309523Y-149464342D01*
X31309523Y-149464342D02*
X31309523Y-149178628D01*
X31309523Y-149178628D02*
X31357142Y-149083390D01*
X31357142Y-149083390D02*
X31404761Y-149035771D01*
X31404761Y-149035771D02*
X31499999Y-148988152D01*
X31499999Y-148988152D02*
X31642856Y-148988152D01*
X31642856Y-148988152D02*
X31738094Y-149035771D01*
X31738094Y-149035771D02*
X31785713Y-149083390D01*
X31785713Y-149083390D02*
X31833332Y-149178628D01*
X31833332Y-149178628D02*
X31833332Y-149464342D01*
X31833332Y-149464342D02*
X31785713Y-149559580D01*
X31785713Y-149559580D02*
X31738094Y-149607200D01*
X31738094Y-149607200D02*
X31642856Y-149654819D01*
X31642856Y-149654819D02*
X31499999Y-149654819D01*
X32690475Y-148988152D02*
X32690475Y-149654819D01*
X32261904Y-148988152D02*
X32261904Y-149511961D01*
X32261904Y-149511961D02*
X32309523Y-149607200D01*
X32309523Y-149607200D02*
X32404761Y-149654819D01*
X32404761Y-149654819D02*
X32547618Y-149654819D01*
X32547618Y-149654819D02*
X32642856Y-149607200D01*
X32642856Y-149607200D02*
X32690475Y-149559580D01*
X33166666Y-148988152D02*
X33166666Y-149654819D01*
X33166666Y-149083390D02*
X33214285Y-149035771D01*
X33214285Y-149035771D02*
X33309523Y-148988152D01*
X33309523Y-148988152D02*
X33452380Y-148988152D01*
X33452380Y-148988152D02*
X33547618Y-149035771D01*
X33547618Y-149035771D02*
X33595237Y-149131009D01*
X33595237Y-149131009D02*
X33595237Y-149654819D01*
X33928571Y-148988152D02*
X34309523Y-148988152D01*
X34071428Y-148654819D02*
X34071428Y-149511961D01*
X34071428Y-149511961D02*
X34119047Y-149607200D01*
X34119047Y-149607200D02*
X34214285Y-149654819D01*
X34214285Y-149654819D02*
X34309523Y-149654819D01*
X34642857Y-149654819D02*
X34642857Y-148988152D01*
X34642857Y-148654819D02*
X34595238Y-148702438D01*
X34595238Y-148702438D02*
X34642857Y-148750057D01*
X34642857Y-148750057D02*
X34690476Y-148702438D01*
X34690476Y-148702438D02*
X34642857Y-148654819D01*
X34642857Y-148654819D02*
X34642857Y-148750057D01*
X35119047Y-148988152D02*
X35119047Y-149654819D01*
X35119047Y-149083390D02*
X35166666Y-149035771D01*
X35166666Y-149035771D02*
X35261904Y-148988152D01*
X35261904Y-148988152D02*
X35404761Y-148988152D01*
X35404761Y-148988152D02*
X35499999Y-149035771D01*
X35499999Y-149035771D02*
X35547618Y-149131009D01*
X35547618Y-149131009D02*
X35547618Y-149654819D01*
X36452380Y-148988152D02*
X36452380Y-149797676D01*
X36452380Y-149797676D02*
X36404761Y-149892914D01*
X36404761Y-149892914D02*
X36357142Y-149940533D01*
X36357142Y-149940533D02*
X36261904Y-149988152D01*
X36261904Y-149988152D02*
X36119047Y-149988152D01*
X36119047Y-149988152D02*
X36023809Y-149940533D01*
X36452380Y-149607200D02*
X36357142Y-149654819D01*
X36357142Y-149654819D02*
X36166666Y-149654819D01*
X36166666Y-149654819D02*
X36071428Y-149607200D01*
X36071428Y-149607200D02*
X36023809Y-149559580D01*
X36023809Y-149559580D02*
X35976190Y-149464342D01*
X35976190Y-149464342D02*
X35976190Y-149178628D01*
X35976190Y-149178628D02*
X36023809Y-149083390D01*
X36023809Y-149083390D02*
X36071428Y-149035771D01*
X36071428Y-149035771D02*
X36166666Y-148988152D01*
X36166666Y-148988152D02*
X36357142Y-148988152D01*
X36357142Y-148988152D02*
X36452380Y-149035771D01*
X36928571Y-149654819D02*
X36928571Y-148654819D01*
X36928571Y-149131009D02*
X37499999Y-149131009D01*
X37499999Y-149654819D02*
X37499999Y-148654819D01*
X38119047Y-149654819D02*
X38023809Y-149607200D01*
X38023809Y-149607200D02*
X37976190Y-149559580D01*
X37976190Y-149559580D02*
X37928571Y-149464342D01*
X37928571Y-149464342D02*
X37928571Y-149178628D01*
X37928571Y-149178628D02*
X37976190Y-149083390D01*
X37976190Y-149083390D02*
X38023809Y-149035771D01*
X38023809Y-149035771D02*
X38119047Y-148988152D01*
X38119047Y-148988152D02*
X38261904Y-148988152D01*
X38261904Y-148988152D02*
X38357142Y-149035771D01*
X38357142Y-149035771D02*
X38404761Y-149083390D01*
X38404761Y-149083390D02*
X38452380Y-149178628D01*
X38452380Y-149178628D02*
X38452380Y-149464342D01*
X38452380Y-149464342D02*
X38404761Y-149559580D01*
X38404761Y-149559580D02*
X38357142Y-149607200D01*
X38357142Y-149607200D02*
X38261904Y-149654819D01*
X38261904Y-149654819D02*
X38119047Y-149654819D01*
X39023809Y-149654819D02*
X38928571Y-149607200D01*
X38928571Y-149607200D02*
X38880952Y-149511961D01*
X38880952Y-149511961D02*
X38880952Y-148654819D01*
X39785714Y-149607200D02*
X39690476Y-149654819D01*
X39690476Y-149654819D02*
X39500000Y-149654819D01*
X39500000Y-149654819D02*
X39404762Y-149607200D01*
X39404762Y-149607200D02*
X39357143Y-149511961D01*
X39357143Y-149511961D02*
X39357143Y-149131009D01*
X39357143Y-149131009D02*
X39404762Y-149035771D01*
X39404762Y-149035771D02*
X39500000Y-148988152D01*
X39500000Y-148988152D02*
X39690476Y-148988152D01*
X39690476Y-148988152D02*
X39785714Y-149035771D01*
X39785714Y-149035771D02*
X39833333Y-149131009D01*
X39833333Y-149131009D02*
X39833333Y-149226247D01*
X39833333Y-149226247D02*
X39357143Y-149321485D01*
X34238095Y-145454819D02*
X34238095Y-144454819D01*
X34238095Y-144931009D02*
X34809523Y-144931009D01*
X34809523Y-145454819D02*
X34809523Y-144454819D01*
X35809523Y-145454819D02*
X35238095Y-145454819D01*
X35523809Y-145454819D02*
X35523809Y-144454819D01*
X35523809Y-144454819D02*
X35428571Y-144597676D01*
X35428571Y-144597676D02*
X35333333Y-144692914D01*
X35333333Y-144692914D02*
X35238095Y-144740533D01*
X83516666Y-111254819D02*
X83516666Y-111969104D01*
X83516666Y-111969104D02*
X83469047Y-112111961D01*
X83469047Y-112111961D02*
X83373809Y-112207200D01*
X83373809Y-112207200D02*
X83230952Y-112254819D01*
X83230952Y-112254819D02*
X83135714Y-112254819D01*
X84421428Y-111254819D02*
X84230952Y-111254819D01*
X84230952Y-111254819D02*
X84135714Y-111302438D01*
X84135714Y-111302438D02*
X84088095Y-111350057D01*
X84088095Y-111350057D02*
X83992857Y-111492914D01*
X83992857Y-111492914D02*
X83945238Y-111683390D01*
X83945238Y-111683390D02*
X83945238Y-112064342D01*
X83945238Y-112064342D02*
X83992857Y-112159580D01*
X83992857Y-112159580D02*
X84040476Y-112207200D01*
X84040476Y-112207200D02*
X84135714Y-112254819D01*
X84135714Y-112254819D02*
X84326190Y-112254819D01*
X84326190Y-112254819D02*
X84421428Y-112207200D01*
X84421428Y-112207200D02*
X84469047Y-112159580D01*
X84469047Y-112159580D02*
X84516666Y-112064342D01*
X84516666Y-112064342D02*
X84516666Y-111826247D01*
X84516666Y-111826247D02*
X84469047Y-111731009D01*
X84469047Y-111731009D02*
X84421428Y-111683390D01*
X84421428Y-111683390D02*
X84326190Y-111635771D01*
X84326190Y-111635771D02*
X84135714Y-111635771D01*
X84135714Y-111635771D02*
X84040476Y-111683390D01*
X84040476Y-111683390D02*
X83992857Y-111731009D01*
X83992857Y-111731009D02*
X83945238Y-111826247D01*
X107753333Y-127134819D02*
X107420000Y-126658628D01*
X107181905Y-127134819D02*
X107181905Y-126134819D01*
X107181905Y-126134819D02*
X107562857Y-126134819D01*
X107562857Y-126134819D02*
X107658095Y-126182438D01*
X107658095Y-126182438D02*
X107705714Y-126230057D01*
X107705714Y-126230057D02*
X107753333Y-126325295D01*
X107753333Y-126325295D02*
X107753333Y-126468152D01*
X107753333Y-126468152D02*
X107705714Y-126563390D01*
X107705714Y-126563390D02*
X107658095Y-126611009D01*
X107658095Y-126611009D02*
X107562857Y-126658628D01*
X107562857Y-126658628D02*
X107181905Y-126658628D01*
X108610476Y-126468152D02*
X108610476Y-127134819D01*
X108372381Y-126087200D02*
X108134286Y-126801485D01*
X108134286Y-126801485D02*
X108753333Y-126801485D01*
X107753333Y-129854819D02*
X107420000Y-129378628D01*
X107181905Y-129854819D02*
X107181905Y-128854819D01*
X107181905Y-128854819D02*
X107562857Y-128854819D01*
X107562857Y-128854819D02*
X107658095Y-128902438D01*
X107658095Y-128902438D02*
X107705714Y-128950057D01*
X107705714Y-128950057D02*
X107753333Y-129045295D01*
X107753333Y-129045295D02*
X107753333Y-129188152D01*
X107753333Y-129188152D02*
X107705714Y-129283390D01*
X107705714Y-129283390D02*
X107658095Y-129331009D01*
X107658095Y-129331009D02*
X107562857Y-129378628D01*
X107562857Y-129378628D02*
X107181905Y-129378628D01*
X108610476Y-129188152D02*
X108610476Y-129854819D01*
X108372381Y-128807200D02*
X108134286Y-129521485D01*
X108134286Y-129521485D02*
X108753333Y-129521485D01*
X71728095Y-111834819D02*
X71728095Y-112644342D01*
X71728095Y-112644342D02*
X71775714Y-112739580D01*
X71775714Y-112739580D02*
X71823333Y-112787200D01*
X71823333Y-112787200D02*
X71918571Y-112834819D01*
X71918571Y-112834819D02*
X72109047Y-112834819D01*
X72109047Y-112834819D02*
X72204285Y-112787200D01*
X72204285Y-112787200D02*
X72251904Y-112739580D01*
X72251904Y-112739580D02*
X72299523Y-112644342D01*
X72299523Y-112644342D02*
X72299523Y-111834819D01*
X73299523Y-112834819D02*
X72728095Y-112834819D01*
X73013809Y-112834819D02*
X73013809Y-111834819D01*
X73013809Y-111834819D02*
X72918571Y-111977676D01*
X72918571Y-111977676D02*
X72823333Y-112072914D01*
X72823333Y-112072914D02*
X72728095Y-112120533D01*
X88953333Y-127134819D02*
X88620000Y-126658628D01*
X88381905Y-127134819D02*
X88381905Y-126134819D01*
X88381905Y-126134819D02*
X88762857Y-126134819D01*
X88762857Y-126134819D02*
X88858095Y-126182438D01*
X88858095Y-126182438D02*
X88905714Y-126230057D01*
X88905714Y-126230057D02*
X88953333Y-126325295D01*
X88953333Y-126325295D02*
X88953333Y-126468152D01*
X88953333Y-126468152D02*
X88905714Y-126563390D01*
X88905714Y-126563390D02*
X88858095Y-126611009D01*
X88858095Y-126611009D02*
X88762857Y-126658628D01*
X88762857Y-126658628D02*
X88381905Y-126658628D01*
X89286667Y-126134819D02*
X89905714Y-126134819D01*
X89905714Y-126134819D02*
X89572381Y-126515771D01*
X89572381Y-126515771D02*
X89715238Y-126515771D01*
X89715238Y-126515771D02*
X89810476Y-126563390D01*
X89810476Y-126563390D02*
X89858095Y-126611009D01*
X89858095Y-126611009D02*
X89905714Y-126706247D01*
X89905714Y-126706247D02*
X89905714Y-126944342D01*
X89905714Y-126944342D02*
X89858095Y-127039580D01*
X89858095Y-127039580D02*
X89810476Y-127087200D01*
X89810476Y-127087200D02*
X89715238Y-127134819D01*
X89715238Y-127134819D02*
X89429524Y-127134819D01*
X89429524Y-127134819D02*
X89334286Y-127087200D01*
X89334286Y-127087200D02*
X89286667Y-127039580D01*
X88953333Y-129854819D02*
X88620000Y-129378628D01*
X88381905Y-129854819D02*
X88381905Y-128854819D01*
X88381905Y-128854819D02*
X88762857Y-128854819D01*
X88762857Y-128854819D02*
X88858095Y-128902438D01*
X88858095Y-128902438D02*
X88905714Y-128950057D01*
X88905714Y-128950057D02*
X88953333Y-129045295D01*
X88953333Y-129045295D02*
X88953333Y-129188152D01*
X88953333Y-129188152D02*
X88905714Y-129283390D01*
X88905714Y-129283390D02*
X88858095Y-129331009D01*
X88858095Y-129331009D02*
X88762857Y-129378628D01*
X88762857Y-129378628D02*
X88381905Y-129378628D01*
X89286667Y-128854819D02*
X89905714Y-128854819D01*
X89905714Y-128854819D02*
X89572381Y-129235771D01*
X89572381Y-129235771D02*
X89715238Y-129235771D01*
X89715238Y-129235771D02*
X89810476Y-129283390D01*
X89810476Y-129283390D02*
X89858095Y-129331009D01*
X89858095Y-129331009D02*
X89905714Y-129426247D01*
X89905714Y-129426247D02*
X89905714Y-129664342D01*
X89905714Y-129664342D02*
X89858095Y-129759580D01*
X89858095Y-129759580D02*
X89810476Y-129807200D01*
X89810476Y-129807200D02*
X89715238Y-129854819D01*
X89715238Y-129854819D02*
X89429524Y-129854819D01*
X89429524Y-129854819D02*
X89334286Y-129807200D01*
X89334286Y-129807200D02*
X89286667Y-129759580D01*
X53827142Y-149014819D02*
X53350952Y-149014819D01*
X53350952Y-149014819D02*
X53350952Y-148014819D01*
X54160476Y-148491009D02*
X54493809Y-148491009D01*
X54636666Y-149014819D02*
X54160476Y-149014819D01*
X54160476Y-149014819D02*
X54160476Y-148014819D01*
X54160476Y-148014819D02*
X54636666Y-148014819D01*
X55065238Y-149014819D02*
X55065238Y-148014819D01*
X55065238Y-148014819D02*
X55303333Y-148014819D01*
X55303333Y-148014819D02*
X55446190Y-148062438D01*
X55446190Y-148062438D02*
X55541428Y-148157676D01*
X55541428Y-148157676D02*
X55589047Y-148252914D01*
X55589047Y-148252914D02*
X55636666Y-148443390D01*
X55636666Y-148443390D02*
X55636666Y-148586247D01*
X55636666Y-148586247D02*
X55589047Y-148776723D01*
X55589047Y-148776723D02*
X55541428Y-148871961D01*
X55541428Y-148871961D02*
X55446190Y-148967200D01*
X55446190Y-148967200D02*
X55303333Y-149014819D01*
X55303333Y-149014819D02*
X55065238Y-149014819D01*
X33542856Y-99629819D02*
X33066666Y-99629819D01*
X33066666Y-99629819D02*
X33019047Y-100106009D01*
X33019047Y-100106009D02*
X33066666Y-100058390D01*
X33066666Y-100058390D02*
X33161904Y-100010771D01*
X33161904Y-100010771D02*
X33399999Y-100010771D01*
X33399999Y-100010771D02*
X33495237Y-100058390D01*
X33495237Y-100058390D02*
X33542856Y-100106009D01*
X33542856Y-100106009D02*
X33590475Y-100201247D01*
X33590475Y-100201247D02*
X33590475Y-100439342D01*
X33590475Y-100439342D02*
X33542856Y-100534580D01*
X33542856Y-100534580D02*
X33495237Y-100582200D01*
X33495237Y-100582200D02*
X33399999Y-100629819D01*
X33399999Y-100629819D02*
X33161904Y-100629819D01*
X33161904Y-100629819D02*
X33066666Y-100582200D01*
X33066666Y-100582200D02*
X33019047Y-100534580D01*
X34638095Y-99629819D02*
X34971428Y-100629819D01*
X34971428Y-100629819D02*
X35304761Y-99629819D01*
X35638095Y-100629819D02*
X35638095Y-99963152D01*
X35638095Y-99629819D02*
X35590476Y-99677438D01*
X35590476Y-99677438D02*
X35638095Y-99725057D01*
X35638095Y-99725057D02*
X35685714Y-99677438D01*
X35685714Y-99677438D02*
X35638095Y-99629819D01*
X35638095Y-99629819D02*
X35638095Y-99725057D01*
X36114285Y-99963152D02*
X36114285Y-100629819D01*
X36114285Y-100058390D02*
X36161904Y-100010771D01*
X36161904Y-100010771D02*
X36257142Y-99963152D01*
X36257142Y-99963152D02*
X36399999Y-99963152D01*
X36399999Y-99963152D02*
X36495237Y-100010771D01*
X36495237Y-100010771D02*
X36542856Y-100106009D01*
X36542856Y-100106009D02*
X36542856Y-100629819D01*
X38066666Y-101010771D02*
X38019047Y-100963152D01*
X38019047Y-100963152D02*
X37923809Y-100820295D01*
X37923809Y-100820295D02*
X37876190Y-100725057D01*
X37876190Y-100725057D02*
X37828571Y-100582200D01*
X37828571Y-100582200D02*
X37780952Y-100344104D01*
X37780952Y-100344104D02*
X37780952Y-100153628D01*
X37780952Y-100153628D02*
X37828571Y-99915533D01*
X37828571Y-99915533D02*
X37876190Y-99772676D01*
X37876190Y-99772676D02*
X37923809Y-99677438D01*
X37923809Y-99677438D02*
X38019047Y-99534580D01*
X38019047Y-99534580D02*
X38066666Y-99486961D01*
X38590476Y-100629819D02*
X38495238Y-100582200D01*
X38495238Y-100582200D02*
X38447619Y-100534580D01*
X38447619Y-100534580D02*
X38400000Y-100439342D01*
X38400000Y-100439342D02*
X38400000Y-100153628D01*
X38400000Y-100153628D02*
X38447619Y-100058390D01*
X38447619Y-100058390D02*
X38495238Y-100010771D01*
X38495238Y-100010771D02*
X38590476Y-99963152D01*
X38590476Y-99963152D02*
X38733333Y-99963152D01*
X38733333Y-99963152D02*
X38828571Y-100010771D01*
X38828571Y-100010771D02*
X38876190Y-100058390D01*
X38876190Y-100058390D02*
X38923809Y-100153628D01*
X38923809Y-100153628D02*
X38923809Y-100439342D01*
X38923809Y-100439342D02*
X38876190Y-100534580D01*
X38876190Y-100534580D02*
X38828571Y-100582200D01*
X38828571Y-100582200D02*
X38733333Y-100629819D01*
X38733333Y-100629819D02*
X38590476Y-100629819D01*
X39352381Y-99963152D02*
X39352381Y-100963152D01*
X39352381Y-100010771D02*
X39447619Y-99963152D01*
X39447619Y-99963152D02*
X39638095Y-99963152D01*
X39638095Y-99963152D02*
X39733333Y-100010771D01*
X39733333Y-100010771D02*
X39780952Y-100058390D01*
X39780952Y-100058390D02*
X39828571Y-100153628D01*
X39828571Y-100153628D02*
X39828571Y-100439342D01*
X39828571Y-100439342D02*
X39780952Y-100534580D01*
X39780952Y-100534580D02*
X39733333Y-100582200D01*
X39733333Y-100582200D02*
X39638095Y-100629819D01*
X39638095Y-100629819D02*
X39447619Y-100629819D01*
X39447619Y-100629819D02*
X39352381Y-100582200D01*
X40114286Y-99963152D02*
X40495238Y-99963152D01*
X40257143Y-99629819D02*
X40257143Y-100486961D01*
X40257143Y-100486961D02*
X40304762Y-100582200D01*
X40304762Y-100582200D02*
X40400000Y-100629819D01*
X40400000Y-100629819D02*
X40495238Y-100629819D01*
X40828572Y-100629819D02*
X40828572Y-99963152D01*
X40828572Y-99629819D02*
X40780953Y-99677438D01*
X40780953Y-99677438D02*
X40828572Y-99725057D01*
X40828572Y-99725057D02*
X40876191Y-99677438D01*
X40876191Y-99677438D02*
X40828572Y-99629819D01*
X40828572Y-99629819D02*
X40828572Y-99725057D01*
X41447619Y-100629819D02*
X41352381Y-100582200D01*
X41352381Y-100582200D02*
X41304762Y-100534580D01*
X41304762Y-100534580D02*
X41257143Y-100439342D01*
X41257143Y-100439342D02*
X41257143Y-100153628D01*
X41257143Y-100153628D02*
X41304762Y-100058390D01*
X41304762Y-100058390D02*
X41352381Y-100010771D01*
X41352381Y-100010771D02*
X41447619Y-99963152D01*
X41447619Y-99963152D02*
X41590476Y-99963152D01*
X41590476Y-99963152D02*
X41685714Y-100010771D01*
X41685714Y-100010771D02*
X41733333Y-100058390D01*
X41733333Y-100058390D02*
X41780952Y-100153628D01*
X41780952Y-100153628D02*
X41780952Y-100439342D01*
X41780952Y-100439342D02*
X41733333Y-100534580D01*
X41733333Y-100534580D02*
X41685714Y-100582200D01*
X41685714Y-100582200D02*
X41590476Y-100629819D01*
X41590476Y-100629819D02*
X41447619Y-100629819D01*
X42209524Y-99963152D02*
X42209524Y-100629819D01*
X42209524Y-100058390D02*
X42257143Y-100010771D01*
X42257143Y-100010771D02*
X42352381Y-99963152D01*
X42352381Y-99963152D02*
X42495238Y-99963152D01*
X42495238Y-99963152D02*
X42590476Y-100010771D01*
X42590476Y-100010771D02*
X42638095Y-100106009D01*
X42638095Y-100106009D02*
X42638095Y-100629819D01*
X43542857Y-100629819D02*
X43542857Y-100106009D01*
X43542857Y-100106009D02*
X43495238Y-100010771D01*
X43495238Y-100010771D02*
X43400000Y-99963152D01*
X43400000Y-99963152D02*
X43209524Y-99963152D01*
X43209524Y-99963152D02*
X43114286Y-100010771D01*
X43542857Y-100582200D02*
X43447619Y-100629819D01*
X43447619Y-100629819D02*
X43209524Y-100629819D01*
X43209524Y-100629819D02*
X43114286Y-100582200D01*
X43114286Y-100582200D02*
X43066667Y-100486961D01*
X43066667Y-100486961D02*
X43066667Y-100391723D01*
X43066667Y-100391723D02*
X43114286Y-100296485D01*
X43114286Y-100296485D02*
X43209524Y-100248866D01*
X43209524Y-100248866D02*
X43447619Y-100248866D01*
X43447619Y-100248866D02*
X43542857Y-100201247D01*
X44161905Y-100629819D02*
X44066667Y-100582200D01*
X44066667Y-100582200D02*
X44019048Y-100486961D01*
X44019048Y-100486961D02*
X44019048Y-99629819D01*
X44447620Y-101010771D02*
X44495239Y-100963152D01*
X44495239Y-100963152D02*
X44590477Y-100820295D01*
X44590477Y-100820295D02*
X44638096Y-100725057D01*
X44638096Y-100725057D02*
X44685715Y-100582200D01*
X44685715Y-100582200D02*
X44733334Y-100344104D01*
X44733334Y-100344104D02*
X44733334Y-100153628D01*
X44733334Y-100153628D02*
X44685715Y-99915533D01*
X44685715Y-99915533D02*
X44638096Y-99772676D01*
X44638096Y-99772676D02*
X44590477Y-99677438D01*
X44590477Y-99677438D02*
X44495239Y-99534580D01*
X44495239Y-99534580D02*
X44447620Y-99486961D01*
X38566666Y-97729819D02*
X38566666Y-98444104D01*
X38566666Y-98444104D02*
X38519047Y-98586961D01*
X38519047Y-98586961D02*
X38423809Y-98682200D01*
X38423809Y-98682200D02*
X38280952Y-98729819D01*
X38280952Y-98729819D02*
X38185714Y-98729819D01*
X38947619Y-97729819D02*
X39614285Y-97729819D01*
X39614285Y-97729819D02*
X39185714Y-98729819D01*
X52992319Y-82253333D02*
X53706604Y-82253333D01*
X53706604Y-82253333D02*
X53849461Y-82300952D01*
X53849461Y-82300952D02*
X53944700Y-82396190D01*
X53944700Y-82396190D02*
X53992319Y-82539047D01*
X53992319Y-82539047D02*
X53992319Y-82634285D01*
X53992319Y-81253333D02*
X53992319Y-81824761D01*
X53992319Y-81539047D02*
X52992319Y-81539047D01*
X52992319Y-81539047D02*
X53135176Y-81634285D01*
X53135176Y-81634285D02*
X53230414Y-81729523D01*
X53230414Y-81729523D02*
X53278033Y-81824761D01*
X53154760Y-112359580D02*
X53107141Y-112407200D01*
X53107141Y-112407200D02*
X52964284Y-112454819D01*
X52964284Y-112454819D02*
X52869046Y-112454819D01*
X52869046Y-112454819D02*
X52726189Y-112407200D01*
X52726189Y-112407200D02*
X52630951Y-112311961D01*
X52630951Y-112311961D02*
X52583332Y-112216723D01*
X52583332Y-112216723D02*
X52535713Y-112026247D01*
X52535713Y-112026247D02*
X52535713Y-111883390D01*
X52535713Y-111883390D02*
X52583332Y-111692914D01*
X52583332Y-111692914D02*
X52630951Y-111597676D01*
X52630951Y-111597676D02*
X52726189Y-111502438D01*
X52726189Y-111502438D02*
X52869046Y-111454819D01*
X52869046Y-111454819D02*
X52964284Y-111454819D01*
X52964284Y-111454819D02*
X53107141Y-111502438D01*
X53107141Y-111502438D02*
X53154760Y-111550057D01*
X53726189Y-112454819D02*
X53630951Y-112407200D01*
X53630951Y-112407200D02*
X53583332Y-112359580D01*
X53583332Y-112359580D02*
X53535713Y-112264342D01*
X53535713Y-112264342D02*
X53535713Y-111978628D01*
X53535713Y-111978628D02*
X53583332Y-111883390D01*
X53583332Y-111883390D02*
X53630951Y-111835771D01*
X53630951Y-111835771D02*
X53726189Y-111788152D01*
X53726189Y-111788152D02*
X53869046Y-111788152D01*
X53869046Y-111788152D02*
X53964284Y-111835771D01*
X53964284Y-111835771D02*
X54011903Y-111883390D01*
X54011903Y-111883390D02*
X54059522Y-111978628D01*
X54059522Y-111978628D02*
X54059522Y-112264342D01*
X54059522Y-112264342D02*
X54011903Y-112359580D01*
X54011903Y-112359580D02*
X53964284Y-112407200D01*
X53964284Y-112407200D02*
X53869046Y-112454819D01*
X53869046Y-112454819D02*
X53726189Y-112454819D01*
X54488094Y-111788152D02*
X54488094Y-112454819D01*
X54488094Y-111883390D02*
X54535713Y-111835771D01*
X54535713Y-111835771D02*
X54630951Y-111788152D01*
X54630951Y-111788152D02*
X54773808Y-111788152D01*
X54773808Y-111788152D02*
X54869046Y-111835771D01*
X54869046Y-111835771D02*
X54916665Y-111931009D01*
X54916665Y-111931009D02*
X54916665Y-112454819D01*
X55392856Y-111788152D02*
X55392856Y-112454819D01*
X55392856Y-111883390D02*
X55440475Y-111835771D01*
X55440475Y-111835771D02*
X55535713Y-111788152D01*
X55535713Y-111788152D02*
X55678570Y-111788152D01*
X55678570Y-111788152D02*
X55773808Y-111835771D01*
X55773808Y-111835771D02*
X55821427Y-111931009D01*
X55821427Y-111931009D02*
X55821427Y-112454819D01*
X56059523Y-112550057D02*
X56821427Y-112550057D01*
X57249999Y-111454819D02*
X57345237Y-111454819D01*
X57345237Y-111454819D02*
X57440475Y-111502438D01*
X57440475Y-111502438D02*
X57488094Y-111550057D01*
X57488094Y-111550057D02*
X57535713Y-111645295D01*
X57535713Y-111645295D02*
X57583332Y-111835771D01*
X57583332Y-111835771D02*
X57583332Y-112073866D01*
X57583332Y-112073866D02*
X57535713Y-112264342D01*
X57535713Y-112264342D02*
X57488094Y-112359580D01*
X57488094Y-112359580D02*
X57440475Y-112407200D01*
X57440475Y-112407200D02*
X57345237Y-112454819D01*
X57345237Y-112454819D02*
X57249999Y-112454819D01*
X57249999Y-112454819D02*
X57154761Y-112407200D01*
X57154761Y-112407200D02*
X57107142Y-112359580D01*
X57107142Y-112359580D02*
X57059523Y-112264342D01*
X57059523Y-112264342D02*
X57011904Y-112073866D01*
X57011904Y-112073866D02*
X57011904Y-111835771D01*
X57011904Y-111835771D02*
X57059523Y-111645295D01*
X57059523Y-111645295D02*
X57107142Y-111550057D01*
X57107142Y-111550057D02*
X57154761Y-111502438D01*
X57154761Y-111502438D02*
X57249999Y-111454819D01*
X58535713Y-112454819D02*
X57964285Y-112454819D01*
X58249999Y-112454819D02*
X58249999Y-111454819D01*
X58249999Y-111454819D02*
X58154761Y-111597676D01*
X58154761Y-111597676D02*
X58059523Y-111692914D01*
X58059523Y-111692914D02*
X57964285Y-111740533D01*
X58869047Y-112454819D02*
X59392856Y-111788152D01*
X58869047Y-111788152D02*
X59392856Y-112454819D01*
X59964285Y-111454819D02*
X60059523Y-111454819D01*
X60059523Y-111454819D02*
X60154761Y-111502438D01*
X60154761Y-111502438D02*
X60202380Y-111550057D01*
X60202380Y-111550057D02*
X60249999Y-111645295D01*
X60249999Y-111645295D02*
X60297618Y-111835771D01*
X60297618Y-111835771D02*
X60297618Y-112073866D01*
X60297618Y-112073866D02*
X60249999Y-112264342D01*
X60249999Y-112264342D02*
X60202380Y-112359580D01*
X60202380Y-112359580D02*
X60154761Y-112407200D01*
X60154761Y-112407200D02*
X60059523Y-112454819D01*
X60059523Y-112454819D02*
X59964285Y-112454819D01*
X59964285Y-112454819D02*
X59869047Y-112407200D01*
X59869047Y-112407200D02*
X59821428Y-112359580D01*
X59821428Y-112359580D02*
X59773809Y-112264342D01*
X59773809Y-112264342D02*
X59726190Y-112073866D01*
X59726190Y-112073866D02*
X59726190Y-111835771D01*
X59726190Y-111835771D02*
X59773809Y-111645295D01*
X59773809Y-111645295D02*
X59821428Y-111550057D01*
X59821428Y-111550057D02*
X59869047Y-111502438D01*
X59869047Y-111502438D02*
X59964285Y-111454819D01*
X60678571Y-111550057D02*
X60726190Y-111502438D01*
X60726190Y-111502438D02*
X60821428Y-111454819D01*
X60821428Y-111454819D02*
X61059523Y-111454819D01*
X61059523Y-111454819D02*
X61154761Y-111502438D01*
X61154761Y-111502438D02*
X61202380Y-111550057D01*
X61202380Y-111550057D02*
X61249999Y-111645295D01*
X61249999Y-111645295D02*
X61249999Y-111740533D01*
X61249999Y-111740533D02*
X61202380Y-111883390D01*
X61202380Y-111883390D02*
X60630952Y-112454819D01*
X60630952Y-112454819D02*
X61249999Y-112454819D01*
X61440476Y-112550057D02*
X62202380Y-112550057D01*
X62392857Y-112407200D02*
X62535714Y-112454819D01*
X62535714Y-112454819D02*
X62773809Y-112454819D01*
X62773809Y-112454819D02*
X62869047Y-112407200D01*
X62869047Y-112407200D02*
X62916666Y-112359580D01*
X62916666Y-112359580D02*
X62964285Y-112264342D01*
X62964285Y-112264342D02*
X62964285Y-112169104D01*
X62964285Y-112169104D02*
X62916666Y-112073866D01*
X62916666Y-112073866D02*
X62869047Y-112026247D01*
X62869047Y-112026247D02*
X62773809Y-111978628D01*
X62773809Y-111978628D02*
X62583333Y-111931009D01*
X62583333Y-111931009D02*
X62488095Y-111883390D01*
X62488095Y-111883390D02*
X62440476Y-111835771D01*
X62440476Y-111835771D02*
X62392857Y-111740533D01*
X62392857Y-111740533D02*
X62392857Y-111645295D01*
X62392857Y-111645295D02*
X62440476Y-111550057D01*
X62440476Y-111550057D02*
X62488095Y-111502438D01*
X62488095Y-111502438D02*
X62583333Y-111454819D01*
X62583333Y-111454819D02*
X62821428Y-111454819D01*
X62821428Y-111454819D02*
X62964285Y-111502438D01*
X63535714Y-112454819D02*
X63440476Y-112407200D01*
X63440476Y-112407200D02*
X63392857Y-112359580D01*
X63392857Y-112359580D02*
X63345238Y-112264342D01*
X63345238Y-112264342D02*
X63345238Y-111978628D01*
X63345238Y-111978628D02*
X63392857Y-111883390D01*
X63392857Y-111883390D02*
X63440476Y-111835771D01*
X63440476Y-111835771D02*
X63535714Y-111788152D01*
X63535714Y-111788152D02*
X63678571Y-111788152D01*
X63678571Y-111788152D02*
X63773809Y-111835771D01*
X63773809Y-111835771D02*
X63821428Y-111883390D01*
X63821428Y-111883390D02*
X63869047Y-111978628D01*
X63869047Y-111978628D02*
X63869047Y-112264342D01*
X63869047Y-112264342D02*
X63821428Y-112359580D01*
X63821428Y-112359580D02*
X63773809Y-112407200D01*
X63773809Y-112407200D02*
X63678571Y-112454819D01*
X63678571Y-112454819D02*
X63535714Y-112454819D01*
X64726190Y-112407200D02*
X64630952Y-112454819D01*
X64630952Y-112454819D02*
X64440476Y-112454819D01*
X64440476Y-112454819D02*
X64345238Y-112407200D01*
X64345238Y-112407200D02*
X64297619Y-112359580D01*
X64297619Y-112359580D02*
X64250000Y-112264342D01*
X64250000Y-112264342D02*
X64250000Y-111978628D01*
X64250000Y-111978628D02*
X64297619Y-111883390D01*
X64297619Y-111883390D02*
X64345238Y-111835771D01*
X64345238Y-111835771D02*
X64440476Y-111788152D01*
X64440476Y-111788152D02*
X64630952Y-111788152D01*
X64630952Y-111788152D02*
X64726190Y-111835771D01*
X65154762Y-112454819D02*
X65154762Y-111454819D01*
X65250000Y-112073866D02*
X65535714Y-112454819D01*
X65535714Y-111788152D02*
X65154762Y-112169104D01*
X66345238Y-112407200D02*
X66250000Y-112454819D01*
X66250000Y-112454819D02*
X66059524Y-112454819D01*
X66059524Y-112454819D02*
X65964286Y-112407200D01*
X65964286Y-112407200D02*
X65916667Y-112311961D01*
X65916667Y-112311961D02*
X65916667Y-111931009D01*
X65916667Y-111931009D02*
X65964286Y-111835771D01*
X65964286Y-111835771D02*
X66059524Y-111788152D01*
X66059524Y-111788152D02*
X66250000Y-111788152D01*
X66250000Y-111788152D02*
X66345238Y-111835771D01*
X66345238Y-111835771D02*
X66392857Y-111931009D01*
X66392857Y-111931009D02*
X66392857Y-112026247D01*
X66392857Y-112026247D02*
X65916667Y-112121485D01*
X66678572Y-111788152D02*
X67059524Y-111788152D01*
X66821429Y-111454819D02*
X66821429Y-112311961D01*
X66821429Y-112311961D02*
X66869048Y-112407200D01*
X66869048Y-112407200D02*
X66964286Y-112454819D01*
X66964286Y-112454819D02*
X67059524Y-112454819D01*
X59416666Y-109554819D02*
X59416666Y-110269104D01*
X59416666Y-110269104D02*
X59369047Y-110411961D01*
X59369047Y-110411961D02*
X59273809Y-110507200D01*
X59273809Y-110507200D02*
X59130952Y-110554819D01*
X59130952Y-110554819D02*
X59035714Y-110554819D01*
X59797619Y-109554819D02*
X60416666Y-109554819D01*
X60416666Y-109554819D02*
X60083333Y-109935771D01*
X60083333Y-109935771D02*
X60226190Y-109935771D01*
X60226190Y-109935771D02*
X60321428Y-109983390D01*
X60321428Y-109983390D02*
X60369047Y-110031009D01*
X60369047Y-110031009D02*
X60416666Y-110126247D01*
X60416666Y-110126247D02*
X60416666Y-110364342D01*
X60416666Y-110364342D02*
X60369047Y-110459580D01*
X60369047Y-110459580D02*
X60321428Y-110507200D01*
X60321428Y-110507200D02*
X60226190Y-110554819D01*
X60226190Y-110554819D02*
X59940476Y-110554819D01*
X59940476Y-110554819D02*
X59845238Y-110507200D01*
X59845238Y-110507200D02*
X59797619Y-110459580D01*
X111087142Y-149014819D02*
X110610952Y-149014819D01*
X110610952Y-149014819D02*
X110610952Y-148014819D01*
X111420476Y-148491009D02*
X111753809Y-148491009D01*
X111896666Y-149014819D02*
X111420476Y-149014819D01*
X111420476Y-149014819D02*
X111420476Y-148014819D01*
X111420476Y-148014819D02*
X111896666Y-148014819D01*
X112325238Y-149014819D02*
X112325238Y-148014819D01*
X112325238Y-148014819D02*
X112563333Y-148014819D01*
X112563333Y-148014819D02*
X112706190Y-148062438D01*
X112706190Y-148062438D02*
X112801428Y-148157676D01*
X112801428Y-148157676D02*
X112849047Y-148252914D01*
X112849047Y-148252914D02*
X112896666Y-148443390D01*
X112896666Y-148443390D02*
X112896666Y-148586247D01*
X112896666Y-148586247D02*
X112849047Y-148776723D01*
X112849047Y-148776723D02*
X112801428Y-148871961D01*
X112801428Y-148871961D02*
X112706190Y-148967200D01*
X112706190Y-148967200D02*
X112563333Y-149014819D01*
X112563333Y-149014819D02*
X112325238Y-149014819D01*
X30214285Y-85654819D02*
X30214285Y-84654819D01*
X30214285Y-84654819D02*
X30547618Y-85369104D01*
X30547618Y-85369104D02*
X30880951Y-84654819D01*
X30880951Y-84654819D02*
X30880951Y-85654819D01*
X31499999Y-85654819D02*
X31404761Y-85607200D01*
X31404761Y-85607200D02*
X31357142Y-85559580D01*
X31357142Y-85559580D02*
X31309523Y-85464342D01*
X31309523Y-85464342D02*
X31309523Y-85178628D01*
X31309523Y-85178628D02*
X31357142Y-85083390D01*
X31357142Y-85083390D02*
X31404761Y-85035771D01*
X31404761Y-85035771D02*
X31499999Y-84988152D01*
X31499999Y-84988152D02*
X31642856Y-84988152D01*
X31642856Y-84988152D02*
X31738094Y-85035771D01*
X31738094Y-85035771D02*
X31785713Y-85083390D01*
X31785713Y-85083390D02*
X31833332Y-85178628D01*
X31833332Y-85178628D02*
X31833332Y-85464342D01*
X31833332Y-85464342D02*
X31785713Y-85559580D01*
X31785713Y-85559580D02*
X31738094Y-85607200D01*
X31738094Y-85607200D02*
X31642856Y-85654819D01*
X31642856Y-85654819D02*
X31499999Y-85654819D01*
X32690475Y-84988152D02*
X32690475Y-85654819D01*
X32261904Y-84988152D02*
X32261904Y-85511961D01*
X32261904Y-85511961D02*
X32309523Y-85607200D01*
X32309523Y-85607200D02*
X32404761Y-85654819D01*
X32404761Y-85654819D02*
X32547618Y-85654819D01*
X32547618Y-85654819D02*
X32642856Y-85607200D01*
X32642856Y-85607200D02*
X32690475Y-85559580D01*
X33166666Y-84988152D02*
X33166666Y-85654819D01*
X33166666Y-85083390D02*
X33214285Y-85035771D01*
X33214285Y-85035771D02*
X33309523Y-84988152D01*
X33309523Y-84988152D02*
X33452380Y-84988152D01*
X33452380Y-84988152D02*
X33547618Y-85035771D01*
X33547618Y-85035771D02*
X33595237Y-85131009D01*
X33595237Y-85131009D02*
X33595237Y-85654819D01*
X33928571Y-84988152D02*
X34309523Y-84988152D01*
X34071428Y-84654819D02*
X34071428Y-85511961D01*
X34071428Y-85511961D02*
X34119047Y-85607200D01*
X34119047Y-85607200D02*
X34214285Y-85654819D01*
X34214285Y-85654819D02*
X34309523Y-85654819D01*
X34642857Y-85654819D02*
X34642857Y-84988152D01*
X34642857Y-84654819D02*
X34595238Y-84702438D01*
X34595238Y-84702438D02*
X34642857Y-84750057D01*
X34642857Y-84750057D02*
X34690476Y-84702438D01*
X34690476Y-84702438D02*
X34642857Y-84654819D01*
X34642857Y-84654819D02*
X34642857Y-84750057D01*
X35119047Y-84988152D02*
X35119047Y-85654819D01*
X35119047Y-85083390D02*
X35166666Y-85035771D01*
X35166666Y-85035771D02*
X35261904Y-84988152D01*
X35261904Y-84988152D02*
X35404761Y-84988152D01*
X35404761Y-84988152D02*
X35499999Y-85035771D01*
X35499999Y-85035771D02*
X35547618Y-85131009D01*
X35547618Y-85131009D02*
X35547618Y-85654819D01*
X36452380Y-84988152D02*
X36452380Y-85797676D01*
X36452380Y-85797676D02*
X36404761Y-85892914D01*
X36404761Y-85892914D02*
X36357142Y-85940533D01*
X36357142Y-85940533D02*
X36261904Y-85988152D01*
X36261904Y-85988152D02*
X36119047Y-85988152D01*
X36119047Y-85988152D02*
X36023809Y-85940533D01*
X36452380Y-85607200D02*
X36357142Y-85654819D01*
X36357142Y-85654819D02*
X36166666Y-85654819D01*
X36166666Y-85654819D02*
X36071428Y-85607200D01*
X36071428Y-85607200D02*
X36023809Y-85559580D01*
X36023809Y-85559580D02*
X35976190Y-85464342D01*
X35976190Y-85464342D02*
X35976190Y-85178628D01*
X35976190Y-85178628D02*
X36023809Y-85083390D01*
X36023809Y-85083390D02*
X36071428Y-85035771D01*
X36071428Y-85035771D02*
X36166666Y-84988152D01*
X36166666Y-84988152D02*
X36357142Y-84988152D01*
X36357142Y-84988152D02*
X36452380Y-85035771D01*
X36928571Y-85654819D02*
X36928571Y-84654819D01*
X36928571Y-85131009D02*
X37499999Y-85131009D01*
X37499999Y-85654819D02*
X37499999Y-84654819D01*
X38119047Y-85654819D02*
X38023809Y-85607200D01*
X38023809Y-85607200D02*
X37976190Y-85559580D01*
X37976190Y-85559580D02*
X37928571Y-85464342D01*
X37928571Y-85464342D02*
X37928571Y-85178628D01*
X37928571Y-85178628D02*
X37976190Y-85083390D01*
X37976190Y-85083390D02*
X38023809Y-85035771D01*
X38023809Y-85035771D02*
X38119047Y-84988152D01*
X38119047Y-84988152D02*
X38261904Y-84988152D01*
X38261904Y-84988152D02*
X38357142Y-85035771D01*
X38357142Y-85035771D02*
X38404761Y-85083390D01*
X38404761Y-85083390D02*
X38452380Y-85178628D01*
X38452380Y-85178628D02*
X38452380Y-85464342D01*
X38452380Y-85464342D02*
X38404761Y-85559580D01*
X38404761Y-85559580D02*
X38357142Y-85607200D01*
X38357142Y-85607200D02*
X38261904Y-85654819D01*
X38261904Y-85654819D02*
X38119047Y-85654819D01*
X39023809Y-85654819D02*
X38928571Y-85607200D01*
X38928571Y-85607200D02*
X38880952Y-85511961D01*
X38880952Y-85511961D02*
X38880952Y-84654819D01*
X39785714Y-85607200D02*
X39690476Y-85654819D01*
X39690476Y-85654819D02*
X39500000Y-85654819D01*
X39500000Y-85654819D02*
X39404762Y-85607200D01*
X39404762Y-85607200D02*
X39357143Y-85511961D01*
X39357143Y-85511961D02*
X39357143Y-85131009D01*
X39357143Y-85131009D02*
X39404762Y-85035771D01*
X39404762Y-85035771D02*
X39500000Y-84988152D01*
X39500000Y-84988152D02*
X39690476Y-84988152D01*
X39690476Y-84988152D02*
X39785714Y-85035771D01*
X39785714Y-85035771D02*
X39833333Y-85131009D01*
X39833333Y-85131009D02*
X39833333Y-85226247D01*
X39833333Y-85226247D02*
X39357143Y-85321485D01*
X34238095Y-81454819D02*
X34238095Y-80454819D01*
X34238095Y-80931009D02*
X34809523Y-80931009D01*
X34809523Y-81454819D02*
X34809523Y-80454819D01*
X35238095Y-80550057D02*
X35285714Y-80502438D01*
X35285714Y-80502438D02*
X35380952Y-80454819D01*
X35380952Y-80454819D02*
X35619047Y-80454819D01*
X35619047Y-80454819D02*
X35714285Y-80502438D01*
X35714285Y-80502438D02*
X35761904Y-80550057D01*
X35761904Y-80550057D02*
X35809523Y-80645295D01*
X35809523Y-80645295D02*
X35809523Y-80740533D01*
X35809523Y-80740533D02*
X35761904Y-80883390D01*
X35761904Y-80883390D02*
X35190476Y-81454819D01*
X35190476Y-81454819D02*
X35809523Y-81454819D01*
X92387142Y-149014819D02*
X91910952Y-149014819D01*
X91910952Y-149014819D02*
X91910952Y-148014819D01*
X92720476Y-148491009D02*
X93053809Y-148491009D01*
X93196666Y-149014819D02*
X92720476Y-149014819D01*
X92720476Y-149014819D02*
X92720476Y-148014819D01*
X92720476Y-148014819D02*
X93196666Y-148014819D01*
X93625238Y-149014819D02*
X93625238Y-148014819D01*
X93625238Y-148014819D02*
X93863333Y-148014819D01*
X93863333Y-148014819D02*
X94006190Y-148062438D01*
X94006190Y-148062438D02*
X94101428Y-148157676D01*
X94101428Y-148157676D02*
X94149047Y-148252914D01*
X94149047Y-148252914D02*
X94196666Y-148443390D01*
X94196666Y-148443390D02*
X94196666Y-148586247D01*
X94196666Y-148586247D02*
X94149047Y-148776723D01*
X94149047Y-148776723D02*
X94101428Y-148871961D01*
X94101428Y-148871961D02*
X94006190Y-148967200D01*
X94006190Y-148967200D02*
X93863333Y-149014819D01*
X93863333Y-149014819D02*
X93625238Y-149014819D01*
X59616666Y-122054819D02*
X59616666Y-122769104D01*
X59616666Y-122769104D02*
X59569047Y-122911961D01*
X59569047Y-122911961D02*
X59473809Y-123007200D01*
X59473809Y-123007200D02*
X59330952Y-123054819D01*
X59330952Y-123054819D02*
X59235714Y-123054819D01*
X60521428Y-122388152D02*
X60521428Y-123054819D01*
X60283333Y-122007200D02*
X60045238Y-122721485D01*
X60045238Y-122721485D02*
X60664285Y-122721485D01*
X44159819Y-96611904D02*
X44969342Y-96611904D01*
X44969342Y-96611904D02*
X45064580Y-96564285D01*
X45064580Y-96564285D02*
X45112200Y-96516666D01*
X45112200Y-96516666D02*
X45159819Y-96421428D01*
X45159819Y-96421428D02*
X45159819Y-96230952D01*
X45159819Y-96230952D02*
X45112200Y-96135714D01*
X45112200Y-96135714D02*
X45064580Y-96088095D01*
X45064580Y-96088095D02*
X44969342Y-96040476D01*
X44969342Y-96040476D02*
X44159819Y-96040476D01*
X44159819Y-95373809D02*
X44159819Y-95278571D01*
X44159819Y-95278571D02*
X44207438Y-95183333D01*
X44207438Y-95183333D02*
X44255057Y-95135714D01*
X44255057Y-95135714D02*
X44350295Y-95088095D01*
X44350295Y-95088095D02*
X44540771Y-95040476D01*
X44540771Y-95040476D02*
X44778866Y-95040476D01*
X44778866Y-95040476D02*
X44969342Y-95088095D01*
X44969342Y-95088095D02*
X45064580Y-95135714D01*
X45064580Y-95135714D02*
X45112200Y-95183333D01*
X45112200Y-95183333D02*
X45159819Y-95278571D01*
X45159819Y-95278571D02*
X45159819Y-95373809D01*
X45159819Y-95373809D02*
X45112200Y-95469047D01*
X45112200Y-95469047D02*
X45064580Y-95516666D01*
X45064580Y-95516666D02*
X44969342Y-95564285D01*
X44969342Y-95564285D02*
X44778866Y-95611904D01*
X44778866Y-95611904D02*
X44540771Y-95611904D01*
X44540771Y-95611904D02*
X44350295Y-95564285D01*
X44350295Y-95564285D02*
X44255057Y-95516666D01*
X44255057Y-95516666D02*
X44207438Y-95469047D01*
X44207438Y-95469047D02*
X44159819Y-95373809D01*
X44159819Y-96611904D02*
X44969342Y-96611904D01*
X44969342Y-96611904D02*
X45064580Y-96564285D01*
X45064580Y-96564285D02*
X45112200Y-96516666D01*
X45112200Y-96516666D02*
X45159819Y-96421428D01*
X45159819Y-96421428D02*
X45159819Y-96230952D01*
X45159819Y-96230952D02*
X45112200Y-96135714D01*
X45112200Y-96135714D02*
X45064580Y-96088095D01*
X45064580Y-96088095D02*
X44969342Y-96040476D01*
X44969342Y-96040476D02*
X44159819Y-96040476D01*
X44159819Y-95373809D02*
X44159819Y-95278571D01*
X44159819Y-95278571D02*
X44207438Y-95183333D01*
X44207438Y-95183333D02*
X44255057Y-95135714D01*
X44255057Y-95135714D02*
X44350295Y-95088095D01*
X44350295Y-95088095D02*
X44540771Y-95040476D01*
X44540771Y-95040476D02*
X44778866Y-95040476D01*
X44778866Y-95040476D02*
X44969342Y-95088095D01*
X44969342Y-95088095D02*
X45064580Y-95135714D01*
X45064580Y-95135714D02*
X45112200Y-95183333D01*
X45112200Y-95183333D02*
X45159819Y-95278571D01*
X45159819Y-95278571D02*
X45159819Y-95373809D01*
X45159819Y-95373809D02*
X45112200Y-95469047D01*
X45112200Y-95469047D02*
X45064580Y-95516666D01*
X45064580Y-95516666D02*
X44969342Y-95564285D01*
X44969342Y-95564285D02*
X44778866Y-95611904D01*
X44778866Y-95611904D02*
X44540771Y-95611904D01*
X44540771Y-95611904D02*
X44350295Y-95564285D01*
X44350295Y-95564285D02*
X44255057Y-95516666D01*
X44255057Y-95516666D02*
X44207438Y-95469047D01*
X44207438Y-95469047D02*
X44159819Y-95373809D01*
X77154760Y-124959580D02*
X77107141Y-125007200D01*
X77107141Y-125007200D02*
X76964284Y-125054819D01*
X76964284Y-125054819D02*
X76869046Y-125054819D01*
X76869046Y-125054819D02*
X76726189Y-125007200D01*
X76726189Y-125007200D02*
X76630951Y-124911961D01*
X76630951Y-124911961D02*
X76583332Y-124816723D01*
X76583332Y-124816723D02*
X76535713Y-124626247D01*
X76535713Y-124626247D02*
X76535713Y-124483390D01*
X76535713Y-124483390D02*
X76583332Y-124292914D01*
X76583332Y-124292914D02*
X76630951Y-124197676D01*
X76630951Y-124197676D02*
X76726189Y-124102438D01*
X76726189Y-124102438D02*
X76869046Y-124054819D01*
X76869046Y-124054819D02*
X76964284Y-124054819D01*
X76964284Y-124054819D02*
X77107141Y-124102438D01*
X77107141Y-124102438D02*
X77154760Y-124150057D01*
X77726189Y-125054819D02*
X77630951Y-125007200D01*
X77630951Y-125007200D02*
X77583332Y-124959580D01*
X77583332Y-124959580D02*
X77535713Y-124864342D01*
X77535713Y-124864342D02*
X77535713Y-124578628D01*
X77535713Y-124578628D02*
X77583332Y-124483390D01*
X77583332Y-124483390D02*
X77630951Y-124435771D01*
X77630951Y-124435771D02*
X77726189Y-124388152D01*
X77726189Y-124388152D02*
X77869046Y-124388152D01*
X77869046Y-124388152D02*
X77964284Y-124435771D01*
X77964284Y-124435771D02*
X78011903Y-124483390D01*
X78011903Y-124483390D02*
X78059522Y-124578628D01*
X78059522Y-124578628D02*
X78059522Y-124864342D01*
X78059522Y-124864342D02*
X78011903Y-124959580D01*
X78011903Y-124959580D02*
X77964284Y-125007200D01*
X77964284Y-125007200D02*
X77869046Y-125054819D01*
X77869046Y-125054819D02*
X77726189Y-125054819D01*
X78488094Y-124388152D02*
X78488094Y-125054819D01*
X78488094Y-124483390D02*
X78535713Y-124435771D01*
X78535713Y-124435771D02*
X78630951Y-124388152D01*
X78630951Y-124388152D02*
X78773808Y-124388152D01*
X78773808Y-124388152D02*
X78869046Y-124435771D01*
X78869046Y-124435771D02*
X78916665Y-124531009D01*
X78916665Y-124531009D02*
X78916665Y-125054819D01*
X79392856Y-124388152D02*
X79392856Y-125054819D01*
X79392856Y-124483390D02*
X79440475Y-124435771D01*
X79440475Y-124435771D02*
X79535713Y-124388152D01*
X79535713Y-124388152D02*
X79678570Y-124388152D01*
X79678570Y-124388152D02*
X79773808Y-124435771D01*
X79773808Y-124435771D02*
X79821427Y-124531009D01*
X79821427Y-124531009D02*
X79821427Y-125054819D01*
X80059523Y-125150057D02*
X80821427Y-125150057D01*
X81249999Y-124054819D02*
X81345237Y-124054819D01*
X81345237Y-124054819D02*
X81440475Y-124102438D01*
X81440475Y-124102438D02*
X81488094Y-124150057D01*
X81488094Y-124150057D02*
X81535713Y-124245295D01*
X81535713Y-124245295D02*
X81583332Y-124435771D01*
X81583332Y-124435771D02*
X81583332Y-124673866D01*
X81583332Y-124673866D02*
X81535713Y-124864342D01*
X81535713Y-124864342D02*
X81488094Y-124959580D01*
X81488094Y-124959580D02*
X81440475Y-125007200D01*
X81440475Y-125007200D02*
X81345237Y-125054819D01*
X81345237Y-125054819D02*
X81249999Y-125054819D01*
X81249999Y-125054819D02*
X81154761Y-125007200D01*
X81154761Y-125007200D02*
X81107142Y-124959580D01*
X81107142Y-124959580D02*
X81059523Y-124864342D01*
X81059523Y-124864342D02*
X81011904Y-124673866D01*
X81011904Y-124673866D02*
X81011904Y-124435771D01*
X81011904Y-124435771D02*
X81059523Y-124245295D01*
X81059523Y-124245295D02*
X81107142Y-124150057D01*
X81107142Y-124150057D02*
X81154761Y-124102438D01*
X81154761Y-124102438D02*
X81249999Y-124054819D01*
X82535713Y-125054819D02*
X81964285Y-125054819D01*
X82249999Y-125054819D02*
X82249999Y-124054819D01*
X82249999Y-124054819D02*
X82154761Y-124197676D01*
X82154761Y-124197676D02*
X82059523Y-124292914D01*
X82059523Y-124292914D02*
X81964285Y-124340533D01*
X82869047Y-125054819D02*
X83392856Y-124388152D01*
X82869047Y-124388152D02*
X83392856Y-125054819D01*
X83964285Y-124054819D02*
X84059523Y-124054819D01*
X84059523Y-124054819D02*
X84154761Y-124102438D01*
X84154761Y-124102438D02*
X84202380Y-124150057D01*
X84202380Y-124150057D02*
X84249999Y-124245295D01*
X84249999Y-124245295D02*
X84297618Y-124435771D01*
X84297618Y-124435771D02*
X84297618Y-124673866D01*
X84297618Y-124673866D02*
X84249999Y-124864342D01*
X84249999Y-124864342D02*
X84202380Y-124959580D01*
X84202380Y-124959580D02*
X84154761Y-125007200D01*
X84154761Y-125007200D02*
X84059523Y-125054819D01*
X84059523Y-125054819D02*
X83964285Y-125054819D01*
X83964285Y-125054819D02*
X83869047Y-125007200D01*
X83869047Y-125007200D02*
X83821428Y-124959580D01*
X83821428Y-124959580D02*
X83773809Y-124864342D01*
X83773809Y-124864342D02*
X83726190Y-124673866D01*
X83726190Y-124673866D02*
X83726190Y-124435771D01*
X83726190Y-124435771D02*
X83773809Y-124245295D01*
X83773809Y-124245295D02*
X83821428Y-124150057D01*
X83821428Y-124150057D02*
X83869047Y-124102438D01*
X83869047Y-124102438D02*
X83964285Y-124054819D01*
X84678571Y-124150057D02*
X84726190Y-124102438D01*
X84726190Y-124102438D02*
X84821428Y-124054819D01*
X84821428Y-124054819D02*
X85059523Y-124054819D01*
X85059523Y-124054819D02*
X85154761Y-124102438D01*
X85154761Y-124102438D02*
X85202380Y-124150057D01*
X85202380Y-124150057D02*
X85249999Y-124245295D01*
X85249999Y-124245295D02*
X85249999Y-124340533D01*
X85249999Y-124340533D02*
X85202380Y-124483390D01*
X85202380Y-124483390D02*
X84630952Y-125054819D01*
X84630952Y-125054819D02*
X85249999Y-125054819D01*
X85440476Y-125150057D02*
X86202380Y-125150057D01*
X86392857Y-125007200D02*
X86535714Y-125054819D01*
X86535714Y-125054819D02*
X86773809Y-125054819D01*
X86773809Y-125054819D02*
X86869047Y-125007200D01*
X86869047Y-125007200D02*
X86916666Y-124959580D01*
X86916666Y-124959580D02*
X86964285Y-124864342D01*
X86964285Y-124864342D02*
X86964285Y-124769104D01*
X86964285Y-124769104D02*
X86916666Y-124673866D01*
X86916666Y-124673866D02*
X86869047Y-124626247D01*
X86869047Y-124626247D02*
X86773809Y-124578628D01*
X86773809Y-124578628D02*
X86583333Y-124531009D01*
X86583333Y-124531009D02*
X86488095Y-124483390D01*
X86488095Y-124483390D02*
X86440476Y-124435771D01*
X86440476Y-124435771D02*
X86392857Y-124340533D01*
X86392857Y-124340533D02*
X86392857Y-124245295D01*
X86392857Y-124245295D02*
X86440476Y-124150057D01*
X86440476Y-124150057D02*
X86488095Y-124102438D01*
X86488095Y-124102438D02*
X86583333Y-124054819D01*
X86583333Y-124054819D02*
X86821428Y-124054819D01*
X86821428Y-124054819D02*
X86964285Y-124102438D01*
X87535714Y-125054819D02*
X87440476Y-125007200D01*
X87440476Y-125007200D02*
X87392857Y-124959580D01*
X87392857Y-124959580D02*
X87345238Y-124864342D01*
X87345238Y-124864342D02*
X87345238Y-124578628D01*
X87345238Y-124578628D02*
X87392857Y-124483390D01*
X87392857Y-124483390D02*
X87440476Y-124435771D01*
X87440476Y-124435771D02*
X87535714Y-124388152D01*
X87535714Y-124388152D02*
X87678571Y-124388152D01*
X87678571Y-124388152D02*
X87773809Y-124435771D01*
X87773809Y-124435771D02*
X87821428Y-124483390D01*
X87821428Y-124483390D02*
X87869047Y-124578628D01*
X87869047Y-124578628D02*
X87869047Y-124864342D01*
X87869047Y-124864342D02*
X87821428Y-124959580D01*
X87821428Y-124959580D02*
X87773809Y-125007200D01*
X87773809Y-125007200D02*
X87678571Y-125054819D01*
X87678571Y-125054819D02*
X87535714Y-125054819D01*
X88726190Y-125007200D02*
X88630952Y-125054819D01*
X88630952Y-125054819D02*
X88440476Y-125054819D01*
X88440476Y-125054819D02*
X88345238Y-125007200D01*
X88345238Y-125007200D02*
X88297619Y-124959580D01*
X88297619Y-124959580D02*
X88250000Y-124864342D01*
X88250000Y-124864342D02*
X88250000Y-124578628D01*
X88250000Y-124578628D02*
X88297619Y-124483390D01*
X88297619Y-124483390D02*
X88345238Y-124435771D01*
X88345238Y-124435771D02*
X88440476Y-124388152D01*
X88440476Y-124388152D02*
X88630952Y-124388152D01*
X88630952Y-124388152D02*
X88726190Y-124435771D01*
X89154762Y-125054819D02*
X89154762Y-124054819D01*
X89250000Y-124673866D02*
X89535714Y-125054819D01*
X89535714Y-124388152D02*
X89154762Y-124769104D01*
X90345238Y-125007200D02*
X90250000Y-125054819D01*
X90250000Y-125054819D02*
X90059524Y-125054819D01*
X90059524Y-125054819D02*
X89964286Y-125007200D01*
X89964286Y-125007200D02*
X89916667Y-124911961D01*
X89916667Y-124911961D02*
X89916667Y-124531009D01*
X89916667Y-124531009D02*
X89964286Y-124435771D01*
X89964286Y-124435771D02*
X90059524Y-124388152D01*
X90059524Y-124388152D02*
X90250000Y-124388152D01*
X90250000Y-124388152D02*
X90345238Y-124435771D01*
X90345238Y-124435771D02*
X90392857Y-124531009D01*
X90392857Y-124531009D02*
X90392857Y-124626247D01*
X90392857Y-124626247D02*
X89916667Y-124721485D01*
X90678572Y-124388152D02*
X91059524Y-124388152D01*
X90821429Y-124054819D02*
X90821429Y-124911961D01*
X90821429Y-124911961D02*
X90869048Y-125007200D01*
X90869048Y-125007200D02*
X90964286Y-125054819D01*
X90964286Y-125054819D02*
X91059524Y-125054819D01*
X83416666Y-122154819D02*
X83416666Y-122869104D01*
X83416666Y-122869104D02*
X83369047Y-123011961D01*
X83369047Y-123011961D02*
X83273809Y-123107200D01*
X83273809Y-123107200D02*
X83130952Y-123154819D01*
X83130952Y-123154819D02*
X83035714Y-123154819D01*
X84369047Y-122154819D02*
X83892857Y-122154819D01*
X83892857Y-122154819D02*
X83845238Y-122631009D01*
X83845238Y-122631009D02*
X83892857Y-122583390D01*
X83892857Y-122583390D02*
X83988095Y-122535771D01*
X83988095Y-122535771D02*
X84226190Y-122535771D01*
X84226190Y-122535771D02*
X84321428Y-122583390D01*
X84321428Y-122583390D02*
X84369047Y-122631009D01*
X84369047Y-122631009D02*
X84416666Y-122726247D01*
X84416666Y-122726247D02*
X84416666Y-122964342D01*
X84416666Y-122964342D02*
X84369047Y-123059580D01*
X84369047Y-123059580D02*
X84321428Y-123107200D01*
X84321428Y-123107200D02*
X84226190Y-123154819D01*
X84226190Y-123154819D02*
X83988095Y-123154819D01*
X83988095Y-123154819D02*
X83892857Y-123107200D01*
X83892857Y-123107200D02*
X83845238Y-123059580D01*
X50753333Y-126834819D02*
X50420000Y-126358628D01*
X50181905Y-126834819D02*
X50181905Y-125834819D01*
X50181905Y-125834819D02*
X50562857Y-125834819D01*
X50562857Y-125834819D02*
X50658095Y-125882438D01*
X50658095Y-125882438D02*
X50705714Y-125930057D01*
X50705714Y-125930057D02*
X50753333Y-126025295D01*
X50753333Y-126025295D02*
X50753333Y-126168152D01*
X50753333Y-126168152D02*
X50705714Y-126263390D01*
X50705714Y-126263390D02*
X50658095Y-126311009D01*
X50658095Y-126311009D02*
X50562857Y-126358628D01*
X50562857Y-126358628D02*
X50181905Y-126358628D01*
X51705714Y-126834819D02*
X51134286Y-126834819D01*
X51420000Y-126834819D02*
X51420000Y-125834819D01*
X51420000Y-125834819D02*
X51324762Y-125977676D01*
X51324762Y-125977676D02*
X51229524Y-126072914D01*
X51229524Y-126072914D02*
X51134286Y-126120533D01*
X50753333Y-129554819D02*
X50420000Y-129078628D01*
X50181905Y-129554819D02*
X50181905Y-128554819D01*
X50181905Y-128554819D02*
X50562857Y-128554819D01*
X50562857Y-128554819D02*
X50658095Y-128602438D01*
X50658095Y-128602438D02*
X50705714Y-128650057D01*
X50705714Y-128650057D02*
X50753333Y-128745295D01*
X50753333Y-128745295D02*
X50753333Y-128888152D01*
X50753333Y-128888152D02*
X50705714Y-128983390D01*
X50705714Y-128983390D02*
X50658095Y-129031009D01*
X50658095Y-129031009D02*
X50562857Y-129078628D01*
X50562857Y-129078628D02*
X50181905Y-129078628D01*
X51705714Y-129554819D02*
X51134286Y-129554819D01*
X51420000Y-129554819D02*
X51420000Y-128554819D01*
X51420000Y-128554819D02*
X51324762Y-128697676D01*
X51324762Y-128697676D02*
X51229524Y-128792914D01*
X51229524Y-128792914D02*
X51134286Y-128840533D01*
D11*
%TO.C,R2*%
X61400000Y-129200000D02*
X64520000Y-129200000D01*
X64520000Y-127600000D02*
X64520000Y-130800000D01*
X64520000Y-130800000D02*
X73520000Y-130800000D01*
X73520000Y-127600000D02*
X64520000Y-127600000D01*
X73520000Y-130800000D02*
X73520000Y-127600000D01*
X76640000Y-129200000D02*
X73520000Y-129200000D01*
%TO.C,D2*%
X71270000Y-144433810D02*
X71270000Y-146766190D01*
X71269446Y-146765475D02*
G75*
G03*
X71270001Y-144433810I1500554J1165475D01*
G01*
X74270000Y-145600000D02*
G75*
G03*
X74270000Y-145600000I-1500000J0D01*
G01*
%TO.C,R99*%
X54686000Y-93780000D02*
X57806000Y-93780000D01*
X57806000Y-92180000D02*
X57806000Y-95380000D01*
X57806000Y-95380000D02*
X66806000Y-95380000D01*
X66806000Y-92180000D02*
X57806000Y-92180000D01*
X66806000Y-95380000D02*
X66806000Y-92180000D01*
X69926000Y-93780000D02*
X66806000Y-93780000D01*
%TO.C,R98*%
X54660000Y-98420000D02*
X57780000Y-98420000D01*
X57780000Y-96820000D02*
X57780000Y-100020000D01*
X57780000Y-100020000D02*
X66780000Y-100020000D01*
X66780000Y-96820000D02*
X57780000Y-96820000D01*
X66780000Y-100020000D02*
X66780000Y-96820000D01*
X69900000Y-98420000D02*
X66780000Y-98420000D01*
%TO.C,J6*%
X87550000Y-112500000D02*
X87550000Y-106750000D01*
X87550000Y-106750000D02*
X80150000Y-106750000D01*
X82600000Y-107750000D02*
X83225000Y-106750000D01*
X81975000Y-106750000D02*
X82600000Y-107750000D01*
X80150000Y-112500000D02*
X87550000Y-112500000D01*
X80150000Y-106750000D02*
X80150000Y-112500000D01*
%TO.C,R4*%
X100300000Y-129400000D02*
X103420000Y-129400000D01*
X103420000Y-127800000D02*
X103420000Y-131000000D01*
X103420000Y-131000000D02*
X112420000Y-131000000D01*
X112420000Y-127800000D02*
X103420000Y-127800000D01*
X112420000Y-131000000D02*
X112420000Y-127800000D01*
X115540000Y-129400000D02*
X112420000Y-129400000D01*
%TO.C,U1*%
X69315000Y-104490000D02*
X70315000Y-103490000D01*
X69315000Y-121270000D02*
X69315000Y-104490000D01*
X70315000Y-103490000D02*
X75665000Y-103490000D01*
X75665000Y-103490000D02*
X75665000Y-121270000D01*
X75665000Y-121270000D02*
X69315000Y-121270000D01*
%TO.C,R3*%
X81500000Y-129400000D02*
X84620000Y-129400000D01*
X84620000Y-127800000D02*
X84620000Y-131000000D01*
X84620000Y-131000000D02*
X93620000Y-131000000D01*
X93620000Y-127800000D02*
X84620000Y-127800000D01*
X93620000Y-131000000D02*
X93620000Y-127800000D01*
X96740000Y-129400000D02*
X93620000Y-129400000D01*
%TO.C,D1*%
X52970000Y-144433810D02*
X52970000Y-146766190D01*
X52969446Y-146765475D02*
G75*
G03*
X52970001Y-144433810I1500554J1165475D01*
G01*
X55970000Y-145600000D02*
G75*
G03*
X55970000Y-145600000I-1500000J0D01*
G01*
%TO.C,J7*%
X35200000Y-93225000D02*
X35200000Y-98975000D01*
X35200000Y-98975000D02*
X42600000Y-98975000D01*
X37025000Y-93225000D02*
X37650000Y-94225000D01*
X37650000Y-94225000D02*
X38275000Y-93225000D01*
X42600000Y-93225000D02*
X35200000Y-93225000D01*
X42600000Y-98975000D02*
X42600000Y-93225000D01*
%TO.C,J1*%
X55087500Y-71220000D02*
X46087500Y-71220000D01*
X46087500Y-71220000D02*
X46087500Y-85720000D01*
X55087500Y-74720000D02*
X46087500Y-74720000D01*
X55092925Y-84916787D02*
X54337500Y-85720000D01*
X55087500Y-84920000D02*
X55087500Y-71220000D01*
X46087500Y-85720000D02*
X54337500Y-85720000D01*
%TO.C,J3*%
X56050000Y-105050000D02*
X56050000Y-110800000D01*
X56050000Y-110800000D02*
X63450000Y-110800000D01*
X57875000Y-105050000D02*
X58500000Y-106050000D01*
X58500000Y-106050000D02*
X59125000Y-105050000D01*
X63450000Y-105050000D02*
X56050000Y-105050000D01*
X63450000Y-110800000D02*
X63450000Y-105050000D01*
%TO.C,D4*%
X110230000Y-144433810D02*
X110230000Y-146766190D01*
X110229446Y-146765475D02*
G75*
G03*
X110230001Y-144433810I1500554J1165475D01*
G01*
X113230000Y-145600000D02*
G75*
G03*
X113230000Y-145600000I-1500000J0D01*
G01*
%TO.C,D3*%
X91530000Y-144433810D02*
X91530000Y-146766190D01*
X91529446Y-146765475D02*
G75*
G03*
X91530001Y-144433810I1500554J1165475D01*
G01*
X94530000Y-145600000D02*
G75*
G03*
X94530000Y-145600000I-1500000J0D01*
G01*
%TO.C,J4*%
X63650000Y-123300000D02*
X63650000Y-117550000D01*
X63650000Y-117550000D02*
X56250000Y-117550000D01*
X58700000Y-118550000D02*
X59325000Y-117550000D01*
X58075000Y-117550000D02*
X58700000Y-118550000D01*
X56250000Y-123300000D02*
X63650000Y-123300000D01*
X56250000Y-117550000D02*
X56250000Y-123300000D01*
%TO.C,U0*%
X45825000Y-100850000D02*
X50225000Y-100850000D01*
X47095000Y-100850000D02*
X47095000Y-90850000D01*
X50225000Y-100850000D02*
X50225000Y-90850000D01*
X45825000Y-97700000D02*
X47095000Y-97700000D01*
X45825000Y-94000000D02*
X47095000Y-94000000D01*
X45825000Y-90850000D02*
X45825000Y-100850000D01*
X50225000Y-90850000D02*
X45825000Y-90850000D01*
%TO.C,J5*%
X80050000Y-117650000D02*
X80050000Y-123400000D01*
X80050000Y-123400000D02*
X87450000Y-123400000D01*
X81875000Y-117650000D02*
X82500000Y-118650000D01*
X82500000Y-118650000D02*
X83125000Y-117650000D01*
X87450000Y-117650000D02*
X80050000Y-117650000D01*
X87450000Y-123400000D02*
X87450000Y-117650000D01*
%TO.C,R1*%
X43300000Y-129100000D02*
X46420000Y-129100000D01*
X46420000Y-127500000D02*
X46420000Y-130700000D01*
X46420000Y-130700000D02*
X55420000Y-130700000D01*
X55420000Y-127500000D02*
X46420000Y-127500000D01*
X55420000Y-130700000D02*
X55420000Y-127500000D01*
X58540000Y-129100000D02*
X55420000Y-129100000D01*
%TD*%
M02*
