M48
; DRILL file {KiCad 7.0.6} date Tue Dec 12 17:12:16 2023
; FORMAT={-:-/ absolute / metric / decimal}
; #@! TF.CreationDate,2023-12-12T17:12:16+00:00
; #@! TF.GenerationSoftware,Kicad,Pcbnew,7.0.6
; #@! TF.FileFunction,Plated,1,2,PTH
FMAT,2
METRIC
; #@! TA.AperFunction,Plated,PTH,ComponentDrill
T1C0.550
; #@! TA.AperFunction,Plated,PTH,ComponentDrill
T2C0.800
; #@! TA.AperFunction,Plated,PTH,ComponentDrill
T3C0.900
; #@! TA.AperFunction,Plated,PTH,ComponentDrill
T4C1.000
; #@! TA.AperFunction,Plated,PTH,ComponentDrill
T5C1.001
; #@! TA.AperFunction,Plated,PTH,ComponentDrill
T6C1.100
; #@! TA.AperFunction,Plated,PTH,ComponentDrill
T7C1.850
; #@! TA.AperFunction,Plated,PTH,ComponentDrill
T8C2.200
%
G90
G05
T2
X43.3Y-129.1
X54.66Y-98.42
X54.686Y-93.78
X58.54Y-129.1
X61.4Y-129.2
X68.68Y-104.76
X68.68Y-107.3
X68.68Y-109.84
X68.68Y-112.38
X68.68Y-114.92
X68.68Y-117.46
X68.68Y-120.0
X69.9Y-98.42
X69.926Y-93.78
X76.3Y-104.76
X76.3Y-107.3
X76.3Y-109.84
X76.3Y-112.38
X76.3Y-114.92
X76.3Y-117.46
X76.3Y-120.0
X76.64Y-129.2
X81.5Y-129.4
X96.74Y-129.4
X100.3Y-129.4
X115.54Y-129.4
T3
X53.2Y-145.6
X55.74Y-145.6
X71.5Y-145.6
X74.04Y-145.6
X91.76Y-145.6
X94.3Y-145.6
X110.46Y-145.6
X113.0Y-145.6
T4
X37.65Y-95.575
X40.15Y-95.575
X58.5Y-107.4
X58.7Y-119.9
X61.0Y-107.4
X61.2Y-119.9
X82.5Y-120.0
X82.6Y-109.1
X85.0Y-120.0
X85.1Y-109.1
T5
X60.861Y-87.081
X63.36Y-87.081
T6
X48.975Y-93.31
X48.975Y-95.85
X48.975Y-98.39
T7
X44.6Y-145.0
X50.0Y-145.0
X62.7Y-145.1
X68.1Y-145.1
X82.8Y-145.3
X88.2Y-145.3
X101.6Y-145.9
X107.0Y-145.9
T8
X58.262Y-82.816
X68.46Y-82.816
T1
G00X44.76Y-136.88
M15
G01X44.76Y-137.88
M16
G05
G00X44.76Y-139.42
M15
G01X44.76Y-140.42
M16
G05
G00X47.3Y-136.88
M15
G01X47.3Y-137.88
M16
G05
G00X47.3Y-139.42
M15
G01X47.3Y-140.42
M16
G05
G00X49.84Y-136.88
M15
G01X49.84Y-137.88
M16
G05
G00X49.84Y-139.42
M15
G01X49.84Y-140.42
M16
G05
G00X62.86Y-136.98
M15
G01X62.86Y-137.98
M16
G05
G00X62.86Y-139.52
M15
G01X62.86Y-140.52
M16
G05
G00X65.4Y-136.98
M15
G01X65.4Y-137.98
M16
G05
G00X65.4Y-139.52
M15
G01X65.4Y-140.52
M16
G05
G00X67.94Y-136.98
M15
G01X67.94Y-137.98
M16
G05
G00X67.94Y-139.52
M15
G01X67.94Y-140.52
M16
G05
G00X82.96Y-137.18
M15
G01X82.96Y-138.18
M16
G05
G00X82.96Y-139.72
M15
G01X82.96Y-140.72
M16
G05
G00X85.5Y-137.18
M15
G01X85.5Y-138.18
M16
G05
G00X85.5Y-139.72
M15
G01X85.5Y-140.72
M16
G05
G00X88.04Y-137.18
M15
G01X88.04Y-138.18
M16
G05
G00X88.04Y-139.72
M15
G01X88.04Y-140.72
M16
G05
G00X101.76Y-137.78
M15
G01X101.76Y-138.78
M16
G05
G00X101.76Y-140.32
M15
G01X101.76Y-141.32
M16
G05
G00X104.3Y-137.78
M15
G01X104.3Y-138.78
M16
G05
G00X104.3Y-140.32
M15
G01X104.3Y-141.32
M16
G05
G00X106.84Y-137.78
M15
G01X106.84Y-138.78
M16
G05
G00X106.84Y-140.32
M15
G01X106.84Y-141.32
M16
G05
T4
G00X45.887Y-80.92
M15
G01X45.887Y-82.92
M16
G05
G00X51.587Y-78.92
M15
G01X49.587Y-78.92
M16
G05
G00X51.587Y-84.92
M15
G01X49.587Y-84.92
M16
G05
T0
M30
