%TF.GenerationSoftware,KiCad,Pcbnew,7.0.6*%
%TF.CreationDate,2023-12-12T17:12:19+00:00*%
%TF.ProjectId,BlankingRelay_Base,426c616e-6b69-46e6-9752-656c61795f42,rev?*%
%TF.SameCoordinates,Original*%
%TF.FileFunction,Legend,Top*%
%TF.FilePolarity,Positive*%
%FSLAX46Y46*%
G04 Gerber Fmt 4.6, Leading zero omitted, Abs format (unit mm)*
G04 Created by KiCad (PCBNEW 7.0.6) date 2023-12-12 17:12:19*
%MOMM*%
%LPD*%
G01*
G04 APERTURE LIST*
%ADD10C,0.150000*%
%ADD11C,0.120000*%
G04 APERTURE END LIST*
D10*
X67761905Y-128750057D02*
X67809524Y-128702438D01*
X67809524Y-128702438D02*
X67904762Y-128654819D01*
X67904762Y-128654819D02*
X68142857Y-128654819D01*
X68142857Y-128654819D02*
X68238095Y-128702438D01*
X68238095Y-128702438D02*
X68285714Y-128750057D01*
X68285714Y-128750057D02*
X68333333Y-128845295D01*
X68333333Y-128845295D02*
X68333333Y-128940533D01*
X68333333Y-128940533D02*
X68285714Y-129083390D01*
X68285714Y-129083390D02*
X67714286Y-129654819D01*
X67714286Y-129654819D02*
X68333333Y-129654819D01*
X68714286Y-128750057D02*
X68761905Y-128702438D01*
X68761905Y-128702438D02*
X68857143Y-128654819D01*
X68857143Y-128654819D02*
X69095238Y-128654819D01*
X69095238Y-128654819D02*
X69190476Y-128702438D01*
X69190476Y-128702438D02*
X69238095Y-128750057D01*
X69238095Y-128750057D02*
X69285714Y-128845295D01*
X69285714Y-128845295D02*
X69285714Y-128940533D01*
X69285714Y-128940533D02*
X69238095Y-129083390D01*
X69238095Y-129083390D02*
X68666667Y-129654819D01*
X68666667Y-129654819D02*
X69285714Y-129654819D01*
X69904762Y-128654819D02*
X70000000Y-128654819D01*
X70000000Y-128654819D02*
X70095238Y-128702438D01*
X70095238Y-128702438D02*
X70142857Y-128750057D01*
X70142857Y-128750057D02*
X70190476Y-128845295D01*
X70190476Y-128845295D02*
X70238095Y-129035771D01*
X70238095Y-129035771D02*
X70238095Y-129273866D01*
X70238095Y-129273866D02*
X70190476Y-129464342D01*
X70190476Y-129464342D02*
X70142857Y-129559580D01*
X70142857Y-129559580D02*
X70095238Y-129607200D01*
X70095238Y-129607200D02*
X70000000Y-129654819D01*
X70000000Y-129654819D02*
X69904762Y-129654819D01*
X69904762Y-129654819D02*
X69809524Y-129607200D01*
X69809524Y-129607200D02*
X69761905Y-129559580D01*
X69761905Y-129559580D02*
X69714286Y-129464342D01*
X69714286Y-129464342D02*
X69666667Y-129273866D01*
X69666667Y-129273866D02*
X69666667Y-129035771D01*
X69666667Y-129035771D02*
X69714286Y-128845295D01*
X69714286Y-128845295D02*
X69761905Y-128750057D01*
X69761905Y-128750057D02*
X69809524Y-128702438D01*
X69809524Y-128702438D02*
X69904762Y-128654819D01*
X72061905Y-149254819D02*
X72061905Y-148254819D01*
X72061905Y-148254819D02*
X72300000Y-148254819D01*
X72300000Y-148254819D02*
X72442857Y-148302438D01*
X72442857Y-148302438D02*
X72538095Y-148397676D01*
X72538095Y-148397676D02*
X72585714Y-148492914D01*
X72585714Y-148492914D02*
X72633333Y-148683390D01*
X72633333Y-148683390D02*
X72633333Y-148826247D01*
X72633333Y-148826247D02*
X72585714Y-149016723D01*
X72585714Y-149016723D02*
X72538095Y-149111961D01*
X72538095Y-149111961D02*
X72442857Y-149207200D01*
X72442857Y-149207200D02*
X72300000Y-149254819D01*
X72300000Y-149254819D02*
X72061905Y-149254819D01*
X73014286Y-148350057D02*
X73061905Y-148302438D01*
X73061905Y-148302438D02*
X73157143Y-148254819D01*
X73157143Y-148254819D02*
X73395238Y-148254819D01*
X73395238Y-148254819D02*
X73490476Y-148302438D01*
X73490476Y-148302438D02*
X73538095Y-148350057D01*
X73538095Y-148350057D02*
X73585714Y-148445295D01*
X73585714Y-148445295D02*
X73585714Y-148540533D01*
X73585714Y-148540533D02*
X73538095Y-148683390D01*
X73538095Y-148683390D02*
X72966667Y-149254819D01*
X72966667Y-149254819D02*
X73585714Y-149254819D01*
X61070286Y-93234819D02*
X61689333Y-93234819D01*
X61689333Y-93234819D02*
X61356000Y-93615771D01*
X61356000Y-93615771D02*
X61498857Y-93615771D01*
X61498857Y-93615771D02*
X61594095Y-93663390D01*
X61594095Y-93663390D02*
X61641714Y-93711009D01*
X61641714Y-93711009D02*
X61689333Y-93806247D01*
X61689333Y-93806247D02*
X61689333Y-94044342D01*
X61689333Y-94044342D02*
X61641714Y-94139580D01*
X61641714Y-94139580D02*
X61594095Y-94187200D01*
X61594095Y-94187200D02*
X61498857Y-94234819D01*
X61498857Y-94234819D02*
X61213143Y-94234819D01*
X61213143Y-94234819D02*
X61117905Y-94187200D01*
X61117905Y-94187200D02*
X61070286Y-94139580D01*
X62022667Y-93234819D02*
X62641714Y-93234819D01*
X62641714Y-93234819D02*
X62308381Y-93615771D01*
X62308381Y-93615771D02*
X62451238Y-93615771D01*
X62451238Y-93615771D02*
X62546476Y-93663390D01*
X62546476Y-93663390D02*
X62594095Y-93711009D01*
X62594095Y-93711009D02*
X62641714Y-93806247D01*
X62641714Y-93806247D02*
X62641714Y-94044342D01*
X62641714Y-94044342D02*
X62594095Y-94139580D01*
X62594095Y-94139580D02*
X62546476Y-94187200D01*
X62546476Y-94187200D02*
X62451238Y-94234819D01*
X62451238Y-94234819D02*
X62165524Y-94234819D01*
X62165524Y-94234819D02*
X62070286Y-94187200D01*
X62070286Y-94187200D02*
X62022667Y-94139580D01*
X63260762Y-93234819D02*
X63356000Y-93234819D01*
X63356000Y-93234819D02*
X63451238Y-93282438D01*
X63451238Y-93282438D02*
X63498857Y-93330057D01*
X63498857Y-93330057D02*
X63546476Y-93425295D01*
X63546476Y-93425295D02*
X63594095Y-93615771D01*
X63594095Y-93615771D02*
X63594095Y-93853866D01*
X63594095Y-93853866D02*
X63546476Y-94044342D01*
X63546476Y-94044342D02*
X63498857Y-94139580D01*
X63498857Y-94139580D02*
X63451238Y-94187200D01*
X63451238Y-94187200D02*
X63356000Y-94234819D01*
X63356000Y-94234819D02*
X63260762Y-94234819D01*
X63260762Y-94234819D02*
X63165524Y-94187200D01*
X63165524Y-94187200D02*
X63117905Y-94139580D01*
X63117905Y-94139580D02*
X63070286Y-94044342D01*
X63070286Y-94044342D02*
X63022667Y-93853866D01*
X63022667Y-93853866D02*
X63022667Y-93615771D01*
X63022667Y-93615771D02*
X63070286Y-93425295D01*
X63070286Y-93425295D02*
X63117905Y-93330057D01*
X63117905Y-93330057D02*
X63165524Y-93282438D01*
X63165524Y-93282438D02*
X63260762Y-93234819D01*
X120238095Y-141254819D02*
X120238095Y-140254819D01*
X120238095Y-140731009D02*
X120809523Y-140731009D01*
X120809523Y-141254819D02*
X120809523Y-140254819D01*
X121714285Y-140588152D02*
X121714285Y-141254819D01*
X121476190Y-140207200D02*
X121238095Y-140921485D01*
X121238095Y-140921485D02*
X121857142Y-140921485D01*
X59775714Y-90580799D02*
X59918571Y-90628418D01*
X59918571Y-90628418D02*
X59966190Y-90676037D01*
X59966190Y-90676037D02*
X60013809Y-90771275D01*
X60013809Y-90771275D02*
X60013809Y-90914132D01*
X60013809Y-90914132D02*
X59966190Y-91009370D01*
X59966190Y-91009370D02*
X59918571Y-91056990D01*
X59918571Y-91056990D02*
X59823333Y-91104609D01*
X59823333Y-91104609D02*
X59442381Y-91104609D01*
X59442381Y-91104609D02*
X59442381Y-90104609D01*
X59442381Y-90104609D02*
X59775714Y-90104609D01*
X59775714Y-90104609D02*
X59870952Y-90152228D01*
X59870952Y-90152228D02*
X59918571Y-90199847D01*
X59918571Y-90199847D02*
X59966190Y-90295085D01*
X59966190Y-90295085D02*
X59966190Y-90390323D01*
X59966190Y-90390323D02*
X59918571Y-90485561D01*
X59918571Y-90485561D02*
X59870952Y-90533180D01*
X59870952Y-90533180D02*
X59775714Y-90580799D01*
X59775714Y-90580799D02*
X59442381Y-90580799D01*
X60585238Y-91104609D02*
X60490000Y-91056990D01*
X60490000Y-91056990D02*
X60442381Y-90961751D01*
X60442381Y-90961751D02*
X60442381Y-90104609D01*
X61394762Y-91104609D02*
X61394762Y-90580799D01*
X61394762Y-90580799D02*
X61347143Y-90485561D01*
X61347143Y-90485561D02*
X61251905Y-90437942D01*
X61251905Y-90437942D02*
X61061429Y-90437942D01*
X61061429Y-90437942D02*
X60966191Y-90485561D01*
X61394762Y-91056990D02*
X61299524Y-91104609D01*
X61299524Y-91104609D02*
X61061429Y-91104609D01*
X61061429Y-91104609D02*
X60966191Y-91056990D01*
X60966191Y-91056990D02*
X60918572Y-90961751D01*
X60918572Y-90961751D02*
X60918572Y-90866513D01*
X60918572Y-90866513D02*
X60966191Y-90771275D01*
X60966191Y-90771275D02*
X61061429Y-90723656D01*
X61061429Y-90723656D02*
X61299524Y-90723656D01*
X61299524Y-90723656D02*
X61394762Y-90676037D01*
X61870953Y-90437942D02*
X61870953Y-91104609D01*
X61870953Y-90533180D02*
X61918572Y-90485561D01*
X61918572Y-90485561D02*
X62013810Y-90437942D01*
X62013810Y-90437942D02*
X62156667Y-90437942D01*
X62156667Y-90437942D02*
X62251905Y-90485561D01*
X62251905Y-90485561D02*
X62299524Y-90580799D01*
X62299524Y-90580799D02*
X62299524Y-91104609D01*
X62775715Y-91104609D02*
X62775715Y-90104609D01*
X62870953Y-90723656D02*
X63156667Y-91104609D01*
X63156667Y-90437942D02*
X62775715Y-90818894D01*
X63585239Y-91104609D02*
X63585239Y-90437942D01*
X63585239Y-90104609D02*
X63537620Y-90152228D01*
X63537620Y-90152228D02*
X63585239Y-90199847D01*
X63585239Y-90199847D02*
X63632858Y-90152228D01*
X63632858Y-90152228D02*
X63585239Y-90104609D01*
X63585239Y-90104609D02*
X63585239Y-90199847D01*
X64061429Y-90437942D02*
X64061429Y-91104609D01*
X64061429Y-90533180D02*
X64109048Y-90485561D01*
X64109048Y-90485561D02*
X64204286Y-90437942D01*
X64204286Y-90437942D02*
X64347143Y-90437942D01*
X64347143Y-90437942D02*
X64442381Y-90485561D01*
X64442381Y-90485561D02*
X64490000Y-90580799D01*
X64490000Y-90580799D02*
X64490000Y-91104609D01*
X65394762Y-90437942D02*
X65394762Y-91247466D01*
X65394762Y-91247466D02*
X65347143Y-91342704D01*
X65347143Y-91342704D02*
X65299524Y-91390323D01*
X65299524Y-91390323D02*
X65204286Y-91437942D01*
X65204286Y-91437942D02*
X65061429Y-91437942D01*
X65061429Y-91437942D02*
X64966191Y-91390323D01*
X65394762Y-91056990D02*
X65299524Y-91104609D01*
X65299524Y-91104609D02*
X65109048Y-91104609D01*
X65109048Y-91104609D02*
X65013810Y-91056990D01*
X65013810Y-91056990D02*
X64966191Y-91009370D01*
X64966191Y-91009370D02*
X64918572Y-90914132D01*
X64918572Y-90914132D02*
X64918572Y-90628418D01*
X64918572Y-90628418D02*
X64966191Y-90533180D01*
X64966191Y-90533180D02*
X65013810Y-90485561D01*
X65013810Y-90485561D02*
X65109048Y-90437942D01*
X65109048Y-90437942D02*
X65299524Y-90437942D01*
X65299524Y-90437942D02*
X65394762Y-90485561D01*
X66632858Y-91104609D02*
X66632858Y-90104609D01*
X67109048Y-90437942D02*
X67109048Y-91104609D01*
X67109048Y-90533180D02*
X67156667Y-90485561D01*
X67156667Y-90485561D02*
X67251905Y-90437942D01*
X67251905Y-90437942D02*
X67394762Y-90437942D01*
X67394762Y-90437942D02*
X67490000Y-90485561D01*
X67490000Y-90485561D02*
X67537619Y-90580799D01*
X67537619Y-90580799D02*
X67537619Y-91104609D01*
X120238095Y-77254819D02*
X120238095Y-76254819D01*
X120238095Y-76731009D02*
X120809523Y-76731009D01*
X120809523Y-77254819D02*
X120809523Y-76254819D01*
X121190476Y-76254819D02*
X121809523Y-76254819D01*
X121809523Y-76254819D02*
X121476190Y-76635771D01*
X121476190Y-76635771D02*
X121619047Y-76635771D01*
X121619047Y-76635771D02*
X121714285Y-76683390D01*
X121714285Y-76683390D02*
X121761904Y-76731009D01*
X121761904Y-76731009D02*
X121809523Y-76826247D01*
X121809523Y-76826247D02*
X121809523Y-77064342D01*
X121809523Y-77064342D02*
X121761904Y-77159580D01*
X121761904Y-77159580D02*
X121714285Y-77207200D01*
X121714285Y-77207200D02*
X121619047Y-77254819D01*
X121619047Y-77254819D02*
X121333333Y-77254819D01*
X121333333Y-77254819D02*
X121238095Y-77207200D01*
X121238095Y-77207200D02*
X121190476Y-77159580D01*
X34238095Y-141254819D02*
X34238095Y-140254819D01*
X34238095Y-140731009D02*
X34809523Y-140731009D01*
X34809523Y-141254819D02*
X34809523Y-140254819D01*
X35809523Y-141254819D02*
X35238095Y-141254819D01*
X35523809Y-141254819D02*
X35523809Y-140254819D01*
X35523809Y-140254819D02*
X35428571Y-140397676D01*
X35428571Y-140397676D02*
X35333333Y-140492914D01*
X35333333Y-140492914D02*
X35238095Y-140540533D01*
X64116667Y-135557200D02*
X64259524Y-135604819D01*
X64259524Y-135604819D02*
X64497619Y-135604819D01*
X64497619Y-135604819D02*
X64592857Y-135557200D01*
X64592857Y-135557200D02*
X64640476Y-135509580D01*
X64640476Y-135509580D02*
X64688095Y-135414342D01*
X64688095Y-135414342D02*
X64688095Y-135319104D01*
X64688095Y-135319104D02*
X64640476Y-135223866D01*
X64640476Y-135223866D02*
X64592857Y-135176247D01*
X64592857Y-135176247D02*
X64497619Y-135128628D01*
X64497619Y-135128628D02*
X64307143Y-135081009D01*
X64307143Y-135081009D02*
X64211905Y-135033390D01*
X64211905Y-135033390D02*
X64164286Y-134985771D01*
X64164286Y-134985771D02*
X64116667Y-134890533D01*
X64116667Y-134890533D02*
X64116667Y-134795295D01*
X64116667Y-134795295D02*
X64164286Y-134700057D01*
X64164286Y-134700057D02*
X64211905Y-134652438D01*
X64211905Y-134652438D02*
X64307143Y-134604819D01*
X64307143Y-134604819D02*
X64545238Y-134604819D01*
X64545238Y-134604819D02*
X64688095Y-134652438D01*
X65021429Y-134604819D02*
X65259524Y-135604819D01*
X65259524Y-135604819D02*
X65450000Y-134890533D01*
X65450000Y-134890533D02*
X65640476Y-135604819D01*
X65640476Y-135604819D02*
X65878572Y-134604819D01*
X66211905Y-134700057D02*
X66259524Y-134652438D01*
X66259524Y-134652438D02*
X66354762Y-134604819D01*
X66354762Y-134604819D02*
X66592857Y-134604819D01*
X66592857Y-134604819D02*
X66688095Y-134652438D01*
X66688095Y-134652438D02*
X66735714Y-134700057D01*
X66735714Y-134700057D02*
X66783333Y-134795295D01*
X66783333Y-134795295D02*
X66783333Y-134890533D01*
X66783333Y-134890533D02*
X66735714Y-135033390D01*
X66735714Y-135033390D02*
X66164286Y-135604819D01*
X66164286Y-135604819D02*
X66783333Y-135604819D01*
X103016667Y-136557200D02*
X103159524Y-136604819D01*
X103159524Y-136604819D02*
X103397619Y-136604819D01*
X103397619Y-136604819D02*
X103492857Y-136557200D01*
X103492857Y-136557200D02*
X103540476Y-136509580D01*
X103540476Y-136509580D02*
X103588095Y-136414342D01*
X103588095Y-136414342D02*
X103588095Y-136319104D01*
X103588095Y-136319104D02*
X103540476Y-136223866D01*
X103540476Y-136223866D02*
X103492857Y-136176247D01*
X103492857Y-136176247D02*
X103397619Y-136128628D01*
X103397619Y-136128628D02*
X103207143Y-136081009D01*
X103207143Y-136081009D02*
X103111905Y-136033390D01*
X103111905Y-136033390D02*
X103064286Y-135985771D01*
X103064286Y-135985771D02*
X103016667Y-135890533D01*
X103016667Y-135890533D02*
X103016667Y-135795295D01*
X103016667Y-135795295D02*
X103064286Y-135700057D01*
X103064286Y-135700057D02*
X103111905Y-135652438D01*
X103111905Y-135652438D02*
X103207143Y-135604819D01*
X103207143Y-135604819D02*
X103445238Y-135604819D01*
X103445238Y-135604819D02*
X103588095Y-135652438D01*
X103921429Y-135604819D02*
X104159524Y-136604819D01*
X104159524Y-136604819D02*
X104350000Y-135890533D01*
X104350000Y-135890533D02*
X104540476Y-136604819D01*
X104540476Y-136604819D02*
X104778572Y-135604819D01*
X105588095Y-135938152D02*
X105588095Y-136604819D01*
X105350000Y-135557200D02*
X105111905Y-136271485D01*
X105111905Y-136271485D02*
X105730952Y-136271485D01*
X62180952Y-98804819D02*
X61609524Y-98804819D01*
X61895238Y-98804819D02*
X61895238Y-97804819D01*
X61895238Y-97804819D02*
X61800000Y-97947676D01*
X61800000Y-97947676D02*
X61704762Y-98042914D01*
X61704762Y-98042914D02*
X61609524Y-98090533D01*
X62609524Y-98804819D02*
X62609524Y-97804819D01*
X62704762Y-98423866D02*
X62990476Y-98804819D01*
X62990476Y-98138152D02*
X62609524Y-98519104D01*
X84216667Y-135807200D02*
X84359524Y-135854819D01*
X84359524Y-135854819D02*
X84597619Y-135854819D01*
X84597619Y-135854819D02*
X84692857Y-135807200D01*
X84692857Y-135807200D02*
X84740476Y-135759580D01*
X84740476Y-135759580D02*
X84788095Y-135664342D01*
X84788095Y-135664342D02*
X84788095Y-135569104D01*
X84788095Y-135569104D02*
X84740476Y-135473866D01*
X84740476Y-135473866D02*
X84692857Y-135426247D01*
X84692857Y-135426247D02*
X84597619Y-135378628D01*
X84597619Y-135378628D02*
X84407143Y-135331009D01*
X84407143Y-135331009D02*
X84311905Y-135283390D01*
X84311905Y-135283390D02*
X84264286Y-135235771D01*
X84264286Y-135235771D02*
X84216667Y-135140533D01*
X84216667Y-135140533D02*
X84216667Y-135045295D01*
X84216667Y-135045295D02*
X84264286Y-134950057D01*
X84264286Y-134950057D02*
X84311905Y-134902438D01*
X84311905Y-134902438D02*
X84407143Y-134854819D01*
X84407143Y-134854819D02*
X84645238Y-134854819D01*
X84645238Y-134854819D02*
X84788095Y-134902438D01*
X85121429Y-134854819D02*
X85359524Y-135854819D01*
X85359524Y-135854819D02*
X85550000Y-135140533D01*
X85550000Y-135140533D02*
X85740476Y-135854819D01*
X85740476Y-135854819D02*
X85978572Y-134854819D01*
X86264286Y-134854819D02*
X86883333Y-134854819D01*
X86883333Y-134854819D02*
X86550000Y-135235771D01*
X86550000Y-135235771D02*
X86692857Y-135235771D01*
X86692857Y-135235771D02*
X86788095Y-135283390D01*
X86788095Y-135283390D02*
X86835714Y-135331009D01*
X86835714Y-135331009D02*
X86883333Y-135426247D01*
X86883333Y-135426247D02*
X86883333Y-135664342D01*
X86883333Y-135664342D02*
X86835714Y-135759580D01*
X86835714Y-135759580D02*
X86788095Y-135807200D01*
X86788095Y-135807200D02*
X86692857Y-135854819D01*
X86692857Y-135854819D02*
X86407143Y-135854819D01*
X86407143Y-135854819D02*
X86311905Y-135807200D01*
X86311905Y-135807200D02*
X86264286Y-135759580D01*
X83516666Y-105004819D02*
X83516666Y-105719104D01*
X83516666Y-105719104D02*
X83469047Y-105861961D01*
X83469047Y-105861961D02*
X83373809Y-105957200D01*
X83373809Y-105957200D02*
X83230952Y-106004819D01*
X83230952Y-106004819D02*
X83135714Y-106004819D01*
X84421428Y-105004819D02*
X84230952Y-105004819D01*
X84230952Y-105004819D02*
X84135714Y-105052438D01*
X84135714Y-105052438D02*
X84088095Y-105100057D01*
X84088095Y-105100057D02*
X83992857Y-105242914D01*
X83992857Y-105242914D02*
X83945238Y-105433390D01*
X83945238Y-105433390D02*
X83945238Y-105814342D01*
X83945238Y-105814342D02*
X83992857Y-105909580D01*
X83992857Y-105909580D02*
X84040476Y-105957200D01*
X84040476Y-105957200D02*
X84135714Y-106004819D01*
X84135714Y-106004819D02*
X84326190Y-106004819D01*
X84326190Y-106004819D02*
X84421428Y-105957200D01*
X84421428Y-105957200D02*
X84469047Y-105909580D01*
X84469047Y-105909580D02*
X84516666Y-105814342D01*
X84516666Y-105814342D02*
X84516666Y-105576247D01*
X84516666Y-105576247D02*
X84469047Y-105481009D01*
X84469047Y-105481009D02*
X84421428Y-105433390D01*
X84421428Y-105433390D02*
X84326190Y-105385771D01*
X84326190Y-105385771D02*
X84135714Y-105385771D01*
X84135714Y-105385771D02*
X84040476Y-105433390D01*
X84040476Y-105433390D02*
X83992857Y-105481009D01*
X83992857Y-105481009D02*
X83945238Y-105576247D01*
X106681905Y-128950057D02*
X106729524Y-128902438D01*
X106729524Y-128902438D02*
X106824762Y-128854819D01*
X106824762Y-128854819D02*
X107062857Y-128854819D01*
X107062857Y-128854819D02*
X107158095Y-128902438D01*
X107158095Y-128902438D02*
X107205714Y-128950057D01*
X107205714Y-128950057D02*
X107253333Y-129045295D01*
X107253333Y-129045295D02*
X107253333Y-129140533D01*
X107253333Y-129140533D02*
X107205714Y-129283390D01*
X107205714Y-129283390D02*
X106634286Y-129854819D01*
X106634286Y-129854819D02*
X107253333Y-129854819D01*
X107634286Y-128950057D02*
X107681905Y-128902438D01*
X107681905Y-128902438D02*
X107777143Y-128854819D01*
X107777143Y-128854819D02*
X108015238Y-128854819D01*
X108015238Y-128854819D02*
X108110476Y-128902438D01*
X108110476Y-128902438D02*
X108158095Y-128950057D01*
X108158095Y-128950057D02*
X108205714Y-129045295D01*
X108205714Y-129045295D02*
X108205714Y-129140533D01*
X108205714Y-129140533D02*
X108158095Y-129283390D01*
X108158095Y-129283390D02*
X107586667Y-129854819D01*
X107586667Y-129854819D02*
X108205714Y-129854819D01*
X108824762Y-128854819D02*
X108920000Y-128854819D01*
X108920000Y-128854819D02*
X109015238Y-128902438D01*
X109015238Y-128902438D02*
X109062857Y-128950057D01*
X109062857Y-128950057D02*
X109110476Y-129045295D01*
X109110476Y-129045295D02*
X109158095Y-129235771D01*
X109158095Y-129235771D02*
X109158095Y-129473866D01*
X109158095Y-129473866D02*
X109110476Y-129664342D01*
X109110476Y-129664342D02*
X109062857Y-129759580D01*
X109062857Y-129759580D02*
X109015238Y-129807200D01*
X109015238Y-129807200D02*
X108920000Y-129854819D01*
X108920000Y-129854819D02*
X108824762Y-129854819D01*
X108824762Y-129854819D02*
X108729524Y-129807200D01*
X108729524Y-129807200D02*
X108681905Y-129759580D01*
X108681905Y-129759580D02*
X108634286Y-129664342D01*
X108634286Y-129664342D02*
X108586667Y-129473866D01*
X108586667Y-129473866D02*
X108586667Y-129235771D01*
X108586667Y-129235771D02*
X108634286Y-129045295D01*
X108634286Y-129045295D02*
X108681905Y-128950057D01*
X108681905Y-128950057D02*
X108729524Y-128902438D01*
X108729524Y-128902438D02*
X108824762Y-128854819D01*
X69847143Y-121784819D02*
X70513809Y-121784819D01*
X70513809Y-121784819D02*
X70085238Y-122784819D01*
X71323333Y-122118152D02*
X71323333Y-122784819D01*
X71085238Y-121737200D02*
X70847143Y-122451485D01*
X70847143Y-122451485D02*
X71466190Y-122451485D01*
X72323333Y-122784819D02*
X71847143Y-122784819D01*
X71847143Y-122784819D02*
X71847143Y-121784819D01*
X72609048Y-122737200D02*
X72751905Y-122784819D01*
X72751905Y-122784819D02*
X72990000Y-122784819D01*
X72990000Y-122784819D02*
X73085238Y-122737200D01*
X73085238Y-122737200D02*
X73132857Y-122689580D01*
X73132857Y-122689580D02*
X73180476Y-122594342D01*
X73180476Y-122594342D02*
X73180476Y-122499104D01*
X73180476Y-122499104D02*
X73132857Y-122403866D01*
X73132857Y-122403866D02*
X73085238Y-122356247D01*
X73085238Y-122356247D02*
X72990000Y-122308628D01*
X72990000Y-122308628D02*
X72799524Y-122261009D01*
X72799524Y-122261009D02*
X72704286Y-122213390D01*
X72704286Y-122213390D02*
X72656667Y-122165771D01*
X72656667Y-122165771D02*
X72609048Y-122070533D01*
X72609048Y-122070533D02*
X72609048Y-121975295D01*
X72609048Y-121975295D02*
X72656667Y-121880057D01*
X72656667Y-121880057D02*
X72704286Y-121832438D01*
X72704286Y-121832438D02*
X72799524Y-121784819D01*
X72799524Y-121784819D02*
X73037619Y-121784819D01*
X73037619Y-121784819D02*
X73180476Y-121832438D01*
X73799524Y-121784819D02*
X73894762Y-121784819D01*
X73894762Y-121784819D02*
X73990000Y-121832438D01*
X73990000Y-121832438D02*
X74037619Y-121880057D01*
X74037619Y-121880057D02*
X74085238Y-121975295D01*
X74085238Y-121975295D02*
X74132857Y-122165771D01*
X74132857Y-122165771D02*
X74132857Y-122403866D01*
X74132857Y-122403866D02*
X74085238Y-122594342D01*
X74085238Y-122594342D02*
X74037619Y-122689580D01*
X74037619Y-122689580D02*
X73990000Y-122737200D01*
X73990000Y-122737200D02*
X73894762Y-122784819D01*
X73894762Y-122784819D02*
X73799524Y-122784819D01*
X73799524Y-122784819D02*
X73704286Y-122737200D01*
X73704286Y-122737200D02*
X73656667Y-122689580D01*
X73656667Y-122689580D02*
X73609048Y-122594342D01*
X73609048Y-122594342D02*
X73561429Y-122403866D01*
X73561429Y-122403866D02*
X73561429Y-122165771D01*
X73561429Y-122165771D02*
X73609048Y-121975295D01*
X73609048Y-121975295D02*
X73656667Y-121880057D01*
X73656667Y-121880057D02*
X73704286Y-121832438D01*
X73704286Y-121832438D02*
X73799524Y-121784819D01*
X74704286Y-122213390D02*
X74609048Y-122165771D01*
X74609048Y-122165771D02*
X74561429Y-122118152D01*
X74561429Y-122118152D02*
X74513810Y-122022914D01*
X74513810Y-122022914D02*
X74513810Y-121975295D01*
X74513810Y-121975295D02*
X74561429Y-121880057D01*
X74561429Y-121880057D02*
X74609048Y-121832438D01*
X74609048Y-121832438D02*
X74704286Y-121784819D01*
X74704286Y-121784819D02*
X74894762Y-121784819D01*
X74894762Y-121784819D02*
X74990000Y-121832438D01*
X74990000Y-121832438D02*
X75037619Y-121880057D01*
X75037619Y-121880057D02*
X75085238Y-121975295D01*
X75085238Y-121975295D02*
X75085238Y-122022914D01*
X75085238Y-122022914D02*
X75037619Y-122118152D01*
X75037619Y-122118152D02*
X74990000Y-122165771D01*
X74990000Y-122165771D02*
X74894762Y-122213390D01*
X74894762Y-122213390D02*
X74704286Y-122213390D01*
X74704286Y-122213390D02*
X74609048Y-122261009D01*
X74609048Y-122261009D02*
X74561429Y-122308628D01*
X74561429Y-122308628D02*
X74513810Y-122403866D01*
X74513810Y-122403866D02*
X74513810Y-122594342D01*
X74513810Y-122594342D02*
X74561429Y-122689580D01*
X74561429Y-122689580D02*
X74609048Y-122737200D01*
X74609048Y-122737200D02*
X74704286Y-122784819D01*
X74704286Y-122784819D02*
X74894762Y-122784819D01*
X74894762Y-122784819D02*
X74990000Y-122737200D01*
X74990000Y-122737200D02*
X75037619Y-122689580D01*
X75037619Y-122689580D02*
X75085238Y-122594342D01*
X75085238Y-122594342D02*
X75085238Y-122403866D01*
X75085238Y-122403866D02*
X75037619Y-122308628D01*
X75037619Y-122308628D02*
X74990000Y-122261009D01*
X74990000Y-122261009D02*
X74894762Y-122213390D01*
X87861905Y-129000057D02*
X87909524Y-128952438D01*
X87909524Y-128952438D02*
X88004762Y-128904819D01*
X88004762Y-128904819D02*
X88242857Y-128904819D01*
X88242857Y-128904819D02*
X88338095Y-128952438D01*
X88338095Y-128952438D02*
X88385714Y-129000057D01*
X88385714Y-129000057D02*
X88433333Y-129095295D01*
X88433333Y-129095295D02*
X88433333Y-129190533D01*
X88433333Y-129190533D02*
X88385714Y-129333390D01*
X88385714Y-129333390D02*
X87814286Y-129904819D01*
X87814286Y-129904819D02*
X88433333Y-129904819D01*
X88814286Y-129000057D02*
X88861905Y-128952438D01*
X88861905Y-128952438D02*
X88957143Y-128904819D01*
X88957143Y-128904819D02*
X89195238Y-128904819D01*
X89195238Y-128904819D02*
X89290476Y-128952438D01*
X89290476Y-128952438D02*
X89338095Y-129000057D01*
X89338095Y-129000057D02*
X89385714Y-129095295D01*
X89385714Y-129095295D02*
X89385714Y-129190533D01*
X89385714Y-129190533D02*
X89338095Y-129333390D01*
X89338095Y-129333390D02*
X88766667Y-129904819D01*
X88766667Y-129904819D02*
X89385714Y-129904819D01*
X90004762Y-128904819D02*
X90100000Y-128904819D01*
X90100000Y-128904819D02*
X90195238Y-128952438D01*
X90195238Y-128952438D02*
X90242857Y-129000057D01*
X90242857Y-129000057D02*
X90290476Y-129095295D01*
X90290476Y-129095295D02*
X90338095Y-129285771D01*
X90338095Y-129285771D02*
X90338095Y-129523866D01*
X90338095Y-129523866D02*
X90290476Y-129714342D01*
X90290476Y-129714342D02*
X90242857Y-129809580D01*
X90242857Y-129809580D02*
X90195238Y-129857200D01*
X90195238Y-129857200D02*
X90100000Y-129904819D01*
X90100000Y-129904819D02*
X90004762Y-129904819D01*
X90004762Y-129904819D02*
X89909524Y-129857200D01*
X89909524Y-129857200D02*
X89861905Y-129809580D01*
X89861905Y-129809580D02*
X89814286Y-129714342D01*
X89814286Y-129714342D02*
X89766667Y-129523866D01*
X89766667Y-129523866D02*
X89766667Y-129285771D01*
X89766667Y-129285771D02*
X89814286Y-129095295D01*
X89814286Y-129095295D02*
X89861905Y-129000057D01*
X89861905Y-129000057D02*
X89909524Y-128952438D01*
X89909524Y-128952438D02*
X90004762Y-128904819D01*
X53661905Y-149154819D02*
X53661905Y-148154819D01*
X53661905Y-148154819D02*
X53900000Y-148154819D01*
X53900000Y-148154819D02*
X54042857Y-148202438D01*
X54042857Y-148202438D02*
X54138095Y-148297676D01*
X54138095Y-148297676D02*
X54185714Y-148392914D01*
X54185714Y-148392914D02*
X54233333Y-148583390D01*
X54233333Y-148583390D02*
X54233333Y-148726247D01*
X54233333Y-148726247D02*
X54185714Y-148916723D01*
X54185714Y-148916723D02*
X54138095Y-149011961D01*
X54138095Y-149011961D02*
X54042857Y-149107200D01*
X54042857Y-149107200D02*
X53900000Y-149154819D01*
X53900000Y-149154819D02*
X53661905Y-149154819D01*
X55185714Y-149154819D02*
X54614286Y-149154819D01*
X54900000Y-149154819D02*
X54900000Y-148154819D01*
X54900000Y-148154819D02*
X54804762Y-148297676D01*
X54804762Y-148297676D02*
X54709524Y-148392914D01*
X54709524Y-148392914D02*
X54614286Y-148440533D01*
X46266667Y-135357200D02*
X46409524Y-135404819D01*
X46409524Y-135404819D02*
X46647619Y-135404819D01*
X46647619Y-135404819D02*
X46742857Y-135357200D01*
X46742857Y-135357200D02*
X46790476Y-135309580D01*
X46790476Y-135309580D02*
X46838095Y-135214342D01*
X46838095Y-135214342D02*
X46838095Y-135119104D01*
X46838095Y-135119104D02*
X46790476Y-135023866D01*
X46790476Y-135023866D02*
X46742857Y-134976247D01*
X46742857Y-134976247D02*
X46647619Y-134928628D01*
X46647619Y-134928628D02*
X46457143Y-134881009D01*
X46457143Y-134881009D02*
X46361905Y-134833390D01*
X46361905Y-134833390D02*
X46314286Y-134785771D01*
X46314286Y-134785771D02*
X46266667Y-134690533D01*
X46266667Y-134690533D02*
X46266667Y-134595295D01*
X46266667Y-134595295D02*
X46314286Y-134500057D01*
X46314286Y-134500057D02*
X46361905Y-134452438D01*
X46361905Y-134452438D02*
X46457143Y-134404819D01*
X46457143Y-134404819D02*
X46695238Y-134404819D01*
X46695238Y-134404819D02*
X46838095Y-134452438D01*
X47171429Y-134404819D02*
X47409524Y-135404819D01*
X47409524Y-135404819D02*
X47600000Y-134690533D01*
X47600000Y-134690533D02*
X47790476Y-135404819D01*
X47790476Y-135404819D02*
X48028572Y-134404819D01*
X48933333Y-135404819D02*
X48361905Y-135404819D01*
X48647619Y-135404819D02*
X48647619Y-134404819D01*
X48647619Y-134404819D02*
X48552381Y-134547676D01*
X48552381Y-134547676D02*
X48457143Y-134642914D01*
X48457143Y-134642914D02*
X48361905Y-134690533D01*
X38566666Y-91479819D02*
X38566666Y-92194104D01*
X38566666Y-92194104D02*
X38519047Y-92336961D01*
X38519047Y-92336961D02*
X38423809Y-92432200D01*
X38423809Y-92432200D02*
X38280952Y-92479819D01*
X38280952Y-92479819D02*
X38185714Y-92479819D01*
X38947619Y-91479819D02*
X39614285Y-91479819D01*
X39614285Y-91479819D02*
X39185714Y-92479819D01*
X50649403Y-86981009D02*
X50792260Y-87028628D01*
X50792260Y-87028628D02*
X50839879Y-87076247D01*
X50839879Y-87076247D02*
X50887498Y-87171485D01*
X50887498Y-87171485D02*
X50887498Y-87314342D01*
X50887498Y-87314342D02*
X50839879Y-87409580D01*
X50839879Y-87409580D02*
X50792260Y-87457200D01*
X50792260Y-87457200D02*
X50697022Y-87504819D01*
X50697022Y-87504819D02*
X50316070Y-87504819D01*
X50316070Y-87504819D02*
X50316070Y-86504819D01*
X50316070Y-86504819D02*
X50649403Y-86504819D01*
X50649403Y-86504819D02*
X50744641Y-86552438D01*
X50744641Y-86552438D02*
X50792260Y-86600057D01*
X50792260Y-86600057D02*
X50839879Y-86695295D01*
X50839879Y-86695295D02*
X50839879Y-86790533D01*
X50839879Y-86790533D02*
X50792260Y-86885771D01*
X50792260Y-86885771D02*
X50744641Y-86933390D01*
X50744641Y-86933390D02*
X50649403Y-86981009D01*
X50649403Y-86981009D02*
X50316070Y-86981009D01*
X51744641Y-87504819D02*
X51744641Y-86981009D01*
X51744641Y-86981009D02*
X51697022Y-86885771D01*
X51697022Y-86885771D02*
X51601784Y-86838152D01*
X51601784Y-86838152D02*
X51411308Y-86838152D01*
X51411308Y-86838152D02*
X51316070Y-86885771D01*
X51744641Y-87457200D02*
X51649403Y-87504819D01*
X51649403Y-87504819D02*
X51411308Y-87504819D01*
X51411308Y-87504819D02*
X51316070Y-87457200D01*
X51316070Y-87457200D02*
X51268451Y-87361961D01*
X51268451Y-87361961D02*
X51268451Y-87266723D01*
X51268451Y-87266723D02*
X51316070Y-87171485D01*
X51316070Y-87171485D02*
X51411308Y-87123866D01*
X51411308Y-87123866D02*
X51649403Y-87123866D01*
X51649403Y-87123866D02*
X51744641Y-87076247D01*
X52220832Y-87504819D02*
X52220832Y-86838152D01*
X52220832Y-87028628D02*
X52268451Y-86933390D01*
X52268451Y-86933390D02*
X52316070Y-86885771D01*
X52316070Y-86885771D02*
X52411308Y-86838152D01*
X52411308Y-86838152D02*
X52506546Y-86838152D01*
X52839880Y-87504819D02*
X52839880Y-86838152D01*
X52839880Y-87028628D02*
X52887499Y-86933390D01*
X52887499Y-86933390D02*
X52935118Y-86885771D01*
X52935118Y-86885771D02*
X53030356Y-86838152D01*
X53030356Y-86838152D02*
X53125594Y-86838152D01*
X53839880Y-87457200D02*
X53744642Y-87504819D01*
X53744642Y-87504819D02*
X53554166Y-87504819D01*
X53554166Y-87504819D02*
X53458928Y-87457200D01*
X53458928Y-87457200D02*
X53411309Y-87361961D01*
X53411309Y-87361961D02*
X53411309Y-86981009D01*
X53411309Y-86981009D02*
X53458928Y-86885771D01*
X53458928Y-86885771D02*
X53554166Y-86838152D01*
X53554166Y-86838152D02*
X53744642Y-86838152D01*
X53744642Y-86838152D02*
X53839880Y-86885771D01*
X53839880Y-86885771D02*
X53887499Y-86981009D01*
X53887499Y-86981009D02*
X53887499Y-87076247D01*
X53887499Y-87076247D02*
X53411309Y-87171485D01*
X54458928Y-87504819D02*
X54363690Y-87457200D01*
X54363690Y-87457200D02*
X54316071Y-87361961D01*
X54316071Y-87361961D02*
X54316071Y-86504819D01*
X54601786Y-87600057D02*
X55363690Y-87600057D01*
X55887500Y-86504819D02*
X55887500Y-87219104D01*
X55887500Y-87219104D02*
X55839881Y-87361961D01*
X55839881Y-87361961D02*
X55744643Y-87457200D01*
X55744643Y-87457200D02*
X55601786Y-87504819D01*
X55601786Y-87504819D02*
X55506548Y-87504819D01*
X56792262Y-87504819D02*
X56792262Y-86981009D01*
X56792262Y-86981009D02*
X56744643Y-86885771D01*
X56744643Y-86885771D02*
X56649405Y-86838152D01*
X56649405Y-86838152D02*
X56458929Y-86838152D01*
X56458929Y-86838152D02*
X56363691Y-86885771D01*
X56792262Y-87457200D02*
X56697024Y-87504819D01*
X56697024Y-87504819D02*
X56458929Y-87504819D01*
X56458929Y-87504819D02*
X56363691Y-87457200D01*
X56363691Y-87457200D02*
X56316072Y-87361961D01*
X56316072Y-87361961D02*
X56316072Y-87266723D01*
X56316072Y-87266723D02*
X56363691Y-87171485D01*
X56363691Y-87171485D02*
X56458929Y-87123866D01*
X56458929Y-87123866D02*
X56697024Y-87123866D01*
X56697024Y-87123866D02*
X56792262Y-87076247D01*
X57697024Y-87457200D02*
X57601786Y-87504819D01*
X57601786Y-87504819D02*
X57411310Y-87504819D01*
X57411310Y-87504819D02*
X57316072Y-87457200D01*
X57316072Y-87457200D02*
X57268453Y-87409580D01*
X57268453Y-87409580D02*
X57220834Y-87314342D01*
X57220834Y-87314342D02*
X57220834Y-87028628D01*
X57220834Y-87028628D02*
X57268453Y-86933390D01*
X57268453Y-86933390D02*
X57316072Y-86885771D01*
X57316072Y-86885771D02*
X57411310Y-86838152D01*
X57411310Y-86838152D02*
X57601786Y-86838152D01*
X57601786Y-86838152D02*
X57697024Y-86885771D01*
X58125596Y-87504819D02*
X58125596Y-86504819D01*
X58220834Y-87123866D02*
X58506548Y-87504819D01*
X58506548Y-86838152D02*
X58125596Y-87219104D01*
X59416666Y-103304819D02*
X59416666Y-104019104D01*
X59416666Y-104019104D02*
X59369047Y-104161961D01*
X59369047Y-104161961D02*
X59273809Y-104257200D01*
X59273809Y-104257200D02*
X59130952Y-104304819D01*
X59130952Y-104304819D02*
X59035714Y-104304819D01*
X59797619Y-103304819D02*
X60416666Y-103304819D01*
X60416666Y-103304819D02*
X60083333Y-103685771D01*
X60083333Y-103685771D02*
X60226190Y-103685771D01*
X60226190Y-103685771D02*
X60321428Y-103733390D01*
X60321428Y-103733390D02*
X60369047Y-103781009D01*
X60369047Y-103781009D02*
X60416666Y-103876247D01*
X60416666Y-103876247D02*
X60416666Y-104114342D01*
X60416666Y-104114342D02*
X60369047Y-104209580D01*
X60369047Y-104209580D02*
X60321428Y-104257200D01*
X60321428Y-104257200D02*
X60226190Y-104304819D01*
X60226190Y-104304819D02*
X59940476Y-104304819D01*
X59940476Y-104304819D02*
X59845238Y-104257200D01*
X59845238Y-104257200D02*
X59797619Y-104209580D01*
X111071905Y-149154819D02*
X111071905Y-148154819D01*
X111071905Y-148154819D02*
X111310000Y-148154819D01*
X111310000Y-148154819D02*
X111452857Y-148202438D01*
X111452857Y-148202438D02*
X111548095Y-148297676D01*
X111548095Y-148297676D02*
X111595714Y-148392914D01*
X111595714Y-148392914D02*
X111643333Y-148583390D01*
X111643333Y-148583390D02*
X111643333Y-148726247D01*
X111643333Y-148726247D02*
X111595714Y-148916723D01*
X111595714Y-148916723D02*
X111548095Y-149011961D01*
X111548095Y-149011961D02*
X111452857Y-149107200D01*
X111452857Y-149107200D02*
X111310000Y-149154819D01*
X111310000Y-149154819D02*
X111071905Y-149154819D01*
X112500476Y-148488152D02*
X112500476Y-149154819D01*
X112262381Y-148107200D02*
X112024286Y-148821485D01*
X112024286Y-148821485D02*
X112643333Y-148821485D01*
X34238095Y-77254819D02*
X34238095Y-76254819D01*
X34238095Y-76731009D02*
X34809523Y-76731009D01*
X34809523Y-77254819D02*
X34809523Y-76254819D01*
X35238095Y-76350057D02*
X35285714Y-76302438D01*
X35285714Y-76302438D02*
X35380952Y-76254819D01*
X35380952Y-76254819D02*
X35619047Y-76254819D01*
X35619047Y-76254819D02*
X35714285Y-76302438D01*
X35714285Y-76302438D02*
X35761904Y-76350057D01*
X35761904Y-76350057D02*
X35809523Y-76445295D01*
X35809523Y-76445295D02*
X35809523Y-76540533D01*
X35809523Y-76540533D02*
X35761904Y-76683390D01*
X35761904Y-76683390D02*
X35190476Y-77254819D01*
X35190476Y-77254819D02*
X35809523Y-77254819D01*
X92271905Y-149254819D02*
X92271905Y-148254819D01*
X92271905Y-148254819D02*
X92510000Y-148254819D01*
X92510000Y-148254819D02*
X92652857Y-148302438D01*
X92652857Y-148302438D02*
X92748095Y-148397676D01*
X92748095Y-148397676D02*
X92795714Y-148492914D01*
X92795714Y-148492914D02*
X92843333Y-148683390D01*
X92843333Y-148683390D02*
X92843333Y-148826247D01*
X92843333Y-148826247D02*
X92795714Y-149016723D01*
X92795714Y-149016723D02*
X92748095Y-149111961D01*
X92748095Y-149111961D02*
X92652857Y-149207200D01*
X92652857Y-149207200D02*
X92510000Y-149254819D01*
X92510000Y-149254819D02*
X92271905Y-149254819D01*
X93176667Y-148254819D02*
X93795714Y-148254819D01*
X93795714Y-148254819D02*
X93462381Y-148635771D01*
X93462381Y-148635771D02*
X93605238Y-148635771D01*
X93605238Y-148635771D02*
X93700476Y-148683390D01*
X93700476Y-148683390D02*
X93748095Y-148731009D01*
X93748095Y-148731009D02*
X93795714Y-148826247D01*
X93795714Y-148826247D02*
X93795714Y-149064342D01*
X93795714Y-149064342D02*
X93748095Y-149159580D01*
X93748095Y-149159580D02*
X93700476Y-149207200D01*
X93700476Y-149207200D02*
X93605238Y-149254819D01*
X93605238Y-149254819D02*
X93319524Y-149254819D01*
X93319524Y-149254819D02*
X93224286Y-149207200D01*
X93224286Y-149207200D02*
X93176667Y-149159580D01*
X59616666Y-115804819D02*
X59616666Y-116519104D01*
X59616666Y-116519104D02*
X59569047Y-116661961D01*
X59569047Y-116661961D02*
X59473809Y-116757200D01*
X59473809Y-116757200D02*
X59330952Y-116804819D01*
X59330952Y-116804819D02*
X59235714Y-116804819D01*
X60521428Y-116138152D02*
X60521428Y-116804819D01*
X60283333Y-115757200D02*
X60045238Y-116471485D01*
X60045238Y-116471485D02*
X60664285Y-116471485D01*
X51929819Y-100254762D02*
X51929819Y-100730952D01*
X51929819Y-100730952D02*
X50929819Y-100730952D01*
X51929819Y-99921428D02*
X50929819Y-99921428D01*
X50929819Y-99921428D02*
X51644104Y-99588095D01*
X51644104Y-99588095D02*
X50929819Y-99254762D01*
X50929819Y-99254762D02*
X51929819Y-99254762D01*
X50929819Y-98873809D02*
X50929819Y-98254762D01*
X50929819Y-98254762D02*
X51310771Y-98588095D01*
X51310771Y-98588095D02*
X51310771Y-98445238D01*
X51310771Y-98445238D02*
X51358390Y-98350000D01*
X51358390Y-98350000D02*
X51406009Y-98302381D01*
X51406009Y-98302381D02*
X51501247Y-98254762D01*
X51501247Y-98254762D02*
X51739342Y-98254762D01*
X51739342Y-98254762D02*
X51834580Y-98302381D01*
X51834580Y-98302381D02*
X51882200Y-98350000D01*
X51882200Y-98350000D02*
X51929819Y-98445238D01*
X51929819Y-98445238D02*
X51929819Y-98730952D01*
X51929819Y-98730952D02*
X51882200Y-98826190D01*
X51882200Y-98826190D02*
X51834580Y-98873809D01*
X50929819Y-97350000D02*
X50929819Y-97826190D01*
X50929819Y-97826190D02*
X51406009Y-97873809D01*
X51406009Y-97873809D02*
X51358390Y-97826190D01*
X51358390Y-97826190D02*
X51310771Y-97730952D01*
X51310771Y-97730952D02*
X51310771Y-97492857D01*
X51310771Y-97492857D02*
X51358390Y-97397619D01*
X51358390Y-97397619D02*
X51406009Y-97350000D01*
X51406009Y-97350000D02*
X51501247Y-97302381D01*
X51501247Y-97302381D02*
X51739342Y-97302381D01*
X51739342Y-97302381D02*
X51834580Y-97350000D01*
X51834580Y-97350000D02*
X51882200Y-97397619D01*
X51882200Y-97397619D02*
X51929819Y-97492857D01*
X51929819Y-97492857D02*
X51929819Y-97730952D01*
X51929819Y-97730952D02*
X51882200Y-97826190D01*
X51882200Y-97826190D02*
X51834580Y-97873809D01*
X50929819Y-96683333D02*
X50929819Y-96588095D01*
X50929819Y-96588095D02*
X50977438Y-96492857D01*
X50977438Y-96492857D02*
X51025057Y-96445238D01*
X51025057Y-96445238D02*
X51120295Y-96397619D01*
X51120295Y-96397619D02*
X51310771Y-96350000D01*
X51310771Y-96350000D02*
X51548866Y-96350000D01*
X51548866Y-96350000D02*
X51739342Y-96397619D01*
X51739342Y-96397619D02*
X51834580Y-96445238D01*
X51834580Y-96445238D02*
X51882200Y-96492857D01*
X51882200Y-96492857D02*
X51929819Y-96588095D01*
X51929819Y-96588095D02*
X51929819Y-96683333D01*
X51929819Y-96683333D02*
X51882200Y-96778571D01*
X51882200Y-96778571D02*
X51834580Y-96826190D01*
X51834580Y-96826190D02*
X51739342Y-96873809D01*
X51739342Y-96873809D02*
X51548866Y-96921428D01*
X51548866Y-96921428D02*
X51310771Y-96921428D01*
X51310771Y-96921428D02*
X51120295Y-96873809D01*
X51120295Y-96873809D02*
X51025057Y-96826190D01*
X51025057Y-96826190D02*
X50977438Y-96778571D01*
X50977438Y-96778571D02*
X50929819Y-96683333D01*
X52025057Y-96159524D02*
X52025057Y-95397619D01*
X50929819Y-95302380D02*
X50929819Y-94730952D01*
X51929819Y-95016666D02*
X50929819Y-95016666D01*
X50929819Y-94207142D02*
X50929819Y-94016666D01*
X50929819Y-94016666D02*
X50977438Y-93921428D01*
X50977438Y-93921428D02*
X51072676Y-93826190D01*
X51072676Y-93826190D02*
X51263152Y-93778571D01*
X51263152Y-93778571D02*
X51596485Y-93778571D01*
X51596485Y-93778571D02*
X51786961Y-93826190D01*
X51786961Y-93826190D02*
X51882200Y-93921428D01*
X51882200Y-93921428D02*
X51929819Y-94016666D01*
X51929819Y-94016666D02*
X51929819Y-94207142D01*
X51929819Y-94207142D02*
X51882200Y-94302380D01*
X51882200Y-94302380D02*
X51786961Y-94397618D01*
X51786961Y-94397618D02*
X51596485Y-94445237D01*
X51596485Y-94445237D02*
X51263152Y-94445237D01*
X51263152Y-94445237D02*
X51072676Y-94397618D01*
X51072676Y-94397618D02*
X50977438Y-94302380D01*
X50977438Y-94302380D02*
X50929819Y-94207142D01*
X51025057Y-93397618D02*
X50977438Y-93349999D01*
X50977438Y-93349999D02*
X50929819Y-93254761D01*
X50929819Y-93254761D02*
X50929819Y-93016666D01*
X50929819Y-93016666D02*
X50977438Y-92921428D01*
X50977438Y-92921428D02*
X51025057Y-92873809D01*
X51025057Y-92873809D02*
X51120295Y-92826190D01*
X51120295Y-92826190D02*
X51215533Y-92826190D01*
X51215533Y-92826190D02*
X51358390Y-92873809D01*
X51358390Y-92873809D02*
X51929819Y-93445237D01*
X51929819Y-93445237D02*
X51929819Y-92826190D01*
X51025057Y-92445237D02*
X50977438Y-92397618D01*
X50977438Y-92397618D02*
X50929819Y-92302380D01*
X50929819Y-92302380D02*
X50929819Y-92064285D01*
X50929819Y-92064285D02*
X50977438Y-91969047D01*
X50977438Y-91969047D02*
X51025057Y-91921428D01*
X51025057Y-91921428D02*
X51120295Y-91873809D01*
X51120295Y-91873809D02*
X51215533Y-91873809D01*
X51215533Y-91873809D02*
X51358390Y-91921428D01*
X51358390Y-91921428D02*
X51929819Y-92492856D01*
X51929819Y-92492856D02*
X51929819Y-91873809D01*
X50929819Y-91254761D02*
X50929819Y-91159523D01*
X50929819Y-91159523D02*
X50977438Y-91064285D01*
X50977438Y-91064285D02*
X51025057Y-91016666D01*
X51025057Y-91016666D02*
X51120295Y-90969047D01*
X51120295Y-90969047D02*
X51310771Y-90921428D01*
X51310771Y-90921428D02*
X51548866Y-90921428D01*
X51548866Y-90921428D02*
X51739342Y-90969047D01*
X51739342Y-90969047D02*
X51834580Y-91016666D01*
X51834580Y-91016666D02*
X51882200Y-91064285D01*
X51882200Y-91064285D02*
X51929819Y-91159523D01*
X51929819Y-91159523D02*
X51929819Y-91254761D01*
X51929819Y-91254761D02*
X51882200Y-91349999D01*
X51882200Y-91349999D02*
X51834580Y-91397618D01*
X51834580Y-91397618D02*
X51739342Y-91445237D01*
X51739342Y-91445237D02*
X51548866Y-91492856D01*
X51548866Y-91492856D02*
X51310771Y-91492856D01*
X51310771Y-91492856D02*
X51120295Y-91445237D01*
X51120295Y-91445237D02*
X51025057Y-91397618D01*
X51025057Y-91397618D02*
X50977438Y-91349999D01*
X50977438Y-91349999D02*
X50929819Y-91254761D01*
X83416666Y-115904819D02*
X83416666Y-116619104D01*
X83416666Y-116619104D02*
X83369047Y-116761961D01*
X83369047Y-116761961D02*
X83273809Y-116857200D01*
X83273809Y-116857200D02*
X83130952Y-116904819D01*
X83130952Y-116904819D02*
X83035714Y-116904819D01*
X84369047Y-115904819D02*
X83892857Y-115904819D01*
X83892857Y-115904819D02*
X83845238Y-116381009D01*
X83845238Y-116381009D02*
X83892857Y-116333390D01*
X83892857Y-116333390D02*
X83988095Y-116285771D01*
X83988095Y-116285771D02*
X84226190Y-116285771D01*
X84226190Y-116285771D02*
X84321428Y-116333390D01*
X84321428Y-116333390D02*
X84369047Y-116381009D01*
X84369047Y-116381009D02*
X84416666Y-116476247D01*
X84416666Y-116476247D02*
X84416666Y-116714342D01*
X84416666Y-116714342D02*
X84369047Y-116809580D01*
X84369047Y-116809580D02*
X84321428Y-116857200D01*
X84321428Y-116857200D02*
X84226190Y-116904819D01*
X84226190Y-116904819D02*
X83988095Y-116904819D01*
X83988095Y-116904819D02*
X83892857Y-116857200D01*
X83892857Y-116857200D02*
X83845238Y-116809580D01*
X49661905Y-128700057D02*
X49709524Y-128652438D01*
X49709524Y-128652438D02*
X49804762Y-128604819D01*
X49804762Y-128604819D02*
X50042857Y-128604819D01*
X50042857Y-128604819D02*
X50138095Y-128652438D01*
X50138095Y-128652438D02*
X50185714Y-128700057D01*
X50185714Y-128700057D02*
X50233333Y-128795295D01*
X50233333Y-128795295D02*
X50233333Y-128890533D01*
X50233333Y-128890533D02*
X50185714Y-129033390D01*
X50185714Y-129033390D02*
X49614286Y-129604819D01*
X49614286Y-129604819D02*
X50233333Y-129604819D01*
X50614286Y-128700057D02*
X50661905Y-128652438D01*
X50661905Y-128652438D02*
X50757143Y-128604819D01*
X50757143Y-128604819D02*
X50995238Y-128604819D01*
X50995238Y-128604819D02*
X51090476Y-128652438D01*
X51090476Y-128652438D02*
X51138095Y-128700057D01*
X51138095Y-128700057D02*
X51185714Y-128795295D01*
X51185714Y-128795295D02*
X51185714Y-128890533D01*
X51185714Y-128890533D02*
X51138095Y-129033390D01*
X51138095Y-129033390D02*
X50566667Y-129604819D01*
X50566667Y-129604819D02*
X51185714Y-129604819D01*
X51804762Y-128604819D02*
X51900000Y-128604819D01*
X51900000Y-128604819D02*
X51995238Y-128652438D01*
X51995238Y-128652438D02*
X52042857Y-128700057D01*
X52042857Y-128700057D02*
X52090476Y-128795295D01*
X52090476Y-128795295D02*
X52138095Y-128985771D01*
X52138095Y-128985771D02*
X52138095Y-129223866D01*
X52138095Y-129223866D02*
X52090476Y-129414342D01*
X52090476Y-129414342D02*
X52042857Y-129509580D01*
X52042857Y-129509580D02*
X51995238Y-129557200D01*
X51995238Y-129557200D02*
X51900000Y-129604819D01*
X51900000Y-129604819D02*
X51804762Y-129604819D01*
X51804762Y-129604819D02*
X51709524Y-129557200D01*
X51709524Y-129557200D02*
X51661905Y-129509580D01*
X51661905Y-129509580D02*
X51614286Y-129414342D01*
X51614286Y-129414342D02*
X51566667Y-129223866D01*
X51566667Y-129223866D02*
X51566667Y-128985771D01*
X51566667Y-128985771D02*
X51614286Y-128795295D01*
X51614286Y-128795295D02*
X51661905Y-128700057D01*
X51661905Y-128700057D02*
X51709524Y-128652438D01*
X51709524Y-128652438D02*
X51804762Y-128604819D01*
D11*
%TO.C,R2*%
X62440000Y-129200000D02*
X64400000Y-129200000D01*
X64400000Y-127480000D02*
X64400000Y-130920000D01*
X64400000Y-130920000D02*
X73640000Y-130920000D01*
X73640000Y-127480000D02*
X64400000Y-127480000D01*
X73640000Y-130920000D02*
X73640000Y-127480000D01*
X75600000Y-129200000D02*
X73640000Y-129200000D01*
%TO.C,D2*%
X71210000Y-144364000D02*
X71210000Y-144520000D01*
X71210000Y-146680000D02*
X71210000Y-146836000D01*
X74442334Y-144521392D02*
G75*
G03*
X71210001Y-144364485I-1672334J-1078608D01*
G01*
X73811129Y-144520164D02*
G75*
G03*
X71729040Y-144520001I-1041129J-1079836D01*
G01*
X71729040Y-146679999D02*
G75*
G03*
X73811129Y-146679836I1040960J1079999D01*
G01*
X71210001Y-146835515D02*
G75*
G03*
X74442334Y-146678608I1559999J1235515D01*
G01*
%TO.C,R99*%
X55726000Y-93780000D02*
X57686000Y-93780000D01*
X57686000Y-92060000D02*
X57686000Y-95500000D01*
X57686000Y-95500000D02*
X66926000Y-95500000D01*
X66926000Y-92060000D02*
X57686000Y-92060000D01*
X66926000Y-95500000D02*
X66926000Y-92060000D01*
X68886000Y-93780000D02*
X66926000Y-93780000D01*
D10*
%TO.C,J2*%
X55559660Y-74878890D02*
X55559660Y-89280690D01*
X55559660Y-89280690D02*
X71160340Y-89280690D01*
X57860900Y-67380810D02*
X57860900Y-74878890D01*
X57860900Y-70278950D02*
X68859100Y-69478850D01*
X57860900Y-71079050D02*
X68859100Y-70278950D01*
X57860900Y-71879150D02*
X68859100Y-71079050D01*
X57860900Y-72679250D02*
X68859100Y-71879150D01*
X57860900Y-73479350D02*
X68859100Y-72679250D01*
X57860900Y-74279450D02*
X68859100Y-73479350D01*
X58559400Y-55379310D02*
X58559400Y-67380810D01*
X68160600Y-55379310D02*
X58559400Y-55379310D01*
X68160600Y-67380810D02*
X68160600Y-55379310D01*
X68859100Y-67380810D02*
X57860900Y-67380810D01*
X68859100Y-74878890D02*
X68859100Y-67380810D01*
X71160340Y-74878890D02*
X55559660Y-74878890D01*
X71160340Y-89280690D02*
X71160340Y-74878890D01*
X64360760Y-59379810D02*
G75*
G03*
X64360760Y-59379810I-1000760J0D01*
G01*
%TO.C,SW2*%
X61275000Y-141200000D02*
X61275000Y-149200000D01*
X61275000Y-141200000D02*
X69525000Y-141200000D01*
X61275000Y-149205000D02*
X69525000Y-149205000D01*
X62860000Y-138400000D02*
X62860000Y-139100000D01*
X62860000Y-140950000D02*
X62860000Y-141200000D01*
X65400000Y-138400000D02*
X65400000Y-139100000D01*
X65400000Y-140950000D02*
X65400000Y-141200000D01*
X67940000Y-138400000D02*
X67940000Y-139100000D01*
X67940000Y-141200000D02*
X67940000Y-140950000D01*
X69525000Y-141200000D02*
X69525000Y-149200000D01*
%TO.C,SW4*%
X100175000Y-142000000D02*
X100175000Y-150000000D01*
X100175000Y-142000000D02*
X108425000Y-142000000D01*
X100175000Y-150005000D02*
X108425000Y-150005000D01*
X101760000Y-139200000D02*
X101760000Y-139900000D01*
X101760000Y-141750000D02*
X101760000Y-142000000D01*
X104300000Y-139200000D02*
X104300000Y-139900000D01*
X104300000Y-141750000D02*
X104300000Y-142000000D01*
X106840000Y-139200000D02*
X106840000Y-139900000D01*
X106840000Y-142000000D02*
X106840000Y-141750000D01*
X108425000Y-142000000D02*
X108425000Y-150000000D01*
D11*
%TO.C,R98*%
X55700000Y-98420000D02*
X57660000Y-98420000D01*
X57660000Y-96700000D02*
X57660000Y-100140000D01*
X57660000Y-100140000D02*
X66900000Y-100140000D01*
X66900000Y-96700000D02*
X57660000Y-96700000D01*
X66900000Y-100140000D02*
X66900000Y-96700000D01*
X68860000Y-98420000D02*
X66900000Y-98420000D01*
D10*
%TO.C,SW3*%
X81375000Y-141400000D02*
X81375000Y-149400000D01*
X81375000Y-141400000D02*
X89625000Y-141400000D01*
X81375000Y-149405000D02*
X89625000Y-149405000D01*
X82960000Y-138600000D02*
X82960000Y-139300000D01*
X82960000Y-141150000D02*
X82960000Y-141400000D01*
X85500000Y-138600000D02*
X85500000Y-139300000D01*
X85500000Y-141150000D02*
X85500000Y-141400000D01*
X88040000Y-138600000D02*
X88040000Y-139300000D01*
X88040000Y-141400000D02*
X88040000Y-141150000D01*
X89625000Y-141400000D02*
X89625000Y-149400000D01*
D11*
%TO.C,J6*%
X87660000Y-112610000D02*
X87660000Y-106640000D01*
X87660000Y-106640000D02*
X80040000Y-106640000D01*
X87650000Y-108900000D02*
X86900000Y-108900000D01*
X87650000Y-107400000D02*
X87650000Y-106650000D01*
X87650000Y-106650000D02*
X85850000Y-106650000D01*
X86900000Y-111850000D02*
X83850000Y-111850000D01*
X86900000Y-108900000D02*
X86900000Y-111850000D01*
X85850000Y-107400000D02*
X87650000Y-107400000D01*
X85850000Y-106650000D02*
X85850000Y-107400000D01*
X84350000Y-107400000D02*
X84350000Y-106650000D01*
X84350000Y-106650000D02*
X83350000Y-106650000D01*
X83350000Y-107400000D02*
X84350000Y-107400000D01*
X83350000Y-106650000D02*
X83350000Y-107400000D01*
X81850000Y-107400000D02*
X81850000Y-106650000D01*
X81850000Y-106650000D02*
X80050000Y-106650000D01*
X81000000Y-106350000D02*
X79750000Y-106350000D01*
X80800000Y-111850000D02*
X83850000Y-111850000D01*
X80800000Y-108900000D02*
X80800000Y-111850000D01*
X80050000Y-108900000D02*
X80800000Y-108900000D01*
X80050000Y-107400000D02*
X81850000Y-107400000D01*
X80050000Y-106650000D02*
X80050000Y-107400000D01*
X80040000Y-112610000D02*
X87660000Y-112610000D01*
X80040000Y-106640000D02*
X80040000Y-112610000D01*
X79750000Y-106350000D02*
X79750000Y-107600000D01*
%TO.C,R4*%
X101340000Y-129400000D02*
X103300000Y-129400000D01*
X103300000Y-127680000D02*
X103300000Y-131120000D01*
X103300000Y-131120000D02*
X112540000Y-131120000D01*
X112540000Y-127680000D02*
X103300000Y-127680000D01*
X112540000Y-131120000D02*
X112540000Y-127680000D01*
X114500000Y-129400000D02*
X112540000Y-129400000D01*
%TO.C,U1*%
X70240000Y-103430000D02*
X70240000Y-121330000D01*
X70240000Y-121330000D02*
X74740000Y-121330000D01*
X71490000Y-103430000D02*
X70240000Y-103430000D01*
X74740000Y-103430000D02*
X73490000Y-103430000D01*
X74740000Y-121330000D02*
X74740000Y-103430000D01*
X71490000Y-103430000D02*
G75*
G03*
X73490000Y-103430000I1000000J0D01*
G01*
%TO.C,R3*%
X82540000Y-129400000D02*
X84500000Y-129400000D01*
X84500000Y-127680000D02*
X84500000Y-131120000D01*
X84500000Y-131120000D02*
X93740000Y-131120000D01*
X93740000Y-127680000D02*
X84500000Y-127680000D01*
X93740000Y-131120000D02*
X93740000Y-127680000D01*
X95700000Y-129400000D02*
X93740000Y-129400000D01*
%TO.C,D1*%
X52910000Y-144364000D02*
X52910000Y-144520000D01*
X52910000Y-146680000D02*
X52910000Y-146836000D01*
X56142334Y-144521392D02*
G75*
G03*
X52910001Y-144364485I-1672334J-1078608D01*
G01*
X55511129Y-144520164D02*
G75*
G03*
X53429040Y-144520001I-1041129J-1079836D01*
G01*
X53429040Y-146679999D02*
G75*
G03*
X55511129Y-146679836I1040960J1079999D01*
G01*
X52910001Y-146835515D02*
G75*
G03*
X56142334Y-146678608I1559999J1235515D01*
G01*
D10*
%TO.C,SW1*%
X43175000Y-141100000D02*
X43175000Y-149100000D01*
X43175000Y-141100000D02*
X51425000Y-141100000D01*
X43175000Y-149105000D02*
X51425000Y-149105000D01*
X44760000Y-138300000D02*
X44760000Y-139000000D01*
X44760000Y-140850000D02*
X44760000Y-141100000D01*
X47300000Y-138300000D02*
X47300000Y-139000000D01*
X47300000Y-140850000D02*
X47300000Y-141100000D01*
X49840000Y-138300000D02*
X49840000Y-139000000D01*
X49840000Y-141100000D02*
X49840000Y-140850000D01*
X51425000Y-141100000D02*
X51425000Y-149100000D01*
D11*
%TO.C,J7*%
X34800000Y-92825000D02*
X34800000Y-94075000D01*
X35090000Y-93115000D02*
X35090000Y-99085000D01*
X35090000Y-99085000D02*
X42710000Y-99085000D01*
X35100000Y-93125000D02*
X35100000Y-93875000D01*
X35100000Y-93875000D02*
X36900000Y-93875000D01*
X35100000Y-95375000D02*
X35850000Y-95375000D01*
X35850000Y-95375000D02*
X35850000Y-98325000D01*
X35850000Y-98325000D02*
X38900000Y-98325000D01*
X36050000Y-92825000D02*
X34800000Y-92825000D01*
X36900000Y-93125000D02*
X35100000Y-93125000D01*
X36900000Y-93875000D02*
X36900000Y-93125000D01*
X38400000Y-93125000D02*
X38400000Y-93875000D01*
X38400000Y-93875000D02*
X39400000Y-93875000D01*
X39400000Y-93125000D02*
X38400000Y-93125000D01*
X39400000Y-93875000D02*
X39400000Y-93125000D01*
X40900000Y-93125000D02*
X40900000Y-93875000D01*
X40900000Y-93875000D02*
X42700000Y-93875000D01*
X41950000Y-95375000D02*
X41950000Y-98325000D01*
X41950000Y-98325000D02*
X38900000Y-98325000D01*
X42700000Y-93125000D02*
X40900000Y-93125000D01*
X42700000Y-93875000D02*
X42700000Y-93125000D01*
X42700000Y-95375000D02*
X41950000Y-95375000D01*
X42710000Y-93115000D02*
X35090000Y-93115000D01*
X42710000Y-99085000D02*
X42710000Y-93115000D01*
%TO.C,J1*%
X55187500Y-71120000D02*
X55187500Y-85820000D01*
X45987500Y-71120000D02*
X55187500Y-71120000D01*
X45987500Y-79920000D02*
X45987500Y-71120000D01*
X55387500Y-84970000D02*
X55387500Y-86020000D01*
X55187500Y-85820000D02*
X52587500Y-85820000D01*
X48687500Y-85820000D02*
X45987500Y-85820000D01*
X45987500Y-85820000D02*
X45987500Y-83920000D01*
X54337500Y-86020000D02*
X55387500Y-86020000D01*
%TO.C,J3*%
X55650000Y-104650000D02*
X55650000Y-105900000D01*
X55940000Y-104940000D02*
X55940000Y-110910000D01*
X55940000Y-110910000D02*
X63560000Y-110910000D01*
X55950000Y-104950000D02*
X55950000Y-105700000D01*
X55950000Y-105700000D02*
X57750000Y-105700000D01*
X55950000Y-107200000D02*
X56700000Y-107200000D01*
X56700000Y-107200000D02*
X56700000Y-110150000D01*
X56700000Y-110150000D02*
X59750000Y-110150000D01*
X56900000Y-104650000D02*
X55650000Y-104650000D01*
X57750000Y-104950000D02*
X55950000Y-104950000D01*
X57750000Y-105700000D02*
X57750000Y-104950000D01*
X59250000Y-104950000D02*
X59250000Y-105700000D01*
X59250000Y-105700000D02*
X60250000Y-105700000D01*
X60250000Y-104950000D02*
X59250000Y-104950000D01*
X60250000Y-105700000D02*
X60250000Y-104950000D01*
X61750000Y-104950000D02*
X61750000Y-105700000D01*
X61750000Y-105700000D02*
X63550000Y-105700000D01*
X62800000Y-107200000D02*
X62800000Y-110150000D01*
X62800000Y-110150000D02*
X59750000Y-110150000D01*
X63550000Y-104950000D02*
X61750000Y-104950000D01*
X63550000Y-105700000D02*
X63550000Y-104950000D01*
X63550000Y-107200000D02*
X62800000Y-107200000D01*
X63560000Y-104940000D02*
X55940000Y-104940000D01*
X63560000Y-110910000D02*
X63560000Y-104940000D01*
%TO.C,D4*%
X110170000Y-144364000D02*
X110170000Y-144520000D01*
X110170000Y-146680000D02*
X110170000Y-146836000D01*
X113402334Y-144521392D02*
G75*
G03*
X110170001Y-144364485I-1672334J-1078608D01*
G01*
X112771129Y-144520164D02*
G75*
G03*
X110689040Y-144520001I-1041129J-1079836D01*
G01*
X110689040Y-146679999D02*
G75*
G03*
X112771129Y-146679836I1040960J1079999D01*
G01*
X110170001Y-146835515D02*
G75*
G03*
X113402334Y-146678608I1559999J1235515D01*
G01*
%TO.C,D3*%
X91470000Y-144364000D02*
X91470000Y-144520000D01*
X91470000Y-146680000D02*
X91470000Y-146836000D01*
X94702334Y-144521392D02*
G75*
G03*
X91470001Y-144364485I-1672334J-1078608D01*
G01*
X94071129Y-144520164D02*
G75*
G03*
X91989040Y-144520001I-1041129J-1079836D01*
G01*
X91989040Y-146679999D02*
G75*
G03*
X94071129Y-146679836I1040960J1079999D01*
G01*
X91470001Y-146835515D02*
G75*
G03*
X94702334Y-146678608I1559999J1235515D01*
G01*
%TO.C,J4*%
X63760000Y-123410000D02*
X63760000Y-117440000D01*
X63760000Y-117440000D02*
X56140000Y-117440000D01*
X63750000Y-119700000D02*
X63000000Y-119700000D01*
X63750000Y-118200000D02*
X63750000Y-117450000D01*
X63750000Y-117450000D02*
X61950000Y-117450000D01*
X63000000Y-122650000D02*
X59950000Y-122650000D01*
X63000000Y-119700000D02*
X63000000Y-122650000D01*
X61950000Y-118200000D02*
X63750000Y-118200000D01*
X61950000Y-117450000D02*
X61950000Y-118200000D01*
X60450000Y-118200000D02*
X60450000Y-117450000D01*
X60450000Y-117450000D02*
X59450000Y-117450000D01*
X59450000Y-118200000D02*
X60450000Y-118200000D01*
X59450000Y-117450000D02*
X59450000Y-118200000D01*
X57950000Y-118200000D02*
X57950000Y-117450000D01*
X57950000Y-117450000D02*
X56150000Y-117450000D01*
X57100000Y-117150000D02*
X55850000Y-117150000D01*
X56900000Y-122650000D02*
X59950000Y-122650000D01*
X56900000Y-119700000D02*
X56900000Y-122650000D01*
X56150000Y-119700000D02*
X56900000Y-119700000D01*
X56150000Y-118200000D02*
X57950000Y-118200000D01*
X56150000Y-117450000D02*
X56150000Y-118200000D01*
X56140000Y-123410000D02*
X63760000Y-123410000D01*
X56140000Y-117440000D02*
X56140000Y-123410000D01*
X55850000Y-117150000D02*
X55850000Y-118400000D01*
%TO.C,U0*%
X45705000Y-100970000D02*
X50346000Y-100970000D01*
X45705000Y-100970000D02*
X45705000Y-90730000D01*
X47215000Y-100970000D02*
X47215000Y-90730000D01*
X50346000Y-100970000D02*
X50346000Y-90730000D01*
X45705000Y-97700000D02*
X47215000Y-97700000D01*
X45705000Y-93999000D02*
X47215000Y-93999000D01*
X45705000Y-90730000D02*
X50346000Y-90730000D01*
%TO.C,J5*%
X79650000Y-117250000D02*
X79650000Y-118500000D01*
X79940000Y-117540000D02*
X79940000Y-123510000D01*
X79940000Y-123510000D02*
X87560000Y-123510000D01*
X79950000Y-117550000D02*
X79950000Y-118300000D01*
X79950000Y-118300000D02*
X81750000Y-118300000D01*
X79950000Y-119800000D02*
X80700000Y-119800000D01*
X80700000Y-119800000D02*
X80700000Y-122750000D01*
X80700000Y-122750000D02*
X83750000Y-122750000D01*
X80900000Y-117250000D02*
X79650000Y-117250000D01*
X81750000Y-117550000D02*
X79950000Y-117550000D01*
X81750000Y-118300000D02*
X81750000Y-117550000D01*
X83250000Y-117550000D02*
X83250000Y-118300000D01*
X83250000Y-118300000D02*
X84250000Y-118300000D01*
X84250000Y-117550000D02*
X83250000Y-117550000D01*
X84250000Y-118300000D02*
X84250000Y-117550000D01*
X85750000Y-117550000D02*
X85750000Y-118300000D01*
X85750000Y-118300000D02*
X87550000Y-118300000D01*
X86800000Y-119800000D02*
X86800000Y-122750000D01*
X86800000Y-122750000D02*
X83750000Y-122750000D01*
X87550000Y-117550000D02*
X85750000Y-117550000D01*
X87550000Y-118300000D02*
X87550000Y-117550000D01*
X87550000Y-119800000D02*
X86800000Y-119800000D01*
X87560000Y-117540000D02*
X79940000Y-117540000D01*
X87560000Y-123510000D02*
X87560000Y-117540000D01*
%TO.C,R1*%
X44340000Y-129100000D02*
X46300000Y-129100000D01*
X46300000Y-127380000D02*
X46300000Y-130820000D01*
X46300000Y-130820000D02*
X55540000Y-130820000D01*
X55540000Y-127380000D02*
X46300000Y-127380000D01*
X55540000Y-130820000D02*
X55540000Y-127380000D01*
X57500000Y-129100000D02*
X55540000Y-129100000D01*
%TD*%
M02*
