%TF.GenerationSoftware,KiCad,Pcbnew,7.0.6*%
%TF.CreationDate,2023-12-12T17:12:19+00:00*%
%TF.ProjectId,BlankingRelay_Base,426c616e-6b69-46e6-9752-656c61795f42,rev?*%
%TF.SameCoordinates,Original*%
%TF.FileFunction,Other,User*%
%FSLAX46Y46*%
G04 Gerber Fmt 4.6, Leading zero omitted, Abs format (unit mm)*
G04 Created by KiCad (PCBNEW 7.0.6) date 2023-12-12 17:12:19*
%MOMM*%
%LPD*%
G01*
G04 APERTURE LIST*
%ADD10C,0.050000*%
%ADD11C,0.150000*%
G04 APERTURE END LIST*
D10*
%TO.C,R2*%
X60350000Y-127350000D02*
X60350000Y-131050000D01*
X60350000Y-131050000D02*
X77690000Y-131050000D01*
X77690000Y-127350000D02*
X60350000Y-127350000D01*
X77690000Y-131050000D02*
X77690000Y-127350000D01*
%TO.C,D2*%
X70350000Y-143350000D02*
X70350000Y-147850000D01*
X70350000Y-147850000D02*
X75200000Y-147850000D01*
X75200000Y-143350000D02*
X70350000Y-143350000D01*
X75200000Y-147850000D02*
X75200000Y-143350000D01*
%TO.C,R99*%
X53636000Y-91930000D02*
X53636000Y-95630000D01*
X53636000Y-95630000D02*
X70976000Y-95630000D01*
X70976000Y-91930000D02*
X53636000Y-91930000D01*
X70976000Y-95630000D02*
X70976000Y-91930000D01*
%TO.C,H4*%
X124450000Y-145000000D02*
G75*
G03*
X124450000Y-145000000I-3450000J0D01*
G01*
%TO.C,H3*%
X124450000Y-81000000D02*
G75*
G03*
X124450000Y-81000000I-3450000J0D01*
G01*
%TO.C,H1*%
X38450000Y-145000000D02*
G75*
G03*
X38450000Y-145000000I-3450000J0D01*
G01*
D11*
%TO.C,SW2*%
X61120000Y-136200000D02*
X61120000Y-149350000D01*
X61120000Y-136200000D02*
X69680000Y-136200000D01*
X61120000Y-141050000D02*
X69680000Y-141050000D01*
X61120000Y-149350000D02*
X69680000Y-149350000D01*
X63250000Y-149350000D02*
X63250000Y-155700000D01*
X63250000Y-155700000D02*
X67550000Y-155700000D01*
X67550000Y-149350000D02*
X67550000Y-155700000D01*
X69680000Y-136200000D02*
X69680000Y-149350000D01*
%TO.C,SW4*%
X100020000Y-137000000D02*
X100020000Y-150150000D01*
X100020000Y-137000000D02*
X108580000Y-137000000D01*
X100020000Y-141850000D02*
X108580000Y-141850000D01*
X100020000Y-150150000D02*
X108580000Y-150150000D01*
X102150000Y-150150000D02*
X102150000Y-156500000D01*
X102150000Y-156500000D02*
X106450000Y-156500000D01*
X106450000Y-150150000D02*
X106450000Y-156500000D01*
X108580000Y-137000000D02*
X108580000Y-150150000D01*
D10*
%TO.C,R98*%
X53610000Y-96570000D02*
X53610000Y-100270000D01*
X53610000Y-100270000D02*
X70950000Y-100270000D01*
X70950000Y-96570000D02*
X53610000Y-96570000D01*
X70950000Y-100270000D02*
X70950000Y-96570000D01*
D11*
%TO.C,SW3*%
X81220000Y-136400000D02*
X81220000Y-149550000D01*
X81220000Y-136400000D02*
X89780000Y-136400000D01*
X81220000Y-141250000D02*
X89780000Y-141250000D01*
X81220000Y-149550000D02*
X89780000Y-149550000D01*
X83350000Y-149550000D02*
X83350000Y-155900000D01*
X83350000Y-155900000D02*
X87650000Y-155900000D01*
X87650000Y-149550000D02*
X87650000Y-155900000D01*
X89780000Y-136400000D02*
X89780000Y-149550000D01*
D10*
%TO.C,J6*%
X88050000Y-113000000D02*
X88050000Y-106250000D01*
X88050000Y-106250000D02*
X79650000Y-106250000D01*
X79650000Y-113000000D02*
X88050000Y-113000000D01*
X79650000Y-106250000D02*
X79650000Y-113000000D01*
%TO.C,R4*%
X99250000Y-127550000D02*
X99250000Y-131250000D01*
X99250000Y-131250000D02*
X116590000Y-131250000D01*
X116590000Y-127550000D02*
X99250000Y-127550000D01*
X116590000Y-131250000D02*
X116590000Y-127550000D01*
%TO.C,U1*%
X67230000Y-103210000D02*
X67230000Y-121560000D01*
X67230000Y-121560000D02*
X77780000Y-121560000D01*
X77780000Y-103210000D02*
X67230000Y-103210000D01*
X77780000Y-121560000D02*
X77780000Y-103210000D01*
%TO.C,R3*%
X80450000Y-127550000D02*
X80450000Y-131250000D01*
X80450000Y-131250000D02*
X97790000Y-131250000D01*
X97790000Y-127550000D02*
X80450000Y-127550000D01*
X97790000Y-131250000D02*
X97790000Y-127550000D01*
%TO.C,D1*%
X52050000Y-143350000D02*
X52050000Y-147850000D01*
X52050000Y-147850000D02*
X56900000Y-147850000D01*
X56900000Y-143350000D02*
X52050000Y-143350000D01*
X56900000Y-147850000D02*
X56900000Y-143350000D01*
D11*
%TO.C,SW1*%
X43020000Y-136100000D02*
X43020000Y-149250000D01*
X43020000Y-136100000D02*
X51580000Y-136100000D01*
X43020000Y-140950000D02*
X51580000Y-140950000D01*
X43020000Y-149250000D02*
X51580000Y-149250000D01*
X45150000Y-149250000D02*
X45150000Y-155600000D01*
X45150000Y-155600000D02*
X49450000Y-155600000D01*
X49450000Y-149250000D02*
X49450000Y-155600000D01*
X51580000Y-136100000D02*
X51580000Y-149250000D01*
D10*
%TO.C,J7*%
X34700000Y-92725000D02*
X34700000Y-99475000D01*
X34700000Y-99475000D02*
X43100000Y-99475000D01*
X43100000Y-92725000D02*
X34700000Y-92725000D01*
X43100000Y-99475000D02*
X43100000Y-92725000D01*
%TO.C,J1*%
X45837500Y-70920000D02*
X55337500Y-70920000D01*
X45837500Y-79920000D02*
X45837500Y-70920000D01*
X43837500Y-79920000D02*
X45837500Y-79920000D01*
X45837500Y-83920000D02*
X43837500Y-83920000D01*
X43837500Y-83920000D02*
X43837500Y-79920000D01*
X55337500Y-85920000D02*
X55337500Y-70920000D01*
X55087500Y-85920000D02*
X55337500Y-85920000D01*
X55087500Y-85920000D02*
X52587500Y-85920000D01*
X52587500Y-85920000D02*
X52587500Y-86920000D01*
X48587500Y-85920000D02*
X45837500Y-85920000D01*
X45837500Y-85920000D02*
X45837500Y-83920000D01*
X52587500Y-86920000D02*
X48587500Y-86920000D01*
X48587500Y-86920000D02*
X48587500Y-85920000D01*
%TO.C,J3*%
X55550000Y-104550000D02*
X55550000Y-111300000D01*
X55550000Y-111300000D02*
X63950000Y-111300000D01*
X63950000Y-104550000D02*
X55550000Y-104550000D01*
X63950000Y-111300000D02*
X63950000Y-104550000D01*
%TO.C,D4*%
X109310000Y-143350000D02*
X109310000Y-147850000D01*
X109310000Y-147850000D02*
X114160000Y-147850000D01*
X114160000Y-143350000D02*
X109310000Y-143350000D01*
X114160000Y-147850000D02*
X114160000Y-143350000D01*
%TO.C,H2*%
X38450000Y-81000000D02*
G75*
G03*
X38450000Y-81000000I-3450000J0D01*
G01*
%TO.C,D3*%
X90610000Y-143350000D02*
X90610000Y-147850000D01*
X90610000Y-147850000D02*
X95460000Y-147850000D01*
X95460000Y-143350000D02*
X90610000Y-143350000D01*
X95460000Y-147850000D02*
X95460000Y-143350000D01*
%TO.C,J4*%
X64150000Y-123800000D02*
X64150000Y-117050000D01*
X64150000Y-117050000D02*
X55750000Y-117050000D01*
X55750000Y-123800000D02*
X64150000Y-123800000D01*
X55750000Y-117050000D02*
X55750000Y-123800000D01*
%TO.C,U0*%
X45575000Y-101100000D02*
X50485000Y-101100000D01*
X50485000Y-101100000D02*
X50485000Y-90600000D01*
X45575000Y-90600000D02*
X45575000Y-101100000D01*
X50485000Y-90600000D02*
X45575000Y-90600000D01*
%TO.C,J5*%
X79550000Y-117150000D02*
X79550000Y-123900000D01*
X79550000Y-123900000D02*
X87950000Y-123900000D01*
X87950000Y-117150000D02*
X79550000Y-117150000D01*
X87950000Y-123900000D02*
X87950000Y-117150000D01*
%TO.C,R1*%
X42250000Y-127250000D02*
X42250000Y-130950000D01*
X42250000Y-130950000D02*
X59590000Y-130950000D01*
X59590000Y-127250000D02*
X42250000Y-127250000D01*
X59590000Y-130950000D02*
X59590000Y-127250000D01*
%TD*%
M02*
