%TF.GenerationSoftware,KiCad,Pcbnew,7.0.6*%
%TF.CreationDate,2023-12-12T17:12:19+00:00*%
%TF.ProjectId,BlankingRelay_Base,426c616e-6b69-46e6-9752-656c61795f42,rev?*%
%TF.SameCoordinates,Original*%
%TF.FileFunction,Other,User*%
%FSLAX46Y46*%
G04 Gerber Fmt 4.6, Leading zero omitted, Abs format (unit mm)*
G04 Created by KiCad (PCBNEW 7.0.6) date 2023-12-12 17:12:19*
%MOMM*%
%LPD*%
G01*
G04 APERTURE LIST*
%ADD10C,0.150000*%
G04 APERTURE END LIST*
D10*
X145454819Y-118666665D02*
X145454819Y-117999999D01*
X145454819Y-117999999D02*
X146454819Y-118428570D01*
X145454819Y-117142856D02*
X145454819Y-117619046D01*
X145454819Y-117619046D02*
X145931009Y-117666665D01*
X145931009Y-117666665D02*
X145883390Y-117619046D01*
X145883390Y-117619046D02*
X145835771Y-117523808D01*
X145835771Y-117523808D02*
X145835771Y-117285713D01*
X145835771Y-117285713D02*
X145883390Y-117190475D01*
X145883390Y-117190475D02*
X145931009Y-117142856D01*
X145931009Y-117142856D02*
X146026247Y-117095237D01*
X146026247Y-117095237D02*
X146264342Y-117095237D01*
X146264342Y-117095237D02*
X146359580Y-117142856D01*
X146359580Y-117142856D02*
X146407200Y-117190475D01*
X146407200Y-117190475D02*
X146454819Y-117285713D01*
X146454819Y-117285713D02*
X146454819Y-117523808D01*
X146454819Y-117523808D02*
X146407200Y-117619046D01*
X146407200Y-117619046D02*
X146359580Y-117666665D01*
X146359580Y-116666665D02*
X146407200Y-116619046D01*
X146407200Y-116619046D02*
X146454819Y-116666665D01*
X146454819Y-116666665D02*
X146407200Y-116714284D01*
X146407200Y-116714284D02*
X146359580Y-116666665D01*
X146359580Y-116666665D02*
X146454819Y-116666665D01*
X145550057Y-116238094D02*
X145502438Y-116190475D01*
X145502438Y-116190475D02*
X145454819Y-116095237D01*
X145454819Y-116095237D02*
X145454819Y-115857142D01*
X145454819Y-115857142D02*
X145502438Y-115761904D01*
X145502438Y-115761904D02*
X145550057Y-115714285D01*
X145550057Y-115714285D02*
X145645295Y-115666666D01*
X145645295Y-115666666D02*
X145740533Y-115666666D01*
X145740533Y-115666666D02*
X145883390Y-115714285D01*
X145883390Y-115714285D02*
X146454819Y-116285713D01*
X146454819Y-116285713D02*
X146454819Y-115666666D01*
X145454819Y-115333332D02*
X145454819Y-114714285D01*
X145454819Y-114714285D02*
X145835771Y-115047618D01*
X145835771Y-115047618D02*
X145835771Y-114904761D01*
X145835771Y-114904761D02*
X145883390Y-114809523D01*
X145883390Y-114809523D02*
X145931009Y-114761904D01*
X145931009Y-114761904D02*
X146026247Y-114714285D01*
X146026247Y-114714285D02*
X146264342Y-114714285D01*
X146264342Y-114714285D02*
X146359580Y-114761904D01*
X146359580Y-114761904D02*
X146407200Y-114809523D01*
X146407200Y-114809523D02*
X146454819Y-114904761D01*
X146454819Y-114904761D02*
X146454819Y-115190475D01*
X146454819Y-115190475D02*
X146407200Y-115285713D01*
X146407200Y-115285713D02*
X146359580Y-115333332D01*
X145788152Y-113857142D02*
X146454819Y-113857142D01*
X145407200Y-114095237D02*
X146121485Y-114333332D01*
X146121485Y-114333332D02*
X146121485Y-113714285D01*
X145883390Y-113190475D02*
X145835771Y-113285713D01*
X145835771Y-113285713D02*
X145788152Y-113333332D01*
X145788152Y-113333332D02*
X145692914Y-113380951D01*
X145692914Y-113380951D02*
X145645295Y-113380951D01*
X145645295Y-113380951D02*
X145550057Y-113333332D01*
X145550057Y-113333332D02*
X145502438Y-113285713D01*
X145502438Y-113285713D02*
X145454819Y-113190475D01*
X145454819Y-113190475D02*
X145454819Y-112999999D01*
X145454819Y-112999999D02*
X145502438Y-112904761D01*
X145502438Y-112904761D02*
X145550057Y-112857142D01*
X145550057Y-112857142D02*
X145645295Y-112809523D01*
X145645295Y-112809523D02*
X145692914Y-112809523D01*
X145692914Y-112809523D02*
X145788152Y-112857142D01*
X145788152Y-112857142D02*
X145835771Y-112904761D01*
X145835771Y-112904761D02*
X145883390Y-112999999D01*
X145883390Y-112999999D02*
X145883390Y-113190475D01*
X145883390Y-113190475D02*
X145931009Y-113285713D01*
X145931009Y-113285713D02*
X145978628Y-113333332D01*
X145978628Y-113333332D02*
X146073866Y-113380951D01*
X146073866Y-113380951D02*
X146264342Y-113380951D01*
X146264342Y-113380951D02*
X146359580Y-113333332D01*
X146359580Y-113333332D02*
X146407200Y-113285713D01*
X146407200Y-113285713D02*
X146454819Y-113190475D01*
X146454819Y-113190475D02*
X146454819Y-112999999D01*
X146454819Y-112999999D02*
X146407200Y-112904761D01*
X146407200Y-112904761D02*
X146359580Y-112857142D01*
X146359580Y-112857142D02*
X146264342Y-112809523D01*
X146264342Y-112809523D02*
X146073866Y-112809523D01*
X146073866Y-112809523D02*
X145978628Y-112857142D01*
X145978628Y-112857142D02*
X145931009Y-112904761D01*
X145931009Y-112904761D02*
X145883390Y-112999999D01*
X146454819Y-111619046D02*
X145788152Y-111619046D01*
X145883390Y-111619046D02*
X145835771Y-111571427D01*
X145835771Y-111571427D02*
X145788152Y-111476189D01*
X145788152Y-111476189D02*
X145788152Y-111333332D01*
X145788152Y-111333332D02*
X145835771Y-111238094D01*
X145835771Y-111238094D02*
X145931009Y-111190475D01*
X145931009Y-111190475D02*
X146454819Y-111190475D01*
X145931009Y-111190475D02*
X145835771Y-111142856D01*
X145835771Y-111142856D02*
X145788152Y-111047618D01*
X145788152Y-111047618D02*
X145788152Y-110904761D01*
X145788152Y-110904761D02*
X145835771Y-110809522D01*
X145835771Y-110809522D02*
X145931009Y-110761903D01*
X145931009Y-110761903D02*
X146454819Y-110761903D01*
X146454819Y-110285713D02*
X145788152Y-110285713D01*
X145883390Y-110285713D02*
X145835771Y-110238094D01*
X145835771Y-110238094D02*
X145788152Y-110142856D01*
X145788152Y-110142856D02*
X145788152Y-109999999D01*
X145788152Y-109999999D02*
X145835771Y-109904761D01*
X145835771Y-109904761D02*
X145931009Y-109857142D01*
X145931009Y-109857142D02*
X146454819Y-109857142D01*
X145931009Y-109857142D02*
X145835771Y-109809523D01*
X145835771Y-109809523D02*
X145788152Y-109714285D01*
X145788152Y-109714285D02*
X145788152Y-109571428D01*
X145788152Y-109571428D02*
X145835771Y-109476189D01*
X145835771Y-109476189D02*
X145931009Y-109428570D01*
X145931009Y-109428570D02*
X146454819Y-109428570D01*
X127106000Y-74930000D02*
X144608340Y-74930000D01*
X127106000Y-150164800D02*
X144608340Y-150164800D01*
X144021920Y-74930000D02*
X144021920Y-150164800D01*
X144021920Y-74930000D02*
X144021920Y-150164800D01*
X144021920Y-74930000D02*
X144608341Y-76056504D01*
X144021920Y-74930000D02*
X143435499Y-76056504D01*
X144021920Y-150164800D02*
X143435499Y-149038296D01*
X144021920Y-150164800D02*
X144608341Y-149038296D01*
X73485791Y-49234819D02*
X73676267Y-49234819D01*
X73676267Y-49234819D02*
X73771505Y-49187200D01*
X73771505Y-49187200D02*
X73819124Y-49139580D01*
X73819124Y-49139580D02*
X73914362Y-48996723D01*
X73914362Y-48996723D02*
X73961981Y-48806247D01*
X73961981Y-48806247D02*
X73961981Y-48425295D01*
X73961981Y-48425295D02*
X73914362Y-48330057D01*
X73914362Y-48330057D02*
X73866743Y-48282438D01*
X73866743Y-48282438D02*
X73771505Y-48234819D01*
X73771505Y-48234819D02*
X73581029Y-48234819D01*
X73581029Y-48234819D02*
X73485791Y-48282438D01*
X73485791Y-48282438D02*
X73438172Y-48330057D01*
X73438172Y-48330057D02*
X73390553Y-48425295D01*
X73390553Y-48425295D02*
X73390553Y-48663390D01*
X73390553Y-48663390D02*
X73438172Y-48758628D01*
X73438172Y-48758628D02*
X73485791Y-48806247D01*
X73485791Y-48806247D02*
X73581029Y-48853866D01*
X73581029Y-48853866D02*
X73771505Y-48853866D01*
X73771505Y-48853866D02*
X73866743Y-48806247D01*
X73866743Y-48806247D02*
X73914362Y-48758628D01*
X73914362Y-48758628D02*
X73961981Y-48663390D01*
X74295315Y-48234819D02*
X74961981Y-48234819D01*
X74961981Y-48234819D02*
X74533410Y-49234819D01*
X75342934Y-49139580D02*
X75390553Y-49187200D01*
X75390553Y-49187200D02*
X75342934Y-49234819D01*
X75342934Y-49234819D02*
X75295315Y-49187200D01*
X75295315Y-49187200D02*
X75342934Y-49139580D01*
X75342934Y-49139580D02*
X75342934Y-49234819D01*
X76342933Y-49234819D02*
X75771505Y-49234819D01*
X76057219Y-49234819D02*
X76057219Y-48234819D01*
X76057219Y-48234819D02*
X75961981Y-48377676D01*
X75961981Y-48377676D02*
X75866743Y-48472914D01*
X75866743Y-48472914D02*
X75771505Y-48520533D01*
X76819124Y-49234819D02*
X77009600Y-49234819D01*
X77009600Y-49234819D02*
X77104838Y-49187200D01*
X77104838Y-49187200D02*
X77152457Y-49139580D01*
X77152457Y-49139580D02*
X77247695Y-48996723D01*
X77247695Y-48996723D02*
X77295314Y-48806247D01*
X77295314Y-48806247D02*
X77295314Y-48425295D01*
X77295314Y-48425295D02*
X77247695Y-48330057D01*
X77247695Y-48330057D02*
X77200076Y-48282438D01*
X77200076Y-48282438D02*
X77104838Y-48234819D01*
X77104838Y-48234819D02*
X76914362Y-48234819D01*
X76914362Y-48234819D02*
X76819124Y-48282438D01*
X76819124Y-48282438D02*
X76771505Y-48330057D01*
X76771505Y-48330057D02*
X76723886Y-48425295D01*
X76723886Y-48425295D02*
X76723886Y-48663390D01*
X76723886Y-48663390D02*
X76771505Y-48758628D01*
X76771505Y-48758628D02*
X76819124Y-48806247D01*
X76819124Y-48806247D02*
X76914362Y-48853866D01*
X76914362Y-48853866D02*
X77104838Y-48853866D01*
X77104838Y-48853866D02*
X77200076Y-48806247D01*
X77200076Y-48806247D02*
X77247695Y-48758628D01*
X77247695Y-48758628D02*
X77295314Y-48663390D01*
X77676267Y-48330057D02*
X77723886Y-48282438D01*
X77723886Y-48282438D02*
X77819124Y-48234819D01*
X77819124Y-48234819D02*
X78057219Y-48234819D01*
X78057219Y-48234819D02*
X78152457Y-48282438D01*
X78152457Y-48282438D02*
X78200076Y-48330057D01*
X78200076Y-48330057D02*
X78247695Y-48425295D01*
X78247695Y-48425295D02*
X78247695Y-48520533D01*
X78247695Y-48520533D02*
X78200076Y-48663390D01*
X78200076Y-48663390D02*
X77628648Y-49234819D01*
X77628648Y-49234819D02*
X78247695Y-49234819D01*
X78819124Y-48663390D02*
X78723886Y-48615771D01*
X78723886Y-48615771D02*
X78676267Y-48568152D01*
X78676267Y-48568152D02*
X78628648Y-48472914D01*
X78628648Y-48472914D02*
X78628648Y-48425295D01*
X78628648Y-48425295D02*
X78676267Y-48330057D01*
X78676267Y-48330057D02*
X78723886Y-48282438D01*
X78723886Y-48282438D02*
X78819124Y-48234819D01*
X78819124Y-48234819D02*
X79009600Y-48234819D01*
X79009600Y-48234819D02*
X79104838Y-48282438D01*
X79104838Y-48282438D02*
X79152457Y-48330057D01*
X79152457Y-48330057D02*
X79200076Y-48425295D01*
X79200076Y-48425295D02*
X79200076Y-48472914D01*
X79200076Y-48472914D02*
X79152457Y-48568152D01*
X79152457Y-48568152D02*
X79104838Y-48615771D01*
X79104838Y-48615771D02*
X79009600Y-48663390D01*
X79009600Y-48663390D02*
X78819124Y-48663390D01*
X78819124Y-48663390D02*
X78723886Y-48711009D01*
X78723886Y-48711009D02*
X78676267Y-48758628D01*
X78676267Y-48758628D02*
X78628648Y-48853866D01*
X78628648Y-48853866D02*
X78628648Y-49044342D01*
X78628648Y-49044342D02*
X78676267Y-49139580D01*
X78676267Y-49139580D02*
X78723886Y-49187200D01*
X78723886Y-49187200D02*
X78819124Y-49234819D01*
X78819124Y-49234819D02*
X79009600Y-49234819D01*
X79009600Y-49234819D02*
X79104838Y-49187200D01*
X79104838Y-49187200D02*
X79152457Y-49139580D01*
X79152457Y-49139580D02*
X79200076Y-49044342D01*
X79200076Y-49044342D02*
X79200076Y-48853866D01*
X79200076Y-48853866D02*
X79152457Y-48758628D01*
X79152457Y-48758628D02*
X79104838Y-48711009D01*
X79104838Y-48711009D02*
X79009600Y-48663390D01*
X80390553Y-49234819D02*
X80390553Y-48568152D01*
X80390553Y-48663390D02*
X80438172Y-48615771D01*
X80438172Y-48615771D02*
X80533410Y-48568152D01*
X80533410Y-48568152D02*
X80676267Y-48568152D01*
X80676267Y-48568152D02*
X80771505Y-48615771D01*
X80771505Y-48615771D02*
X80819124Y-48711009D01*
X80819124Y-48711009D02*
X80819124Y-49234819D01*
X80819124Y-48711009D02*
X80866743Y-48615771D01*
X80866743Y-48615771D02*
X80961981Y-48568152D01*
X80961981Y-48568152D02*
X81104838Y-48568152D01*
X81104838Y-48568152D02*
X81200077Y-48615771D01*
X81200077Y-48615771D02*
X81247696Y-48711009D01*
X81247696Y-48711009D02*
X81247696Y-49234819D01*
X81723886Y-49234819D02*
X81723886Y-48568152D01*
X81723886Y-48663390D02*
X81771505Y-48615771D01*
X81771505Y-48615771D02*
X81866743Y-48568152D01*
X81866743Y-48568152D02*
X82009600Y-48568152D01*
X82009600Y-48568152D02*
X82104838Y-48615771D01*
X82104838Y-48615771D02*
X82152457Y-48711009D01*
X82152457Y-48711009D02*
X82152457Y-49234819D01*
X82152457Y-48711009D02*
X82200076Y-48615771D01*
X82200076Y-48615771D02*
X82295314Y-48568152D01*
X82295314Y-48568152D02*
X82438171Y-48568152D01*
X82438171Y-48568152D02*
X82533410Y-48615771D01*
X82533410Y-48615771D02*
X82581029Y-48711009D01*
X82581029Y-48711009D02*
X82581029Y-49234819D01*
X29413200Y-74430000D02*
X29413200Y-49343580D01*
X126606000Y-74430000D02*
X126606000Y-49343580D01*
X29413200Y-49930000D02*
X126606000Y-49930000D01*
X29413200Y-49930000D02*
X126606000Y-49930000D01*
X29413200Y-49930000D02*
X30539704Y-49343579D01*
X29413200Y-49930000D02*
X30539704Y-50516421D01*
X126606000Y-49930000D02*
X125479496Y-50516421D01*
X126606000Y-49930000D02*
X125479496Y-49343579D01*
M02*
