%TF.GenerationSoftware,KiCad,Pcbnew,7.0.6*%
%TF.CreationDate,2023-12-12T17:12:15+00:00*%
%TF.ProjectId,BlankingRelay_Base,426c616e-6b69-46e6-9752-656c61795f42,rev?*%
%TF.SameCoordinates,Original*%
%TF.FileFunction,Drillmap*%
%TF.FilePolarity,Positive*%
%FSLAX45Y45*%
G04 Gerber Fmt 4.5, Leading zero omitted, Abs format (unit mm)*
G04 Created by KiCad (PCBNEW 7.0.6) date 2023-12-12 17:12:15*
%MOMM*%
%LPD*%
G01*
G04 APERTURE LIST*
%ADD10C,0.100000*%
%ADD11C,0.200000*%
%ADD12C,0.320000*%
G04 APERTURE END LIST*
D10*
X2941320Y-7493000D02*
X12660600Y-7493000D01*
X12660600Y-15016480D01*
X2941320Y-15016480D01*
X2941320Y-7493000D01*
D11*
D12*
X3340000Y-7940000D02*
X3660000Y-8260000D01*
X3660000Y-7940000D02*
X3340000Y-8260000D01*
X3340000Y-14340000D02*
X3660000Y-14660000D01*
X3660000Y-14340000D02*
X3340000Y-14660000D01*
X11940000Y-7940000D02*
X12260000Y-8260000D01*
X12260000Y-7940000D02*
X11940000Y-8260000D01*
X11940000Y-14340000D02*
X12260000Y-14660000D01*
X12260000Y-14340000D02*
X11940000Y-14660000D01*
D11*
X3197097Y-15332964D02*
X3197097Y-15132964D01*
X3197097Y-15132964D02*
X3244716Y-15132964D01*
X3244716Y-15132964D02*
X3273287Y-15142488D01*
X3273287Y-15142488D02*
X3292335Y-15161535D01*
X3292335Y-15161535D02*
X3301859Y-15180583D01*
X3301859Y-15180583D02*
X3311382Y-15218678D01*
X3311382Y-15218678D02*
X3311382Y-15247249D01*
X3311382Y-15247249D02*
X3301859Y-15285345D01*
X3301859Y-15285345D02*
X3292335Y-15304392D01*
X3292335Y-15304392D02*
X3273287Y-15323440D01*
X3273287Y-15323440D02*
X3244716Y-15332964D01*
X3244716Y-15332964D02*
X3197097Y-15332964D01*
X3397097Y-15332964D02*
X3397097Y-15199630D01*
X3397097Y-15237726D02*
X3406621Y-15218678D01*
X3406621Y-15218678D02*
X3416144Y-15209154D01*
X3416144Y-15209154D02*
X3435192Y-15199630D01*
X3435192Y-15199630D02*
X3454240Y-15199630D01*
X3520906Y-15332964D02*
X3520906Y-15199630D01*
X3520906Y-15132964D02*
X3511382Y-15142488D01*
X3511382Y-15142488D02*
X3520906Y-15152011D01*
X3520906Y-15152011D02*
X3530430Y-15142488D01*
X3530430Y-15142488D02*
X3520906Y-15132964D01*
X3520906Y-15132964D02*
X3520906Y-15152011D01*
X3644716Y-15332964D02*
X3625668Y-15323440D01*
X3625668Y-15323440D02*
X3616144Y-15304392D01*
X3616144Y-15304392D02*
X3616144Y-15132964D01*
X3749478Y-15332964D02*
X3730430Y-15323440D01*
X3730430Y-15323440D02*
X3720906Y-15304392D01*
X3720906Y-15304392D02*
X3720906Y-15132964D01*
X3978049Y-15332964D02*
X3978049Y-15132964D01*
X3978049Y-15132964D02*
X4044716Y-15275821D01*
X4044716Y-15275821D02*
X4111382Y-15132964D01*
X4111382Y-15132964D02*
X4111382Y-15332964D01*
X4292335Y-15332964D02*
X4292335Y-15228202D01*
X4292335Y-15228202D02*
X4282811Y-15209154D01*
X4282811Y-15209154D02*
X4263764Y-15199630D01*
X4263764Y-15199630D02*
X4225668Y-15199630D01*
X4225668Y-15199630D02*
X4206621Y-15209154D01*
X4292335Y-15323440D02*
X4273287Y-15332964D01*
X4273287Y-15332964D02*
X4225668Y-15332964D01*
X4225668Y-15332964D02*
X4206621Y-15323440D01*
X4206621Y-15323440D02*
X4197097Y-15304392D01*
X4197097Y-15304392D02*
X4197097Y-15285345D01*
X4197097Y-15285345D02*
X4206621Y-15266297D01*
X4206621Y-15266297D02*
X4225668Y-15256773D01*
X4225668Y-15256773D02*
X4273287Y-15256773D01*
X4273287Y-15256773D02*
X4292335Y-15247249D01*
X4387573Y-15199630D02*
X4387573Y-15399630D01*
X4387573Y-15209154D02*
X4406621Y-15199630D01*
X4406621Y-15199630D02*
X4444716Y-15199630D01*
X4444716Y-15199630D02*
X4463764Y-15209154D01*
X4463764Y-15209154D02*
X4473287Y-15218678D01*
X4473287Y-15218678D02*
X4482811Y-15237726D01*
X4482811Y-15237726D02*
X4482811Y-15294868D01*
X4482811Y-15294868D02*
X4473287Y-15313916D01*
X4473287Y-15313916D02*
X4463764Y-15323440D01*
X4463764Y-15323440D02*
X4444716Y-15332964D01*
X4444716Y-15332964D02*
X4406621Y-15332964D01*
X4406621Y-15332964D02*
X4387573Y-15323440D01*
X4568525Y-15313916D02*
X4578049Y-15323440D01*
X4578049Y-15323440D02*
X4568525Y-15332964D01*
X4568525Y-15332964D02*
X4559002Y-15323440D01*
X4559002Y-15323440D02*
X4568525Y-15313916D01*
X4568525Y-15313916D02*
X4568525Y-15332964D01*
X4568525Y-15209154D02*
X4578049Y-15218678D01*
X4578049Y-15218678D02*
X4568525Y-15228202D01*
X4568525Y-15228202D02*
X4559002Y-15218678D01*
X4559002Y-15218678D02*
X4568525Y-15209154D01*
X4568525Y-15209154D02*
X4568525Y-15228202D01*
X2736320Y-15561480D02*
X2936320Y-15761480D01*
X2936320Y-15561480D02*
X2736320Y-15761480D01*
X3178049Y-15552964D02*
X3301859Y-15552964D01*
X3301859Y-15552964D02*
X3235192Y-15629154D01*
X3235192Y-15629154D02*
X3263763Y-15629154D01*
X3263763Y-15629154D02*
X3282811Y-15638678D01*
X3282811Y-15638678D02*
X3292335Y-15648202D01*
X3292335Y-15648202D02*
X3301859Y-15667249D01*
X3301859Y-15667249D02*
X3301859Y-15714868D01*
X3301859Y-15714868D02*
X3292335Y-15733916D01*
X3292335Y-15733916D02*
X3282811Y-15743440D01*
X3282811Y-15743440D02*
X3263763Y-15752964D01*
X3263763Y-15752964D02*
X3206621Y-15752964D01*
X3206621Y-15752964D02*
X3187573Y-15743440D01*
X3187573Y-15743440D02*
X3178049Y-15733916D01*
X3387573Y-15733916D02*
X3397097Y-15743440D01*
X3397097Y-15743440D02*
X3387573Y-15752964D01*
X3387573Y-15752964D02*
X3378049Y-15743440D01*
X3378049Y-15743440D02*
X3387573Y-15733916D01*
X3387573Y-15733916D02*
X3387573Y-15752964D01*
X3473287Y-15572011D02*
X3482811Y-15562488D01*
X3482811Y-15562488D02*
X3501859Y-15552964D01*
X3501859Y-15552964D02*
X3549478Y-15552964D01*
X3549478Y-15552964D02*
X3568525Y-15562488D01*
X3568525Y-15562488D02*
X3578049Y-15572011D01*
X3578049Y-15572011D02*
X3587573Y-15591059D01*
X3587573Y-15591059D02*
X3587573Y-15610107D01*
X3587573Y-15610107D02*
X3578049Y-15638678D01*
X3578049Y-15638678D02*
X3463763Y-15752964D01*
X3463763Y-15752964D02*
X3587573Y-15752964D01*
X3711382Y-15552964D02*
X3730430Y-15552964D01*
X3730430Y-15552964D02*
X3749478Y-15562488D01*
X3749478Y-15562488D02*
X3759002Y-15572011D01*
X3759002Y-15572011D02*
X3768525Y-15591059D01*
X3768525Y-15591059D02*
X3778049Y-15629154D01*
X3778049Y-15629154D02*
X3778049Y-15676773D01*
X3778049Y-15676773D02*
X3768525Y-15714868D01*
X3768525Y-15714868D02*
X3759002Y-15733916D01*
X3759002Y-15733916D02*
X3749478Y-15743440D01*
X3749478Y-15743440D02*
X3730430Y-15752964D01*
X3730430Y-15752964D02*
X3711382Y-15752964D01*
X3711382Y-15752964D02*
X3692335Y-15743440D01*
X3692335Y-15743440D02*
X3682811Y-15733916D01*
X3682811Y-15733916D02*
X3673287Y-15714868D01*
X3673287Y-15714868D02*
X3663763Y-15676773D01*
X3663763Y-15676773D02*
X3663763Y-15629154D01*
X3663763Y-15629154D02*
X3673287Y-15591059D01*
X3673287Y-15591059D02*
X3682811Y-15572011D01*
X3682811Y-15572011D02*
X3692335Y-15562488D01*
X3692335Y-15562488D02*
X3711382Y-15552964D01*
X3901859Y-15552964D02*
X3920906Y-15552964D01*
X3920906Y-15552964D02*
X3939954Y-15562488D01*
X3939954Y-15562488D02*
X3949478Y-15572011D01*
X3949478Y-15572011D02*
X3959002Y-15591059D01*
X3959002Y-15591059D02*
X3968525Y-15629154D01*
X3968525Y-15629154D02*
X3968525Y-15676773D01*
X3968525Y-15676773D02*
X3959002Y-15714868D01*
X3959002Y-15714868D02*
X3949478Y-15733916D01*
X3949478Y-15733916D02*
X3939954Y-15743440D01*
X3939954Y-15743440D02*
X3920906Y-15752964D01*
X3920906Y-15752964D02*
X3901859Y-15752964D01*
X3901859Y-15752964D02*
X3882811Y-15743440D01*
X3882811Y-15743440D02*
X3873287Y-15733916D01*
X3873287Y-15733916D02*
X3863763Y-15714868D01*
X3863763Y-15714868D02*
X3854240Y-15676773D01*
X3854240Y-15676773D02*
X3854240Y-15629154D01*
X3854240Y-15629154D02*
X3863763Y-15591059D01*
X3863763Y-15591059D02*
X3873287Y-15572011D01*
X3873287Y-15572011D02*
X3882811Y-15562488D01*
X3882811Y-15562488D02*
X3901859Y-15552964D01*
X4054240Y-15752964D02*
X4054240Y-15619630D01*
X4054240Y-15638678D02*
X4063763Y-15629154D01*
X4063763Y-15629154D02*
X4082811Y-15619630D01*
X4082811Y-15619630D02*
X4111383Y-15619630D01*
X4111383Y-15619630D02*
X4130430Y-15629154D01*
X4130430Y-15629154D02*
X4139954Y-15648202D01*
X4139954Y-15648202D02*
X4139954Y-15752964D01*
X4139954Y-15648202D02*
X4149478Y-15629154D01*
X4149478Y-15629154D02*
X4168525Y-15619630D01*
X4168525Y-15619630D02*
X4197097Y-15619630D01*
X4197097Y-15619630D02*
X4216145Y-15629154D01*
X4216145Y-15629154D02*
X4225668Y-15648202D01*
X4225668Y-15648202D02*
X4225668Y-15752964D01*
X4320906Y-15752964D02*
X4320906Y-15619630D01*
X4320906Y-15638678D02*
X4330430Y-15629154D01*
X4330430Y-15629154D02*
X4349478Y-15619630D01*
X4349478Y-15619630D02*
X4378049Y-15619630D01*
X4378049Y-15619630D02*
X4397097Y-15629154D01*
X4397097Y-15629154D02*
X4406621Y-15648202D01*
X4406621Y-15648202D02*
X4406621Y-15752964D01*
X4406621Y-15648202D02*
X4416145Y-15629154D01*
X4416145Y-15629154D02*
X4435192Y-15619630D01*
X4435192Y-15619630D02*
X4463764Y-15619630D01*
X4463764Y-15619630D02*
X4482811Y-15629154D01*
X4482811Y-15629154D02*
X4492335Y-15648202D01*
X4492335Y-15648202D02*
X4492335Y-15752964D01*
X4882811Y-15543440D02*
X4711383Y-15800583D01*
X5139954Y-15552964D02*
X5159002Y-15552964D01*
X5159002Y-15552964D02*
X5178049Y-15562488D01*
X5178049Y-15562488D02*
X5187573Y-15572011D01*
X5187573Y-15572011D02*
X5197097Y-15591059D01*
X5197097Y-15591059D02*
X5206621Y-15629154D01*
X5206621Y-15629154D02*
X5206621Y-15676773D01*
X5206621Y-15676773D02*
X5197097Y-15714868D01*
X5197097Y-15714868D02*
X5187573Y-15733916D01*
X5187573Y-15733916D02*
X5178049Y-15743440D01*
X5178049Y-15743440D02*
X5159002Y-15752964D01*
X5159002Y-15752964D02*
X5139954Y-15752964D01*
X5139954Y-15752964D02*
X5120907Y-15743440D01*
X5120907Y-15743440D02*
X5111383Y-15733916D01*
X5111383Y-15733916D02*
X5101859Y-15714868D01*
X5101859Y-15714868D02*
X5092335Y-15676773D01*
X5092335Y-15676773D02*
X5092335Y-15629154D01*
X5092335Y-15629154D02*
X5101859Y-15591059D01*
X5101859Y-15591059D02*
X5111383Y-15572011D01*
X5111383Y-15572011D02*
X5120907Y-15562488D01*
X5120907Y-15562488D02*
X5139954Y-15552964D01*
X5292335Y-15733916D02*
X5301859Y-15743440D01*
X5301859Y-15743440D02*
X5292335Y-15752964D01*
X5292335Y-15752964D02*
X5282811Y-15743440D01*
X5282811Y-15743440D02*
X5292335Y-15733916D01*
X5292335Y-15733916D02*
X5292335Y-15752964D01*
X5492335Y-15752964D02*
X5378049Y-15752964D01*
X5435192Y-15752964D02*
X5435192Y-15552964D01*
X5435192Y-15552964D02*
X5416145Y-15581535D01*
X5416145Y-15581535D02*
X5397097Y-15600583D01*
X5397097Y-15600583D02*
X5378049Y-15610107D01*
X5568526Y-15572011D02*
X5578049Y-15562488D01*
X5578049Y-15562488D02*
X5597097Y-15552964D01*
X5597097Y-15552964D02*
X5644716Y-15552964D01*
X5644716Y-15552964D02*
X5663764Y-15562488D01*
X5663764Y-15562488D02*
X5673287Y-15572011D01*
X5673287Y-15572011D02*
X5682811Y-15591059D01*
X5682811Y-15591059D02*
X5682811Y-15610107D01*
X5682811Y-15610107D02*
X5673287Y-15638678D01*
X5673287Y-15638678D02*
X5559002Y-15752964D01*
X5559002Y-15752964D02*
X5682811Y-15752964D01*
X5854240Y-15552964D02*
X5816145Y-15552964D01*
X5816145Y-15552964D02*
X5797097Y-15562488D01*
X5797097Y-15562488D02*
X5787573Y-15572011D01*
X5787573Y-15572011D02*
X5768526Y-15600583D01*
X5768526Y-15600583D02*
X5759002Y-15638678D01*
X5759002Y-15638678D02*
X5759002Y-15714868D01*
X5759002Y-15714868D02*
X5768526Y-15733916D01*
X5768526Y-15733916D02*
X5778049Y-15743440D01*
X5778049Y-15743440D02*
X5797097Y-15752964D01*
X5797097Y-15752964D02*
X5835192Y-15752964D01*
X5835192Y-15752964D02*
X5854240Y-15743440D01*
X5854240Y-15743440D02*
X5863764Y-15733916D01*
X5863764Y-15733916D02*
X5873287Y-15714868D01*
X5873287Y-15714868D02*
X5873287Y-15667249D01*
X5873287Y-15667249D02*
X5863764Y-15648202D01*
X5863764Y-15648202D02*
X5854240Y-15638678D01*
X5854240Y-15638678D02*
X5835192Y-15629154D01*
X5835192Y-15629154D02*
X5797097Y-15629154D01*
X5797097Y-15629154D02*
X5778049Y-15638678D01*
X5778049Y-15638678D02*
X5768526Y-15648202D01*
X5768526Y-15648202D02*
X5759002Y-15667249D01*
X5997097Y-15552964D02*
X6016145Y-15552964D01*
X6016145Y-15552964D02*
X6035192Y-15562488D01*
X6035192Y-15562488D02*
X6044716Y-15572011D01*
X6044716Y-15572011D02*
X6054240Y-15591059D01*
X6054240Y-15591059D02*
X6063764Y-15629154D01*
X6063764Y-15629154D02*
X6063764Y-15676773D01*
X6063764Y-15676773D02*
X6054240Y-15714868D01*
X6054240Y-15714868D02*
X6044716Y-15733916D01*
X6044716Y-15733916D02*
X6035192Y-15743440D01*
X6035192Y-15743440D02*
X6016145Y-15752964D01*
X6016145Y-15752964D02*
X5997097Y-15752964D01*
X5997097Y-15752964D02*
X5978049Y-15743440D01*
X5978049Y-15743440D02*
X5968526Y-15733916D01*
X5968526Y-15733916D02*
X5959002Y-15714868D01*
X5959002Y-15714868D02*
X5949478Y-15676773D01*
X5949478Y-15676773D02*
X5949478Y-15629154D01*
X5949478Y-15629154D02*
X5959002Y-15591059D01*
X5959002Y-15591059D02*
X5968526Y-15572011D01*
X5968526Y-15572011D02*
X5978049Y-15562488D01*
X5978049Y-15562488D02*
X5997097Y-15552964D01*
X6139954Y-15552964D02*
X6139954Y-15591059D01*
X6216145Y-15552964D02*
X6216145Y-15591059D01*
X6511383Y-15829154D02*
X6501859Y-15819630D01*
X6501859Y-15819630D02*
X6482811Y-15791059D01*
X6482811Y-15791059D02*
X6473288Y-15772011D01*
X6473288Y-15772011D02*
X6463764Y-15743440D01*
X6463764Y-15743440D02*
X6454240Y-15695821D01*
X6454240Y-15695821D02*
X6454240Y-15657726D01*
X6454240Y-15657726D02*
X6463764Y-15610107D01*
X6463764Y-15610107D02*
X6473288Y-15581535D01*
X6473288Y-15581535D02*
X6482811Y-15562488D01*
X6482811Y-15562488D02*
X6501859Y-15533916D01*
X6501859Y-15533916D02*
X6511383Y-15524392D01*
X6673288Y-15619630D02*
X6673288Y-15752964D01*
X6625668Y-15543440D02*
X6578049Y-15686297D01*
X6578049Y-15686297D02*
X6701859Y-15686297D01*
X6930430Y-15752964D02*
X6930430Y-15552964D01*
X7016145Y-15752964D02*
X7016145Y-15648202D01*
X7016145Y-15648202D02*
X7006621Y-15629154D01*
X7006621Y-15629154D02*
X6987573Y-15619630D01*
X6987573Y-15619630D02*
X6959002Y-15619630D01*
X6959002Y-15619630D02*
X6939954Y-15629154D01*
X6939954Y-15629154D02*
X6930430Y-15638678D01*
X7139954Y-15752964D02*
X7120907Y-15743440D01*
X7120907Y-15743440D02*
X7111383Y-15733916D01*
X7111383Y-15733916D02*
X7101859Y-15714868D01*
X7101859Y-15714868D02*
X7101859Y-15657726D01*
X7101859Y-15657726D02*
X7111383Y-15638678D01*
X7111383Y-15638678D02*
X7120907Y-15629154D01*
X7120907Y-15629154D02*
X7139954Y-15619630D01*
X7139954Y-15619630D02*
X7168526Y-15619630D01*
X7168526Y-15619630D02*
X7187573Y-15629154D01*
X7187573Y-15629154D02*
X7197097Y-15638678D01*
X7197097Y-15638678D02*
X7206621Y-15657726D01*
X7206621Y-15657726D02*
X7206621Y-15714868D01*
X7206621Y-15714868D02*
X7197097Y-15733916D01*
X7197097Y-15733916D02*
X7187573Y-15743440D01*
X7187573Y-15743440D02*
X7168526Y-15752964D01*
X7168526Y-15752964D02*
X7139954Y-15752964D01*
X7320907Y-15752964D02*
X7301859Y-15743440D01*
X7301859Y-15743440D02*
X7292335Y-15724392D01*
X7292335Y-15724392D02*
X7292335Y-15552964D01*
X7473288Y-15743440D02*
X7454240Y-15752964D01*
X7454240Y-15752964D02*
X7416145Y-15752964D01*
X7416145Y-15752964D02*
X7397097Y-15743440D01*
X7397097Y-15743440D02*
X7387573Y-15724392D01*
X7387573Y-15724392D02*
X7387573Y-15648202D01*
X7387573Y-15648202D02*
X7397097Y-15629154D01*
X7397097Y-15629154D02*
X7416145Y-15619630D01*
X7416145Y-15619630D02*
X7454240Y-15619630D01*
X7454240Y-15619630D02*
X7473288Y-15629154D01*
X7473288Y-15629154D02*
X7482811Y-15648202D01*
X7482811Y-15648202D02*
X7482811Y-15667249D01*
X7482811Y-15667249D02*
X7387573Y-15686297D01*
X7559002Y-15743440D02*
X7578050Y-15752964D01*
X7578050Y-15752964D02*
X7616145Y-15752964D01*
X7616145Y-15752964D02*
X7635192Y-15743440D01*
X7635192Y-15743440D02*
X7644716Y-15724392D01*
X7644716Y-15724392D02*
X7644716Y-15714868D01*
X7644716Y-15714868D02*
X7635192Y-15695821D01*
X7635192Y-15695821D02*
X7616145Y-15686297D01*
X7616145Y-15686297D02*
X7587573Y-15686297D01*
X7587573Y-15686297D02*
X7568526Y-15676773D01*
X7568526Y-15676773D02*
X7559002Y-15657726D01*
X7559002Y-15657726D02*
X7559002Y-15648202D01*
X7559002Y-15648202D02*
X7568526Y-15629154D01*
X7568526Y-15629154D02*
X7587573Y-15619630D01*
X7587573Y-15619630D02*
X7616145Y-15619630D01*
X7616145Y-15619630D02*
X7635192Y-15629154D01*
X7711383Y-15829154D02*
X7720907Y-15819630D01*
X7720907Y-15819630D02*
X7739954Y-15791059D01*
X7739954Y-15791059D02*
X7749478Y-15772011D01*
X7749478Y-15772011D02*
X7759002Y-15743440D01*
X7759002Y-15743440D02*
X7768526Y-15695821D01*
X7768526Y-15695821D02*
X7768526Y-15657726D01*
X7768526Y-15657726D02*
X7759002Y-15610107D01*
X7759002Y-15610107D02*
X7749478Y-15581535D01*
X7749478Y-15581535D02*
X7739954Y-15562488D01*
X7739954Y-15562488D02*
X7720907Y-15533916D01*
X7720907Y-15533916D02*
X7711383Y-15524392D01*
X8073288Y-15829154D02*
X8063764Y-15819630D01*
X8063764Y-15819630D02*
X8044716Y-15791059D01*
X8044716Y-15791059D02*
X8035192Y-15772011D01*
X8035192Y-15772011D02*
X8025669Y-15743440D01*
X8025669Y-15743440D02*
X8016145Y-15695821D01*
X8016145Y-15695821D02*
X8016145Y-15657726D01*
X8016145Y-15657726D02*
X8025669Y-15610107D01*
X8025669Y-15610107D02*
X8035192Y-15581535D01*
X8035192Y-15581535D02*
X8044716Y-15562488D01*
X8044716Y-15562488D02*
X8063764Y-15533916D01*
X8063764Y-15533916D02*
X8073288Y-15524392D01*
X8149478Y-15619630D02*
X8149478Y-15752964D01*
X8149478Y-15638678D02*
X8159002Y-15629154D01*
X8159002Y-15629154D02*
X8178050Y-15619630D01*
X8178050Y-15619630D02*
X8206621Y-15619630D01*
X8206621Y-15619630D02*
X8225669Y-15629154D01*
X8225669Y-15629154D02*
X8235192Y-15648202D01*
X8235192Y-15648202D02*
X8235192Y-15752964D01*
X8359002Y-15752964D02*
X8339954Y-15743440D01*
X8339954Y-15743440D02*
X8330431Y-15733916D01*
X8330431Y-15733916D02*
X8320907Y-15714868D01*
X8320907Y-15714868D02*
X8320907Y-15657726D01*
X8320907Y-15657726D02*
X8330431Y-15638678D01*
X8330431Y-15638678D02*
X8339954Y-15629154D01*
X8339954Y-15629154D02*
X8359002Y-15619630D01*
X8359002Y-15619630D02*
X8387573Y-15619630D01*
X8387573Y-15619630D02*
X8406621Y-15629154D01*
X8406621Y-15629154D02*
X8416145Y-15638678D01*
X8416145Y-15638678D02*
X8425669Y-15657726D01*
X8425669Y-15657726D02*
X8425669Y-15714868D01*
X8425669Y-15714868D02*
X8416145Y-15733916D01*
X8416145Y-15733916D02*
X8406621Y-15743440D01*
X8406621Y-15743440D02*
X8387573Y-15752964D01*
X8387573Y-15752964D02*
X8359002Y-15752964D01*
X8482812Y-15619630D02*
X8559002Y-15619630D01*
X8511383Y-15552964D02*
X8511383Y-15724392D01*
X8511383Y-15724392D02*
X8520907Y-15743440D01*
X8520907Y-15743440D02*
X8539954Y-15752964D01*
X8539954Y-15752964D02*
X8559002Y-15752964D01*
X8778050Y-15619630D02*
X8778050Y-15819630D01*
X8778050Y-15629154D02*
X8797097Y-15619630D01*
X8797097Y-15619630D02*
X8835193Y-15619630D01*
X8835193Y-15619630D02*
X8854240Y-15629154D01*
X8854240Y-15629154D02*
X8863764Y-15638678D01*
X8863764Y-15638678D02*
X8873288Y-15657726D01*
X8873288Y-15657726D02*
X8873288Y-15714868D01*
X8873288Y-15714868D02*
X8863764Y-15733916D01*
X8863764Y-15733916D02*
X8854240Y-15743440D01*
X8854240Y-15743440D02*
X8835193Y-15752964D01*
X8835193Y-15752964D02*
X8797097Y-15752964D01*
X8797097Y-15752964D02*
X8778050Y-15743440D01*
X8987574Y-15752964D02*
X8968526Y-15743440D01*
X8968526Y-15743440D02*
X8959002Y-15724392D01*
X8959002Y-15724392D02*
X8959002Y-15552964D01*
X9149478Y-15752964D02*
X9149478Y-15648202D01*
X9149478Y-15648202D02*
X9139955Y-15629154D01*
X9139955Y-15629154D02*
X9120907Y-15619630D01*
X9120907Y-15619630D02*
X9082812Y-15619630D01*
X9082812Y-15619630D02*
X9063764Y-15629154D01*
X9149478Y-15743440D02*
X9130431Y-15752964D01*
X9130431Y-15752964D02*
X9082812Y-15752964D01*
X9082812Y-15752964D02*
X9063764Y-15743440D01*
X9063764Y-15743440D02*
X9054240Y-15724392D01*
X9054240Y-15724392D02*
X9054240Y-15705345D01*
X9054240Y-15705345D02*
X9063764Y-15686297D01*
X9063764Y-15686297D02*
X9082812Y-15676773D01*
X9082812Y-15676773D02*
X9130431Y-15676773D01*
X9130431Y-15676773D02*
X9149478Y-15667249D01*
X9216145Y-15619630D02*
X9292335Y-15619630D01*
X9244716Y-15552964D02*
X9244716Y-15724392D01*
X9244716Y-15724392D02*
X9254240Y-15743440D01*
X9254240Y-15743440D02*
X9273288Y-15752964D01*
X9273288Y-15752964D02*
X9292335Y-15752964D01*
X9435193Y-15743440D02*
X9416145Y-15752964D01*
X9416145Y-15752964D02*
X9378050Y-15752964D01*
X9378050Y-15752964D02*
X9359002Y-15743440D01*
X9359002Y-15743440D02*
X9349478Y-15724392D01*
X9349478Y-15724392D02*
X9349478Y-15648202D01*
X9349478Y-15648202D02*
X9359002Y-15629154D01*
X9359002Y-15629154D02*
X9378050Y-15619630D01*
X9378050Y-15619630D02*
X9416145Y-15619630D01*
X9416145Y-15619630D02*
X9435193Y-15629154D01*
X9435193Y-15629154D02*
X9444716Y-15648202D01*
X9444716Y-15648202D02*
X9444716Y-15667249D01*
X9444716Y-15667249D02*
X9349478Y-15686297D01*
X9616145Y-15752964D02*
X9616145Y-15552964D01*
X9616145Y-15743440D02*
X9597097Y-15752964D01*
X9597097Y-15752964D02*
X9559002Y-15752964D01*
X9559002Y-15752964D02*
X9539955Y-15743440D01*
X9539955Y-15743440D02*
X9530431Y-15733916D01*
X9530431Y-15733916D02*
X9520907Y-15714868D01*
X9520907Y-15714868D02*
X9520907Y-15657726D01*
X9520907Y-15657726D02*
X9530431Y-15638678D01*
X9530431Y-15638678D02*
X9539955Y-15629154D01*
X9539955Y-15629154D02*
X9559002Y-15619630D01*
X9559002Y-15619630D02*
X9597097Y-15619630D01*
X9597097Y-15619630D02*
X9616145Y-15629154D01*
X9692336Y-15829154D02*
X9701859Y-15819630D01*
X9701859Y-15819630D02*
X9720907Y-15791059D01*
X9720907Y-15791059D02*
X9730431Y-15772011D01*
X9730431Y-15772011D02*
X9739955Y-15743440D01*
X9739955Y-15743440D02*
X9749478Y-15695821D01*
X9749478Y-15695821D02*
X9749478Y-15657726D01*
X9749478Y-15657726D02*
X9739955Y-15610107D01*
X9739955Y-15610107D02*
X9730431Y-15581535D01*
X9730431Y-15581535D02*
X9720907Y-15562488D01*
X9720907Y-15562488D02*
X9701859Y-15533916D01*
X9701859Y-15533916D02*
X9692336Y-15524392D01*
M02*
