M48
; DRILL file {KiCad (6.0.4)} date Fri Dec  8 17:12:59 2023
; FORMAT={-:-/ absolute / inch / decimal}
; #@! TF.CreationDate,2023-12-08T17:12:59+01:00
; #@! TF.GenerationSoftware,Kicad,Pcbnew,(6.0.4)
; #@! TF.FileFunction,Plated,1,2,PTH
FMAT,2
INCH
; #@! TA.AperFunction,Plated,PTH,ComponentDrill
T1C0.0217
; #@! TA.AperFunction,Plated,PTH,ComponentDrill
T2C0.0315
; #@! TA.AperFunction,Plated,PTH,ComponentDrill
T3C0.0354
; #@! TA.AperFunction,Plated,PTH,ComponentDrill
T4C0.0374
; #@! TA.AperFunction,Plated,PTH,ComponentDrill
T5C0.0394
; #@! TA.AperFunction,Plated,PTH,ComponentDrill
T6C0.0394
; #@! TA.AperFunction,Plated,PTH,ComponentDrill
T7C0.0433
; #@! TA.AperFunction,Plated,PTH,ComponentDrill
T8C0.0728
; #@! TA.AperFunction,Plated,PTH,ComponentDrill
T9C0.0866
%
G90
G05
T2
X1.2205Y-5.1181
X1.5748Y-4.1339
X1.5748Y-4.2339
X1.5748Y-4.3339
X1.5748Y-4.4339
X1.5748Y-4.5339
X1.5748Y-4.6339
X1.5748Y-4.7339
X1.589Y-3.8827
X1.59Y-3.7
X1.8205Y-5.1181
X1.8748Y-4.1339
X1.8748Y-4.2339
X1.8748Y-4.3339
X1.8748Y-4.4339
X1.8748Y-4.5339
X1.8748Y-4.6339
X1.8748Y-4.7339
X2.0079Y-5.1181
X2.189Y-3.8827
X2.19Y-3.7
X2.2835Y-4.1339
X2.2835Y-4.2339
X2.2835Y-4.3339
X2.2835Y-4.4339
X2.2835Y-4.5339
X2.2835Y-4.6339
X2.2835Y-4.7339
X2.5835Y-4.1339
X2.5835Y-4.2339
X2.5835Y-4.3339
X2.5835Y-4.4339
X2.5835Y-4.5339
X2.5835Y-4.6339
X2.5835Y-4.7339
X2.6079Y-5.1181
X2.7953Y-5.1181
X2.9921Y-4.1339
X2.9921Y-4.2339
X2.9921Y-4.3339
X2.9921Y-4.4339
X2.9921Y-4.5339
X2.9921Y-4.6339
X2.9921Y-4.7339
X3.2921Y-4.1339
X3.2921Y-4.2339
X3.2921Y-4.3339
X3.2921Y-4.4339
X3.2921Y-4.5339
X3.2921Y-4.6339
X3.2921Y-4.7339
X3.3953Y-5.1181
X3.5827Y-5.1181
X3.7008Y-4.1339
X3.7008Y-4.2339
X3.7008Y-4.3339
X3.7008Y-4.4339
X3.7008Y-4.5339
X3.7008Y-4.6339
X3.7008Y-4.7339
X4.0008Y-4.1339
X4.0008Y-4.2339
X4.0008Y-4.3339
X4.0008Y-4.4339
X4.0008Y-4.5339
X4.0008Y-4.6339
X4.0008Y-4.7339
X4.1827Y-5.1181
X4.3701Y-5.1181
X4.4094Y-4.1339
X4.4094Y-4.2339
X4.4094Y-4.3339
X4.4094Y-4.4339
X4.4094Y-4.5339
X4.4094Y-4.6339
X4.4094Y-4.7339
X4.7094Y-4.1339
X4.7094Y-4.2339
X4.7094Y-4.3339
X4.7094Y-4.4339
X4.7094Y-4.5339
X4.7094Y-4.6339
X4.7094Y-4.7339
X4.9701Y-5.1181
X5.1181Y-4.1339
X5.1181Y-4.2339
X5.1181Y-4.3339
X5.1181Y-4.4339
X5.1181Y-4.5339
X5.1181Y-4.6339
X5.1181Y-4.7339
X5.1575Y-5.1181
X5.4181Y-4.1339
X5.4181Y-4.2339
X5.4181Y-4.3339
X5.4181Y-4.4339
X5.4181Y-4.5339
X5.4181Y-4.6339
X5.4181Y-4.7339
X5.7575Y-5.1181
T3
X1.6717Y-5.5118
X1.7717Y-5.5118
X2.4591Y-5.5118
X2.5591Y-5.5118
X3.2465Y-5.5118
X3.3465Y-5.5118
X4.0339Y-5.5118
X4.1339Y-5.5118
X4.8213Y-5.5118
X4.9213Y-5.5118
X5.6087Y-5.5118
X5.7087Y-5.5118
T4
X2.3622Y-3.3465
X2.4606Y-3.3465
X2.5591Y-3.3465
X2.6575Y-3.3465
X2.7559Y-3.3465
X2.8543Y-3.3465
X2.9528Y-3.3465
X3.248Y-3.3465
X3.248Y-3.7402
X3.3465Y-3.3465
X3.3465Y-3.7402
X3.4449Y-3.3465
X3.4449Y-3.7402
X3.5433Y-3.3465
X3.5433Y-3.7402
X3.6417Y-3.3465
X3.6417Y-3.7402
X3.7402Y-3.3465
X3.7402Y-3.7402
X3.8386Y-3.3465
X3.8386Y-3.7402
X4.1339Y-3.3465
X4.1339Y-3.7402
X4.2323Y-3.3465
X4.2323Y-3.7402
X4.3307Y-3.3465
X4.3307Y-3.7402
X4.4291Y-3.3465
X4.4291Y-3.7402
X4.5276Y-3.3465
X4.5276Y-3.7402
X4.626Y-3.3465
X4.626Y-3.7402
X4.7244Y-3.3465
X4.7244Y-3.7402
X5.0197Y-3.3465
X5.0197Y-3.7402
X5.1181Y-3.3465
X5.1181Y-3.7402
X5.2165Y-3.3465
X5.2165Y-3.7402
X5.315Y-3.3465
X5.315Y-3.7402
X5.4134Y-3.3465
X5.4134Y-3.7402
X5.5118Y-3.3465
X5.5118Y-3.7402
X5.6102Y-3.3465
X5.6102Y-3.7402
T6
X1.8331Y-3.4363
X1.9315Y-3.4363
T7
X1.3652Y-3.6815
X1.3652Y-3.7815
X1.3652Y-3.8815
T8
X1.2717Y-5.7441
X1.4843Y-5.7441
X2.0591Y-5.7441
X2.2717Y-5.7441
X2.8465Y-5.7441
X3.0591Y-5.7441
X3.6339Y-5.7441
X3.8465Y-5.7441
X4.4213Y-5.7441
X4.6339Y-5.7441
X5.2087Y-5.7441
X5.4213Y-5.7441
T9
X1.7308Y-3.2684
X2.1323Y-3.2684
T1
G00X1.278Y-5.4244
M15
G01X1.278Y-5.4638
M16
G05
G00X1.278Y-5.5244
M15
G01X1.278Y-5.5638
M16
G05
G00X1.378Y-5.4244
M15
G01X1.378Y-5.4638
M16
G05
G00X1.378Y-5.5244
M15
G01X1.378Y-5.5638
M16
G05
G00X1.478Y-5.4244
M15
G01X1.478Y-5.4638
M16
G05
G00X1.478Y-5.5244
M15
G01X1.478Y-5.5638
M16
G05
G00X2.0654Y-5.4244
M15
G01X2.0654Y-5.4638
M16
G05
G00X2.0654Y-5.5244
M15
G01X2.0654Y-5.5638
M16
G05
G00X2.1654Y-5.4244
M15
G01X2.1654Y-5.4638
M16
G05
G00X2.1654Y-5.5244
M15
G01X2.1654Y-5.5638
M16
G05
G00X2.2654Y-5.4244
M15
G01X2.2654Y-5.4638
M16
G05
G00X2.2654Y-5.5244
M15
G01X2.2654Y-5.5638
M16
G05
G00X2.8528Y-5.4244
M15
G01X2.8528Y-5.4638
M16
G05
G00X2.8528Y-5.5244
M15
G01X2.8528Y-5.5638
M16
G05
G00X2.9528Y-5.4244
M15
G01X2.9528Y-5.4638
M16
G05
G00X2.9528Y-5.5244
M15
G01X2.9528Y-5.5638
M16
G05
G00X3.0528Y-5.4244
M15
G01X3.0528Y-5.4638
M16
G05
G00X3.0528Y-5.5244
M15
G01X3.0528Y-5.5638
M16
G05
G00X3.6402Y-5.4244
M15
G01X3.6402Y-5.4638
M16
G05
G00X3.6402Y-5.5244
M15
G01X3.6402Y-5.5638
M16
G05
G00X3.7402Y-5.4244
M15
G01X3.7402Y-5.4638
M16
G05
G00X3.7402Y-5.5244
M15
G01X3.7402Y-5.5638
M16
G05
G00X3.8402Y-5.4244
M15
G01X3.8402Y-5.4638
M16
G05
G00X3.8402Y-5.5244
M15
G01X3.8402Y-5.5638
M16
G05
G00X4.4276Y-5.4244
M15
G01X4.4276Y-5.4638
M16
G05
G00X4.4276Y-5.5244
M15
G01X4.4276Y-5.5638
M16
G05
G00X4.5276Y-5.4244
M15
G01X4.5276Y-5.4638
M16
G05
G00X4.5276Y-5.5244
M15
G01X4.5276Y-5.5638
M16
G05
G00X4.6276Y-5.4244
M15
G01X4.6276Y-5.4638
M16
G05
G00X4.6276Y-5.5244
M15
G01X4.6276Y-5.5638
M16
G05
G00X5.215Y-5.4244
M15
G01X5.215Y-5.4638
M16
G05
G00X5.215Y-5.5244
M15
G01X5.215Y-5.5638
M16
G05
G00X5.315Y-5.4244
M15
G01X5.315Y-5.4638
M16
G05
G00X5.315Y-5.5244
M15
G01X5.315Y-5.5638
M16
G05
G00X5.415Y-5.4244
M15
G01X5.415Y-5.4638
M16
G05
G00X5.415Y-5.5244
M15
G01X5.415Y-5.5638
M16
G05
T5
G00X1.2436Y-3.1937
M15
G01X1.2436Y-3.2724
M16
G05
G00X1.468Y-3.115
M15
G01X1.3893Y-3.115
M16
G05
G00X1.468Y-3.3512
M15
G01X1.3893Y-3.3512
M16
G05
T0
M30
