%TF.GenerationSoftware,KiCad,Pcbnew,(6.0.4)*%
%TF.CreationDate,2023-12-08T17:13:01+01:00*%
%TF.ProjectId,BlankingRelay_Base,426c616e-6b69-46e6-9752-656c61795f42,rev?*%
%TF.SameCoordinates,Original*%
%TF.FileFunction,Legend,Top*%
%TF.FilePolarity,Positive*%
%FSLAX46Y46*%
G04 Gerber Fmt 4.6, Leading zero omitted, Abs format (unit mm)*
G04 Created by KiCad (PCBNEW (6.0.4)) date 2023-12-08 17:13:01*
%MOMM*%
%LPD*%
G01*
G04 APERTURE LIST*
%ADD10C,0.150000*%
%ADD11C,0.120000*%
G04 APERTURE END LIST*
D10*
%TO.C,REF\u002A\u002A*%
X123166666Y-121252380D02*
X122833333Y-120776190D01*
X122595238Y-121252380D02*
X122595238Y-120252380D01*
X122976190Y-120252380D01*
X123071428Y-120300000D01*
X123119047Y-120347619D01*
X123166666Y-120442857D01*
X123166666Y-120585714D01*
X123119047Y-120680952D01*
X123071428Y-120728571D01*
X122976190Y-120776190D01*
X122595238Y-120776190D01*
X123595238Y-120728571D02*
X123928571Y-120728571D01*
X124071428Y-121252380D02*
X123595238Y-121252380D01*
X123595238Y-120252380D01*
X124071428Y-120252380D01*
X124833333Y-120728571D02*
X124500000Y-120728571D01*
X124500000Y-121252380D02*
X124500000Y-120252380D01*
X124976190Y-120252380D01*
X125500000Y-120252380D02*
X125500000Y-120490476D01*
X125261904Y-120395238D02*
X125500000Y-120490476D01*
X125738095Y-120395238D01*
X125357142Y-120680952D02*
X125500000Y-120490476D01*
X125642857Y-120680952D01*
X126261904Y-120252380D02*
X126261904Y-120490476D01*
X126023809Y-120395238D02*
X126261904Y-120490476D01*
X126500000Y-120395238D01*
X126119047Y-120680952D02*
X126261904Y-120490476D01*
X126404761Y-120680952D01*
X43666666Y-142252380D02*
X43333333Y-141776190D01*
X43095238Y-142252380D02*
X43095238Y-141252380D01*
X43476190Y-141252380D01*
X43571428Y-141300000D01*
X43619047Y-141347619D01*
X43666666Y-141442857D01*
X43666666Y-141585714D01*
X43619047Y-141680952D01*
X43571428Y-141728571D01*
X43476190Y-141776190D01*
X43095238Y-141776190D01*
X44095238Y-141728571D02*
X44428571Y-141728571D01*
X44571428Y-142252380D02*
X44095238Y-142252380D01*
X44095238Y-141252380D01*
X44571428Y-141252380D01*
X45333333Y-141728571D02*
X45000000Y-141728571D01*
X45000000Y-142252380D02*
X45000000Y-141252380D01*
X45476190Y-141252380D01*
X46000000Y-141252380D02*
X46000000Y-141490476D01*
X45761904Y-141395238D02*
X46000000Y-141490476D01*
X46238095Y-141395238D01*
X45857142Y-141680952D02*
X46000000Y-141490476D01*
X46142857Y-141680952D01*
X46761904Y-141252380D02*
X46761904Y-141490476D01*
X46523809Y-141395238D02*
X46761904Y-141490476D01*
X47000000Y-141395238D01*
X46619047Y-141680952D02*
X46761904Y-141490476D01*
X46904761Y-141680952D01*
X51166666Y-121252380D02*
X50833333Y-120776190D01*
X50595238Y-121252380D02*
X50595238Y-120252380D01*
X50976190Y-120252380D01*
X51071428Y-120300000D01*
X51119047Y-120347619D01*
X51166666Y-120442857D01*
X51166666Y-120585714D01*
X51119047Y-120680952D01*
X51071428Y-120728571D01*
X50976190Y-120776190D01*
X50595238Y-120776190D01*
X51595238Y-120728571D02*
X51928571Y-120728571D01*
X52071428Y-121252380D02*
X51595238Y-121252380D01*
X51595238Y-120252380D01*
X52071428Y-120252380D01*
X52833333Y-120728571D02*
X52500000Y-120728571D01*
X52500000Y-121252380D02*
X52500000Y-120252380D01*
X52976190Y-120252380D01*
X53500000Y-120252380D02*
X53500000Y-120490476D01*
X53261904Y-120395238D02*
X53500000Y-120490476D01*
X53738095Y-120395238D01*
X53357142Y-120680952D02*
X53500000Y-120490476D01*
X53642857Y-120680952D01*
X54261904Y-120252380D02*
X54261904Y-120490476D01*
X54023809Y-120395238D02*
X54261904Y-120490476D01*
X54500000Y-120395238D01*
X54119047Y-120680952D02*
X54261904Y-120490476D01*
X54404761Y-120680952D01*
X143166666Y-142252380D02*
X142833333Y-141776190D01*
X142595238Y-142252380D02*
X142595238Y-141252380D01*
X142976190Y-141252380D01*
X143071428Y-141300000D01*
X143119047Y-141347619D01*
X143166666Y-141442857D01*
X143166666Y-141585714D01*
X143119047Y-141680952D01*
X143071428Y-141728571D01*
X142976190Y-141776190D01*
X142595238Y-141776190D01*
X143595238Y-141728571D02*
X143928571Y-141728571D01*
X144071428Y-142252380D02*
X143595238Y-142252380D01*
X143595238Y-141252380D01*
X144071428Y-141252380D01*
X144833333Y-141728571D02*
X144500000Y-141728571D01*
X144500000Y-142252380D02*
X144500000Y-141252380D01*
X144976190Y-141252380D01*
X145500000Y-141252380D02*
X145500000Y-141490476D01*
X145261904Y-141395238D02*
X145500000Y-141490476D01*
X145738095Y-141395238D01*
X145357142Y-141680952D02*
X145500000Y-141490476D01*
X145642857Y-141680952D01*
X146261904Y-141252380D02*
X146261904Y-141490476D01*
X146023809Y-141395238D02*
X146261904Y-141490476D01*
X146500000Y-141395238D01*
X146119047Y-141680952D02*
X146261904Y-141490476D01*
X146404761Y-141680952D01*
%TO.C,U6*%
X131167142Y-122022380D02*
X131833809Y-122022380D01*
X131405238Y-123022380D01*
X132643333Y-122355714D02*
X132643333Y-123022380D01*
X132405238Y-121974761D02*
X132167142Y-122689047D01*
X132786190Y-122689047D01*
X133643333Y-123022380D02*
X133167142Y-123022380D01*
X133167142Y-122022380D01*
X133929047Y-122974761D02*
X134071904Y-123022380D01*
X134310000Y-123022380D01*
X134405238Y-122974761D01*
X134452857Y-122927142D01*
X134500476Y-122831904D01*
X134500476Y-122736666D01*
X134452857Y-122641428D01*
X134405238Y-122593809D01*
X134310000Y-122546190D01*
X134119523Y-122498571D01*
X134024285Y-122450952D01*
X133976666Y-122403333D01*
X133929047Y-122308095D01*
X133929047Y-122212857D01*
X133976666Y-122117619D01*
X134024285Y-122070000D01*
X134119523Y-122022380D01*
X134357619Y-122022380D01*
X134500476Y-122070000D01*
X135119523Y-122022380D02*
X135214761Y-122022380D01*
X135310000Y-122070000D01*
X135357619Y-122117619D01*
X135405238Y-122212857D01*
X135452857Y-122403333D01*
X135452857Y-122641428D01*
X135405238Y-122831904D01*
X135357619Y-122927142D01*
X135310000Y-122974761D01*
X135214761Y-123022380D01*
X135119523Y-123022380D01*
X135024285Y-122974761D01*
X134976666Y-122927142D01*
X134929047Y-122831904D01*
X134881428Y-122641428D01*
X134881428Y-122403333D01*
X134929047Y-122212857D01*
X134976666Y-122117619D01*
X135024285Y-122070000D01*
X135119523Y-122022380D01*
X136024285Y-122450952D02*
X135929047Y-122403333D01*
X135881428Y-122355714D01*
X135833809Y-122260476D01*
X135833809Y-122212857D01*
X135881428Y-122117619D01*
X135929047Y-122070000D01*
X136024285Y-122022380D01*
X136214761Y-122022380D01*
X136310000Y-122070000D01*
X136357619Y-122117619D01*
X136405238Y-122212857D01*
X136405238Y-122260476D01*
X136357619Y-122355714D01*
X136310000Y-122403333D01*
X136214761Y-122450952D01*
X136024285Y-122450952D01*
X135929047Y-122498571D01*
X135881428Y-122546190D01*
X135833809Y-122641428D01*
X135833809Y-122831904D01*
X135881428Y-122927142D01*
X135929047Y-122974761D01*
X136024285Y-123022380D01*
X136214761Y-123022380D01*
X136310000Y-122974761D01*
X136357619Y-122927142D01*
X136405238Y-122831904D01*
X136405238Y-122641428D01*
X136357619Y-122546190D01*
X136310000Y-122498571D01*
X136214761Y-122450952D01*
%TO.C,J3*%
X67166666Y-80902380D02*
X67166666Y-81616666D01*
X67119047Y-81759523D01*
X67023809Y-81854761D01*
X66880952Y-81902380D01*
X66785714Y-81902380D01*
X67547619Y-80902380D02*
X68166666Y-80902380D01*
X67833333Y-81283333D01*
X67976190Y-81283333D01*
X68071428Y-81330952D01*
X68119047Y-81378571D01*
X68166666Y-81473809D01*
X68166666Y-81711904D01*
X68119047Y-81807142D01*
X68071428Y-81854761D01*
X67976190Y-81902380D01*
X67690476Y-81902380D01*
X67595238Y-81854761D01*
X67547619Y-81807142D01*
%TO.C,U5*%
X113167142Y-122022380D02*
X113833809Y-122022380D01*
X113405238Y-123022380D01*
X114643333Y-122355714D02*
X114643333Y-123022380D01*
X114405238Y-121974761D02*
X114167142Y-122689047D01*
X114786190Y-122689047D01*
X115643333Y-123022380D02*
X115167142Y-123022380D01*
X115167142Y-122022380D01*
X115929047Y-122974761D02*
X116071904Y-123022380D01*
X116310000Y-123022380D01*
X116405238Y-122974761D01*
X116452857Y-122927142D01*
X116500476Y-122831904D01*
X116500476Y-122736666D01*
X116452857Y-122641428D01*
X116405238Y-122593809D01*
X116310000Y-122546190D01*
X116119523Y-122498571D01*
X116024285Y-122450952D01*
X115976666Y-122403333D01*
X115929047Y-122308095D01*
X115929047Y-122212857D01*
X115976666Y-122117619D01*
X116024285Y-122070000D01*
X116119523Y-122022380D01*
X116357619Y-122022380D01*
X116500476Y-122070000D01*
X117119523Y-122022380D02*
X117214761Y-122022380D01*
X117310000Y-122070000D01*
X117357619Y-122117619D01*
X117405238Y-122212857D01*
X117452857Y-122403333D01*
X117452857Y-122641428D01*
X117405238Y-122831904D01*
X117357619Y-122927142D01*
X117310000Y-122974761D01*
X117214761Y-123022380D01*
X117119523Y-123022380D01*
X117024285Y-122974761D01*
X116976666Y-122927142D01*
X116929047Y-122831904D01*
X116881428Y-122641428D01*
X116881428Y-122403333D01*
X116929047Y-122212857D01*
X116976666Y-122117619D01*
X117024285Y-122070000D01*
X117119523Y-122022380D01*
X118024285Y-122450952D02*
X117929047Y-122403333D01*
X117881428Y-122355714D01*
X117833809Y-122260476D01*
X117833809Y-122212857D01*
X117881428Y-122117619D01*
X117929047Y-122070000D01*
X118024285Y-122022380D01*
X118214761Y-122022380D01*
X118310000Y-122070000D01*
X118357619Y-122117619D01*
X118405238Y-122212857D01*
X118405238Y-122260476D01*
X118357619Y-122355714D01*
X118310000Y-122403333D01*
X118214761Y-122450952D01*
X118024285Y-122450952D01*
X117929047Y-122498571D01*
X117881428Y-122546190D01*
X117833809Y-122641428D01*
X117833809Y-122831904D01*
X117881428Y-122927142D01*
X117929047Y-122974761D01*
X118024285Y-123022380D01*
X118214761Y-123022380D01*
X118310000Y-122974761D01*
X118357619Y-122927142D01*
X118405238Y-122831904D01*
X118405238Y-122641428D01*
X118357619Y-122546190D01*
X118310000Y-122498571D01*
X118214761Y-122450952D01*
%TO.C,U4*%
X95167142Y-122022380D02*
X95833809Y-122022380D01*
X95405238Y-123022380D01*
X96643333Y-122355714D02*
X96643333Y-123022380D01*
X96405238Y-121974761D02*
X96167142Y-122689047D01*
X96786190Y-122689047D01*
X97643333Y-123022380D02*
X97167142Y-123022380D01*
X97167142Y-122022380D01*
X97929047Y-122974761D02*
X98071904Y-123022380D01*
X98310000Y-123022380D01*
X98405238Y-122974761D01*
X98452857Y-122927142D01*
X98500476Y-122831904D01*
X98500476Y-122736666D01*
X98452857Y-122641428D01*
X98405238Y-122593809D01*
X98310000Y-122546190D01*
X98119523Y-122498571D01*
X98024285Y-122450952D01*
X97976666Y-122403333D01*
X97929047Y-122308095D01*
X97929047Y-122212857D01*
X97976666Y-122117619D01*
X98024285Y-122070000D01*
X98119523Y-122022380D01*
X98357619Y-122022380D01*
X98500476Y-122070000D01*
X99119523Y-122022380D02*
X99214761Y-122022380D01*
X99310000Y-122070000D01*
X99357619Y-122117619D01*
X99405238Y-122212857D01*
X99452857Y-122403333D01*
X99452857Y-122641428D01*
X99405238Y-122831904D01*
X99357619Y-122927142D01*
X99310000Y-122974761D01*
X99214761Y-123022380D01*
X99119523Y-123022380D01*
X99024285Y-122974761D01*
X98976666Y-122927142D01*
X98929047Y-122831904D01*
X98881428Y-122641428D01*
X98881428Y-122403333D01*
X98929047Y-122212857D01*
X98976666Y-122117619D01*
X99024285Y-122070000D01*
X99119523Y-122022380D01*
X100024285Y-122450952D02*
X99929047Y-122403333D01*
X99881428Y-122355714D01*
X99833809Y-122260476D01*
X99833809Y-122212857D01*
X99881428Y-122117619D01*
X99929047Y-122070000D01*
X100024285Y-122022380D01*
X100214761Y-122022380D01*
X100310000Y-122070000D01*
X100357619Y-122117619D01*
X100405238Y-122212857D01*
X100405238Y-122260476D01*
X100357619Y-122355714D01*
X100310000Y-122403333D01*
X100214761Y-122450952D01*
X100024285Y-122450952D01*
X99929047Y-122498571D01*
X99881428Y-122546190D01*
X99833809Y-122641428D01*
X99833809Y-122831904D01*
X99881428Y-122927142D01*
X99929047Y-122974761D01*
X100024285Y-123022380D01*
X100214761Y-123022380D01*
X100310000Y-122974761D01*
X100357619Y-122927142D01*
X100405238Y-122831904D01*
X100405238Y-122641428D01*
X100357619Y-122546190D01*
X100310000Y-122498571D01*
X100214761Y-122450952D01*
%TO.C,U3*%
X77167142Y-122022380D02*
X77833809Y-122022380D01*
X77405238Y-123022380D01*
X78643333Y-122355714D02*
X78643333Y-123022380D01*
X78405238Y-121974761D02*
X78167142Y-122689047D01*
X78786190Y-122689047D01*
X79643333Y-123022380D02*
X79167142Y-123022380D01*
X79167142Y-122022380D01*
X79929047Y-122974761D02*
X80071904Y-123022380D01*
X80310000Y-123022380D01*
X80405238Y-122974761D01*
X80452857Y-122927142D01*
X80500476Y-122831904D01*
X80500476Y-122736666D01*
X80452857Y-122641428D01*
X80405238Y-122593809D01*
X80310000Y-122546190D01*
X80119523Y-122498571D01*
X80024285Y-122450952D01*
X79976666Y-122403333D01*
X79929047Y-122308095D01*
X79929047Y-122212857D01*
X79976666Y-122117619D01*
X80024285Y-122070000D01*
X80119523Y-122022380D01*
X80357619Y-122022380D01*
X80500476Y-122070000D01*
X81119523Y-122022380D02*
X81214761Y-122022380D01*
X81310000Y-122070000D01*
X81357619Y-122117619D01*
X81405238Y-122212857D01*
X81452857Y-122403333D01*
X81452857Y-122641428D01*
X81405238Y-122831904D01*
X81357619Y-122927142D01*
X81310000Y-122974761D01*
X81214761Y-123022380D01*
X81119523Y-123022380D01*
X81024285Y-122974761D01*
X80976666Y-122927142D01*
X80929047Y-122831904D01*
X80881428Y-122641428D01*
X80881428Y-122403333D01*
X80929047Y-122212857D01*
X80976666Y-122117619D01*
X81024285Y-122070000D01*
X81119523Y-122022380D01*
X82024285Y-122450952D02*
X81929047Y-122403333D01*
X81881428Y-122355714D01*
X81833809Y-122260476D01*
X81833809Y-122212857D01*
X81881428Y-122117619D01*
X81929047Y-122070000D01*
X82024285Y-122022380D01*
X82214761Y-122022380D01*
X82310000Y-122070000D01*
X82357619Y-122117619D01*
X82405238Y-122212857D01*
X82405238Y-122260476D01*
X82357619Y-122355714D01*
X82310000Y-122403333D01*
X82214761Y-122450952D01*
X82024285Y-122450952D01*
X81929047Y-122498571D01*
X81881428Y-122546190D01*
X81833809Y-122641428D01*
X81833809Y-122831904D01*
X81881428Y-122927142D01*
X81929047Y-122974761D01*
X82024285Y-123022380D01*
X82214761Y-123022380D01*
X82310000Y-122974761D01*
X82357619Y-122927142D01*
X82405238Y-122831904D01*
X82405238Y-122641428D01*
X82357619Y-122546190D01*
X82310000Y-122498571D01*
X82214761Y-122450952D01*
%TO.C,U2*%
X59167142Y-122022380D02*
X59833809Y-122022380D01*
X59405238Y-123022380D01*
X60643333Y-122355714D02*
X60643333Y-123022380D01*
X60405238Y-121974761D02*
X60167142Y-122689047D01*
X60786190Y-122689047D01*
X61643333Y-123022380D02*
X61167142Y-123022380D01*
X61167142Y-122022380D01*
X61929047Y-122974761D02*
X62071904Y-123022380D01*
X62310000Y-123022380D01*
X62405238Y-122974761D01*
X62452857Y-122927142D01*
X62500476Y-122831904D01*
X62500476Y-122736666D01*
X62452857Y-122641428D01*
X62405238Y-122593809D01*
X62310000Y-122546190D01*
X62119523Y-122498571D01*
X62024285Y-122450952D01*
X61976666Y-122403333D01*
X61929047Y-122308095D01*
X61929047Y-122212857D01*
X61976666Y-122117619D01*
X62024285Y-122070000D01*
X62119523Y-122022380D01*
X62357619Y-122022380D01*
X62500476Y-122070000D01*
X63119523Y-122022380D02*
X63214761Y-122022380D01*
X63310000Y-122070000D01*
X63357619Y-122117619D01*
X63405238Y-122212857D01*
X63452857Y-122403333D01*
X63452857Y-122641428D01*
X63405238Y-122831904D01*
X63357619Y-122927142D01*
X63310000Y-122974761D01*
X63214761Y-123022380D01*
X63119523Y-123022380D01*
X63024285Y-122974761D01*
X62976666Y-122927142D01*
X62929047Y-122831904D01*
X62881428Y-122641428D01*
X62881428Y-122403333D01*
X62929047Y-122212857D01*
X62976666Y-122117619D01*
X63024285Y-122070000D01*
X63119523Y-122022380D01*
X64024285Y-122450952D02*
X63929047Y-122403333D01*
X63881428Y-122355714D01*
X63833809Y-122260476D01*
X63833809Y-122212857D01*
X63881428Y-122117619D01*
X63929047Y-122070000D01*
X64024285Y-122022380D01*
X64214761Y-122022380D01*
X64310000Y-122070000D01*
X64357619Y-122117619D01*
X64405238Y-122212857D01*
X64405238Y-122260476D01*
X64357619Y-122355714D01*
X64310000Y-122403333D01*
X64214761Y-122450952D01*
X64024285Y-122450952D01*
X63929047Y-122498571D01*
X63881428Y-122546190D01*
X63833809Y-122641428D01*
X63833809Y-122831904D01*
X63881428Y-122927142D01*
X63929047Y-122974761D01*
X64024285Y-123022380D01*
X64214761Y-123022380D01*
X64310000Y-122974761D01*
X64357619Y-122927142D01*
X64405238Y-122831904D01*
X64405238Y-122641428D01*
X64357619Y-122546190D01*
X64310000Y-122498571D01*
X64214761Y-122450952D01*
%TO.C,U1*%
X41167142Y-122022380D02*
X41833809Y-122022380D01*
X41405238Y-123022380D01*
X42643333Y-122355714D02*
X42643333Y-123022380D01*
X42405238Y-121974761D02*
X42167142Y-122689047D01*
X42786190Y-122689047D01*
X43643333Y-123022380D02*
X43167142Y-123022380D01*
X43167142Y-122022380D01*
X43929047Y-122974761D02*
X44071904Y-123022380D01*
X44310000Y-123022380D01*
X44405238Y-122974761D01*
X44452857Y-122927142D01*
X44500476Y-122831904D01*
X44500476Y-122736666D01*
X44452857Y-122641428D01*
X44405238Y-122593809D01*
X44310000Y-122546190D01*
X44119523Y-122498571D01*
X44024285Y-122450952D01*
X43976666Y-122403333D01*
X43929047Y-122308095D01*
X43929047Y-122212857D01*
X43976666Y-122117619D01*
X44024285Y-122070000D01*
X44119523Y-122022380D01*
X44357619Y-122022380D01*
X44500476Y-122070000D01*
X45119523Y-122022380D02*
X45214761Y-122022380D01*
X45310000Y-122070000D01*
X45357619Y-122117619D01*
X45405238Y-122212857D01*
X45452857Y-122403333D01*
X45452857Y-122641428D01*
X45405238Y-122831904D01*
X45357619Y-122927142D01*
X45310000Y-122974761D01*
X45214761Y-123022380D01*
X45119523Y-123022380D01*
X45024285Y-122974761D01*
X44976666Y-122927142D01*
X44929047Y-122831904D01*
X44881428Y-122641428D01*
X44881428Y-122403333D01*
X44929047Y-122212857D01*
X44976666Y-122117619D01*
X45024285Y-122070000D01*
X45119523Y-122022380D01*
X46024285Y-122450952D02*
X45929047Y-122403333D01*
X45881428Y-122355714D01*
X45833809Y-122260476D01*
X45833809Y-122212857D01*
X45881428Y-122117619D01*
X45929047Y-122070000D01*
X46024285Y-122022380D01*
X46214761Y-122022380D01*
X46310000Y-122070000D01*
X46357619Y-122117619D01*
X46405238Y-122212857D01*
X46405238Y-122260476D01*
X46357619Y-122355714D01*
X46310000Y-122403333D01*
X46214761Y-122450952D01*
X46024285Y-122450952D01*
X45929047Y-122498571D01*
X45881428Y-122546190D01*
X45833809Y-122641428D01*
X45833809Y-122831904D01*
X45881428Y-122927142D01*
X45929047Y-122974761D01*
X46024285Y-123022380D01*
X46214761Y-123022380D01*
X46310000Y-122974761D01*
X46357619Y-122927142D01*
X46405238Y-122831904D01*
X46405238Y-122641428D01*
X46357619Y-122546190D01*
X46310000Y-122498571D01*
X46214761Y-122450952D01*
%TO.C,U0*%
X37627380Y-100454761D02*
X37627380Y-100930952D01*
X36627380Y-100930952D01*
X37627380Y-100121428D02*
X36627380Y-100121428D01*
X37341666Y-99788095D01*
X36627380Y-99454761D01*
X37627380Y-99454761D01*
X36627380Y-99073809D02*
X36627380Y-98454761D01*
X37008333Y-98788095D01*
X37008333Y-98645238D01*
X37055952Y-98550000D01*
X37103571Y-98502380D01*
X37198809Y-98454761D01*
X37436904Y-98454761D01*
X37532142Y-98502380D01*
X37579761Y-98550000D01*
X37627380Y-98645238D01*
X37627380Y-98930952D01*
X37579761Y-99026190D01*
X37532142Y-99073809D01*
X36627380Y-97550000D02*
X36627380Y-98026190D01*
X37103571Y-98073809D01*
X37055952Y-98026190D01*
X37008333Y-97930952D01*
X37008333Y-97692857D01*
X37055952Y-97597619D01*
X37103571Y-97550000D01*
X37198809Y-97502380D01*
X37436904Y-97502380D01*
X37532142Y-97550000D01*
X37579761Y-97597619D01*
X37627380Y-97692857D01*
X37627380Y-97930952D01*
X37579761Y-98026190D01*
X37532142Y-98073809D01*
X36627380Y-96883333D02*
X36627380Y-96788095D01*
X36675000Y-96692857D01*
X36722619Y-96645238D01*
X36817857Y-96597619D01*
X37008333Y-96550000D01*
X37246428Y-96550000D01*
X37436904Y-96597619D01*
X37532142Y-96645238D01*
X37579761Y-96692857D01*
X37627380Y-96788095D01*
X37627380Y-96883333D01*
X37579761Y-96978571D01*
X37532142Y-97026190D01*
X37436904Y-97073809D01*
X37246428Y-97121428D01*
X37008333Y-97121428D01*
X36817857Y-97073809D01*
X36722619Y-97026190D01*
X36675000Y-96978571D01*
X36627380Y-96883333D01*
X37722619Y-96359523D02*
X37722619Y-95597619D01*
X36627380Y-95502380D02*
X36627380Y-94930952D01*
X37627380Y-95216666D02*
X36627380Y-95216666D01*
X36627380Y-94407142D02*
X36627380Y-94216666D01*
X36675000Y-94121428D01*
X36770238Y-94026190D01*
X36960714Y-93978571D01*
X37294047Y-93978571D01*
X37484523Y-94026190D01*
X37579761Y-94121428D01*
X37627380Y-94216666D01*
X37627380Y-94407142D01*
X37579761Y-94502380D01*
X37484523Y-94597619D01*
X37294047Y-94645238D01*
X36960714Y-94645238D01*
X36770238Y-94597619D01*
X36675000Y-94502380D01*
X36627380Y-94407142D01*
X36722619Y-93597619D02*
X36675000Y-93550000D01*
X36627380Y-93454761D01*
X36627380Y-93216666D01*
X36675000Y-93121428D01*
X36722619Y-93073809D01*
X36817857Y-93026190D01*
X36913095Y-93026190D01*
X37055952Y-93073809D01*
X37627380Y-93645238D01*
X37627380Y-93026190D01*
X36722619Y-92645238D02*
X36675000Y-92597619D01*
X36627380Y-92502380D01*
X36627380Y-92264285D01*
X36675000Y-92169047D01*
X36722619Y-92121428D01*
X36817857Y-92073809D01*
X36913095Y-92073809D01*
X37055952Y-92121428D01*
X37627380Y-92692857D01*
X37627380Y-92073809D01*
X36627380Y-91454761D02*
X36627380Y-91359523D01*
X36675000Y-91264285D01*
X36722619Y-91216666D01*
X36817857Y-91169047D01*
X37008333Y-91121428D01*
X37246428Y-91121428D01*
X37436904Y-91169047D01*
X37532142Y-91216666D01*
X37579761Y-91264285D01*
X37627380Y-91359523D01*
X37627380Y-91454761D01*
X37579761Y-91550000D01*
X37532142Y-91597619D01*
X37436904Y-91645238D01*
X37246428Y-91692857D01*
X37008333Y-91692857D01*
X36817857Y-91645238D01*
X36722619Y-91597619D01*
X36675000Y-91550000D01*
X36627380Y-91454761D01*
%TO.C,SW6*%
X133666666Y-136154761D02*
X133809523Y-136202380D01*
X134047619Y-136202380D01*
X134142857Y-136154761D01*
X134190476Y-136107142D01*
X134238095Y-136011904D01*
X134238095Y-135916666D01*
X134190476Y-135821428D01*
X134142857Y-135773809D01*
X134047619Y-135726190D01*
X133857142Y-135678571D01*
X133761904Y-135630952D01*
X133714285Y-135583333D01*
X133666666Y-135488095D01*
X133666666Y-135392857D01*
X133714285Y-135297619D01*
X133761904Y-135250000D01*
X133857142Y-135202380D01*
X134095238Y-135202380D01*
X134238095Y-135250000D01*
X134571428Y-135202380D02*
X134809523Y-136202380D01*
X135000000Y-135488095D01*
X135190476Y-136202380D01*
X135428571Y-135202380D01*
X136238095Y-135202380D02*
X136047619Y-135202380D01*
X135952380Y-135250000D01*
X135904761Y-135297619D01*
X135809523Y-135440476D01*
X135761904Y-135630952D01*
X135761904Y-136011904D01*
X135809523Y-136107142D01*
X135857142Y-136154761D01*
X135952380Y-136202380D01*
X136142857Y-136202380D01*
X136238095Y-136154761D01*
X136285714Y-136107142D01*
X136333333Y-136011904D01*
X136333333Y-135773809D01*
X136285714Y-135678571D01*
X136238095Y-135630952D01*
X136142857Y-135583333D01*
X135952380Y-135583333D01*
X135857142Y-135630952D01*
X135809523Y-135678571D01*
X135761904Y-135773809D01*
%TO.C,SW5*%
X113716666Y-136704761D02*
X113859523Y-136752380D01*
X114097619Y-136752380D01*
X114192857Y-136704761D01*
X114240476Y-136657142D01*
X114288095Y-136561904D01*
X114288095Y-136466666D01*
X114240476Y-136371428D01*
X114192857Y-136323809D01*
X114097619Y-136276190D01*
X113907142Y-136228571D01*
X113811904Y-136180952D01*
X113764285Y-136133333D01*
X113716666Y-136038095D01*
X113716666Y-135942857D01*
X113764285Y-135847619D01*
X113811904Y-135800000D01*
X113907142Y-135752380D01*
X114145238Y-135752380D01*
X114288095Y-135800000D01*
X114621428Y-135752380D02*
X114859523Y-136752380D01*
X115050000Y-136038095D01*
X115240476Y-136752380D01*
X115478571Y-135752380D01*
X116335714Y-135752380D02*
X115859523Y-135752380D01*
X115811904Y-136228571D01*
X115859523Y-136180952D01*
X115954761Y-136133333D01*
X116192857Y-136133333D01*
X116288095Y-136180952D01*
X116335714Y-136228571D01*
X116383333Y-136323809D01*
X116383333Y-136561904D01*
X116335714Y-136657142D01*
X116288095Y-136704761D01*
X116192857Y-136752380D01*
X115954761Y-136752380D01*
X115859523Y-136704761D01*
X115811904Y-136657142D01*
%TO.C,SW4*%
X93716666Y-136554761D02*
X93859523Y-136602380D01*
X94097619Y-136602380D01*
X94192857Y-136554761D01*
X94240476Y-136507142D01*
X94288095Y-136411904D01*
X94288095Y-136316666D01*
X94240476Y-136221428D01*
X94192857Y-136173809D01*
X94097619Y-136126190D01*
X93907142Y-136078571D01*
X93811904Y-136030952D01*
X93764285Y-135983333D01*
X93716666Y-135888095D01*
X93716666Y-135792857D01*
X93764285Y-135697619D01*
X93811904Y-135650000D01*
X93907142Y-135602380D01*
X94145238Y-135602380D01*
X94288095Y-135650000D01*
X94621428Y-135602380D02*
X94859523Y-136602380D01*
X95050000Y-135888095D01*
X95240476Y-136602380D01*
X95478571Y-135602380D01*
X96288095Y-135935714D02*
X96288095Y-136602380D01*
X96050000Y-135554761D02*
X95811904Y-136269047D01*
X96430952Y-136269047D01*
%TO.C,SW3*%
X73716666Y-136404761D02*
X73859523Y-136452380D01*
X74097619Y-136452380D01*
X74192857Y-136404761D01*
X74240476Y-136357142D01*
X74288095Y-136261904D01*
X74288095Y-136166666D01*
X74240476Y-136071428D01*
X74192857Y-136023809D01*
X74097619Y-135976190D01*
X73907142Y-135928571D01*
X73811904Y-135880952D01*
X73764285Y-135833333D01*
X73716666Y-135738095D01*
X73716666Y-135642857D01*
X73764285Y-135547619D01*
X73811904Y-135500000D01*
X73907142Y-135452380D01*
X74145238Y-135452380D01*
X74288095Y-135500000D01*
X74621428Y-135452380D02*
X74859523Y-136452380D01*
X75050000Y-135738095D01*
X75240476Y-136452380D01*
X75478571Y-135452380D01*
X75764285Y-135452380D02*
X76383333Y-135452380D01*
X76050000Y-135833333D01*
X76192857Y-135833333D01*
X76288095Y-135880952D01*
X76335714Y-135928571D01*
X76383333Y-136023809D01*
X76383333Y-136261904D01*
X76335714Y-136357142D01*
X76288095Y-136404761D01*
X76192857Y-136452380D01*
X75907142Y-136452380D01*
X75811904Y-136404761D01*
X75764285Y-136357142D01*
%TO.C,SW2*%
X53716666Y-136354761D02*
X53859523Y-136402380D01*
X54097619Y-136402380D01*
X54192857Y-136354761D01*
X54240476Y-136307142D01*
X54288095Y-136211904D01*
X54288095Y-136116666D01*
X54240476Y-136021428D01*
X54192857Y-135973809D01*
X54097619Y-135926190D01*
X53907142Y-135878571D01*
X53811904Y-135830952D01*
X53764285Y-135783333D01*
X53716666Y-135688095D01*
X53716666Y-135592857D01*
X53764285Y-135497619D01*
X53811904Y-135450000D01*
X53907142Y-135402380D01*
X54145238Y-135402380D01*
X54288095Y-135450000D01*
X54621428Y-135402380D02*
X54859523Y-136402380D01*
X55050000Y-135688095D01*
X55240476Y-136402380D01*
X55478571Y-135402380D01*
X55811904Y-135497619D02*
X55859523Y-135450000D01*
X55954761Y-135402380D01*
X56192857Y-135402380D01*
X56288095Y-135450000D01*
X56335714Y-135497619D01*
X56383333Y-135592857D01*
X56383333Y-135688095D01*
X56335714Y-135830952D01*
X55764285Y-136402380D01*
X56383333Y-136402380D01*
%TO.C,SW1*%
X33966666Y-136254761D02*
X34109523Y-136302380D01*
X34347619Y-136302380D01*
X34442857Y-136254761D01*
X34490476Y-136207142D01*
X34538095Y-136111904D01*
X34538095Y-136016666D01*
X34490476Y-135921428D01*
X34442857Y-135873809D01*
X34347619Y-135826190D01*
X34157142Y-135778571D01*
X34061904Y-135730952D01*
X34014285Y-135683333D01*
X33966666Y-135588095D01*
X33966666Y-135492857D01*
X34014285Y-135397619D01*
X34061904Y-135350000D01*
X34157142Y-135302380D01*
X34395238Y-135302380D01*
X34538095Y-135350000D01*
X34871428Y-135302380D02*
X35109523Y-136302380D01*
X35300000Y-135588095D01*
X35490476Y-136302380D01*
X35728571Y-135302380D01*
X36633333Y-136302380D02*
X36061904Y-136302380D01*
X36347619Y-136302380D02*
X36347619Y-135302380D01*
X36252380Y-135445238D01*
X36157142Y-135540476D01*
X36061904Y-135588095D01*
%TO.C,R99*%
X46770285Y-93432380D02*
X47389333Y-93432380D01*
X47056000Y-93813333D01*
X47198857Y-93813333D01*
X47294095Y-93860952D01*
X47341714Y-93908571D01*
X47389333Y-94003809D01*
X47389333Y-94241904D01*
X47341714Y-94337142D01*
X47294095Y-94384761D01*
X47198857Y-94432380D01*
X46913142Y-94432380D01*
X46817904Y-94384761D01*
X46770285Y-94337142D01*
X47722666Y-93432380D02*
X48341714Y-93432380D01*
X48008380Y-93813333D01*
X48151238Y-93813333D01*
X48246476Y-93860952D01*
X48294095Y-93908571D01*
X48341714Y-94003809D01*
X48341714Y-94241904D01*
X48294095Y-94337142D01*
X48246476Y-94384761D01*
X48151238Y-94432380D01*
X47865523Y-94432380D01*
X47770285Y-94384761D01*
X47722666Y-94337142D01*
X48960761Y-93432380D02*
X49056000Y-93432380D01*
X49151238Y-93480000D01*
X49198857Y-93527619D01*
X49246476Y-93622857D01*
X49294095Y-93813333D01*
X49294095Y-94051428D01*
X49246476Y-94241904D01*
X49198857Y-94337142D01*
X49151238Y-94384761D01*
X49056000Y-94432380D01*
X48960761Y-94432380D01*
X48865523Y-94384761D01*
X48817904Y-94337142D01*
X48770285Y-94241904D01*
X48722666Y-94051428D01*
X48722666Y-93813333D01*
X48770285Y-93622857D01*
X48817904Y-93527619D01*
X48865523Y-93480000D01*
X48960761Y-93432380D01*
%TO.C,R98*%
X47880952Y-99002380D02*
X47309523Y-99002380D01*
X47595238Y-99002380D02*
X47595238Y-98002380D01*
X47500000Y-98145238D01*
X47404761Y-98240476D01*
X47309523Y-98288095D01*
X48309523Y-99002380D02*
X48309523Y-98002380D01*
X48404761Y-98621428D02*
X48690476Y-99002380D01*
X48690476Y-98335714D02*
X48309523Y-98716666D01*
%TO.C,R6*%
X137311904Y-129497619D02*
X137359523Y-129450000D01*
X137454761Y-129402380D01*
X137692857Y-129402380D01*
X137788095Y-129450000D01*
X137835714Y-129497619D01*
X137883333Y-129592857D01*
X137883333Y-129688095D01*
X137835714Y-129830952D01*
X137264285Y-130402380D01*
X137883333Y-130402380D01*
X138264285Y-129497619D02*
X138311904Y-129450000D01*
X138407142Y-129402380D01*
X138645238Y-129402380D01*
X138740476Y-129450000D01*
X138788095Y-129497619D01*
X138835714Y-129592857D01*
X138835714Y-129688095D01*
X138788095Y-129830952D01*
X138216666Y-130402380D01*
X138835714Y-130402380D01*
X139454761Y-129402380D02*
X139550000Y-129402380D01*
X139645238Y-129450000D01*
X139692857Y-129497619D01*
X139740476Y-129592857D01*
X139788095Y-129783333D01*
X139788095Y-130021428D01*
X139740476Y-130211904D01*
X139692857Y-130307142D01*
X139645238Y-130354761D01*
X139550000Y-130402380D01*
X139454761Y-130402380D01*
X139359523Y-130354761D01*
X139311904Y-130307142D01*
X139264285Y-130211904D01*
X139216666Y-130021428D01*
X139216666Y-129783333D01*
X139264285Y-129592857D01*
X139311904Y-129497619D01*
X139359523Y-129450000D01*
X139454761Y-129402380D01*
%TO.C,R5*%
X117361904Y-129547619D02*
X117409523Y-129500000D01*
X117504761Y-129452380D01*
X117742857Y-129452380D01*
X117838095Y-129500000D01*
X117885714Y-129547619D01*
X117933333Y-129642857D01*
X117933333Y-129738095D01*
X117885714Y-129880952D01*
X117314285Y-130452380D01*
X117933333Y-130452380D01*
X118314285Y-129547619D02*
X118361904Y-129500000D01*
X118457142Y-129452380D01*
X118695238Y-129452380D01*
X118790476Y-129500000D01*
X118838095Y-129547619D01*
X118885714Y-129642857D01*
X118885714Y-129738095D01*
X118838095Y-129880952D01*
X118266666Y-130452380D01*
X118885714Y-130452380D01*
X119504761Y-129452380D02*
X119600000Y-129452380D01*
X119695238Y-129500000D01*
X119742857Y-129547619D01*
X119790476Y-129642857D01*
X119838095Y-129833333D01*
X119838095Y-130071428D01*
X119790476Y-130261904D01*
X119742857Y-130357142D01*
X119695238Y-130404761D01*
X119600000Y-130452380D01*
X119504761Y-130452380D01*
X119409523Y-130404761D01*
X119361904Y-130357142D01*
X119314285Y-130261904D01*
X119266666Y-130071428D01*
X119266666Y-129833333D01*
X119314285Y-129642857D01*
X119361904Y-129547619D01*
X119409523Y-129500000D01*
X119504761Y-129452380D01*
%TO.C,R4*%
X97381904Y-129547619D02*
X97429523Y-129500000D01*
X97524761Y-129452380D01*
X97762857Y-129452380D01*
X97858095Y-129500000D01*
X97905714Y-129547619D01*
X97953333Y-129642857D01*
X97953333Y-129738095D01*
X97905714Y-129880952D01*
X97334285Y-130452380D01*
X97953333Y-130452380D01*
X98334285Y-129547619D02*
X98381904Y-129500000D01*
X98477142Y-129452380D01*
X98715238Y-129452380D01*
X98810476Y-129500000D01*
X98858095Y-129547619D01*
X98905714Y-129642857D01*
X98905714Y-129738095D01*
X98858095Y-129880952D01*
X98286666Y-130452380D01*
X98905714Y-130452380D01*
X99524761Y-129452380D02*
X99620000Y-129452380D01*
X99715238Y-129500000D01*
X99762857Y-129547619D01*
X99810476Y-129642857D01*
X99858095Y-129833333D01*
X99858095Y-130071428D01*
X99810476Y-130261904D01*
X99762857Y-130357142D01*
X99715238Y-130404761D01*
X99620000Y-130452380D01*
X99524761Y-130452380D01*
X99429523Y-130404761D01*
X99381904Y-130357142D01*
X99334285Y-130261904D01*
X99286666Y-130071428D01*
X99286666Y-129833333D01*
X99334285Y-129642857D01*
X99381904Y-129547619D01*
X99429523Y-129500000D01*
X99524761Y-129452380D01*
%TO.C,R3*%
X77361904Y-129597619D02*
X77409523Y-129550000D01*
X77504761Y-129502380D01*
X77742857Y-129502380D01*
X77838095Y-129550000D01*
X77885714Y-129597619D01*
X77933333Y-129692857D01*
X77933333Y-129788095D01*
X77885714Y-129930952D01*
X77314285Y-130502380D01*
X77933333Y-130502380D01*
X78314285Y-129597619D02*
X78361904Y-129550000D01*
X78457142Y-129502380D01*
X78695238Y-129502380D01*
X78790476Y-129550000D01*
X78838095Y-129597619D01*
X78885714Y-129692857D01*
X78885714Y-129788095D01*
X78838095Y-129930952D01*
X78266666Y-130502380D01*
X78885714Y-130502380D01*
X79504761Y-129502380D02*
X79600000Y-129502380D01*
X79695238Y-129550000D01*
X79742857Y-129597619D01*
X79790476Y-129692857D01*
X79838095Y-129883333D01*
X79838095Y-130121428D01*
X79790476Y-130311904D01*
X79742857Y-130407142D01*
X79695238Y-130454761D01*
X79600000Y-130502380D01*
X79504761Y-130502380D01*
X79409523Y-130454761D01*
X79361904Y-130407142D01*
X79314285Y-130311904D01*
X79266666Y-130121428D01*
X79266666Y-129883333D01*
X79314285Y-129692857D01*
X79361904Y-129597619D01*
X79409523Y-129550000D01*
X79504761Y-129502380D01*
%TO.C,R2*%
X57361904Y-129547619D02*
X57409523Y-129500000D01*
X57504761Y-129452380D01*
X57742857Y-129452380D01*
X57838095Y-129500000D01*
X57885714Y-129547619D01*
X57933333Y-129642857D01*
X57933333Y-129738095D01*
X57885714Y-129880952D01*
X57314285Y-130452380D01*
X57933333Y-130452380D01*
X58314285Y-129547619D02*
X58361904Y-129500000D01*
X58457142Y-129452380D01*
X58695238Y-129452380D01*
X58790476Y-129500000D01*
X58838095Y-129547619D01*
X58885714Y-129642857D01*
X58885714Y-129738095D01*
X58838095Y-129880952D01*
X58266666Y-130452380D01*
X58885714Y-130452380D01*
X59504761Y-129452380D02*
X59600000Y-129452380D01*
X59695238Y-129500000D01*
X59742857Y-129547619D01*
X59790476Y-129642857D01*
X59838095Y-129833333D01*
X59838095Y-130071428D01*
X59790476Y-130261904D01*
X59742857Y-130357142D01*
X59695238Y-130404761D01*
X59600000Y-130452380D01*
X59504761Y-130452380D01*
X59409523Y-130404761D01*
X59361904Y-130357142D01*
X59314285Y-130261904D01*
X59266666Y-130071428D01*
X59266666Y-129833333D01*
X59314285Y-129642857D01*
X59361904Y-129547619D01*
X59409523Y-129500000D01*
X59504761Y-129452380D01*
%TO.C,R1*%
X37361904Y-129597619D02*
X37409523Y-129550000D01*
X37504761Y-129502380D01*
X37742857Y-129502380D01*
X37838095Y-129550000D01*
X37885714Y-129597619D01*
X37933333Y-129692857D01*
X37933333Y-129788095D01*
X37885714Y-129930952D01*
X37314285Y-130502380D01*
X37933333Y-130502380D01*
X38314285Y-129597619D02*
X38361904Y-129550000D01*
X38457142Y-129502380D01*
X38695238Y-129502380D01*
X38790476Y-129550000D01*
X38838095Y-129597619D01*
X38885714Y-129692857D01*
X38885714Y-129788095D01*
X38838095Y-129930952D01*
X38266666Y-130502380D01*
X38885714Y-130502380D01*
X39504761Y-129502380D02*
X39600000Y-129502380D01*
X39695238Y-129550000D01*
X39742857Y-129597619D01*
X39790476Y-129692857D01*
X39838095Y-129883333D01*
X39838095Y-130121428D01*
X39790476Y-130311904D01*
X39742857Y-130407142D01*
X39695238Y-130454761D01*
X39600000Y-130502380D01*
X39504761Y-130502380D01*
X39409523Y-130454761D01*
X39361904Y-130407142D01*
X39314285Y-130311904D01*
X39266666Y-130121428D01*
X39266666Y-129883333D01*
X39314285Y-129692857D01*
X39361904Y-129597619D01*
X39409523Y-129550000D01*
X39504761Y-129502380D01*
%TO.C,J9*%
X134666666Y-80902380D02*
X134666666Y-81616666D01*
X134619047Y-81759523D01*
X134523809Y-81854761D01*
X134380952Y-81902380D01*
X134285714Y-81902380D01*
X135190476Y-81902380D02*
X135380952Y-81902380D01*
X135476190Y-81854761D01*
X135523809Y-81807142D01*
X135619047Y-81664285D01*
X135666666Y-81473809D01*
X135666666Y-81092857D01*
X135619047Y-80997619D01*
X135571428Y-80950000D01*
X135476190Y-80902380D01*
X135285714Y-80902380D01*
X135190476Y-80950000D01*
X135142857Y-80997619D01*
X135095238Y-81092857D01*
X135095238Y-81330952D01*
X135142857Y-81426190D01*
X135190476Y-81473809D01*
X135285714Y-81521428D01*
X135476190Y-81521428D01*
X135571428Y-81473809D01*
X135619047Y-81426190D01*
X135666666Y-81330952D01*
%TO.C,J8*%
X134666666Y-90902380D02*
X134666666Y-91616666D01*
X134619047Y-91759523D01*
X134523809Y-91854761D01*
X134380952Y-91902380D01*
X134285714Y-91902380D01*
X135285714Y-91330952D02*
X135190476Y-91283333D01*
X135142857Y-91235714D01*
X135095238Y-91140476D01*
X135095238Y-91092857D01*
X135142857Y-90997619D01*
X135190476Y-90950000D01*
X135285714Y-90902380D01*
X135476190Y-90902380D01*
X135571428Y-90950000D01*
X135619047Y-90997619D01*
X135666666Y-91092857D01*
X135666666Y-91140476D01*
X135619047Y-91235714D01*
X135571428Y-91283333D01*
X135476190Y-91330952D01*
X135285714Y-91330952D01*
X135190476Y-91378571D01*
X135142857Y-91426190D01*
X135095238Y-91521428D01*
X135095238Y-91711904D01*
X135142857Y-91807142D01*
X135190476Y-91854761D01*
X135285714Y-91902380D01*
X135476190Y-91902380D01*
X135571428Y-91854761D01*
X135619047Y-91807142D01*
X135666666Y-91711904D01*
X135666666Y-91521428D01*
X135619047Y-91426190D01*
X135571428Y-91378571D01*
X135476190Y-91330952D01*
%TO.C,J7*%
X112166666Y-80902380D02*
X112166666Y-81616666D01*
X112119047Y-81759523D01*
X112023809Y-81854761D01*
X111880952Y-81902380D01*
X111785714Y-81902380D01*
X112547619Y-80902380D02*
X113214285Y-80902380D01*
X112785714Y-81902380D01*
%TO.C,J6*%
X112166666Y-90902380D02*
X112166666Y-91616666D01*
X112119047Y-91759523D01*
X112023809Y-91854761D01*
X111880952Y-91902380D01*
X111785714Y-91902380D01*
X113071428Y-90902380D02*
X112880952Y-90902380D01*
X112785714Y-90950000D01*
X112738095Y-90997619D01*
X112642857Y-91140476D01*
X112595238Y-91330952D01*
X112595238Y-91711904D01*
X112642857Y-91807142D01*
X112690476Y-91854761D01*
X112785714Y-91902380D01*
X112976190Y-91902380D01*
X113071428Y-91854761D01*
X113119047Y-91807142D01*
X113166666Y-91711904D01*
X113166666Y-91473809D01*
X113119047Y-91378571D01*
X113071428Y-91330952D01*
X112976190Y-91283333D01*
X112785714Y-91283333D01*
X112690476Y-91330952D01*
X112642857Y-91378571D01*
X112595238Y-91473809D01*
%TO.C,J5*%
X89666666Y-80902380D02*
X89666666Y-81616666D01*
X89619047Y-81759523D01*
X89523809Y-81854761D01*
X89380952Y-81902380D01*
X89285714Y-81902380D01*
X90619047Y-80902380D02*
X90142857Y-80902380D01*
X90095238Y-81378571D01*
X90142857Y-81330952D01*
X90238095Y-81283333D01*
X90476190Y-81283333D01*
X90571428Y-81330952D01*
X90619047Y-81378571D01*
X90666666Y-81473809D01*
X90666666Y-81711904D01*
X90619047Y-81807142D01*
X90571428Y-81854761D01*
X90476190Y-81902380D01*
X90238095Y-81902380D01*
X90142857Y-81854761D01*
X90095238Y-81807142D01*
%TO.C,J4*%
X89666666Y-90902380D02*
X89666666Y-91616666D01*
X89619047Y-91759523D01*
X89523809Y-91854761D01*
X89380952Y-91902380D01*
X89285714Y-91902380D01*
X90571428Y-91235714D02*
X90571428Y-91902380D01*
X90333333Y-90854761D02*
X90095238Y-91569047D01*
X90714285Y-91569047D01*
%TO.C,J2*%
X45475714Y-90778361D02*
X45618571Y-90825980D01*
X45666190Y-90873599D01*
X45713809Y-90968837D01*
X45713809Y-91111694D01*
X45666190Y-91206932D01*
X45618571Y-91254551D01*
X45523333Y-91302170D01*
X45142380Y-91302170D01*
X45142380Y-90302170D01*
X45475714Y-90302170D01*
X45570952Y-90349790D01*
X45618571Y-90397409D01*
X45666190Y-90492647D01*
X45666190Y-90587885D01*
X45618571Y-90683123D01*
X45570952Y-90730742D01*
X45475714Y-90778361D01*
X45142380Y-90778361D01*
X46285238Y-91302170D02*
X46190000Y-91254551D01*
X46142380Y-91159313D01*
X46142380Y-90302170D01*
X47094761Y-91302170D02*
X47094761Y-90778361D01*
X47047142Y-90683123D01*
X46951904Y-90635504D01*
X46761428Y-90635504D01*
X46666190Y-90683123D01*
X47094761Y-91254551D02*
X46999523Y-91302170D01*
X46761428Y-91302170D01*
X46666190Y-91254551D01*
X46618571Y-91159313D01*
X46618571Y-91064075D01*
X46666190Y-90968837D01*
X46761428Y-90921218D01*
X46999523Y-90921218D01*
X47094761Y-90873599D01*
X47570952Y-90635504D02*
X47570952Y-91302170D01*
X47570952Y-90730742D02*
X47618571Y-90683123D01*
X47713809Y-90635504D01*
X47856666Y-90635504D01*
X47951904Y-90683123D01*
X47999523Y-90778361D01*
X47999523Y-91302170D01*
X48475714Y-91302170D02*
X48475714Y-90302170D01*
X48570952Y-90921218D02*
X48856666Y-91302170D01*
X48856666Y-90635504D02*
X48475714Y-91016456D01*
X49285238Y-91302170D02*
X49285238Y-90635504D01*
X49285238Y-90302170D02*
X49237619Y-90349790D01*
X49285238Y-90397409D01*
X49332857Y-90349790D01*
X49285238Y-90302170D01*
X49285238Y-90397409D01*
X49761428Y-90635504D02*
X49761428Y-91302170D01*
X49761428Y-90730742D02*
X49809047Y-90683123D01*
X49904285Y-90635504D01*
X50047142Y-90635504D01*
X50142380Y-90683123D01*
X50190000Y-90778361D01*
X50190000Y-91302170D01*
X51094761Y-90635504D02*
X51094761Y-91445028D01*
X51047142Y-91540266D01*
X50999523Y-91587885D01*
X50904285Y-91635504D01*
X50761428Y-91635504D01*
X50666190Y-91587885D01*
X51094761Y-91254551D02*
X50999523Y-91302170D01*
X50809047Y-91302170D01*
X50713809Y-91254551D01*
X50666190Y-91206932D01*
X50618571Y-91111694D01*
X50618571Y-90825980D01*
X50666190Y-90730742D01*
X50713809Y-90683123D01*
X50809047Y-90635504D01*
X50999523Y-90635504D01*
X51094761Y-90683123D01*
X52332857Y-91302170D02*
X52332857Y-90302170D01*
X52809047Y-90635504D02*
X52809047Y-91302170D01*
X52809047Y-90730742D02*
X52856666Y-90683123D01*
X52951904Y-90635504D01*
X53094761Y-90635504D01*
X53190000Y-90683123D01*
X53237619Y-90778361D01*
X53237619Y-91302170D01*
%TO.C,J1*%
X36349404Y-87178571D02*
X36492261Y-87226190D01*
X36539880Y-87273809D01*
X36587500Y-87369047D01*
X36587500Y-87511904D01*
X36539880Y-87607142D01*
X36492261Y-87654761D01*
X36397023Y-87702380D01*
X36016071Y-87702380D01*
X36016071Y-86702380D01*
X36349404Y-86702380D01*
X36444642Y-86750000D01*
X36492261Y-86797619D01*
X36539880Y-86892857D01*
X36539880Y-86988095D01*
X36492261Y-87083333D01*
X36444642Y-87130952D01*
X36349404Y-87178571D01*
X36016071Y-87178571D01*
X37444642Y-87702380D02*
X37444642Y-87178571D01*
X37397023Y-87083333D01*
X37301785Y-87035714D01*
X37111309Y-87035714D01*
X37016071Y-87083333D01*
X37444642Y-87654761D02*
X37349404Y-87702380D01*
X37111309Y-87702380D01*
X37016071Y-87654761D01*
X36968452Y-87559523D01*
X36968452Y-87464285D01*
X37016071Y-87369047D01*
X37111309Y-87321428D01*
X37349404Y-87321428D01*
X37444642Y-87273809D01*
X37920833Y-87702380D02*
X37920833Y-87035714D01*
X37920833Y-87226190D02*
X37968452Y-87130952D01*
X38016071Y-87083333D01*
X38111309Y-87035714D01*
X38206547Y-87035714D01*
X38539880Y-87702380D02*
X38539880Y-87035714D01*
X38539880Y-87226190D02*
X38587500Y-87130952D01*
X38635119Y-87083333D01*
X38730357Y-87035714D01*
X38825595Y-87035714D01*
X39539880Y-87654761D02*
X39444642Y-87702380D01*
X39254166Y-87702380D01*
X39158928Y-87654761D01*
X39111309Y-87559523D01*
X39111309Y-87178571D01*
X39158928Y-87083333D01*
X39254166Y-87035714D01*
X39444642Y-87035714D01*
X39539880Y-87083333D01*
X39587500Y-87178571D01*
X39587500Y-87273809D01*
X39111309Y-87369047D01*
X40158928Y-87702380D02*
X40063690Y-87654761D01*
X40016071Y-87559523D01*
X40016071Y-86702380D01*
X40301785Y-87797619D02*
X41063690Y-87797619D01*
X41587500Y-86702380D02*
X41587500Y-87416666D01*
X41539880Y-87559523D01*
X41444642Y-87654761D01*
X41301785Y-87702380D01*
X41206547Y-87702380D01*
X42492261Y-87702380D02*
X42492261Y-87178571D01*
X42444642Y-87083333D01*
X42349404Y-87035714D01*
X42158928Y-87035714D01*
X42063690Y-87083333D01*
X42492261Y-87654761D02*
X42397023Y-87702380D01*
X42158928Y-87702380D01*
X42063690Y-87654761D01*
X42016071Y-87559523D01*
X42016071Y-87464285D01*
X42063690Y-87369047D01*
X42158928Y-87321428D01*
X42397023Y-87321428D01*
X42492261Y-87273809D01*
X43397023Y-87654761D02*
X43301785Y-87702380D01*
X43111309Y-87702380D01*
X43016071Y-87654761D01*
X42968452Y-87607142D01*
X42920833Y-87511904D01*
X42920833Y-87226190D01*
X42968452Y-87130952D01*
X43016071Y-87083333D01*
X43111309Y-87035714D01*
X43301785Y-87035714D01*
X43397023Y-87083333D01*
X43825595Y-87702380D02*
X43825595Y-86702380D01*
X43920833Y-87321428D02*
X44206547Y-87702380D01*
X44206547Y-87035714D02*
X43825595Y-87416666D01*
%TO.C,D6*%
X142911904Y-137252380D02*
X142911904Y-136252380D01*
X143150000Y-136252380D01*
X143292857Y-136300000D01*
X143388095Y-136395238D01*
X143435714Y-136490476D01*
X143483333Y-136680952D01*
X143483333Y-136823809D01*
X143435714Y-137014285D01*
X143388095Y-137109523D01*
X143292857Y-137204761D01*
X143150000Y-137252380D01*
X142911904Y-137252380D01*
X144340476Y-136252380D02*
X144150000Y-136252380D01*
X144054761Y-136300000D01*
X144007142Y-136347619D01*
X143911904Y-136490476D01*
X143864285Y-136680952D01*
X143864285Y-137061904D01*
X143911904Y-137157142D01*
X143959523Y-137204761D01*
X144054761Y-137252380D01*
X144245238Y-137252380D01*
X144340476Y-137204761D01*
X144388095Y-137157142D01*
X144435714Y-137061904D01*
X144435714Y-136823809D01*
X144388095Y-136728571D01*
X144340476Y-136680952D01*
X144245238Y-136633333D01*
X144054761Y-136633333D01*
X143959523Y-136680952D01*
X143911904Y-136728571D01*
X143864285Y-136823809D01*
%TO.C,D5*%
X123011904Y-137352380D02*
X123011904Y-136352380D01*
X123250000Y-136352380D01*
X123392857Y-136400000D01*
X123488095Y-136495238D01*
X123535714Y-136590476D01*
X123583333Y-136780952D01*
X123583333Y-136923809D01*
X123535714Y-137114285D01*
X123488095Y-137209523D01*
X123392857Y-137304761D01*
X123250000Y-137352380D01*
X123011904Y-137352380D01*
X124488095Y-136352380D02*
X124011904Y-136352380D01*
X123964285Y-136828571D01*
X124011904Y-136780952D01*
X124107142Y-136733333D01*
X124345238Y-136733333D01*
X124440476Y-136780952D01*
X124488095Y-136828571D01*
X124535714Y-136923809D01*
X124535714Y-137161904D01*
X124488095Y-137257142D01*
X124440476Y-137304761D01*
X124345238Y-137352380D01*
X124107142Y-137352380D01*
X124011904Y-137304761D01*
X123964285Y-137257142D01*
%TO.C,D4*%
X102911904Y-137352380D02*
X102911904Y-136352380D01*
X103150000Y-136352380D01*
X103292857Y-136400000D01*
X103388095Y-136495238D01*
X103435714Y-136590476D01*
X103483333Y-136780952D01*
X103483333Y-136923809D01*
X103435714Y-137114285D01*
X103388095Y-137209523D01*
X103292857Y-137304761D01*
X103150000Y-137352380D01*
X102911904Y-137352380D01*
X104340476Y-136685714D02*
X104340476Y-137352380D01*
X104102380Y-136304761D02*
X103864285Y-137019047D01*
X104483333Y-137019047D01*
%TO.C,D3*%
X83011904Y-137252380D02*
X83011904Y-136252380D01*
X83250000Y-136252380D01*
X83392857Y-136300000D01*
X83488095Y-136395238D01*
X83535714Y-136490476D01*
X83583333Y-136680952D01*
X83583333Y-136823809D01*
X83535714Y-137014285D01*
X83488095Y-137109523D01*
X83392857Y-137204761D01*
X83250000Y-137252380D01*
X83011904Y-137252380D01*
X83916666Y-136252380D02*
X84535714Y-136252380D01*
X84202380Y-136633333D01*
X84345238Y-136633333D01*
X84440476Y-136680952D01*
X84488095Y-136728571D01*
X84535714Y-136823809D01*
X84535714Y-137061904D01*
X84488095Y-137157142D01*
X84440476Y-137204761D01*
X84345238Y-137252380D01*
X84059523Y-137252380D01*
X83964285Y-137204761D01*
X83916666Y-137157142D01*
%TO.C,D2*%
X62961904Y-137252380D02*
X62961904Y-136252380D01*
X63200000Y-136252380D01*
X63342857Y-136300000D01*
X63438095Y-136395238D01*
X63485714Y-136490476D01*
X63533333Y-136680952D01*
X63533333Y-136823809D01*
X63485714Y-137014285D01*
X63438095Y-137109523D01*
X63342857Y-137204761D01*
X63200000Y-137252380D01*
X62961904Y-137252380D01*
X63914285Y-136347619D02*
X63961904Y-136300000D01*
X64057142Y-136252380D01*
X64295238Y-136252380D01*
X64390476Y-136300000D01*
X64438095Y-136347619D01*
X64485714Y-136442857D01*
X64485714Y-136538095D01*
X64438095Y-136680952D01*
X63866666Y-137252380D01*
X64485714Y-137252380D01*
%TO.C,D1*%
X43061904Y-137352380D02*
X43061904Y-136352380D01*
X43300000Y-136352380D01*
X43442857Y-136400000D01*
X43538095Y-136495238D01*
X43585714Y-136590476D01*
X43633333Y-136780952D01*
X43633333Y-136923809D01*
X43585714Y-137114285D01*
X43538095Y-137209523D01*
X43442857Y-137304761D01*
X43300000Y-137352380D01*
X43061904Y-137352380D01*
X44585714Y-137352380D02*
X44014285Y-137352380D01*
X44300000Y-137352380D02*
X44300000Y-136352380D01*
X44204761Y-136495238D01*
X44109523Y-136590476D01*
X44014285Y-136638095D01*
D11*
%TO.C,U6*%
X136060000Y-121570000D02*
X136060000Y-103670000D01*
X131560000Y-121570000D02*
X136060000Y-121570000D01*
X136060000Y-103670000D02*
X134810000Y-103670000D01*
X132810000Y-103670000D02*
X131560000Y-103670000D01*
X131560000Y-103670000D02*
X131560000Y-121570000D01*
X132810000Y-103670000D02*
G75*
G03*
X134810000Y-103670000I1000000J0D01*
G01*
%TO.C,J3*%
X58200000Y-84800000D02*
X58200000Y-87750000D01*
X57150000Y-82250000D02*
X57150000Y-83500000D01*
X77550000Y-83300000D02*
X77550000Y-82550000D01*
X77550000Y-84800000D02*
X76800000Y-84800000D01*
X58400000Y-82250000D02*
X57150000Y-82250000D01*
X57450000Y-82550000D02*
X57450000Y-83300000D01*
X77550000Y-82550000D02*
X75750000Y-82550000D01*
X59250000Y-83300000D02*
X59250000Y-82550000D01*
X75750000Y-82550000D02*
X75750000Y-83300000D01*
X59250000Y-82550000D02*
X57450000Y-82550000D01*
X57440000Y-82540000D02*
X57440000Y-88510000D01*
X76800000Y-84800000D02*
X76800000Y-87750000D01*
X77560000Y-82540000D02*
X57440000Y-82540000D01*
X60750000Y-83300000D02*
X74250000Y-83300000D01*
X76800000Y-87750000D02*
X67500000Y-87750000D01*
X75750000Y-83300000D02*
X77550000Y-83300000D01*
X57440000Y-88510000D02*
X77560000Y-88510000D01*
X77560000Y-88510000D02*
X77560000Y-82540000D01*
X60750000Y-82550000D02*
X60750000Y-83300000D01*
X74250000Y-82550000D02*
X60750000Y-82550000D01*
X57450000Y-83300000D02*
X59250000Y-83300000D01*
X58200000Y-87750000D02*
X67500000Y-87750000D01*
X74250000Y-83300000D02*
X74250000Y-82550000D01*
X57450000Y-84800000D02*
X58200000Y-84800000D01*
%TO.C,U5*%
X114810000Y-103670000D02*
G75*
G03*
X116810000Y-103670000I1000000J0D01*
G01*
X113560000Y-103670000D02*
X113560000Y-121570000D01*
X114810000Y-103670000D02*
X113560000Y-103670000D01*
X118060000Y-103670000D02*
X116810000Y-103670000D01*
X113560000Y-121570000D02*
X118060000Y-121570000D01*
X118060000Y-121570000D02*
X118060000Y-103670000D01*
%TO.C,U4*%
X96810000Y-103670000D02*
G75*
G03*
X98810000Y-103670000I1000000J0D01*
G01*
X95560000Y-103670000D02*
X95560000Y-121570000D01*
X96810000Y-103670000D02*
X95560000Y-103670000D01*
X100060000Y-103670000D02*
X98810000Y-103670000D01*
X95560000Y-121570000D02*
X100060000Y-121570000D01*
X100060000Y-121570000D02*
X100060000Y-103670000D01*
%TO.C,U3*%
X78810000Y-103670000D02*
G75*
G03*
X80810000Y-103670000I1000000J0D01*
G01*
X77560000Y-103670000D02*
X77560000Y-121570000D01*
X78810000Y-103670000D02*
X77560000Y-103670000D01*
X82060000Y-103670000D02*
X80810000Y-103670000D01*
X77560000Y-121570000D02*
X82060000Y-121570000D01*
X82060000Y-121570000D02*
X82060000Y-103670000D01*
%TO.C,U2*%
X64060000Y-121570000D02*
X64060000Y-103670000D01*
X59560000Y-121570000D02*
X64060000Y-121570000D01*
X64060000Y-103670000D02*
X62810000Y-103670000D01*
X60810000Y-103670000D02*
X59560000Y-103670000D01*
X59560000Y-103670000D02*
X59560000Y-121570000D01*
X60810000Y-103670000D02*
G75*
G03*
X62810000Y-103670000I1000000J0D01*
G01*
%TO.C,U1*%
X46060000Y-121570000D02*
X46060000Y-103670000D01*
X41560000Y-121570000D02*
X46060000Y-121570000D01*
X46060000Y-103670000D02*
X44810000Y-103670000D01*
X42810000Y-103670000D02*
X41560000Y-103670000D01*
X41560000Y-103670000D02*
X41560000Y-121570000D01*
X42810000Y-103670000D02*
G75*
G03*
X44810000Y-103670000I1000000J0D01*
G01*
%TO.C,U0*%
X31405000Y-101170000D02*
X31405000Y-90930000D01*
X31405000Y-97900000D02*
X32915000Y-97900000D01*
X31405000Y-94199000D02*
X32915000Y-94199000D01*
X31405000Y-101170000D02*
X36046000Y-101170000D01*
X36046000Y-101170000D02*
X36046000Y-90930000D01*
X31405000Y-90930000D02*
X36046000Y-90930000D01*
X32915000Y-101170000D02*
X32915000Y-90930000D01*
D10*
%TO.C,SW6*%
X132460000Y-139200000D02*
X132460000Y-139900000D01*
X137540000Y-139200000D02*
X137540000Y-139900000D01*
X130875000Y-142000000D02*
X139125000Y-142000000D01*
X135000000Y-139200000D02*
X135000000Y-139900000D01*
X132460000Y-141750000D02*
X132460000Y-142000000D01*
X137540000Y-142000000D02*
X137540000Y-141750000D01*
X135000000Y-141750000D02*
X135000000Y-142000000D01*
X130875000Y-142000000D02*
X130875000Y-150000000D01*
X139125000Y-142000000D02*
X139125000Y-150000000D01*
X130875000Y-150005000D02*
X139125000Y-150005000D01*
%TO.C,SW5*%
X112460000Y-139200000D02*
X112460000Y-139900000D01*
X117540000Y-139200000D02*
X117540000Y-139900000D01*
X110875000Y-142000000D02*
X119125000Y-142000000D01*
X115000000Y-139200000D02*
X115000000Y-139900000D01*
X112460000Y-141750000D02*
X112460000Y-142000000D01*
X117540000Y-142000000D02*
X117540000Y-141750000D01*
X115000000Y-141750000D02*
X115000000Y-142000000D01*
X110875000Y-142000000D02*
X110875000Y-150000000D01*
X119125000Y-142000000D02*
X119125000Y-150000000D01*
X110875000Y-150005000D02*
X119125000Y-150005000D01*
%TO.C,SW4*%
X90875000Y-150005000D02*
X99125000Y-150005000D01*
X99125000Y-142000000D02*
X99125000Y-150000000D01*
X90875000Y-142000000D02*
X90875000Y-150000000D01*
X95000000Y-141750000D02*
X95000000Y-142000000D01*
X97540000Y-142000000D02*
X97540000Y-141750000D01*
X92460000Y-141750000D02*
X92460000Y-142000000D01*
X95000000Y-139200000D02*
X95000000Y-139900000D01*
X90875000Y-142000000D02*
X99125000Y-142000000D01*
X97540000Y-139200000D02*
X97540000Y-139900000D01*
X92460000Y-139200000D02*
X92460000Y-139900000D01*
%TO.C,SW3*%
X72460000Y-139200000D02*
X72460000Y-139900000D01*
X77540000Y-139200000D02*
X77540000Y-139900000D01*
X70875000Y-142000000D02*
X79125000Y-142000000D01*
X75000000Y-139200000D02*
X75000000Y-139900000D01*
X72460000Y-141750000D02*
X72460000Y-142000000D01*
X77540000Y-142000000D02*
X77540000Y-141750000D01*
X75000000Y-141750000D02*
X75000000Y-142000000D01*
X70875000Y-142000000D02*
X70875000Y-150000000D01*
X79125000Y-142000000D02*
X79125000Y-150000000D01*
X70875000Y-150005000D02*
X79125000Y-150005000D01*
%TO.C,SW2*%
X52460000Y-139200000D02*
X52460000Y-139900000D01*
X57540000Y-139200000D02*
X57540000Y-139900000D01*
X50875000Y-142000000D02*
X59125000Y-142000000D01*
X55000000Y-139200000D02*
X55000000Y-139900000D01*
X52460000Y-141750000D02*
X52460000Y-142000000D01*
X57540000Y-142000000D02*
X57540000Y-141750000D01*
X55000000Y-141750000D02*
X55000000Y-142000000D01*
X50875000Y-142000000D02*
X50875000Y-150000000D01*
X59125000Y-142000000D02*
X59125000Y-150000000D01*
X50875000Y-150005000D02*
X59125000Y-150005000D01*
%TO.C,SW1*%
X30875000Y-150005000D02*
X39125000Y-150005000D01*
X39125000Y-142000000D02*
X39125000Y-150000000D01*
X30875000Y-142000000D02*
X30875000Y-150000000D01*
X35000000Y-141750000D02*
X35000000Y-142000000D01*
X37540000Y-142000000D02*
X37540000Y-141750000D01*
X32460000Y-141750000D02*
X32460000Y-142000000D01*
X35000000Y-139200000D02*
X35000000Y-139900000D01*
X30875000Y-142000000D02*
X39125000Y-142000000D01*
X37540000Y-139200000D02*
X37540000Y-139900000D01*
X32460000Y-139200000D02*
X32460000Y-139900000D01*
D11*
%TO.C,R99*%
X43386000Y-95700000D02*
X52626000Y-95700000D01*
X43386000Y-92260000D02*
X43386000Y-95700000D01*
X52626000Y-92260000D02*
X43386000Y-92260000D01*
X41426000Y-93980000D02*
X43386000Y-93980000D01*
X52626000Y-95700000D02*
X52626000Y-92260000D01*
X54586000Y-93980000D02*
X52626000Y-93980000D01*
%TO.C,R98*%
X54560000Y-98620000D02*
X52600000Y-98620000D01*
X52600000Y-100340000D02*
X52600000Y-96900000D01*
X41400000Y-98620000D02*
X43360000Y-98620000D01*
X52600000Y-96900000D02*
X43360000Y-96900000D01*
X43360000Y-96900000D02*
X43360000Y-100340000D01*
X43360000Y-100340000D02*
X52600000Y-100340000D01*
%TO.C,R6*%
X134000000Y-131720000D02*
X143240000Y-131720000D01*
X134000000Y-128280000D02*
X134000000Y-131720000D01*
X143240000Y-128280000D02*
X134000000Y-128280000D01*
X132040000Y-130000000D02*
X134000000Y-130000000D01*
X143240000Y-131720000D02*
X143240000Y-128280000D01*
X145200000Y-130000000D02*
X143240000Y-130000000D01*
%TO.C,R5*%
X125200000Y-130000000D02*
X123240000Y-130000000D01*
X123240000Y-131720000D02*
X123240000Y-128280000D01*
X112040000Y-130000000D02*
X114000000Y-130000000D01*
X123240000Y-128280000D02*
X114000000Y-128280000D01*
X114000000Y-128280000D02*
X114000000Y-131720000D01*
X114000000Y-131720000D02*
X123240000Y-131720000D01*
%TO.C,R4*%
X105200000Y-130000000D02*
X103240000Y-130000000D01*
X103240000Y-131720000D02*
X103240000Y-128280000D01*
X92040000Y-130000000D02*
X94000000Y-130000000D01*
X103240000Y-128280000D02*
X94000000Y-128280000D01*
X94000000Y-128280000D02*
X94000000Y-131720000D01*
X94000000Y-131720000D02*
X103240000Y-131720000D01*
%TO.C,R3*%
X85200000Y-130000000D02*
X83240000Y-130000000D01*
X83240000Y-131720000D02*
X83240000Y-128280000D01*
X72040000Y-130000000D02*
X74000000Y-130000000D01*
X83240000Y-128280000D02*
X74000000Y-128280000D01*
X74000000Y-128280000D02*
X74000000Y-131720000D01*
X74000000Y-131720000D02*
X83240000Y-131720000D01*
%TO.C,R2*%
X65200000Y-130000000D02*
X63240000Y-130000000D01*
X63240000Y-131720000D02*
X63240000Y-128280000D01*
X52040000Y-130000000D02*
X54000000Y-130000000D01*
X63240000Y-128280000D02*
X54000000Y-128280000D01*
X54000000Y-128280000D02*
X54000000Y-131720000D01*
X54000000Y-131720000D02*
X63240000Y-131720000D01*
%TO.C,R1*%
X45200000Y-130000000D02*
X43240000Y-130000000D01*
X43240000Y-131720000D02*
X43240000Y-128280000D01*
X32040000Y-130000000D02*
X34000000Y-130000000D01*
X43240000Y-128280000D02*
X34000000Y-128280000D01*
X34000000Y-128280000D02*
X34000000Y-131720000D01*
X34000000Y-131720000D02*
X43240000Y-131720000D01*
%TO.C,J9*%
X125700000Y-84800000D02*
X125700000Y-87750000D01*
X124650000Y-82250000D02*
X124650000Y-83500000D01*
X145050000Y-83300000D02*
X145050000Y-82550000D01*
X145050000Y-84800000D02*
X144300000Y-84800000D01*
X125900000Y-82250000D02*
X124650000Y-82250000D01*
X124950000Y-82550000D02*
X124950000Y-83300000D01*
X145050000Y-82550000D02*
X143250000Y-82550000D01*
X126750000Y-83300000D02*
X126750000Y-82550000D01*
X143250000Y-82550000D02*
X143250000Y-83300000D01*
X126750000Y-82550000D02*
X124950000Y-82550000D01*
X124940000Y-82540000D02*
X124940000Y-88510000D01*
X144300000Y-84800000D02*
X144300000Y-87750000D01*
X145060000Y-82540000D02*
X124940000Y-82540000D01*
X128250000Y-83300000D02*
X141750000Y-83300000D01*
X144300000Y-87750000D02*
X135000000Y-87750000D01*
X143250000Y-83300000D02*
X145050000Y-83300000D01*
X124940000Y-88510000D02*
X145060000Y-88510000D01*
X145060000Y-88510000D02*
X145060000Y-82540000D01*
X128250000Y-82550000D02*
X128250000Y-83300000D01*
X141750000Y-82550000D02*
X128250000Y-82550000D01*
X124950000Y-83300000D02*
X126750000Y-83300000D01*
X125700000Y-87750000D02*
X135000000Y-87750000D01*
X141750000Y-83300000D02*
X141750000Y-82550000D01*
X124950000Y-84800000D02*
X125700000Y-84800000D01*
%TO.C,J8*%
X125700000Y-94800000D02*
X125700000Y-97750000D01*
X124650000Y-92250000D02*
X124650000Y-93500000D01*
X145050000Y-93300000D02*
X145050000Y-92550000D01*
X145050000Y-94800000D02*
X144300000Y-94800000D01*
X125900000Y-92250000D02*
X124650000Y-92250000D01*
X124950000Y-92550000D02*
X124950000Y-93300000D01*
X145050000Y-92550000D02*
X143250000Y-92550000D01*
X126750000Y-93300000D02*
X126750000Y-92550000D01*
X143250000Y-92550000D02*
X143250000Y-93300000D01*
X126750000Y-92550000D02*
X124950000Y-92550000D01*
X124940000Y-92540000D02*
X124940000Y-98510000D01*
X144300000Y-94800000D02*
X144300000Y-97750000D01*
X145060000Y-92540000D02*
X124940000Y-92540000D01*
X128250000Y-93300000D02*
X141750000Y-93300000D01*
X144300000Y-97750000D02*
X135000000Y-97750000D01*
X143250000Y-93300000D02*
X145050000Y-93300000D01*
X124940000Y-98510000D02*
X145060000Y-98510000D01*
X145060000Y-98510000D02*
X145060000Y-92540000D01*
X128250000Y-92550000D02*
X128250000Y-93300000D01*
X141750000Y-92550000D02*
X128250000Y-92550000D01*
X124950000Y-93300000D02*
X126750000Y-93300000D01*
X125700000Y-97750000D02*
X135000000Y-97750000D01*
X141750000Y-93300000D02*
X141750000Y-92550000D01*
X124950000Y-94800000D02*
X125700000Y-94800000D01*
%TO.C,J7*%
X103200000Y-84800000D02*
X103200000Y-87750000D01*
X102150000Y-82250000D02*
X102150000Y-83500000D01*
X122550000Y-83300000D02*
X122550000Y-82550000D01*
X122550000Y-84800000D02*
X121800000Y-84800000D01*
X103400000Y-82250000D02*
X102150000Y-82250000D01*
X102450000Y-82550000D02*
X102450000Y-83300000D01*
X122550000Y-82550000D02*
X120750000Y-82550000D01*
X104250000Y-83300000D02*
X104250000Y-82550000D01*
X120750000Y-82550000D02*
X120750000Y-83300000D01*
X104250000Y-82550000D02*
X102450000Y-82550000D01*
X102440000Y-82540000D02*
X102440000Y-88510000D01*
X121800000Y-84800000D02*
X121800000Y-87750000D01*
X122560000Y-82540000D02*
X102440000Y-82540000D01*
X105750000Y-83300000D02*
X119250000Y-83300000D01*
X121800000Y-87750000D02*
X112500000Y-87750000D01*
X120750000Y-83300000D02*
X122550000Y-83300000D01*
X102440000Y-88510000D02*
X122560000Y-88510000D01*
X122560000Y-88510000D02*
X122560000Y-82540000D01*
X105750000Y-82550000D02*
X105750000Y-83300000D01*
X119250000Y-82550000D02*
X105750000Y-82550000D01*
X102450000Y-83300000D02*
X104250000Y-83300000D01*
X103200000Y-87750000D02*
X112500000Y-87750000D01*
X119250000Y-83300000D02*
X119250000Y-82550000D01*
X102450000Y-84800000D02*
X103200000Y-84800000D01*
%TO.C,J6*%
X103200000Y-94800000D02*
X103200000Y-97750000D01*
X102150000Y-92250000D02*
X102150000Y-93500000D01*
X122550000Y-93300000D02*
X122550000Y-92550000D01*
X122550000Y-94800000D02*
X121800000Y-94800000D01*
X103400000Y-92250000D02*
X102150000Y-92250000D01*
X102450000Y-92550000D02*
X102450000Y-93300000D01*
X122550000Y-92550000D02*
X120750000Y-92550000D01*
X104250000Y-93300000D02*
X104250000Y-92550000D01*
X120750000Y-92550000D02*
X120750000Y-93300000D01*
X104250000Y-92550000D02*
X102450000Y-92550000D01*
X102440000Y-92540000D02*
X102440000Y-98510000D01*
X121800000Y-94800000D02*
X121800000Y-97750000D01*
X122560000Y-92540000D02*
X102440000Y-92540000D01*
X105750000Y-93300000D02*
X119250000Y-93300000D01*
X121800000Y-97750000D02*
X112500000Y-97750000D01*
X120750000Y-93300000D02*
X122550000Y-93300000D01*
X102440000Y-98510000D02*
X122560000Y-98510000D01*
X122560000Y-98510000D02*
X122560000Y-92540000D01*
X105750000Y-92550000D02*
X105750000Y-93300000D01*
X119250000Y-92550000D02*
X105750000Y-92550000D01*
X102450000Y-93300000D02*
X104250000Y-93300000D01*
X103200000Y-97750000D02*
X112500000Y-97750000D01*
X119250000Y-93300000D02*
X119250000Y-92550000D01*
X102450000Y-94800000D02*
X103200000Y-94800000D01*
%TO.C,J5*%
X80700000Y-84800000D02*
X80700000Y-87750000D01*
X79650000Y-82250000D02*
X79650000Y-83500000D01*
X100050000Y-83300000D02*
X100050000Y-82550000D01*
X100050000Y-84800000D02*
X99300000Y-84800000D01*
X80900000Y-82250000D02*
X79650000Y-82250000D01*
X79950000Y-82550000D02*
X79950000Y-83300000D01*
X100050000Y-82550000D02*
X98250000Y-82550000D01*
X81750000Y-83300000D02*
X81750000Y-82550000D01*
X98250000Y-82550000D02*
X98250000Y-83300000D01*
X81750000Y-82550000D02*
X79950000Y-82550000D01*
X79940000Y-82540000D02*
X79940000Y-88510000D01*
X99300000Y-84800000D02*
X99300000Y-87750000D01*
X100060000Y-82540000D02*
X79940000Y-82540000D01*
X83250000Y-83300000D02*
X96750000Y-83300000D01*
X99300000Y-87750000D02*
X90000000Y-87750000D01*
X98250000Y-83300000D02*
X100050000Y-83300000D01*
X79940000Y-88510000D02*
X100060000Y-88510000D01*
X100060000Y-88510000D02*
X100060000Y-82540000D01*
X83250000Y-82550000D02*
X83250000Y-83300000D01*
X96750000Y-82550000D02*
X83250000Y-82550000D01*
X79950000Y-83300000D02*
X81750000Y-83300000D01*
X80700000Y-87750000D02*
X90000000Y-87750000D01*
X96750000Y-83300000D02*
X96750000Y-82550000D01*
X79950000Y-84800000D02*
X80700000Y-84800000D01*
%TO.C,J4*%
X80700000Y-94800000D02*
X80700000Y-97750000D01*
X79650000Y-92250000D02*
X79650000Y-93500000D01*
X100050000Y-93300000D02*
X100050000Y-92550000D01*
X100050000Y-94800000D02*
X99300000Y-94800000D01*
X80900000Y-92250000D02*
X79650000Y-92250000D01*
X79950000Y-92550000D02*
X79950000Y-93300000D01*
X100050000Y-92550000D02*
X98250000Y-92550000D01*
X81750000Y-93300000D02*
X81750000Y-92550000D01*
X98250000Y-92550000D02*
X98250000Y-93300000D01*
X81750000Y-92550000D02*
X79950000Y-92550000D01*
X79940000Y-92540000D02*
X79940000Y-98510000D01*
X99300000Y-94800000D02*
X99300000Y-97750000D01*
X100060000Y-92540000D02*
X79940000Y-92540000D01*
X83250000Y-93300000D02*
X96750000Y-93300000D01*
X99300000Y-97750000D02*
X90000000Y-97750000D01*
X98250000Y-93300000D02*
X100050000Y-93300000D01*
X79940000Y-98510000D02*
X100060000Y-98510000D01*
X100060000Y-98510000D02*
X100060000Y-92540000D01*
X83250000Y-92550000D02*
X83250000Y-93300000D01*
X96750000Y-92550000D02*
X83250000Y-92550000D01*
X79950000Y-93300000D02*
X81750000Y-93300000D01*
X80700000Y-97750000D02*
X90000000Y-97750000D01*
X96750000Y-93300000D02*
X96750000Y-92550000D01*
X79950000Y-94800000D02*
X80700000Y-94800000D01*
D10*
%TO.C,J2*%
X41259660Y-75078890D02*
X41259660Y-89480690D01*
X56860340Y-75078890D02*
X41259660Y-75078890D01*
X56860340Y-89480690D02*
X56860340Y-75078890D01*
X41259660Y-89480690D02*
X56860340Y-89480690D01*
X43560900Y-67580810D02*
X43560900Y-75078890D01*
X54559100Y-67580810D02*
X43560900Y-67580810D01*
X54559100Y-75078890D02*
X54559100Y-67580810D01*
X44259400Y-55579310D02*
X44259400Y-67580810D01*
X53860600Y-55579310D02*
X44259400Y-55579310D01*
X53860600Y-67580810D02*
X53860600Y-55579310D01*
X50060760Y-59579810D02*
G75*
G03*
X50060760Y-59579810I-1000760J0D01*
G01*
X43560900Y-74479450D02*
X54559100Y-73679350D01*
X43560900Y-73679350D02*
X54559100Y-72879250D01*
X43560900Y-72879250D02*
X54559100Y-72079150D01*
X43560900Y-72079150D02*
X54559100Y-71279050D01*
X43560900Y-71279050D02*
X54559100Y-70478950D01*
X43560900Y-70478950D02*
X54559100Y-69678850D01*
D11*
%TO.C,J1*%
X41087500Y-85170000D02*
X41087500Y-86220000D01*
X40037500Y-86220000D02*
X41087500Y-86220000D01*
X31687500Y-80120000D02*
X31687500Y-71320000D01*
X40887500Y-86020000D02*
X38287500Y-86020000D01*
X34387500Y-86020000D02*
X31687500Y-86020000D01*
X31687500Y-86020000D02*
X31687500Y-84120000D01*
X31687500Y-71320000D02*
X40887500Y-71320000D01*
X40887500Y-71320000D02*
X40887500Y-86020000D01*
%TO.C,D6*%
X145290000Y-141236000D02*
X145290000Y-141080000D01*
X145290000Y-138920000D02*
X145290000Y-138764000D01*
X142688870Y-141079837D02*
G75*
G03*
X144770961Y-141080000I1041130J1079837D01*
G01*
X145290000Y-138764484D02*
G75*
G03*
X142057665Y-138921392I-1560000J-1235516D01*
G01*
X144770961Y-138920000D02*
G75*
G03*
X142688870Y-138920163I-1040961J-1080000D01*
G01*
X142057665Y-141078608D02*
G75*
G03*
X145290000Y-141235516I1672335J1078608D01*
G01*
%TO.C,D5*%
X125290000Y-141236000D02*
X125290000Y-141080000D01*
X125290000Y-138920000D02*
X125290000Y-138764000D01*
X122688870Y-141079837D02*
G75*
G03*
X124770961Y-141080000I1041130J1079837D01*
G01*
X125290000Y-138764484D02*
G75*
G03*
X122057665Y-138921392I-1560000J-1235516D01*
G01*
X124770961Y-138920000D02*
G75*
G03*
X122688870Y-138920163I-1040961J-1080000D01*
G01*
X122057665Y-141078608D02*
G75*
G03*
X125290000Y-141235516I1672335J1078608D01*
G01*
%TO.C,D4*%
X105290000Y-141236000D02*
X105290000Y-141080000D01*
X105290000Y-138920000D02*
X105290000Y-138764000D01*
X102688870Y-141079837D02*
G75*
G03*
X104770961Y-141080000I1041130J1079837D01*
G01*
X105290000Y-138764484D02*
G75*
G03*
X102057665Y-138921392I-1560000J-1235516D01*
G01*
X104770961Y-138920000D02*
G75*
G03*
X102688870Y-138920163I-1040961J-1080000D01*
G01*
X102057665Y-141078608D02*
G75*
G03*
X105290000Y-141235516I1672335J1078608D01*
G01*
%TO.C,D3*%
X85290000Y-141236000D02*
X85290000Y-141080000D01*
X85290000Y-138920000D02*
X85290000Y-138764000D01*
X82688870Y-141079837D02*
G75*
G03*
X84770961Y-141080000I1041130J1079837D01*
G01*
X85290000Y-138764484D02*
G75*
G03*
X82057665Y-138921392I-1560000J-1235516D01*
G01*
X84770961Y-138920000D02*
G75*
G03*
X82688870Y-138920163I-1040961J-1080000D01*
G01*
X82057665Y-141078608D02*
G75*
G03*
X85290000Y-141235516I1672335J1078608D01*
G01*
%TO.C,D2*%
X65290000Y-141236000D02*
X65290000Y-141080000D01*
X65290000Y-138920000D02*
X65290000Y-138764000D01*
X62688870Y-141079837D02*
G75*
G03*
X64770961Y-141080000I1041130J1079837D01*
G01*
X65290000Y-138764484D02*
G75*
G03*
X62057665Y-138921392I-1560000J-1235516D01*
G01*
X64770961Y-138920000D02*
G75*
G03*
X62688870Y-138920163I-1040961J-1080000D01*
G01*
X62057665Y-141078608D02*
G75*
G03*
X65290000Y-141235516I1672335J1078608D01*
G01*
%TO.C,D1*%
X45290000Y-141236000D02*
X45290000Y-141080000D01*
X45290000Y-138920000D02*
X45290000Y-138764000D01*
X42688870Y-141079837D02*
G75*
G03*
X44770961Y-141080000I1041130J1079837D01*
G01*
X45290000Y-138764484D02*
G75*
G03*
X42057665Y-138921392I-1560000J-1235516D01*
G01*
X44770961Y-138920000D02*
G75*
G03*
X42688870Y-138920163I-1040961J-1080000D01*
G01*
X42057665Y-141078608D02*
G75*
G03*
X45290000Y-141235516I1672335J1078608D01*
G01*
%TD*%
M02*
